ISO-10303-21;
HEADER;
/* Generated by software containing ST-Developer
 * from STEP Tools, Inc. (www.steptools.com) 
 */
/* OPTION: using custom renumber hook */

FILE_DESCRIPTION(
/* description */ ('STEP AP242 Edition 2',
'CAx-IF Rec.Pracs.---Representation and Presentation of Product Manufa
cturing Information (PMI)---4.0---2014-10-13',
'CAx-IF Rec.Pracs.---3D Tessellated Geometry---0.4---2014-09-14','2;1',
'CAx-IF Rec.Pracs.---User Defined Attributes---1.5---2016-08-15'),
/* implementation_level */ '2;1');

FILE_NAME(
/* name */ 'Assembly 1 - Joint 2',
/* time_stamp */ '2026-06-23T19:13:02Z',
/* author */ (''),
/* organization */ (''),
/* preprocessor_version */ 'ST-DEVELOPER v20',
/* originating_system */ 'ONSHAPE BY PTC INC, 1.216',
/* authorisation */ '  ');

FILE_SCHEMA (('AP242_MANAGED_MODEL_BASED_3D_ENGINEERING_MIM_LF { 1 0 10303 442 3 1 4 }'));
ENDSEC;

DATA;
#10=SHAPE_REPRESENTATION_RELATIONSHIP('','',#488,#11);
#11=ADVANCED_BREP_SHAPE_REPRESENTATION('',(#486),#817);
#12=LINE('',#696,#50);
#13=LINE('',#699,#51);
#14=LINE('',#701,#52);
#15=LINE('',#703,#53);
#16=LINE('',#705,#54);
#17=LINE('',#707,#55);
#18=LINE('',#712,#56);
#19=LINE('',#715,#57);
#20=LINE('',#716,#58);
#21=LINE('',#718,#59);
#22=LINE('',#720,#60);
#23=LINE('',#722,#61);
#24=LINE('',#724,#62);
#25=LINE('',#726,#63);
#26=LINE('',#728,#64);
#27=LINE('',#730,#65);
#28=LINE('',#732,#66);
#29=LINE('',#734,#67);
#30=LINE('',#736,#68);
#31=LINE('',#741,#69);
#32=LINE('',#748,#70);
#33=LINE('',#752,#71);
#34=LINE('',#756,#72);
#35=LINE('',#759,#73);
#36=LINE('',#761,#74);
#37=LINE('',#765,#75);
#38=LINE('',#769,#76);
#39=LINE('',#771,#77);
#40=LINE('',#774,#78);
#41=LINE('',#775,#79);
#42=LINE('',#779,#80);
#43=LINE('',#785,#81);
#44=LINE('',#792,#82);
#45=LINE('',#793,#83);
#46=LINE('',#795,#84);
#47=LINE('',#797,#85);
#48=LINE('',#799,#86);
#49=LINE('',#802,#87);
#50=VECTOR('',#559,1.);
#51=VECTOR('',#560,1.);
#52=VECTOR('',#561,1.);
#53=VECTOR('',#562,1.);
#54=VECTOR('',#563,1.);
#55=VECTOR('',#564,1.);
#56=VECTOR('',#571,1.);
#57=VECTOR('',#572,1.);
#58=VECTOR('',#573,1.);
#59=VECTOR('',#576,1.);
#60=VECTOR('',#577,1.);
#61=VECTOR('',#580,1.);
#62=VECTOR('',#581,1.);
#63=VECTOR('',#584,1.);
#64=VECTOR('',#585,1.);
#65=VECTOR('',#588,1.);
#66=VECTOR('',#589,1.);
#67=VECTOR('',#592,1.);
#68=VECTOR('',#595,1.);
#69=VECTOR('',#598,1.);
#70=VECTOR('',#607,1.);
#71=VECTOR('',#610,1.);
#72=VECTOR('',#613,1.);
#73=VECTOR('',#618,1.);
#74=VECTOR('',#619,1.);
#75=VECTOR('',#622,1.);
#76=VECTOR('',#625,1.);
#77=VECTOR('',#628,1.);
#78=VECTOR('',#629,1.);
#79=VECTOR('',#630,1.);
#80=VECTOR('',#633,1.);
#81=VECTOR('',#640,1.);
#82=VECTOR('',#649,1.);
#83=VECTOR('',#650,1.);
#84=VECTOR('',#653,1.);
#85=VECTOR('',#654,1.);
#86=VECTOR('',#655,1.);
#87=VECTOR('',#660,1.);
#88=CYLINDRICAL_SURFACE('',#493,0.00215);
#89=CYLINDRICAL_SURFACE('',#495,0.0037);
#90=CYLINDRICAL_SURFACE('',#506,0.0075);
#91=CYLINDRICAL_SURFACE('',#509,0.0053);
#92=CYLINDRICAL_SURFACE('',#531,0.00215);
#93=CYLINDRICAL_SURFACE('',#532,0.003);
#94=CYLINDRICAL_SURFACE('',#534,0.00450693909432999);
#95=CYLINDRICAL_SURFACE('',#537,0.0055);
#96=CYLINDRICAL_SURFACE('',#538,0.0055);
#97=CYLINDRICAL_SURFACE('',#539,0.002);
#98=CYLINDRICAL_SURFACE('',#540,0.002);
#99=ORIENTED_EDGE('',*,*,#219,.T.);
#100=ORIENTED_EDGE('',*,*,#220,.F.);
#101=ORIENTED_EDGE('',*,*,#219,.F.);
#102=ORIENTED_EDGE('',*,*,#221,.T.);
#103=ORIENTED_EDGE('',*,*,#220,.T.);
#104=ORIENTED_EDGE('',*,*,#222,.F.);
#105=ORIENTED_EDGE('',*,*,#221,.F.);
#106=ORIENTED_EDGE('',*,*,#223,.T.);
#107=ORIENTED_EDGE('',*,*,#224,.T.);
#108=ORIENTED_EDGE('',*,*,#225,.T.);
#109=ORIENTED_EDGE('',*,*,#226,.T.);
#110=ORIENTED_EDGE('',*,*,#227,.T.);
#111=ORIENTED_EDGE('',*,*,#228,.T.);
#112=ORIENTED_EDGE('',*,*,#222,.T.);
#113=ORIENTED_EDGE('',*,*,#229,.F.);
#114=ORIENTED_EDGE('',*,*,#230,.T.);
#115=ORIENTED_EDGE('',*,*,#231,.F.);
#116=ORIENTED_EDGE('',*,*,#224,.F.);
#117=ORIENTED_EDGE('',*,*,#232,.T.);
#118=ORIENTED_EDGE('',*,*,#233,.T.);
#119=ORIENTED_EDGE('',*,*,#234,.F.);
#120=ORIENTED_EDGE('',*,*,#225,.F.);
#121=ORIENTED_EDGE('',*,*,#231,.T.);
#122=ORIENTED_EDGE('',*,*,#235,.T.);
#123=ORIENTED_EDGE('',*,*,#236,.F.);
#124=ORIENTED_EDGE('',*,*,#226,.F.);
#125=ORIENTED_EDGE('',*,*,#234,.T.);
#126=ORIENTED_EDGE('',*,*,#237,.T.);
#127=ORIENTED_EDGE('',*,*,#238,.F.);
#128=ORIENTED_EDGE('',*,*,#227,.F.);
#129=ORIENTED_EDGE('',*,*,#236,.T.);
#130=ORIENTED_EDGE('',*,*,#239,.T.);
#131=ORIENTED_EDGE('',*,*,#240,.F.);
#132=ORIENTED_EDGE('',*,*,#228,.F.);
#133=ORIENTED_EDGE('',*,*,#238,.T.);
#134=ORIENTED_EDGE('',*,*,#241,.T.);
#135=ORIENTED_EDGE('',*,*,#232,.F.);
#136=ORIENTED_EDGE('',*,*,#223,.F.);
#137=ORIENTED_EDGE('',*,*,#240,.T.);
#138=ORIENTED_EDGE('',*,*,#242,.F.);
#139=ORIENTED_EDGE('',*,*,#243,.T.);
#140=ORIENTED_EDGE('',*,*,#244,.T.);
#141=ORIENTED_EDGE('',*,*,#245,.F.);
#142=ORIENTED_EDGE('',*,*,#246,.F.);
#143=ORIENTED_EDGE('',*,*,#229,.T.);
#144=ORIENTED_EDGE('',*,*,#246,.T.);
#145=ORIENTED_EDGE('',*,*,#247,.T.);
#146=ORIENTED_EDGE('',*,*,#248,.T.);
#147=ORIENTED_EDGE('',*,*,#249,.T.);
#148=ORIENTED_EDGE('',*,*,#250,.T.);
#149=ORIENTED_EDGE('',*,*,#251,.T.);
#150=ORIENTED_EDGE('',*,*,#243,.F.);
#151=ORIENTED_EDGE('',*,*,#251,.F.);
#152=ORIENTED_EDGE('',*,*,#252,.F.);
#153=ORIENTED_EDGE('',*,*,#253,.T.);
#154=ORIENTED_EDGE('',*,*,#254,.F.);
#155=ORIENTED_EDGE('',*,*,#255,.T.);
#156=ORIENTED_EDGE('',*,*,#256,.T.);
#157=ORIENTED_EDGE('',*,*,#257,.T.);
#158=ORIENTED_EDGE('',*,*,#258,.T.);
#159=ORIENTED_EDGE('',*,*,#244,.F.);
#160=ORIENTED_EDGE('',*,*,#259,.F.);
#161=ORIENTED_EDGE('',*,*,#260,.T.);
#162=ORIENTED_EDGE('',*,*,#247,.F.);
#163=ORIENTED_EDGE('',*,*,#242,.T.);
#164=ORIENTED_EDGE('',*,*,#261,.T.);
#165=ORIENTED_EDGE('',*,*,#262,.T.);
#166=ORIENTED_EDGE('',*,*,#263,.F.);
#167=ORIENTED_EDGE('',*,*,#264,.T.);
#168=ORIENTED_EDGE('',*,*,#265,.F.);
#169=ORIENTED_EDGE('',*,*,#258,.F.);
#170=ORIENTED_EDGE('',*,*,#266,.T.);
#171=ORIENTED_EDGE('',*,*,#261,.F.);
#172=ORIENTED_EDGE('',*,*,#245,.T.);
#173=ORIENTED_EDGE('',*,*,#241,.F.);
#174=ORIENTED_EDGE('',*,*,#239,.F.);
#175=ORIENTED_EDGE('',*,*,#237,.F.);
#176=ORIENTED_EDGE('',*,*,#235,.F.);
#177=ORIENTED_EDGE('',*,*,#233,.F.);
#178=ORIENTED_EDGE('',*,*,#230,.F.);
#179=ORIENTED_EDGE('',*,*,#267,.T.);
#180=ORIENTED_EDGE('',*,*,#268,.T.);
#181=ORIENTED_EDGE('',*,*,#256,.F.);
#182=ORIENTED_EDGE('',*,*,#269,.T.);
#183=ORIENTED_EDGE('',*,*,#263,.T.);
#184=ORIENTED_EDGE('',*,*,#270,.T.);
#185=ORIENTED_EDGE('',*,*,#249,.F.);
#186=ORIENTED_EDGE('',*,*,#271,.T.);
#187=ORIENTED_EDGE('',*,*,#272,.T.);
#188=ORIENTED_EDGE('',*,*,#273,.T.);
#189=ORIENTED_EDGE('',*,*,#272,.F.);
#190=ORIENTED_EDGE('',*,*,#274,.T.);
#191=ORIENTED_EDGE('',*,*,#259,.T.);
#192=ORIENTED_EDGE('',*,*,#275,.T.);
#193=ORIENTED_EDGE('',*,*,#254,.T.);
#194=ORIENTED_EDGE('',*,*,#276,.T.);
#195=ORIENTED_EDGE('',*,*,#267,.F.);
#196=ORIENTED_EDGE('',*,*,#265,.T.);
#197=ORIENTED_EDGE('',*,*,#277,.T.);
#198=ORIENTED_EDGE('',*,*,#268,.F.);
#199=ORIENTED_EDGE('',*,*,#278,.F.);
#200=ORIENTED_EDGE('',*,*,#252,.T.);
#201=ORIENTED_EDGE('',*,*,#277,.F.);
#202=ORIENTED_EDGE('',*,*,#278,.T.);
#203=ORIENTED_EDGE('',*,*,#264,.F.);
#204=ORIENTED_EDGE('',*,*,#269,.F.);
#205=ORIENTED_EDGE('',*,*,#255,.F.);
#206=ORIENTED_EDGE('',*,*,#275,.F.);
#207=ORIENTED_EDGE('',*,*,#262,.F.);
#208=ORIENTED_EDGE('',*,*,#266,.F.);
#209=ORIENTED_EDGE('',*,*,#257,.F.);
#210=ORIENTED_EDGE('',*,*,#270,.F.);
#211=ORIENTED_EDGE('',*,*,#274,.F.);
#212=ORIENTED_EDGE('',*,*,#271,.F.);
#213=ORIENTED_EDGE('',*,*,#248,.F.);
#214=ORIENTED_EDGE('',*,*,#260,.F.);
#215=ORIENTED_EDGE('',*,*,#276,.F.);
#216=ORIENTED_EDGE('',*,*,#253,.F.);
#217=ORIENTED_EDGE('',*,*,#250,.F.);
#218=ORIENTED_EDGE('',*,*,#273,.F.);
#219=EDGE_CURVE('',#279,#279,#322,.T.);
#220=EDGE_CURVE('',#280,#280,#323,.T.);
#221=EDGE_CURVE('',#281,#281,#324,.T.);
#222=EDGE_CURVE('',#282,#282,#325,.T.);
#223=EDGE_CURVE('',#283,#284,#12,.T.);
#224=EDGE_CURVE('',#284,#285,#13,.T.);
#225=EDGE_CURVE('',#285,#286,#14,.T.);
#226=EDGE_CURVE('',#286,#287,#15,.T.);
#227=EDGE_CURVE('',#287,#288,#16,.T.);
#228=EDGE_CURVE('',#288,#283,#17,.T.);
#229=EDGE_CURVE('',#289,#289,#326,.T.);
#230=EDGE_CURVE('',#290,#291,#18,.T.);
#231=EDGE_CURVE('',#285,#291,#19,.T.);
#232=EDGE_CURVE('',#284,#290,#20,.T.);
#233=EDGE_CURVE('',#291,#292,#21,.T.);
#234=EDGE_CURVE('',#286,#292,#22,.T.);
#235=EDGE_CURVE('',#292,#293,#23,.T.);
#236=EDGE_CURVE('',#287,#293,#24,.T.);
#237=EDGE_CURVE('',#293,#294,#25,.T.);
#238=EDGE_CURVE('',#288,#294,#26,.T.);
#239=EDGE_CURVE('',#294,#295,#27,.T.);
#240=EDGE_CURVE('',#283,#295,#28,.T.);
#241=EDGE_CURVE('',#295,#290,#29,.T.);
#242=EDGE_CURVE('',#296,#297,#30,.T.);
#243=EDGE_CURVE('',#296,#298,#327,.T.);
#244=EDGE_CURVE('',#298,#299,#31,.T.);
#245=EDGE_CURVE('',#297,#299,#328,.T.);
#246=EDGE_CURVE('',#300,#300,#329,.T.);
#247=EDGE_CURVE('',#296,#301,#32,.T.);
#248=EDGE_CURVE('',#301,#302,#330,.T.);
#249=EDGE_CURVE('',#302,#303,#33,.T.);
#250=EDGE_CURVE('',#303,#304,#331,.T.);
#251=EDGE_CURVE('',#304,#298,#34,.T.);
#252=EDGE_CURVE('',#304,#304,#332,.F.);
#253=EDGE_CURVE('',#304,#305,#35,.F.);
#254=EDGE_CURVE('',#306,#305,#36,.T.);
#255=EDGE_CURVE('',#306,#307,#333,.F.);
#256=EDGE_CURVE('',#307,#308,#37,.T.);
#257=EDGE_CURVE('',#308,#309,#334,.F.);
#258=EDGE_CURVE('',#309,#299,#38,.T.);
#259=EDGE_CURVE('',#310,#311,#39,.T.);
#260=EDGE_CURVE('',#310,#301,#40,.T.);
#261=EDGE_CURVE('',#297,#312,#41,.T.);
#262=EDGE_CURVE('',#312,#313,#335,.F.);
#263=EDGE_CURVE('',#314,#313,#42,.T.);
#264=EDGE_CURVE('',#314,#311,#336,.F.);
#265=EDGE_CURVE('',#315,#315,#337,.T.);
#266=EDGE_CURVE('',#309,#312,#43,.F.);
#267=EDGE_CURVE('',#316,#316,#338,.T.);
#268=EDGE_CURVE('',#317,#317,#339,.T.);
#269=EDGE_CURVE('',#307,#314,#44,.F.);
#270=EDGE_CURVE('',#313,#308,#45,.T.);
#271=EDGE_CURVE('',#302,#318,#46,.F.);
#272=EDGE_CURVE('',#318,#319,#47,.T.);
#273=EDGE_CURVE('',#319,#303,#48,.T.);
#274=EDGE_CURVE('',#318,#310,#340,.T.);
#275=EDGE_CURVE('',#311,#306,#49,.T.);
#276=EDGE_CURVE('',#305,#319,#341,.T.);
#277=EDGE_CURVE('',#320,#320,#342,.T.);
#278=EDGE_CURVE('',#321,#321,#343,.T.);
#279=VERTEX_POINT('',#686);
#280=VERTEX_POINT('',#688);
#281=VERTEX_POINT('',#691);
#282=VERTEX_POINT('',#694);
#283=VERTEX_POINT('',#697);
#284=VERTEX_POINT('',#698);
#285=VERTEX_POINT('',#700);
#286=VERTEX_POINT('',#702);
#287=VERTEX_POINT('',#704);
#288=VERTEX_POINT('',#706);
#289=VERTEX_POINT('',#710);
#290=VERTEX_POINT('',#713);
#291=VERTEX_POINT('',#714);
#292=VERTEX_POINT('',#719);
#293=VERTEX_POINT('',#723);
#294=VERTEX_POINT('',#727);
#295=VERTEX_POINT('',#731);
#296=VERTEX_POINT('',#737);
#297=VERTEX_POINT('',#738);
#298=VERTEX_POINT('',#740);
#299=VERTEX_POINT('',#742);
#300=VERTEX_POINT('',#746);
#301=VERTEX_POINT('',#749);
#302=VERTEX_POINT('',#751);
#303=VERTEX_POINT('',#753);
#304=VERTEX_POINT('',#755);
#305=VERTEX_POINT('',#760);
#306=VERTEX_POINT('',#762);
#307=VERTEX_POINT('',#764);
#308=VERTEX_POINT('',#766);
#309=VERTEX_POINT('',#768);
#310=VERTEX_POINT('',#772);
#311=VERTEX_POINT('',#773);
#312=VERTEX_POINT('',#776);
#313=VERTEX_POINT('',#778);
#314=VERTEX_POINT('',#780);
#315=VERTEX_POINT('',#783);
#316=VERTEX_POINT('',#788);
#317=VERTEX_POINT('',#790);
#318=VERTEX_POINT('',#796);
#319=VERTEX_POINT('',#798);
#320=VERTEX_POINT('',#807);
#321=VERTEX_POINT('',#810);
#322=CIRCLE('',#491,0.00215);
#323=CIRCLE('',#492,0.0037);
#324=CIRCLE('',#494,0.00215);
#325=CIRCLE('',#496,0.0037);
#326=CIRCLE('',#499,0.0053);
#327=CIRCLE('',#507,0.0075);
#328=CIRCLE('',#508,0.0075);
#329=CIRCLE('',#510,0.0053);
#330=CIRCLE('',#512,0.002);
#331=CIRCLE('',#513,0.002);
#332=CIRCLE('',#515,0.00450693909432999);
#333=CIRCLE('',#516,0.0055);
#334=CIRCLE('',#517,0.0055);
#335=CIRCLE('',#519,0.0055);
#336=CIRCLE('',#520,0.0055);
#337=CIRCLE('',#521,0.00215);
#338=CIRCLE('',#524,0.00215);
#339=CIRCLE('',#525,0.003);
#340=CIRCLE('',#529,0.002);
#341=CIRCLE('',#530,0.002);
#342=CIRCLE('',#533,0.003);
#343=CIRCLE('',#535,0.00450693909432999);
#344=EDGE_LOOP('',(#99));
#345=EDGE_LOOP('',(#100));
#346=EDGE_LOOP('',(#101));
#347=EDGE_LOOP('',(#102));
#348=EDGE_LOOP('',(#103));
#349=EDGE_LOOP('',(#104));
#350=EDGE_LOOP('',(#105));
#351=EDGE_LOOP('',(#106,#107,#108,#109,#110,#111));
#352=EDGE_LOOP('',(#112));
#353=EDGE_LOOP('',(#113));
#354=EDGE_LOOP('',(#114,#115,#116,#117));
#355=EDGE_LOOP('',(#118,#119,#120,#121));
#356=EDGE_LOOP('',(#122,#123,#124,#125));
#357=EDGE_LOOP('',(#126,#127,#128,#129));
#358=EDGE_LOOP('',(#130,#131,#132,#133));
#359=EDGE_LOOP('',(#134,#135,#136,#137));
#360=EDGE_LOOP('',(#138,#139,#140,#141));
#361=EDGE_LOOP('',(#142));
#362=EDGE_LOOP('',(#143));
#363=EDGE_LOOP('',(#144));
#364=EDGE_LOOP('',(#145,#146,#147,#148,#149,#150));
#365=EDGE_LOOP('',(#151,#152,#153,#154,#155,#156,#157,#158,#159));
#366=EDGE_LOOP('',(#160,#161,#162,#163,#164,#165,#166,#167));
#367=EDGE_LOOP('',(#168));
#368=EDGE_LOOP('',(#169,#170,#171,#172));
#369=EDGE_LOOP('',(#173,#174,#175,#176,#177,#178));
#370=EDGE_LOOP('',(#179));
#371=EDGE_LOOP('',(#180));
#372=EDGE_LOOP('',(#181,#182,#183,#184));
#373=EDGE_LOOP('',(#185,#186,#187,#188));
#374=EDGE_LOOP('',(#189,#190,#191,#192,#193,#194));
#375=EDGE_LOOP('',(#195));
#376=EDGE_LOOP('',(#196));
#377=EDGE_LOOP('',(#197));
#378=EDGE_LOOP('',(#198));
#379=EDGE_LOOP('',(#199));
#380=EDGE_LOOP('',(#200));
#381=EDGE_LOOP('',(#201));
#382=EDGE_LOOP('',(#202));
#383=EDGE_LOOP('',(#203,#204,#205,#206));
#384=EDGE_LOOP('',(#207,#208,#209,#210));
#385=EDGE_LOOP('',(#211,#212,#213,#214));
#386=EDGE_LOOP('',(#215,#216,#217,#218));
#387=FACE_BOUND('',#344,.T.);
#388=FACE_BOUND('',#345,.T.);
#389=FACE_BOUND('',#346,.T.);
#390=FACE_BOUND('',#347,.T.);
#391=FACE_BOUND('',#348,.T.);
#392=FACE_BOUND('',#349,.T.);
#393=FACE_BOUND('',#350,.T.);
#394=FACE_BOUND('',#351,.T.);
#395=FACE_BOUND('',#352,.T.);
#396=FACE_BOUND('',#353,.T.);
#397=FACE_BOUND('',#354,.T.);
#398=FACE_BOUND('',#355,.T.);
#399=FACE_BOUND('',#356,.T.);
#400=FACE_BOUND('',#357,.T.);
#401=FACE_BOUND('',#358,.T.);
#402=FACE_BOUND('',#359,.T.);
#403=FACE_BOUND('',#360,.T.);
#404=FACE_BOUND('',#361,.T.);
#405=FACE_BOUND('',#362,.T.);
#406=FACE_BOUND('',#363,.T.);
#407=FACE_BOUND('',#364,.T.);
#408=FACE_BOUND('',#365,.T.);
#409=FACE_BOUND('',#366,.T.);
#410=FACE_BOUND('',#367,.T.);
#411=FACE_BOUND('',#368,.T.);
#412=FACE_BOUND('',#369,.T.);
#413=FACE_BOUND('',#370,.T.);
#414=FACE_BOUND('',#371,.T.);
#415=FACE_BOUND('',#372,.T.);
#416=FACE_BOUND('',#373,.T.);
#417=FACE_BOUND('',#374,.T.);
#418=FACE_BOUND('',#375,.T.);
#419=FACE_BOUND('',#376,.T.);
#420=FACE_BOUND('',#377,.T.);
#421=FACE_BOUND('',#378,.T.);
#422=FACE_BOUND('',#379,.T.);
#423=FACE_BOUND('',#380,.T.);
#424=FACE_BOUND('',#381,.T.);
#425=FACE_BOUND('',#382,.T.);
#426=FACE_BOUND('',#383,.T.);
#427=FACE_BOUND('',#384,.T.);
#428=FACE_BOUND('',#385,.T.);
#429=FACE_BOUND('',#386,.T.);
#430=PLANE('',#490);
#431=PLANE('',#497);
#432=PLANE('',#498);
#433=PLANE('',#500);
#434=PLANE('',#501);
#435=PLANE('',#502);
#436=PLANE('',#503);
#437=PLANE('',#504);
#438=PLANE('',#505);
#439=PLANE('',#511);
#440=PLANE('',#514);
#441=PLANE('',#518);
#442=PLANE('',#522);
#443=PLANE('',#523);
#444=PLANE('',#526);
#445=PLANE('',#527);
#446=PLANE('',#528);
#447=PLANE('',#536);
#448=ADVANCED_FACE('',(#387,#388),#430,.F.);
#449=ADVANCED_FACE('',(#389,#390),#88,.F.);
#450=ADVANCED_FACE('',(#391,#392),#89,.F.);
#451=ADVANCED_FACE('',(#393,#394),#431,.T.);
#452=ADVANCED_FACE('',(#395,#396),#432,.F.);
#453=ADVANCED_FACE('',(#397),#433,.F.);
#454=ADVANCED_FACE('',(#398),#434,.F.);
#455=ADVANCED_FACE('',(#399),#435,.F.);
#456=ADVANCED_FACE('',(#400),#436,.F.);
#457=ADVANCED_FACE('',(#401),#437,.F.);
#458=ADVANCED_FACE('',(#402),#438,.F.);
#459=ADVANCED_FACE('',(#403),#90,.T.);
#460=ADVANCED_FACE('',(#404,#405),#91,.T.);
#461=ADVANCED_FACE('',(#406,#407),#439,.F.);
#462=ADVANCED_FACE('',(#408),#440,.F.);
#463=ADVANCED_FACE('',(#409,#410),#441,.F.);
#464=ADVANCED_FACE('',(#411,#412),#442,.T.);
#465=ADVANCED_FACE('',(#413,#414),#443,.F.);
#466=ADVANCED_FACE('',(#415),#444,.F.);
#467=ADVANCED_FACE('',(#416),#445,.T.);
#468=ADVANCED_FACE('',(#417),#446,.T.);
#469=ADVANCED_FACE('',(#418,#419),#92,.F.);
#470=ADVANCED_FACE('',(#420,#421),#93,.F.);
#471=ADVANCED_FACE('',(#422,#423),#94,.T.);
#472=ADVANCED_FACE('',(#424,#425),#447,.T.);
#473=ADVANCED_FACE('',(#426),#95,.T.);
#474=ADVANCED_FACE('',(#427),#96,.T.);
#475=ADVANCED_FACE('',(#428),#97,.T.);
#476=ADVANCED_FACE('',(#429),#98,.T.);
#477=CLOSED_SHELL('',(#448,#449,#450,#451,#452,#453,#454,#455,#456,#457,
#458,#459,#460,#461,#462,#463,#464,#465,#466,#467,#468,#469,#470,#471,#472,
#473,#474,#475,#476));
#478=STYLED_ITEM('',(#479),#486);
#479=PRESENTATION_STYLE_ASSIGNMENT((#480));
#480=SURFACE_STYLE_USAGE(.BOTH.,#481);
#481=SURFACE_SIDE_STYLE('',(#482));
#482=SURFACE_STYLE_FILL_AREA(#483);
#483=FILL_AREA_STYLE('',(#484));
#484=FILL_AREA_STYLE_COLOUR('',#485);
#485=COLOUR_RGB('',0.498039215686275,0.498039215686275,0.498039215686275);
#486=MANIFOLD_SOLID_BREP('Joint 2',#477);
#487=SHAPE_DEFINITION_REPRESENTATION(#822,#488);
#488=SHAPE_REPRESENTATION('Joint 2',(#489),#817);
#489=AXIS2_PLACEMENT_3D('',#683,#541,#542);
#490=AXIS2_PLACEMENT_3D('',#684,#543,#544);
#491=AXIS2_PLACEMENT_3D('',#685,#545,#546);
#492=AXIS2_PLACEMENT_3D('',#687,#547,#548);
#493=AXIS2_PLACEMENT_3D('',#689,#549,#550);
#494=AXIS2_PLACEMENT_3D('',#690,#551,#552);
#495=AXIS2_PLACEMENT_3D('',#692,#553,#554);
#496=AXIS2_PLACEMENT_3D('',#693,#555,#556);
#497=AXIS2_PLACEMENT_3D('',#695,#557,#558);
#498=AXIS2_PLACEMENT_3D('',#708,#565,#566);
#499=AXIS2_PLACEMENT_3D('',#709,#567,#568);
#500=AXIS2_PLACEMENT_3D('',#711,#569,#570);
#501=AXIS2_PLACEMENT_3D('',#717,#574,#575);
#502=AXIS2_PLACEMENT_3D('',#721,#578,#579);
#503=AXIS2_PLACEMENT_3D('',#725,#582,#583);
#504=AXIS2_PLACEMENT_3D('',#729,#586,#587);
#505=AXIS2_PLACEMENT_3D('',#733,#590,#591);
#506=AXIS2_PLACEMENT_3D('',#735,#593,#594);
#507=AXIS2_PLACEMENT_3D('',#739,#596,#597);
#508=AXIS2_PLACEMENT_3D('',#743,#599,#600);
#509=AXIS2_PLACEMENT_3D('',#744,#601,#602);
#510=AXIS2_PLACEMENT_3D('',#745,#603,#604);
#511=AXIS2_PLACEMENT_3D('',#747,#605,#606);
#512=AXIS2_PLACEMENT_3D('',#750,#608,#609);
#513=AXIS2_PLACEMENT_3D('',#754,#611,#612);
#514=AXIS2_PLACEMENT_3D('',#757,#614,#615);
#515=AXIS2_PLACEMENT_3D('',#758,#616,#617);
#516=AXIS2_PLACEMENT_3D('',#763,#620,#621);
#517=AXIS2_PLACEMENT_3D('',#767,#623,#624);
#518=AXIS2_PLACEMENT_3D('',#770,#626,#627);
#519=AXIS2_PLACEMENT_3D('',#777,#631,#632);
#520=AXIS2_PLACEMENT_3D('',#781,#634,#635);
#521=AXIS2_PLACEMENT_3D('',#782,#636,#637);
#522=AXIS2_PLACEMENT_3D('',#784,#638,#639);
#523=AXIS2_PLACEMENT_3D('',#786,#641,#642);
#524=AXIS2_PLACEMENT_3D('',#787,#643,#644);
#525=AXIS2_PLACEMENT_3D('',#789,#645,#646);
#526=AXIS2_PLACEMENT_3D('',#791,#647,#648);
#527=AXIS2_PLACEMENT_3D('',#794,#651,#652);
#528=AXIS2_PLACEMENT_3D('',#800,#656,#657);
#529=AXIS2_PLACEMENT_3D('',#801,#658,#659);
#530=AXIS2_PLACEMENT_3D('',#803,#661,#662);
#531=AXIS2_PLACEMENT_3D('',#804,#663,#664);
#532=AXIS2_PLACEMENT_3D('',#805,#665,#666);
#533=AXIS2_PLACEMENT_3D('',#806,#667,#668);
#534=AXIS2_PLACEMENT_3D('',#808,#669,#670);
#535=AXIS2_PLACEMENT_3D('',#809,#671,#672);
#536=AXIS2_PLACEMENT_3D('',#811,#673,#674);
#537=AXIS2_PLACEMENT_3D('',#812,#675,#676);
#538=AXIS2_PLACEMENT_3D('',#813,#677,#678);
#539=AXIS2_PLACEMENT_3D('',#814,#679,#680);
#540=AXIS2_PLACEMENT_3D('',#815,#681,#682);
#541=DIRECTION('',(0.,0.,1.));
#542=DIRECTION('',(1.,0.,0.));
#543=DIRECTION('',(0.,-1.,0.));
#544=DIRECTION('',(1.,0.,0.));
#545=DIRECTION('',(0.,-1.,0.));
#546=DIRECTION('',(0.,0.,-1.));
#547=DIRECTION('',(0.,-1.,0.));
#548=DIRECTION('',(0.,0.,-1.));
#549=DIRECTION('',(0.,1.,0.));
#550=DIRECTION('',(0.,0.,1.));
#551=DIRECTION('',(0.,-1.,0.));
#552=DIRECTION('',(0.,0.,-1.));
#553=DIRECTION('',(0.,1.,0.));
#554=DIRECTION('',(0.,0.,1.));
#555=DIRECTION('',(0.,-1.,0.));
#556=DIRECTION('',(0.,0.,-1.));
#557=DIRECTION('',(0.,-1.,0.));
#558=DIRECTION('',(1.,0.,0.));
#559=DIRECTION('',(0.866025403784442,0.,0.5));
#560=DIRECTION('',(6.40987562127852E-15,0.,1.));
#561=DIRECTION('',(-0.866025403784435,0.,0.500000000000006));
#562=DIRECTION('',(-0.866025403784442,0.,-0.499999999999994));
#563=DIRECTION('',(-6.40987562127852E-15,0.,-1.));
#564=DIRECTION('',(0.866025403784435,0.,-0.500000000000006));
#565=DIRECTION('',(0.,-1.,0.));
#566=DIRECTION('',(1.,0.,0.));
#567=DIRECTION('',(0.,-1.,0.));
#568=DIRECTION('',(0.,0.,-1.));
#569=DIRECTION('',(1.,0.,-6.40987562127852E-15));
#570=DIRECTION('',(-6.40987562127852E-15,0.,-1.));
#571=DIRECTION('',(6.40987562127852E-15,0.,1.));
#572=DIRECTION('',(0.,-1.,0.));
#573=DIRECTION('',(0.,-1.,0.));
#574=DIRECTION('',(0.500000000000006,0.,0.866025403784435));
#575=DIRECTION('',(0.866025403784435,0.,-0.500000000000006));
#576=DIRECTION('',(-0.866025403784435,0.,0.500000000000006));
#577=DIRECTION('',(0.,-1.,0.));
#578=DIRECTION('',(-0.499999999999994,0.,0.866025403784442));
#579=DIRECTION('',(0.866025403784442,0.,0.499999999999994));
#580=DIRECTION('',(-0.866025403784442,0.,-0.499999999999994));
#581=DIRECTION('',(0.,-1.,0.));
#582=DIRECTION('',(-1.,0.,6.40987562127852E-15));
#583=DIRECTION('',(6.40987562127852E-15,0.,1.));
#584=DIRECTION('',(-6.40987562127852E-15,0.,-1.));
#585=DIRECTION('',(0.,-1.,0.));
#586=DIRECTION('',(-0.500000000000006,0.,-0.866025403784435));
#587=DIRECTION('',(-0.866025403784435,0.,0.500000000000006));
#588=DIRECTION('',(0.866025403784435,0.,-0.500000000000006));
#589=DIRECTION('',(0.,-1.,0.));
#590=DIRECTION('',(0.499999999999994,0.,-0.866025403784442));
#591=DIRECTION('',(-0.866025403784442,0.,-0.5));
#592=DIRECTION('',(0.866025403784442,0.,0.5));
#593=DIRECTION('',(0.,1.,0.));
#594=DIRECTION('',(0.,0.,1.));
#595=DIRECTION('',(0.,-1.,0.));
#596=DIRECTION('',(0.,-1.,0.));
#597=DIRECTION('',(0.,0.,-1.));
#598=DIRECTION('',(0.,-1.,0.));
#599=DIRECTION('',(0.,-1.,0.));
#600=DIRECTION('',(0.,0.,-1.));
#601=DIRECTION('',(0.,1.,0.));
#602=DIRECTION('',(0.,0.,1.));
#603=DIRECTION('',(0.,-1.,0.));
#604=DIRECTION('',(0.,0.,-1.));
#605=DIRECTION('',(0.,-1.,0.));
#606=DIRECTION('',(1.,0.,0.));
#607=DIRECTION('',(1.,0.,0.));
#608=DIRECTION('',(0.,-1.,0.));
#609=DIRECTION('',(0.,0.,-1.));
#610=DIRECTION('',(0.,0.,-1.));
#611=DIRECTION('',(0.,-1.,0.));
#612=DIRECTION('',(0.,0.,-1.));
#613=DIRECTION('',(-1.,0.,0.));
#614=DIRECTION('',(0.,0.,1.));
#615=DIRECTION('',(1.,0.,0.));
#616=DIRECTION('',(0.,0.,1.));
#617=DIRECTION('',(1.,0.,0.));
#618=DIRECTION('',(0.,-1.,0.));
#619=DIRECTION('',(-1.,0.,0.));
#620=DIRECTION('',(0.,0.,1.));
#621=DIRECTION('',(1.,0.,0.));
#622=DIRECTION('',(0.,-1.,0.));
#623=DIRECTION('',(0.,0.,1.));
#624=DIRECTION('',(1.,0.,0.));
#625=DIRECTION('',(-1.,0.,0.));
#626=DIRECTION('',(0.,0.,-1.));
#627=DIRECTION('',(-1.,0.,0.));
#628=DIRECTION('',(1.,0.,0.));
#629=DIRECTION('',(0.,-1.,0.));
#630=DIRECTION('',(1.,0.,0.));
#631=DIRECTION('',(0.,0.,-1.));
#632=DIRECTION('',(-1.,0.,0.));
#633=DIRECTION('',(0.,-1.,0.));
#634=DIRECTION('',(0.,0.,-1.));
#635=DIRECTION('',(-1.,0.,0.));
#636=DIRECTION('',(0.,0.,1.));
#637=DIRECTION('',(1.,0.,0.));
#638=DIRECTION('',(0.,-1.,0.));
#639=DIRECTION('',(1.,0.,0.));
#640=DIRECTION('',(0.,0.,-1.));
#641=DIRECTION('',(0.,0.,1.));
#642=DIRECTION('',(1.,0.,0.));
#643=DIRECTION('',(0.,0.,1.));
#644=DIRECTION('',(1.,0.,0.));
#645=DIRECTION('',(0.,0.,-1.));
#646=DIRECTION('',(-1.,0.,0.));
#647=DIRECTION('',(-1.,0.,0.));
#648=DIRECTION('',(0.,0.,1.));
#649=DIRECTION('',(0.,0.,-1.));
#650=DIRECTION('',(0.,0.,-1.));
#651=DIRECTION('',(-1.,0.,0.));
#652=DIRECTION('',(0.,0.,1.));
#653=DIRECTION('',(0.,-1.,0.));
#654=DIRECTION('',(0.,0.,-1.));
#655=DIRECTION('',(0.,-1.,0.));
#656=DIRECTION('',(0.,1.,0.));
#657=DIRECTION('',(-1.,0.,0.));
#658=DIRECTION('',(0.,1.,0.));
#659=DIRECTION('',(0.,0.,1.));
#660=DIRECTION('',(0.,0.,-1.));
#661=DIRECTION('',(0.,1.,0.));
#662=DIRECTION('',(0.,0.,1.));
#663=DIRECTION('',(0.,0.,1.));
#664=DIRECTION('',(1.,0.,0.));
#665=DIRECTION('',(0.,0.,1.));
#666=DIRECTION('',(1.,0.,0.));
#667=DIRECTION('',(0.,0.,-1.));
#668=DIRECTION('',(-1.,0.,0.));
#669=DIRECTION('',(0.,0.,1.));
#670=DIRECTION('',(1.,0.,0.));
#671=DIRECTION('',(0.,0.,-1.));
#672=DIRECTION('',(-1.,0.,0.));
#673=DIRECTION('',(0.,0.,-1.));
#674=DIRECTION('',(1.,0.,0.));
#675=DIRECTION('',(0.,0.,1.));
#676=DIRECTION('',(1.,0.,0.));
#677=DIRECTION('',(0.,0.,1.));
#678=DIRECTION('',(1.,0.,0.));
#679=DIRECTION('',(0.,1.,0.));
#680=DIRECTION('',(0.,0.,1.));
#681=DIRECTION('',(0.,1.,0.));
#682=DIRECTION('',(0.,0.,1.));
#683=CARTESIAN_POINT('',(0.,0.,0.));
#684=CARTESIAN_POINT('',(0.05975,-0.03,0.0115));
#685=CARTESIAN_POINT('',(0.05975,-0.03,0.0115));
#686=CARTESIAN_POINT('',(0.05975,-0.03,0.00935));
#687=CARTESIAN_POINT('',(0.05975,-0.03,0.0115));
#688=CARTESIAN_POINT('',(0.05975,-0.03,0.0078));
#689=CARTESIAN_POINT('',(0.05975,-0.04,0.0115));
#690=CARTESIAN_POINT('',(0.05975,-0.035,0.0115));
#691=CARTESIAN_POINT('',(0.05975,-0.035,0.00935));
#692=CARTESIAN_POINT('',(0.05975,-0.03,0.0115));
#693=CARTESIAN_POINT('',(0.05975,-0.0245,0.0115));
#694=CARTESIAN_POINT('',(0.05975,-0.0245,0.0078));
#695=CARTESIAN_POINT('',(0.05975,-0.035,0.0115));
#696=CARTESIAN_POINT('',(0.061625,-0.035,0.0082524047358084));
#697=CARTESIAN_POINT('',(0.05975,-0.035,0.00716987298107786));
#698=CARTESIAN_POINT('',(0.0635,-0.035,0.00933493649053893));
#699=CARTESIAN_POINT('',(0.0635,-0.035,0.0115));
#700=CARTESIAN_POINT('',(0.0635,-0.035,0.0136650635094611));
#701=CARTESIAN_POINT('',(0.061625,-0.035,0.0147475952641917));
#702=CARTESIAN_POINT('',(0.05975,-0.035,0.0158301270189222));
#703=CARTESIAN_POINT('',(0.057875,-0.035,0.0147475952641917));
#704=CARTESIAN_POINT('',(0.056,-0.035,0.0136650635094612));
#705=CARTESIAN_POINT('',(0.056,-0.035,0.0115));
#706=CARTESIAN_POINT('',(0.056,-0.035,0.00933493649053897));
#707=CARTESIAN_POINT('',(0.057875,-0.035,0.00825240473580841));
#708=CARTESIAN_POINT('',(0.05975,-0.0245,0.0115));
#709=CARTESIAN_POINT('',(0.05975,-0.0245,0.0115));
#710=CARTESIAN_POINT('',(0.05975,-0.0245,0.0062));
#711=CARTESIAN_POINT('',(0.0635,-0.035,0.0115));
#712=CARTESIAN_POINT('',(0.0635,-0.04,0.0115));
#713=CARTESIAN_POINT('',(0.0635,-0.04,0.00933493649053893));
#714=CARTESIAN_POINT('',(0.0635,-0.04,0.0136650635094611));
#715=CARTESIAN_POINT('',(0.0635,-0.035,0.0136650635094611));
#716=CARTESIAN_POINT('',(0.0635,-0.035,0.00933493649053893));
#717=CARTESIAN_POINT('',(0.061625,-0.035,0.0147475952641917));
#718=CARTESIAN_POINT('',(0.061625,-0.04,0.0147475952641917));
#719=CARTESIAN_POINT('',(0.05975,-0.04,0.0158301270189222));
#720=CARTESIAN_POINT('',(0.05975,-0.035,0.0158301270189222));
#721=CARTESIAN_POINT('',(0.057875,-0.035,0.0147475952641917));
#722=CARTESIAN_POINT('',(0.057875,-0.04,0.0147475952641917));
#723=CARTESIAN_POINT('',(0.056,-0.04,0.0136650635094612));
#724=CARTESIAN_POINT('',(0.056,-0.035,0.0136650635094612));
#725=CARTESIAN_POINT('',(0.056,-0.035,0.0115));
#726=CARTESIAN_POINT('',(0.056,-0.04,0.0115));
#727=CARTESIAN_POINT('',(0.056,-0.04,0.00933493649053897));
#728=CARTESIAN_POINT('',(0.056,-0.035,0.00933493649053897));
#729=CARTESIAN_POINT('',(0.057875,-0.035,0.00825240473580841));
#730=CARTESIAN_POINT('',(0.057875,-0.04,0.00825240473580841));
#731=CARTESIAN_POINT('',(0.05975,-0.04,0.00716987298107786));
#732=CARTESIAN_POINT('',(0.05975,-0.035,0.00716987298107786));
#733=CARTESIAN_POINT('',(0.061625,-0.035,0.0082524047358084));
#734=CARTESIAN_POINT('',(0.061625,-0.04,0.0082524047358084));
#735=CARTESIAN_POINT('',(0.05975,-0.04,0.0115));
#736=CARTESIAN_POINT('',(0.05975,-0.03,0.019));
#737=CARTESIAN_POINT('',(0.05975,-0.03,0.019));
#738=CARTESIAN_POINT('',(0.05975,-0.04,0.019));
#739=CARTESIAN_POINT('',(0.05975,-0.03,0.0115));
#740=CARTESIAN_POINT('',(0.05975,-0.03,0.00400000000000005));
#741=CARTESIAN_POINT('',(0.05975,-0.03,0.00400000000000005));
#742=CARTESIAN_POINT('',(0.05975,-0.04,0.00400000000000005));
#743=CARTESIAN_POINT('',(0.05975,-0.04,0.0115));
#744=CARTESIAN_POINT('',(0.05975,-0.03,0.0115));
#745=CARTESIAN_POINT('',(0.05975,-0.03,0.0115));
#746=CARTESIAN_POINT('',(0.05975,-0.03,0.0062));
#747=CARTESIAN_POINT('',(0.05975,-0.03,0.0115));
#748=CARTESIAN_POINT('',(0.06975,-0.03,0.019));
#749=CARTESIAN_POINT('',(0.07525,-0.03,0.019));
#750=CARTESIAN_POINT('',(0.07525,-0.03,0.017));
#751=CARTESIAN_POINT('',(0.07325,-0.03,0.017));
#752=CARTESIAN_POINT('',(0.07325,-0.03,0.00775));
#753=CARTESIAN_POINT('',(0.07325,-0.03,0.006));
#754=CARTESIAN_POINT('',(0.07525,-0.03,0.006));
#755=CARTESIAN_POINT('',(0.07525,-0.03,0.00400000000000005));
#756=CARTESIAN_POINT('',(0.06975,-0.03,0.00400000000000005));
#757=CARTESIAN_POINT('',(0.06975,-0.03,0.00400000000000005));
#758=CARTESIAN_POINT('',(0.079,-0.0325,0.00400000000000005));
#759=CARTESIAN_POINT('',(0.07525,-0.025,0.00400000000000005));
#760=CARTESIAN_POINT('',(0.07525,-0.025,0.00400000000000005));
#761=CARTESIAN_POINT('',(0.07475,-0.025,0.00400000000000005));
#762=CARTESIAN_POINT('',(0.07925,-0.025,0.00400000000000005));
#763=CARTESIAN_POINT('',(0.07925,-0.0305,0.00400000000000005));
#764=CARTESIAN_POINT('',(0.08475,-0.0305,0.00400000000000005));
#765=CARTESIAN_POINT('',(0.08475,-0.03,0.00400000000000005));
#766=CARTESIAN_POINT('',(0.08475,-0.0345,0.00400000000000005));
#767=CARTESIAN_POINT('',(0.07925,-0.0345,0.00400000000000005));
#768=CARTESIAN_POINT('',(0.07925,-0.04,0.00400000000000005));
#769=CARTESIAN_POINT('',(0.06975,-0.04,0.00400000000000005));
#770=CARTESIAN_POINT('',(0.06975,-0.03,0.019));
#771=CARTESIAN_POINT('',(0.07475,-0.025,0.019));
#772=CARTESIAN_POINT('',(0.07525,-0.025,0.019));
#773=CARTESIAN_POINT('',(0.07925,-0.025,0.019));
#774=CARTESIAN_POINT('',(0.07525,-0.03,0.019));
#775=CARTESIAN_POINT('',(0.06975,-0.04,0.019));
#776=CARTESIAN_POINT('',(0.07925,-0.04,0.019));
#777=CARTESIAN_POINT('',(0.07925,-0.0345,0.019));
#778=CARTESIAN_POINT('',(0.08475,-0.0345,0.019));
#779=CARTESIAN_POINT('',(0.08475,-0.03,0.019));
#780=CARTESIAN_POINT('',(0.08475,-0.0305,0.019));
#781=CARTESIAN_POINT('',(0.07925,-0.0305,0.019));
#782=CARTESIAN_POINT('',(0.079,-0.0325,0.019));
#783=CARTESIAN_POINT('',(0.08115,-0.0325,0.019));
#784=CARTESIAN_POINT('',(0.05975,-0.04,0.0115));
#785=CARTESIAN_POINT('',(0.07925,-0.04,0.019));
#786=CARTESIAN_POINT('',(0.07475,-0.03,0.00400000000000005));
#787=CARTESIAN_POINT('',(0.079,-0.0325,0.00400000000000005));
#788=CARTESIAN_POINT('',(0.08115,-0.0325,0.00400000000000005));
#789=CARTESIAN_POINT('',(0.079,-0.0325,0.00400000000000005));
#790=CARTESIAN_POINT('',(0.076,-0.0325,0.00400000000000005));
#791=CARTESIAN_POINT('',(0.08475,-0.03,0.0115));
#792=CARTESIAN_POINT('',(0.08475,-0.0305,0.019));
#793=CARTESIAN_POINT('',(0.08475,-0.0345,0.00400000000000005));
#794=CARTESIAN_POINT('',(0.07325,-0.025,0.00775));
#795=CARTESIAN_POINT('',(0.07325,-0.025,0.017));
#796=CARTESIAN_POINT('',(0.07325,-0.025,0.017));
#797=CARTESIAN_POINT('',(0.07325,-0.025,0.00775));
#798=CARTESIAN_POINT('',(0.07325,-0.025,0.006));
#799=CARTESIAN_POINT('',(0.07325,-0.03,0.006));
#800=CARTESIAN_POINT('',(0.0705,-0.025,0.0115));
#801=CARTESIAN_POINT('',(0.07525,-0.025,0.017));
#802=CARTESIAN_POINT('',(0.07925,-0.025,0.00400000000000005));
#803=CARTESIAN_POINT('',(0.07525,-0.025,0.006));
#804=CARTESIAN_POINT('',(0.079,-0.0325,-0.006));
#805=CARTESIAN_POINT('',(0.079,-0.0325,-0.00149999999999995));
#806=CARTESIAN_POINT('',(0.079,-0.0325,-0.00149999999999995));
#807=CARTESIAN_POINT('',(0.076,-0.0325,-0.00149999999999995));
#808=CARTESIAN_POINT('',(0.079,-0.0325,-0.00149999999999995));
#809=CARTESIAN_POINT('',(0.079,-0.0325,-0.00149999999999995));
#810=CARTESIAN_POINT('',(0.07449306090567,-0.0325,-0.00149999999999995));
#811=CARTESIAN_POINT('',(0.07475,-0.0325,-0.00149999999999995));
#812=CARTESIAN_POINT('',(0.07925,-0.0305,0.0115));
#813=CARTESIAN_POINT('',(0.07925,-0.0345,0.0115));
#814=CARTESIAN_POINT('',(0.07525,-0.03,0.017));
#815=CARTESIAN_POINT('',(0.07525,-0.025,0.006));
#816=MECHANICAL_DESIGN_GEOMETRIC_PRESENTATION_REPRESENTATION('',(#478),
#817);
#817=(
GEOMETRIC_REPRESENTATION_CONTEXT(3)
GLOBAL_UNCERTAINTY_ASSIGNED_CONTEXT((#818))
GLOBAL_UNIT_ASSIGNED_CONTEXT((#821,#820,#819))
REPRESENTATION_CONTEXT('Joint 2','TOP_LEVEL_ASSEMBLY_PART')
);
#818=UNCERTAINTY_MEASURE_WITH_UNIT(LENGTH_MEASURE(1.E-8),#821,
'DISTANCE_ACCURACY_VALUE','Maximum Tolerance applied to model');
#819=(
NAMED_UNIT(*)
SI_UNIT($,.STERADIAN.)
SOLID_ANGLE_UNIT()
);
#820=(
NAMED_UNIT(*)
PLANE_ANGLE_UNIT()
SI_UNIT($,.RADIAN.)
);
#821=(
LENGTH_UNIT()
NAMED_UNIT(*)
SI_UNIT($,.METRE.)
);
#822=PRODUCT_DEFINITION_SHAPE('','',#823);
#823=PRODUCT_DEFINITION('','',#825,#824);
#824=PRODUCT_DEFINITION_CONTEXT('',#831,'design');
#825=PRODUCT_DEFINITION_FORMATION_WITH_SPECIFIED_SOURCE('','',#827,
 .NOT_KNOWN.);
#826=PRODUCT_RELATED_PRODUCT_CATEGORY('','',(#827));
#827=PRODUCT('Joint 2','Joint 2','Joint 2',(#829));
#828=PRODUCT_CATEGORY('','');
#829=PRODUCT_CONTEXT('',#831,'mechanical');
#830=APPLICATION_PROTOCOL_DEFINITION('international standard',
'ap242_managed_model_based_3d_engineering',2020,#831);
#831=APPLICATION_CONTEXT('managed model based 3d engineering');
ENDSEC;
END-ISO-10303-21;
