ISO-10303-21;
HEADER;
/* Generated by software containing ST-Developer
 * from STEP Tools, Inc. (www.steptools.com) 
 */
/* OPTION: using custom renumber hook */

FILE_DESCRIPTION(
/* description */ ('STEP AP242 Edition 2',
'CAx-IF Rec.Pracs.---Representation and Presentation of Product Manufa
cturing Information (PMI)---4.0---2014-10-13',
'CAx-IF Rec.Pracs.---3D Tessellated Geometry---0.4---2014-09-14','2;1',
'CAx-IF Rec.Pracs.---User Defined Attributes---1.5---2016-08-15'),
/* implementation_level */ '2;1');

FILE_NAME(
/* name */ 'Assembly 1 - Joint 4',
/* time_stamp */ '2026-06-23T19:13:02Z',
/* author */ (''),
/* organization */ (''),
/* preprocessor_version */ 'ST-DEVELOPER v20',
/* originating_system */ 'ONSHAPE BY PTC INC, 1.216',
/* authorisation */ '  ');

FILE_SCHEMA (('AP242_MANAGED_MODEL_BASED_3D_ENGINEERING_MIM_LF { 1 0 10303 442 3 1 4 }'));
ENDSEC;

DATA;
#10=SHAPE_REPRESENTATION_RELATIONSHIP('','',#494,#11);
#11=ADVANCED_BREP_SHAPE_REPRESENTATION('',(#492),#840);
#12=CYLINDRICAL_SURFACE('',#507,0.0065);
#13=CYLINDRICAL_SURFACE('',#509,0.00215);
#14=CYLINDRICAL_SURFACE('',#516,0.0085);
#15=CYLINDRICAL_SURFACE('',#525,0.005);
#16=CYLINDRICAL_SURFACE('',#526,0.003);
#17=CYLINDRICAL_SURFACE('',#527,0.0085);
#18=CYLINDRICAL_SURFACE('',#534,0.003);
#19=CYLINDRICAL_SURFACE('',#535,0.002);
#20=CYLINDRICAL_SURFACE('',#536,0.002);
#21=CYLINDRICAL_SURFACE('',#543,0.005);
#22=CYLINDRICAL_SURFACE('',#544,0.0075);
#23=CYLINDRICAL_SURFACE('',#545,0.00215);
#24=CYLINDRICAL_SURFACE('',#546,0.0035);
#25=CYLINDRICAL_SURFACE('',#548,0.0055);
#26=LINE('',#714,#63);
#27=LINE('',#718,#64);
#28=LINE('',#722,#65);
#29=LINE('',#726,#66);
#30=LINE('',#728,#67);
#31=LINE('',#731,#68);
#32=LINE('',#733,#69);
#33=LINE('',#735,#70);
#34=LINE('',#736,#71);
#35=LINE('',#738,#72);
#36=LINE('',#740,#73);
#37=LINE('',#742,#74);
#38=LINE('',#752,#75);
#39=LINE('',#755,#76);
#40=LINE('',#759,#77);
#41=LINE('',#766,#78);
#42=LINE('',#767,#79);
#43=LINE('',#769,#80);
#44=LINE('',#771,#81);
#45=LINE('',#773,#82);
#46=LINE('',#776,#83);
#47=LINE('',#778,#84);
#48=LINE('',#784,#85);
#49=LINE('',#786,#86);
#50=LINE('',#788,#87);
#51=LINE('',#789,#88);
#52=LINE('',#790,#89);
#53=LINE('',#792,#90);
#54=LINE('',#794,#91);
#55=LINE('',#801,#92);
#56=LINE('',#802,#93);
#57=LINE('',#804,#94);
#58=LINE('',#806,#95);
#59=LINE('',#808,#96);
#60=LINE('',#811,#97);
#61=LINE('',#813,#98);
#62=LINE('',#824,#99);
#63=VECTOR('',#567,1.);
#64=VECTOR('',#570,1.);
#65=VECTOR('',#573,1.);
#66=VECTOR('',#576,1.);
#67=VECTOR('',#579,1.);
#68=VECTOR('',#580,1.);
#69=VECTOR('',#581,1.);
#70=VECTOR('',#582,1.);
#71=VECTOR('',#583,1.);
#72=VECTOR('',#584,1.);
#73=VECTOR('',#585,1.);
#74=VECTOR('',#588,1.);
#75=VECTOR('',#599,1.);
#76=VECTOR('',#602,1.);
#77=VECTOR('',#605,1.);
#78=VECTOR('',#612,1.);
#79=VECTOR('',#613,1.);
#80=VECTOR('',#616,1.);
#81=VECTOR('',#617,1.);
#82=VECTOR('',#620,1.);
#83=VECTOR('',#621,1.);
#84=VECTOR('',#622,1.);
#85=VECTOR('',#629,1.);
#86=VECTOR('',#632,1.);
#87=VECTOR('',#635,1.);
#88=VECTOR('',#636,1.);
#89=VECTOR('',#637,1.);
#90=VECTOR('',#638,1.);
#91=VECTOR('',#639,1.);
#92=VECTOR('',#648,1.);
#93=VECTOR('',#649,1.);
#94=VECTOR('',#652,1.);
#95=VECTOR('',#653,1.);
#96=VECTOR('',#656,1.);
#97=VECTOR('',#657,1.);
#98=VECTOR('',#658,1.);
#99=VECTOR('',#677,1.);
#100=ORIENTED_EDGE('',*,*,#230,.F.);
#101=ORIENTED_EDGE('',*,*,#231,.T.);
#102=ORIENTED_EDGE('',*,*,#232,.F.);
#103=ORIENTED_EDGE('',*,*,#233,.T.);
#104=ORIENTED_EDGE('',*,*,#234,.T.);
#105=ORIENTED_EDGE('',*,*,#235,.T.);
#106=ORIENTED_EDGE('',*,*,#236,.F.);
#107=ORIENTED_EDGE('',*,*,#237,.F.);
#108=ORIENTED_EDGE('',*,*,#238,.T.);
#109=ORIENTED_EDGE('',*,*,#239,.T.);
#110=ORIENTED_EDGE('',*,*,#240,.T.);
#111=ORIENTED_EDGE('',*,*,#241,.F.);
#112=ORIENTED_EDGE('',*,*,#242,.T.);
#113=ORIENTED_EDGE('',*,*,#243,.T.);
#114=ORIENTED_EDGE('',*,*,#244,.F.);
#115=ORIENTED_EDGE('',*,*,#245,.T.);
#116=ORIENTED_EDGE('',*,*,#239,.F.);
#117=ORIENTED_EDGE('',*,*,#246,.F.);
#118=ORIENTED_EDGE('',*,*,#247,.T.);
#119=ORIENTED_EDGE('',*,*,#248,.T.);
#120=ORIENTED_EDGE('',*,*,#249,.T.);
#121=ORIENTED_EDGE('',*,*,#250,.T.);
#122=ORIENTED_EDGE('',*,*,#246,.T.);
#123=ORIENTED_EDGE('',*,*,#238,.F.);
#124=ORIENTED_EDGE('',*,*,#232,.T.);
#125=ORIENTED_EDGE('',*,*,#251,.F.);
#126=ORIENTED_EDGE('',*,*,#252,.F.);
#127=ORIENTED_EDGE('',*,*,#253,.T.);
#128=ORIENTED_EDGE('',*,*,#254,.T.);
#129=ORIENTED_EDGE('',*,*,#247,.F.);
#130=ORIENTED_EDGE('',*,*,#250,.F.);
#131=ORIENTED_EDGE('',*,*,#255,.T.);
#132=ORIENTED_EDGE('',*,*,#256,.F.);
#133=ORIENTED_EDGE('',*,*,#257,.F.);
#134=ORIENTED_EDGE('',*,*,#258,.F.);
#135=ORIENTED_EDGE('',*,*,#251,.T.);
#136=ORIENTED_EDGE('',*,*,#259,.F.);
#137=ORIENTED_EDGE('',*,*,#260,.T.);
#138=ORIENTED_EDGE('',*,*,#252,.T.);
#139=ORIENTED_EDGE('',*,*,#261,.F.);
#140=ORIENTED_EDGE('',*,*,#262,.T.);
#141=ORIENTED_EDGE('',*,*,#263,.T.);
#142=ORIENTED_EDGE('',*,*,#253,.F.);
#143=ORIENTED_EDGE('',*,*,#260,.F.);
#144=ORIENTED_EDGE('',*,*,#264,.T.);
#145=ORIENTED_EDGE('',*,*,#265,.T.);
#146=ORIENTED_EDGE('',*,*,#266,.F.);
#147=ORIENTED_EDGE('',*,*,#267,.T.);
#148=ORIENTED_EDGE('',*,*,#242,.F.);
#149=ORIENTED_EDGE('',*,*,#268,.T.);
#150=ORIENTED_EDGE('',*,*,#262,.F.);
#151=ORIENTED_EDGE('',*,*,#259,.T.);
#152=ORIENTED_EDGE('',*,*,#269,.F.);
#153=ORIENTED_EDGE('',*,*,#270,.F.);
#154=ORIENTED_EDGE('',*,*,#255,.F.);
#155=ORIENTED_EDGE('',*,*,#249,.F.);
#156=ORIENTED_EDGE('',*,*,#237,.T.);
#157=ORIENTED_EDGE('',*,*,#271,.F.);
#158=ORIENTED_EDGE('',*,*,#272,.F.);
#159=ORIENTED_EDGE('',*,*,#257,.T.);
#160=ORIENTED_EDGE('',*,*,#273,.F.);
#161=ORIENTED_EDGE('',*,*,#235,.F.);
#162=ORIENTED_EDGE('',*,*,#274,.T.);
#163=ORIENTED_EDGE('',*,*,#275,.F.);
#164=ORIENTED_EDGE('',*,*,#276,.T.);
#165=ORIENTED_EDGE('',*,*,#270,.T.);
#166=ORIENTED_EDGE('',*,*,#236,.T.);
#167=ORIENTED_EDGE('',*,*,#273,.T.);
#168=ORIENTED_EDGE('',*,*,#256,.T.);
#169=ORIENTED_EDGE('',*,*,#271,.T.);
#170=ORIENTED_EDGE('',*,*,#269,.T.);
#171=ORIENTED_EDGE('',*,*,#261,.T.);
#172=ORIENTED_EDGE('',*,*,#258,.T.);
#173=ORIENTED_EDGE('',*,*,#272,.T.);
#174=ORIENTED_EDGE('',*,*,#277,.T.);
#175=ORIENTED_EDGE('',*,*,#278,.T.);
#176=ORIENTED_EDGE('',*,*,#233,.F.);
#177=ORIENTED_EDGE('',*,*,#279,.F.);
#178=ORIENTED_EDGE('',*,*,#241,.T.);
#179=ORIENTED_EDGE('',*,*,#280,.T.);
#180=ORIENTED_EDGE('',*,*,#281,.F.);
#181=ORIENTED_EDGE('',*,*,#279,.T.);
#182=ORIENTED_EDGE('',*,*,#282,.T.);
#183=ORIENTED_EDGE('',*,*,#283,.T.);
#184=ORIENTED_EDGE('',*,*,#284,.F.);
#185=ORIENTED_EDGE('',*,*,#275,.T.);
#186=ORIENTED_EDGE('',*,*,#285,.T.);
#187=ORIENTED_EDGE('',*,*,#277,.F.);
#188=ORIENTED_EDGE('',*,*,#281,.T.);
#189=ORIENTED_EDGE('',*,*,#286,.T.);
#190=ORIENTED_EDGE('',*,*,#244,.T.);
#191=ORIENTED_EDGE('',*,*,#287,.T.);
#192=ORIENTED_EDGE('',*,*,#285,.F.);
#193=ORIENTED_EDGE('',*,*,#274,.F.);
#194=ORIENTED_EDGE('',*,*,#234,.F.);
#195=ORIENTED_EDGE('',*,*,#278,.F.);
#196=ORIENTED_EDGE('',*,*,#286,.F.);
#197=ORIENTED_EDGE('',*,*,#280,.F.);
#198=ORIENTED_EDGE('',*,*,#240,.F.);
#199=ORIENTED_EDGE('',*,*,#245,.F.);
#200=ORIENTED_EDGE('',*,*,#268,.F.);
#201=ORIENTED_EDGE('',*,*,#248,.F.);
#202=ORIENTED_EDGE('',*,*,#254,.F.);
#203=ORIENTED_EDGE('',*,*,#263,.F.);
#204=ORIENTED_EDGE('',*,*,#288,.F.);
#205=ORIENTED_EDGE('',*,*,#266,.T.);
#206=ORIENTED_EDGE('',*,*,#289,.T.);
#207=ORIENTED_EDGE('',*,*,#282,.F.);
#208=ORIENTED_EDGE('',*,*,#290,.T.);
#209=ORIENTED_EDGE('',*,*,#291,.F.);
#210=ORIENTED_EDGE('',*,*,#292,.T.);
#211=ORIENTED_EDGE('',*,*,#264,.F.);
#212=ORIENTED_EDGE('',*,*,#276,.F.);
#213=ORIENTED_EDGE('',*,*,#284,.T.);
#214=ORIENTED_EDGE('',*,*,#267,.F.);
#215=ORIENTED_EDGE('',*,*,#290,.F.);
#216=ORIENTED_EDGE('',*,*,#287,.F.);
#217=ORIENTED_EDGE('',*,*,#243,.F.);
#218=ORIENTED_EDGE('',*,*,#283,.F.);
#219=ORIENTED_EDGE('',*,*,#289,.F.);
#220=ORIENTED_EDGE('',*,*,#265,.F.);
#221=ORIENTED_EDGE('',*,*,#292,.F.);
#222=ORIENTED_EDGE('',*,*,#230,.T.);
#223=ORIENTED_EDGE('',*,*,#291,.T.);
#224=ORIENTED_EDGE('',*,*,#293,.T.);
#225=ORIENTED_EDGE('',*,*,#231,.F.);
#226=ORIENTED_EDGE('',*,*,#294,.F.);
#227=ORIENTED_EDGE('',*,*,#288,.T.);
#228=ORIENTED_EDGE('',*,*,#293,.F.);
#229=ORIENTED_EDGE('',*,*,#294,.T.);
#230=EDGE_CURVE('',#295,#295,#341,.T.);
#231=EDGE_CURVE('',#296,#296,#342,.T.);
#232=EDGE_CURVE('',#297,#297,#343,.T.);
#233=EDGE_CURVE('',#298,#299,#344,.T.);
#234=EDGE_CURVE('',#299,#300,#345,.T.);
#235=EDGE_CURVE('',#300,#301,#26,.T.);
#236=EDGE_CURVE('',#302,#301,#346,.T.);
#237=EDGE_CURVE('',#303,#302,#27,.T.);
#238=EDGE_CURVE('',#303,#304,#347,.T.);
#239=EDGE_CURVE('',#304,#305,#28,.T.);
#240=EDGE_CURVE('',#305,#306,#348,.F.);
#241=EDGE_CURVE('',#298,#306,#29,.T.);
#242=EDGE_CURVE('',#307,#308,#30,.T.);
#243=EDGE_CURVE('',#308,#309,#31,.T.);
#244=EDGE_CURVE('',#310,#309,#32,.T.);
#245=EDGE_CURVE('',#310,#305,#33,.T.);
#246=EDGE_CURVE('',#311,#304,#34,.T.);
#247=EDGE_CURVE('',#311,#312,#35,.T.);
#248=EDGE_CURVE('',#312,#307,#36,.F.);
#249=EDGE_CURVE('',#303,#313,#37,.T.);
#250=EDGE_CURVE('',#313,#311,#349,.T.);
#251=EDGE_CURVE('',#314,#314,#350,.T.);
#252=EDGE_CURVE('',#315,#316,#351,.T.);
#253=EDGE_CURVE('',#315,#317,#38,.T.);
#254=EDGE_CURVE('',#317,#312,#352,.T.);
#255=EDGE_CURVE('',#313,#318,#39,.T.);
#256=EDGE_CURVE('',#319,#318,#353,.F.);
#257=EDGE_CURVE('',#320,#319,#40,.T.);
#258=EDGE_CURVE('',#316,#320,#354,.T.);
#259=EDGE_CURVE('',#321,#322,#355,.T.);
#260=EDGE_CURVE('',#321,#315,#41,.T.);
#261=EDGE_CURVE('',#322,#316,#42,.T.);
#262=EDGE_CURVE('',#321,#323,#43,.T.);
#263=EDGE_CURVE('',#323,#317,#44,.T.);
#264=EDGE_CURVE('',#324,#325,#45,.T.);
#265=EDGE_CURVE('',#325,#326,#46,.F.);
#266=EDGE_CURVE('',#327,#326,#47,.T.);
#267=EDGE_CURVE('',#327,#308,#356,.T.);
#268=EDGE_CURVE('',#307,#323,#357,.T.);
#269=EDGE_CURVE('',#328,#322,#358,.T.);
#270=EDGE_CURVE('',#324,#328,#48,.T.);
#271=EDGE_CURVE('',#318,#302,#49,.F.);
#272=EDGE_CURVE('',#320,#328,#50,.F.);
#273=EDGE_CURVE('',#301,#319,#51,.T.);
#274=EDGE_CURVE('',#300,#329,#52,.F.);
#275=EDGE_CURVE('',#330,#329,#53,.T.);
#276=EDGE_CURVE('',#330,#324,#54,.T.);
#277=EDGE_CURVE('',#331,#332,#359,.T.);
#278=EDGE_CURVE('',#332,#299,#55,.T.);
#279=EDGE_CURVE('',#331,#298,#56,.T.);
#280=EDGE_CURVE('',#306,#333,#57,.F.);
#281=EDGE_CURVE('',#331,#333,#58,.T.);
#282=EDGE_CURVE('',#334,#335,#59,.T.);
#283=EDGE_CURVE('',#335,#336,#60,.T.);
#284=EDGE_CURVE('',#330,#336,#61,.T.);
#285=EDGE_CURVE('',#329,#332,#360,.T.);
#286=EDGE_CURVE('',#333,#310,#361,.T.);
#287=EDGE_CURVE('',#309,#334,#362,.T.);
#288=EDGE_CURVE('',#337,#337,#363,.T.);
#289=EDGE_CURVE('',#326,#335,#364,.T.);
#290=EDGE_CURVE('',#334,#327,#62,.F.);
#291=EDGE_CURVE('',#338,#338,#365,.T.);
#292=EDGE_CURVE('',#336,#325,#366,.F.);
#293=EDGE_CURVE('',#339,#339,#367,.T.);
#294=EDGE_CURVE('',#340,#340,#368,.T.);
#295=VERTEX_POINT('',#703);
#296=VERTEX_POINT('',#705);
#297=VERTEX_POINT('',#708);
#298=VERTEX_POINT('',#710);
#299=VERTEX_POINT('',#711);
#300=VERTEX_POINT('',#713);
#301=VERTEX_POINT('',#715);
#302=VERTEX_POINT('',#717);
#303=VERTEX_POINT('',#719);
#304=VERTEX_POINT('',#721);
#305=VERTEX_POINT('',#723);
#306=VERTEX_POINT('',#725);
#307=VERTEX_POINT('',#729);
#308=VERTEX_POINT('',#730);
#309=VERTEX_POINT('',#732);
#310=VERTEX_POINT('',#734);
#311=VERTEX_POINT('',#737);
#312=VERTEX_POINT('',#739);
#313=VERTEX_POINT('',#743);
#314=VERTEX_POINT('',#747);
#315=VERTEX_POINT('',#750);
#316=VERTEX_POINT('',#751);
#317=VERTEX_POINT('',#753);
#318=VERTEX_POINT('',#756);
#319=VERTEX_POINT('',#758);
#320=VERTEX_POINT('',#760);
#321=VERTEX_POINT('',#764);
#322=VERTEX_POINT('',#765);
#323=VERTEX_POINT('',#770);
#324=VERTEX_POINT('',#774);
#325=VERTEX_POINT('',#775);
#326=VERTEX_POINT('',#777);
#327=VERTEX_POINT('',#779);
#328=VERTEX_POINT('',#783);
#329=VERTEX_POINT('',#791);
#330=VERTEX_POINT('',#793);
#331=VERTEX_POINT('',#799);
#332=VERTEX_POINT('',#800);
#333=VERTEX_POINT('',#805);
#334=VERTEX_POINT('',#809);
#335=VERTEX_POINT('',#810);
#336=VERTEX_POINT('',#812);
#337=VERTEX_POINT('',#822);
#338=VERTEX_POINT('',#827);
#339=VERTEX_POINT('',#834);
#340=VERTEX_POINT('',#837);
#341=CIRCLE('',#497,0.00215);
#342=CIRCLE('',#498,0.0035);
#343=CIRCLE('',#500,0.00215);
#344=CIRCLE('',#501,0.0085);
#345=CIRCLE('',#502,0.003);
#346=CIRCLE('',#503,0.005);
#347=CIRCLE('',#504,0.0065);
#348=CIRCLE('',#505,0.002);
#349=CIRCLE('',#508,0.0065);
#350=CIRCLE('',#510,0.00215);
#351=CIRCLE('',#512,0.0085);
#352=CIRCLE('',#513,0.002);
#353=CIRCLE('',#514,0.005);
#354=CIRCLE('',#515,0.003);
#355=CIRCLE('',#517,0.0085);
#356=CIRCLE('',#520,0.005);
#357=CIRCLE('',#521,0.002);
#358=CIRCLE('',#522,0.003);
#359=CIRCLE('',#528,0.0085);
#360=CIRCLE('',#531,0.003);
#361=CIRCLE('',#532,0.002);
#362=CIRCLE('',#533,0.005);
#363=CIRCLE('',#538,0.0055);
#364=CIRCLE('',#539,0.0075);
#365=CIRCLE('',#541,0.00215);
#366=CIRCLE('',#542,0.0075);
#367=CIRCLE('',#547,0.0035);
#368=CIRCLE('',#549,0.0055);
#369=EDGE_LOOP('',(#100));
#370=EDGE_LOOP('',(#101));
#371=EDGE_LOOP('',(#102));
#372=EDGE_LOOP('',(#103,#104,#105,#106,#107,#108,#109,#110,#111));
#373=EDGE_LOOP('',(#112,#113,#114,#115,#116,#117,#118,#119));
#374=EDGE_LOOP('',(#120,#121,#122,#123));
#375=EDGE_LOOP('',(#124));
#376=EDGE_LOOP('',(#125));
#377=EDGE_LOOP('',(#126,#127,#128,#129,#130,#131,#132,#133,#134));
#378=EDGE_LOOP('',(#135));
#379=EDGE_LOOP('',(#136,#137,#138,#139));
#380=EDGE_LOOP('',(#140,#141,#142,#143));
#381=EDGE_LOOP('',(#144,#145,#146,#147,#148,#149,#150,#151,#152,#153));
#382=EDGE_LOOP('',(#154,#155,#156,#157));
#383=EDGE_LOOP('',(#158,#159,#160,#161,#162,#163,#164,#165));
#384=EDGE_LOOP('',(#166,#167,#168,#169));
#385=EDGE_LOOP('',(#170,#171,#172,#173));
#386=EDGE_LOOP('',(#174,#175,#176,#177));
#387=EDGE_LOOP('',(#178,#179,#180,#181));
#388=EDGE_LOOP('',(#182,#183,#184,#185,#186,#187,#188,#189,#190,#191));
#389=EDGE_LOOP('',(#192,#193,#194,#195));
#390=EDGE_LOOP('',(#196,#197,#198,#199));
#391=EDGE_LOOP('',(#200,#201,#202,#203));
#392=EDGE_LOOP('',(#204));
#393=EDGE_LOOP('',(#205,#206,#207,#208));
#394=EDGE_LOOP('',(#209));
#395=EDGE_LOOP('',(#210,#211,#212,#213));
#396=EDGE_LOOP('',(#214,#215,#216,#217));
#397=EDGE_LOOP('',(#218,#219,#220,#221));
#398=EDGE_LOOP('',(#222));
#399=EDGE_LOOP('',(#223));
#400=EDGE_LOOP('',(#224));
#401=EDGE_LOOP('',(#225));
#402=EDGE_LOOP('',(#226));
#403=EDGE_LOOP('',(#227));
#404=EDGE_LOOP('',(#228));
#405=EDGE_LOOP('',(#229));
#406=FACE_BOUND('',#369,.T.);
#407=FACE_BOUND('',#370,.T.);
#408=FACE_BOUND('',#371,.T.);
#409=FACE_BOUND('',#372,.T.);
#410=FACE_BOUND('',#373,.T.);
#411=FACE_BOUND('',#374,.T.);
#412=FACE_BOUND('',#375,.T.);
#413=FACE_BOUND('',#376,.T.);
#414=FACE_BOUND('',#377,.T.);
#415=FACE_BOUND('',#378,.T.);
#416=FACE_BOUND('',#379,.T.);
#417=FACE_BOUND('',#380,.T.);
#418=FACE_BOUND('',#381,.T.);
#419=FACE_BOUND('',#382,.T.);
#420=FACE_BOUND('',#383,.T.);
#421=FACE_BOUND('',#384,.T.);
#422=FACE_BOUND('',#385,.T.);
#423=FACE_BOUND('',#386,.T.);
#424=FACE_BOUND('',#387,.T.);
#425=FACE_BOUND('',#388,.T.);
#426=FACE_BOUND('',#389,.T.);
#427=FACE_BOUND('',#390,.T.);
#428=FACE_BOUND('',#391,.T.);
#429=FACE_BOUND('',#392,.T.);
#430=FACE_BOUND('',#393,.T.);
#431=FACE_BOUND('',#394,.T.);
#432=FACE_BOUND('',#395,.T.);
#433=FACE_BOUND('',#396,.T.);
#434=FACE_BOUND('',#397,.T.);
#435=FACE_BOUND('',#398,.T.);
#436=FACE_BOUND('',#399,.T.);
#437=FACE_BOUND('',#400,.T.);
#438=FACE_BOUND('',#401,.T.);
#439=FACE_BOUND('',#402,.T.);
#440=FACE_BOUND('',#403,.T.);
#441=FACE_BOUND('',#404,.T.);
#442=FACE_BOUND('',#405,.T.);
#443=PLANE('',#496);
#444=PLANE('',#499);
#445=PLANE('',#506);
#446=PLANE('',#511);
#447=PLANE('',#518);
#448=PLANE('',#519);
#449=PLANE('',#523);
#450=PLANE('',#524);
#451=PLANE('',#529);
#452=PLANE('',#530);
#453=PLANE('',#537);
#454=PLANE('',#540);
#455=PLANE('',#550);
#456=ADVANCED_FACE('',(#406,#407),#443,.T.);
#457=ADVANCED_FACE('',(#408,#409),#444,.T.);
#458=ADVANCED_FACE('',(#410),#445,.T.);
#459=ADVANCED_FACE('',(#411),#12,.T.);
#460=ADVANCED_FACE('',(#412,#413),#13,.F.);
#461=ADVANCED_FACE('',(#414,#415),#446,.F.);
#462=ADVANCED_FACE('',(#416),#14,.F.);
#463=ADVANCED_FACE('',(#417),#447,.F.);
#464=ADVANCED_FACE('',(#418),#448,.T.);
#465=ADVANCED_FACE('',(#419),#449,.F.);
#466=ADVANCED_FACE('',(#420),#450,.T.);
#467=ADVANCED_FACE('',(#421),#15,.T.);
#468=ADVANCED_FACE('',(#422),#16,.T.);
#469=ADVANCED_FACE('',(#423),#17,.F.);
#470=ADVANCED_FACE('',(#424),#451,.F.);
#471=ADVANCED_FACE('',(#425),#452,.T.);
#472=ADVANCED_FACE('',(#426),#18,.T.);
#473=ADVANCED_FACE('',(#427),#19,.T.);
#474=ADVANCED_FACE('',(#428),#20,.T.);
#475=ADVANCED_FACE('',(#429,#430),#453,.T.);
#476=ADVANCED_FACE('',(#431,#432),#454,.F.);
#477=ADVANCED_FACE('',(#433),#21,.T.);
#478=ADVANCED_FACE('',(#434),#22,.T.);
#479=ADVANCED_FACE('',(#435,#436),#23,.F.);
#480=ADVANCED_FACE('',(#437,#438),#24,.T.);
#481=ADVANCED_FACE('',(#439,#440),#25,.F.);
#482=ADVANCED_FACE('',(#441,#442),#455,.T.);
#483=CLOSED_SHELL('',(#456,#457,#458,#459,#460,#461,#462,#463,#464,#465,
#466,#467,#468,#469,#470,#471,#472,#473,#474,#475,#476,#477,#478,#479,#480,
#481,#482));
#484=STYLED_ITEM('',(#485),#492);
#485=PRESENTATION_STYLE_ASSIGNMENT((#486));
#486=SURFACE_STYLE_USAGE(.BOTH.,#487);
#487=SURFACE_SIDE_STYLE('',(#488));
#488=SURFACE_STYLE_FILL_AREA(#489);
#489=FILL_AREA_STYLE('',(#490));
#490=FILL_AREA_STYLE_COLOUR('',#491);
#491=COLOUR_RGB('',0.231372549019608,0.380392156862745,0.705882352941177);
#492=MANIFOLD_SOLID_BREP('Joint 4',#483);
#493=SHAPE_DEFINITION_REPRESENTATION(#845,#494);
#494=SHAPE_REPRESENTATION('Joint 4',(#495),#840);
#495=AXIS2_PLACEMENT_3D('',#700,#551,#552);
#496=AXIS2_PLACEMENT_3D('',#701,#553,#554);
#497=AXIS2_PLACEMENT_3D('',#702,#555,#556);
#498=AXIS2_PLACEMENT_3D('',#704,#557,#558);
#499=AXIS2_PLACEMENT_3D('',#706,#559,#560);
#500=AXIS2_PLACEMENT_3D('',#707,#561,#562);
#501=AXIS2_PLACEMENT_3D('',#709,#563,#564);
#502=AXIS2_PLACEMENT_3D('',#712,#565,#566);
#503=AXIS2_PLACEMENT_3D('',#716,#568,#569);
#504=AXIS2_PLACEMENT_3D('',#720,#571,#572);
#505=AXIS2_PLACEMENT_3D('',#724,#574,#575);
#506=AXIS2_PLACEMENT_3D('',#727,#577,#578);
#507=AXIS2_PLACEMENT_3D('',#741,#586,#587);
#508=AXIS2_PLACEMENT_3D('',#744,#589,#590);
#509=AXIS2_PLACEMENT_3D('',#745,#591,#592);
#510=AXIS2_PLACEMENT_3D('',#746,#593,#594);
#511=AXIS2_PLACEMENT_3D('',#748,#595,#596);
#512=AXIS2_PLACEMENT_3D('',#749,#597,#598);
#513=AXIS2_PLACEMENT_3D('',#754,#600,#601);
#514=AXIS2_PLACEMENT_3D('',#757,#603,#604);
#515=AXIS2_PLACEMENT_3D('',#761,#606,#607);
#516=AXIS2_PLACEMENT_3D('',#762,#608,#609);
#517=AXIS2_PLACEMENT_3D('',#763,#610,#611);
#518=AXIS2_PLACEMENT_3D('',#768,#614,#615);
#519=AXIS2_PLACEMENT_3D('',#772,#618,#619);
#520=AXIS2_PLACEMENT_3D('',#780,#623,#624);
#521=AXIS2_PLACEMENT_3D('',#781,#625,#626);
#522=AXIS2_PLACEMENT_3D('',#782,#627,#628);
#523=AXIS2_PLACEMENT_3D('',#785,#630,#631);
#524=AXIS2_PLACEMENT_3D('',#787,#633,#634);
#525=AXIS2_PLACEMENT_3D('',#795,#640,#641);
#526=AXIS2_PLACEMENT_3D('',#796,#642,#643);
#527=AXIS2_PLACEMENT_3D('',#797,#644,#645);
#528=AXIS2_PLACEMENT_3D('',#798,#646,#647);
#529=AXIS2_PLACEMENT_3D('',#803,#650,#651);
#530=AXIS2_PLACEMENT_3D('',#807,#654,#655);
#531=AXIS2_PLACEMENT_3D('',#814,#659,#660);
#532=AXIS2_PLACEMENT_3D('',#815,#661,#662);
#533=AXIS2_PLACEMENT_3D('',#816,#663,#664);
#534=AXIS2_PLACEMENT_3D('',#817,#665,#666);
#535=AXIS2_PLACEMENT_3D('',#818,#667,#668);
#536=AXIS2_PLACEMENT_3D('',#819,#669,#670);
#537=AXIS2_PLACEMENT_3D('',#820,#671,#672);
#538=AXIS2_PLACEMENT_3D('',#821,#673,#674);
#539=AXIS2_PLACEMENT_3D('',#823,#675,#676);
#540=AXIS2_PLACEMENT_3D('',#825,#678,#679);
#541=AXIS2_PLACEMENT_3D('',#826,#680,#681);
#542=AXIS2_PLACEMENT_3D('',#828,#682,#683);
#543=AXIS2_PLACEMENT_3D('',#829,#684,#685);
#544=AXIS2_PLACEMENT_3D('',#830,#686,#687);
#545=AXIS2_PLACEMENT_3D('',#831,#688,#689);
#546=AXIS2_PLACEMENT_3D('',#832,#690,#691);
#547=AXIS2_PLACEMENT_3D('',#833,#692,#693);
#548=AXIS2_PLACEMENT_3D('',#835,#694,#695);
#549=AXIS2_PLACEMENT_3D('',#836,#696,#697);
#550=AXIS2_PLACEMENT_3D('',#838,#698,#699);
#551=DIRECTION('',(0.,0.,1.));
#552=DIRECTION('',(1.,0.,0.));
#553=DIRECTION('',(0.,0.,-1.));
#554=DIRECTION('',(1.,0.,0.));
#555=DIRECTION('',(0.,0.,-1.));
#556=DIRECTION('',(-1.,0.,0.));
#557=DIRECTION('',(0.,0.,-1.));
#558=DIRECTION('',(-1.,0.,0.));
#559=DIRECTION('',(0.,-1.,0.));
#560=DIRECTION('',(1.,0.,0.));
#561=DIRECTION('',(0.,-1.,0.));
#562=DIRECTION('',(0.,0.,-1.));
#563=DIRECTION('',(0.,-1.,0.));
#564=DIRECTION('',(0.,0.,-1.));
#565=DIRECTION('',(0.,1.,0.));
#566=DIRECTION('',(0.,0.,1.));
#567=DIRECTION('',(0.,0.,1.));
#568=DIRECTION('',(0.,1.,0.));
#569=DIRECTION('',(0.,0.,1.));
#570=DIRECTION('',(1.,0.,0.));
#571=DIRECTION('',(0.,-1.,0.));
#572=DIRECTION('',(0.,0.,-1.));
#573=DIRECTION('',(0.,0.,-1.));
#574=DIRECTION('',(0.,-1.,0.));
#575=DIRECTION('',(0.,0.,-1.));
#576=DIRECTION('',(-1.,0.,0.));
#577=DIRECTION('',(-1.,0.,0.));
#578=DIRECTION('',(0.,0.,1.));
#579=DIRECTION('',(0.,0.,-1.));
#580=DIRECTION('',(0.,-1.,0.));
#581=DIRECTION('',(0.,0.,-1.));
#582=DIRECTION('',(0.,1.,0.));
#583=DIRECTION('',(0.,-1.,0.));
#584=DIRECTION('',(0.,0.,-1.));
#585=DIRECTION('',(0.,-1.,0.));
#586=DIRECTION('',(0.,1.,0.));
#587=DIRECTION('',(0.,0.,1.));
#588=DIRECTION('',(0.,1.,0.));
#589=DIRECTION('',(0.,-1.,0.));
#590=DIRECTION('',(0.,0.,-1.));
#591=DIRECTION('',(0.,1.,0.));
#592=DIRECTION('',(0.,0.,1.));
#593=DIRECTION('',(0.,-1.,0.));
#594=DIRECTION('',(0.,0.,-1.));
#595=DIRECTION('',(0.,-1.,0.));
#596=DIRECTION('',(1.,0.,0.));
#597=DIRECTION('',(0.,-1.,0.));
#598=DIRECTION('',(0.,0.,-1.));
#599=DIRECTION('',(-1.,0.,0.));
#600=DIRECTION('',(0.,-1.,0.));
#601=DIRECTION('',(0.,0.,-1.));
#602=DIRECTION('',(1.,0.,0.));
#603=DIRECTION('',(0.,1.,0.));
#604=DIRECTION('',(0.,0.,1.));
#605=DIRECTION('',(0.,0.,1.));
#606=DIRECTION('',(0.,1.,0.));
#607=DIRECTION('',(0.,0.,1.));
#608=DIRECTION('',(0.,-1.,0.));
#609=DIRECTION('',(0.,0.,1.));
#610=DIRECTION('',(0.,-1.,0.));
#611=DIRECTION('',(0.,0.,-1.));
#612=DIRECTION('',(0.,-1.,0.));
#613=DIRECTION('',(0.,-1.,0.));
#614=DIRECTION('',(0.,0.,-1.));
#615=DIRECTION('',(-1.,0.,0.));
#616=DIRECTION('',(-1.,0.,0.));
#617=DIRECTION('',(0.,-1.,0.));
#618=DIRECTION('',(0.,1.,0.));
#619=DIRECTION('',(1.,0.,0.));
#620=DIRECTION('',(1.,0.,0.));
#621=DIRECTION('',(0.,0.,1.));
#622=DIRECTION('',(1.,0.,0.));
#623=DIRECTION('',(0.,1.,0.));
#624=DIRECTION('',(0.,0.,1.));
#625=DIRECTION('',(0.,1.,0.));
#626=DIRECTION('',(0.,0.,1.));
#627=DIRECTION('',(0.,-1.,0.));
#628=DIRECTION('',(0.,0.,-1.));
#629=DIRECTION('',(0.,0.,1.));
#630=DIRECTION('',(0.,0.,-1.));
#631=DIRECTION('',(-1.,0.,0.));
#632=DIRECTION('',(0.,1.,0.));
#633=DIRECTION('',(1.,0.,0.));
#634=DIRECTION('',(0.,0.,-1.));
#635=DIRECTION('',(0.,-1.,0.));
#636=DIRECTION('',(0.,1.,0.));
#637=DIRECTION('',(0.,1.,0.));
#638=DIRECTION('',(0.,0.,1.));
#639=DIRECTION('',(0.,1.,0.));
#640=DIRECTION('',(0.,-1.,0.));
#641=DIRECTION('',(0.,0.,1.));
#642=DIRECTION('',(0.,-1.,0.));
#643=DIRECTION('',(0.,0.,1.));
#644=DIRECTION('',(0.,1.,0.));
#645=DIRECTION('',(0.,0.,1.));
#646=DIRECTION('',(0.,-1.,0.));
#647=DIRECTION('',(0.,0.,-1.));
#648=DIRECTION('',(0.,1.,0.));
#649=DIRECTION('',(0.,1.,0.));
#650=DIRECTION('',(0.,0.,-1.));
#651=DIRECTION('',(-1.,0.,0.));
#652=DIRECTION('',(0.,1.,0.));
#653=DIRECTION('',(-1.,0.,0.));
#654=DIRECTION('',(0.,-1.,0.));
#655=DIRECTION('',(1.,0.,0.));
#656=DIRECTION('',(1.,0.,0.));
#657=DIRECTION('',(0.,0.,1.));
#658=DIRECTION('',(1.,0.,0.));
#659=DIRECTION('',(0.,-1.,0.));
#660=DIRECTION('',(0.,0.,-1.));
#661=DIRECTION('',(0.,-1.,0.));
#662=DIRECTION('',(0.,0.,-1.));
#663=DIRECTION('',(0.,-1.,0.));
#664=DIRECTION('',(0.,0.,-1.));
#665=DIRECTION('',(0.,1.,0.));
#666=DIRECTION('',(0.,0.,1.));
#667=DIRECTION('',(0.,-1.,0.));
#668=DIRECTION('',(0.,0.,-1.));
#669=DIRECTION('',(0.,1.,0.));
#670=DIRECTION('',(0.,0.,1.));
#671=DIRECTION('',(0.,0.,-1.));
#672=DIRECTION('',(1.,0.,0.));
#673=DIRECTION('',(0.,0.,-1.));
#674=DIRECTION('',(-1.,0.,0.));
#675=DIRECTION('',(0.,0.,-1.));
#676=DIRECTION('',(-1.,0.,0.));
#677=DIRECTION('',(0.,-1.,0.));
#678=DIRECTION('',(0.,0.,-1.));
#679=DIRECTION('',(1.,0.,0.));
#680=DIRECTION('',(0.,0.,1.));
#681=DIRECTION('',(1.,0.,0.));
#682=DIRECTION('',(0.,0.,-1.));
#683=DIRECTION('',(-1.,0.,0.));
#684=DIRECTION('',(0.,-1.,0.));
#685=DIRECTION('',(0.,0.,-1.));
#686=DIRECTION('',(0.,0.,1.));
#687=DIRECTION('',(1.,0.,0.));
#688=DIRECTION('',(0.,0.,1.));
#689=DIRECTION('',(1.,0.,0.));
#690=DIRECTION('',(0.,0.,-1.));
#691=DIRECTION('',(-1.,0.,0.));
#692=DIRECTION('',(0.,0.,-1.));
#693=DIRECTION('',(-1.,0.,0.));
#694=DIRECTION('',(0.,0.,-1.));
#695=DIRECTION('',(-1.,0.,0.));
#696=DIRECTION('',(0.,0.,-1.));
#697=DIRECTION('',(-1.,0.,0.));
#698=DIRECTION('',(0.,0.,-1.));
#699=DIRECTION('',(1.,0.,0.));
#700=CARTESIAN_POINT('',(0.,0.,0.));
#701=CARTESIAN_POINT('',(0.3175,-0.0325,-0.046));
#702=CARTESIAN_POINT('',(0.325,-0.0325,-0.046));
#703=CARTESIAN_POINT('',(0.32285,-0.0325,-0.046));
#704=CARTESIAN_POINT('',(0.325,-0.0325,-0.046));
#705=CARTESIAN_POINT('',(0.3215,-0.0325,-0.046));
#706=CARTESIAN_POINT('',(0.3075,-0.036,-0.019));
#707=CARTESIAN_POINT('',(0.309,-0.036,-0.019));
#708=CARTESIAN_POINT('',(0.309,-0.036,-0.02115));
#709=CARTESIAN_POINT('',(0.309,-0.036,-0.019));
#710=CARTESIAN_POINT('',(0.309,-0.036,-0.0275));
#711=CARTESIAN_POINT('',(0.313065217391304,-0.036,-0.0264648514761806));
#712=CARTESIAN_POINT('',(0.3145,-0.036,-0.029099504938362));
#713=CARTESIAN_POINT('',(0.3175,-0.036,-0.029099504938362));
#714=CARTESIAN_POINT('',(0.3175,-0.036,-0.01575));
#715=CARTESIAN_POINT('',(0.3175,-0.036,-0.0175));
#716=CARTESIAN_POINT('',(0.3125,-0.036,-0.0175));
#717=CARTESIAN_POINT('',(0.3125,-0.036,-0.0125));
#718=CARTESIAN_POINT('',(0.315988612787526,-0.036,-0.0125));
#719=CARTESIAN_POINT('',(0.309,-0.036,-0.0125));
#720=CARTESIAN_POINT('',(0.309,-0.036,-0.019));
#721=CARTESIAN_POINT('',(0.3025,-0.036,-0.019));
#722=CARTESIAN_POINT('',(0.3025,-0.036,-0.025));
#723=CARTESIAN_POINT('',(0.3025,-0.036,-0.0295));
#724=CARTESIAN_POINT('',(0.3045,-0.036,-0.0295));
#725=CARTESIAN_POINT('',(0.3045,-0.036,-0.0275));
#726=CARTESIAN_POINT('',(0.30575,-0.036,-0.0275));
#727=CARTESIAN_POINT('',(0.3025,-0.029,-0.025));
#728=CARTESIAN_POINT('',(0.3025,-0.025,-0.025));
#729=CARTESIAN_POINT('',(0.3025,-0.025,-0.0295));
#730=CARTESIAN_POINT('',(0.3025,-0.025,-0.041));
#731=CARTESIAN_POINT('',(0.3025,-0.029,-0.041));
#732=CARTESIAN_POINT('',(0.3025,-0.04,-0.041));
#733=CARTESIAN_POINT('',(0.3025,-0.04,-0.025));
#734=CARTESIAN_POINT('',(0.3025,-0.04,-0.0295));
#735=CARTESIAN_POINT('',(0.3025,-0.036,-0.0295));
#736=CARTESIAN_POINT('',(0.3025,-0.029,-0.019));
#737=CARTESIAN_POINT('',(0.3025,-0.029,-0.019));
#738=CARTESIAN_POINT('',(0.3025,-0.029,-0.025));
#739=CARTESIAN_POINT('',(0.3025,-0.029,-0.0295));
#740=CARTESIAN_POINT('',(0.3025,-0.025,-0.0295));
#741=CARTESIAN_POINT('',(0.309,-0.036,-0.019));
#742=CARTESIAN_POINT('',(0.309,-0.036,-0.0125));
#743=CARTESIAN_POINT('',(0.309,-0.029,-0.0125));
#744=CARTESIAN_POINT('',(0.309,-0.029,-0.019));
#745=CARTESIAN_POINT('',(0.309,-0.036,-0.019));
#746=CARTESIAN_POINT('',(0.309,-0.029,-0.019));
#747=CARTESIAN_POINT('',(0.309,-0.029,-0.02115));
#748=CARTESIAN_POINT('',(0.3075,-0.029,-0.019));
#749=CARTESIAN_POINT('',(0.309,-0.029,-0.019));
#750=CARTESIAN_POINT('',(0.309,-0.029,-0.0275));
#751=CARTESIAN_POINT('',(0.313065217391304,-0.029,-0.0264648514761806));
#752=CARTESIAN_POINT('',(0.30575,-0.029,-0.0275));
#753=CARTESIAN_POINT('',(0.3045,-0.029,-0.0275));
#754=CARTESIAN_POINT('',(0.3045,-0.029,-0.0295));
#755=CARTESIAN_POINT('',(0.315988612787526,-0.029,-0.0125));
#756=CARTESIAN_POINT('',(0.3125,-0.029,-0.0125));
#757=CARTESIAN_POINT('',(0.3125,-0.029,-0.0175));
#758=CARTESIAN_POINT('',(0.3175,-0.029,-0.0175));
#759=CARTESIAN_POINT('',(0.3175,-0.029,-0.01575));
#760=CARTESIAN_POINT('',(0.3175,-0.029,-0.029099504938362));
#761=CARTESIAN_POINT('',(0.3145,-0.029,-0.029099504938362));
#762=CARTESIAN_POINT('',(0.309,-0.025,-0.019));
#763=CARTESIAN_POINT('',(0.309,-0.025,-0.019));
#764=CARTESIAN_POINT('',(0.309,-0.025,-0.0275));
#765=CARTESIAN_POINT('',(0.313065217391304,-0.025,-0.0264648514761806));
#766=CARTESIAN_POINT('',(0.309,-0.025,-0.0275));
#767=CARTESIAN_POINT('',(0.313065217391304,-0.025,-0.0264648514761806));
#768=CARTESIAN_POINT('',(0.30575,-0.025,-0.0275));
#769=CARTESIAN_POINT('',(0.30575,-0.025,-0.0275));
#770=CARTESIAN_POINT('',(0.3045,-0.025,-0.0275));
#771=CARTESIAN_POINT('',(0.3045,-0.029,-0.0275));
#772=CARTESIAN_POINT('',(0.309,-0.025,-0.02075));
#773=CARTESIAN_POINT('',(0.309,-0.025,-0.031));
#774=CARTESIAN_POINT('',(0.3175,-0.025,-0.0309999955750516));
#775=CARTESIAN_POINT('',(0.325,-0.025,-0.031));
#776=CARTESIAN_POINT('',(0.325,-0.025,-0.02075));
#777=CARTESIAN_POINT('',(0.325,-0.025,-0.046));
#778=CARTESIAN_POINT('',(0.309,-0.025,-0.046));
#779=CARTESIAN_POINT('',(0.3075,-0.025,-0.046));
#780=CARTESIAN_POINT('',(0.3075,-0.025,-0.041));
#781=CARTESIAN_POINT('',(0.3045,-0.025,-0.0295));
#782=CARTESIAN_POINT('',(0.3145,-0.025,-0.029099504938362));
#783=CARTESIAN_POINT('',(0.3175,-0.025,-0.029099504938362));
#784=CARTESIAN_POINT('',(0.3175,-0.025,-0.01575));
#785=CARTESIAN_POINT('',(0.315988612787526,-0.036,-0.0125));
#786=CARTESIAN_POINT('',(0.3125,-0.036,-0.0125));
#787=CARTESIAN_POINT('',(0.3175,-0.036,-0.01575));
#788=CARTESIAN_POINT('',(0.3175,-0.036,-0.029099504938362));
#789=CARTESIAN_POINT('',(0.3175,-0.029,-0.0175));
#790=CARTESIAN_POINT('',(0.3175,-0.029,-0.029099504938362));
#791=CARTESIAN_POINT('',(0.3175,-0.04,-0.029099504938362));
#792=CARTESIAN_POINT('',(0.3175,-0.04,-0.01575));
#793=CARTESIAN_POINT('',(0.3175,-0.04,-0.031));
#794=CARTESIAN_POINT('',(0.3175,-0.036,-0.0309999955750516));
#795=CARTESIAN_POINT('',(0.3125,-0.036,-0.0175));
#796=CARTESIAN_POINT('',(0.3145,-0.025,-0.029099504938362));
#797=CARTESIAN_POINT('',(0.309,-0.04,-0.019));
#798=CARTESIAN_POINT('',(0.309,-0.04,-0.019));
#799=CARTESIAN_POINT('',(0.309,-0.04,-0.0275));
#800=CARTESIAN_POINT('',(0.313065217391304,-0.04,-0.0264648514761806));
#801=CARTESIAN_POINT('',(0.313065217391304,-0.04,-0.0264648514761806));
#802=CARTESIAN_POINT('',(0.309,-0.04,-0.0275));
#803=CARTESIAN_POINT('',(0.30575,-0.04,-0.0275));
#804=CARTESIAN_POINT('',(0.3045,-0.04,-0.0275));
#805=CARTESIAN_POINT('',(0.3045,-0.04,-0.0275));
#806=CARTESIAN_POINT('',(0.30575,-0.04,-0.0275));
#807=CARTESIAN_POINT('',(0.309,-0.04,-0.02075));
#808=CARTESIAN_POINT('',(0.309,-0.04,-0.046));
#809=CARTESIAN_POINT('',(0.3075,-0.04,-0.046));
#810=CARTESIAN_POINT('',(0.325,-0.04,-0.046));
#811=CARTESIAN_POINT('',(0.325,-0.04,-0.02075));
#812=CARTESIAN_POINT('',(0.325,-0.04,-0.031));
#813=CARTESIAN_POINT('',(0.309,-0.04,-0.031));
#814=CARTESIAN_POINT('',(0.3145,-0.04,-0.029099504938362));
#815=CARTESIAN_POINT('',(0.3045,-0.04,-0.0295));
#816=CARTESIAN_POINT('',(0.3075,-0.04,-0.041));
#817=CARTESIAN_POINT('',(0.3145,-0.04,-0.029099504938362));
#818=CARTESIAN_POINT('',(0.3045,-0.029,-0.0295));
#819=CARTESIAN_POINT('',(0.3045,-0.025,-0.0295));
#820=CARTESIAN_POINT('',(0.3175,-0.0325,-0.046));
#821=CARTESIAN_POINT('',(0.325,-0.0325,-0.046));
#822=CARTESIAN_POINT('',(0.3195,-0.0325,-0.046));
#823=CARTESIAN_POINT('',(0.325,-0.0325,-0.046));
#824=CARTESIAN_POINT('',(0.3075,-0.0325,-0.046));
#825=CARTESIAN_POINT('',(0.3175,-0.0325,-0.031));
#826=CARTESIAN_POINT('',(0.325,-0.0325,-0.031));
#827=CARTESIAN_POINT('',(0.32715,-0.0325,-0.031));
#828=CARTESIAN_POINT('',(0.325,-0.0325,-0.031));
#829=CARTESIAN_POINT('',(0.3075,-0.029,-0.041));
#830=CARTESIAN_POINT('',(0.325,-0.0325,-0.02075));
#831=CARTESIAN_POINT('',(0.325,-0.0325,-0.056));
#832=CARTESIAN_POINT('',(0.325,-0.0325,-0.0385));
#833=CARTESIAN_POINT('',(0.325,-0.0325,-0.0385));
#834=CARTESIAN_POINT('',(0.3215,-0.0325,-0.0385));
#835=CARTESIAN_POINT('',(0.325,-0.0325,-0.0385));
#836=CARTESIAN_POINT('',(0.325,-0.0325,-0.0385));
#837=CARTESIAN_POINT('',(0.3195,-0.0325,-0.0385));
#838=CARTESIAN_POINT('',(0.32,-0.0325,-0.0385));
#839=MECHANICAL_DESIGN_GEOMETRIC_PRESENTATION_REPRESENTATION('',(#484),
#840);
#840=(
GEOMETRIC_REPRESENTATION_CONTEXT(3)
GLOBAL_UNCERTAINTY_ASSIGNED_CONTEXT((#841))
GLOBAL_UNIT_ASSIGNED_CONTEXT((#844,#843,#842))
REPRESENTATION_CONTEXT('Joint 4','TOP_LEVEL_ASSEMBLY_PART')
);
#841=UNCERTAINTY_MEASURE_WITH_UNIT(LENGTH_MEASURE(1.E-8),#844,
'DISTANCE_ACCURACY_VALUE','Maximum Tolerance applied to model');
#842=(
NAMED_UNIT(*)
SI_UNIT($,.STERADIAN.)
SOLID_ANGLE_UNIT()
);
#843=(
NAMED_UNIT(*)
PLANE_ANGLE_UNIT()
SI_UNIT($,.RADIAN.)
);
#844=(
LENGTH_UNIT()
NAMED_UNIT(*)
SI_UNIT($,.METRE.)
);
#845=PRODUCT_DEFINITION_SHAPE('','',#846);
#846=PRODUCT_DEFINITION('','',#848,#847);
#847=PRODUCT_DEFINITION_CONTEXT('',#854,'design');
#848=PRODUCT_DEFINITION_FORMATION_WITH_SPECIFIED_SOURCE('','',#850,
 .NOT_KNOWN.);
#849=PRODUCT_RELATED_PRODUCT_CATEGORY('','',(#850));
#850=PRODUCT('Joint 4','Joint 4','Joint 4',(#852));
#851=PRODUCT_CATEGORY('','');
#852=PRODUCT_CONTEXT('',#854,'mechanical');
#853=APPLICATION_PROTOCOL_DEFINITION('international standard',
'ap242_managed_model_based_3d_engineering',2020,#854);
#854=APPLICATION_CONTEXT('managed model based 3d engineering');
ENDSEC;
END-ISO-10303-21;
