ISO-10303-21;
HEADER;
/* Generated by software containing ST-Developer
 * from STEP Tools, Inc. (www.steptools.com) 
 */
/* OPTION: using custom renumber hook */

FILE_DESCRIPTION(
/* description */ ('STEP AP242 Edition 2',
'CAx-IF Rec.Pracs.---Representation and Presentation of Product Manufa
cturing Information (PMI)---4.0---2014-10-13',
'CAx-IF Rec.Pracs.---3D Tessellated Geometry---0.4---2014-09-14','2;1',
'CAx-IF Rec.Pracs.---User Defined Attributes---1.5---2016-08-15'),
/* implementation_level */ '2;1');

FILE_NAME(
/* name */ 'Assembly 1 - Phone Holder Male',
/* time_stamp */ '2026-06-23T19:13:03Z',
/* author */ (''),
/* organization */ (''),
/* preprocessor_version */ 'ST-DEVELOPER v20',
/* originating_system */ 'ONSHAPE BY PTC INC, 1.216',
/* authorisation */ '  ');

FILE_SCHEMA (('AP242_MANAGED_MODEL_BASED_3D_ENGINEERING_MIM_LF { 1 0 10303 442 3 1 4 }'));
ENDSEC;

DATA;
#10=SHAPE_REPRESENTATION_RELATIONSHIP('','',#701,#11);
#11=ADVANCED_BREP_SHAPE_REPRESENTATION('',(#699),#1173);
#12=CYLINDRICAL_SURFACE('',#714,0.0015);
#13=CYLINDRICAL_SURFACE('',#716,0.0015);
#14=CYLINDRICAL_SURFACE('',#741,0.00075);
#15=CYLINDRICAL_SURFACE('',#742,0.00075);
#16=CYLINDRICAL_SURFACE('',#743,0.002);
#17=CYLINDRICAL_SURFACE('',#744,0.002);
#18=CYLINDRICAL_SURFACE('',#745,0.0015);
#19=CYLINDRICAL_SURFACE('',#748,0.0015);
#20=CYLINDRICAL_SURFACE('',#750,0.00799993776092834);
#21=CYLINDRICAL_SURFACE('',#759,0.005);
#22=CYLINDRICAL_SURFACE('',#760,0.00799993776092833);
#23=CYLINDRICAL_SURFACE('',#761,0.00799993776092833);
#24=CYLINDRICAL_SURFACE('',#763,0.0015);
#25=CYLINDRICAL_SURFACE('',#766,0.0015);
#26=CYLINDRICAL_SURFACE('',#768,0.002);
#27=CYLINDRICAL_SURFACE('',#769,0.002);
#28=CIRCLE('',#704,0.0015);
#29=CIRCLE('',#705,0.0015);
#30=CIRCLE('',#706,0.0015);
#31=CIRCLE('',#707,0.00799993776092833);
#32=CIRCLE('',#708,0.002);
#33=CIRCLE('',#709,0.002);
#34=CIRCLE('',#710,0.00799993776092833);
#35=CIRCLE('',#711,0.0015);
#36=CIRCLE('',#712,0.0015);
#37=CIRCLE('',#713,0.0015);
#38=CIRCLE('',#715,0.0015);
#39=CIRCLE('',#717,0.0015);
#40=CIRCLE('',#721,0.0015);
#41=CIRCLE('',#722,0.0015);
#42=CIRCLE('',#723,0.0015);
#43=CIRCLE('',#724,0.0015);
#44=CIRCLE('',#725,0.005);
#45=CIRCLE('',#726,0.00799993776092834);
#46=CIRCLE('',#729,0.002);
#47=CIRCLE('',#730,0.002);
#48=CIRCLE('',#731,0.00075);
#49=CIRCLE('',#732,0.00075);
#50=CIRCLE('',#734,0.002);
#51=CIRCLE('',#735,0.00075);
#52=CIRCLE('',#736,0.00075);
#53=CIRCLE('',#737,0.002);
#54=CIRCLE('',#751,0.00799993776092834);
#55=CIRCLE('',#754,0.005);
#56=CIRCLE('',#755,0.002);
#57=CIRCLE('',#756,0.00799993776092833);
#58=CIRCLE('',#757,0.00799993776092833);
#59=CIRCLE('',#758,0.002);
#60=ORIENTED_EDGE('',*,*,#256,.F.);
#61=ORIENTED_EDGE('',*,*,#257,.F.);
#62=ORIENTED_EDGE('',*,*,#258,.F.);
#63=ORIENTED_EDGE('',*,*,#259,.F.);
#64=ORIENTED_EDGE('',*,*,#260,.F.);
#65=ORIENTED_EDGE('',*,*,#261,.F.);
#66=ORIENTED_EDGE('',*,*,#262,.F.);
#67=ORIENTED_EDGE('',*,*,#263,.T.);
#68=ORIENTED_EDGE('',*,*,#264,.F.);
#69=ORIENTED_EDGE('',*,*,#265,.F.);
#70=ORIENTED_EDGE('',*,*,#266,.T.);
#71=ORIENTED_EDGE('',*,*,#267,.T.);
#72=ORIENTED_EDGE('',*,*,#268,.T.);
#73=ORIENTED_EDGE('',*,*,#269,.T.);
#74=ORIENTED_EDGE('',*,*,#270,.T.);
#75=ORIENTED_EDGE('',*,*,#271,.F.);
#76=ORIENTED_EDGE('',*,*,#272,.T.);
#77=ORIENTED_EDGE('',*,*,#273,.F.);
#78=ORIENTED_EDGE('',*,*,#274,.F.);
#79=ORIENTED_EDGE('',*,*,#275,.F.);
#80=ORIENTED_EDGE('',*,*,#276,.F.);
#81=ORIENTED_EDGE('',*,*,#277,.F.);
#82=ORIENTED_EDGE('',*,*,#278,.F.);
#83=ORIENTED_EDGE('',*,*,#279,.F.);
#84=ORIENTED_EDGE('',*,*,#280,.T.);
#85=ORIENTED_EDGE('',*,*,#276,.T.);
#86=ORIENTED_EDGE('',*,*,#281,.T.);
#87=ORIENTED_EDGE('',*,*,#282,.F.);
#88=ORIENTED_EDGE('',*,*,#283,.T.);
#89=ORIENTED_EDGE('',*,*,#259,.T.);
#90=ORIENTED_EDGE('',*,*,#284,.T.);
#91=ORIENTED_EDGE('',*,*,#285,.F.);
#92=ORIENTED_EDGE('',*,*,#268,.F.);
#93=ORIENTED_EDGE('',*,*,#286,.F.);
#94=ORIENTED_EDGE('',*,*,#287,.T.);
#95=ORIENTED_EDGE('',*,*,#288,.T.);
#96=ORIENTED_EDGE('',*,*,#289,.F.);
#97=ORIENTED_EDGE('',*,*,#272,.F.);
#98=ORIENTED_EDGE('',*,*,#290,.T.);
#99=ORIENTED_EDGE('',*,*,#291,.F.);
#100=ORIENTED_EDGE('',*,*,#292,.F.);
#101=ORIENTED_EDGE('',*,*,#293,.F.);
#102=ORIENTED_EDGE('',*,*,#279,.T.);
#103=ORIENTED_EDGE('',*,*,#294,.T.);
#104=ORIENTED_EDGE('',*,*,#295,.T.);
#105=ORIENTED_EDGE('',*,*,#296,.F.);
#106=ORIENTED_EDGE('',*,*,#297,.F.);
#107=ORIENTED_EDGE('',*,*,#298,.F.);
#108=ORIENTED_EDGE('',*,*,#282,.T.);
#109=ORIENTED_EDGE('',*,*,#299,.T.);
#110=ORIENTED_EDGE('',*,*,#300,.T.);
#111=ORIENTED_EDGE('',*,*,#301,.F.);
#112=ORIENTED_EDGE('',*,*,#287,.F.);
#113=ORIENTED_EDGE('',*,*,#302,.F.);
#114=ORIENTED_EDGE('',*,*,#303,.T.);
#115=ORIENTED_EDGE('',*,*,#304,.T.);
#116=ORIENTED_EDGE('',*,*,#305,.T.);
#117=ORIENTED_EDGE('',*,*,#306,.T.);
#118=ORIENTED_EDGE('',*,*,#307,.F.);
#119=ORIENTED_EDGE('',*,*,#308,.F.);
#120=ORIENTED_EDGE('',*,*,#309,.T.);
#121=ORIENTED_EDGE('',*,*,#310,.T.);
#122=ORIENTED_EDGE('',*,*,#311,.F.);
#123=ORIENTED_EDGE('',*,*,#267,.F.);
#124=ORIENTED_EDGE('',*,*,#312,.T.);
#125=ORIENTED_EDGE('',*,*,#313,.F.);
#126=ORIENTED_EDGE('',*,*,#314,.T.);
#127=ORIENTED_EDGE('',*,*,#315,.T.);
#128=ORIENTED_EDGE('',*,*,#316,.T.);
#129=ORIENTED_EDGE('',*,*,#317,.T.);
#130=ORIENTED_EDGE('',*,*,#308,.T.);
#131=ORIENTED_EDGE('',*,*,#318,.F.);
#132=ORIENTED_EDGE('',*,*,#302,.T.);
#133=ORIENTED_EDGE('',*,*,#286,.T.);
#134=ORIENTED_EDGE('',*,*,#319,.F.);
#135=ORIENTED_EDGE('',*,*,#320,.T.);
#136=ORIENTED_EDGE('',*,*,#265,.T.);
#137=ORIENTED_EDGE('',*,*,#321,.T.);
#138=ORIENTED_EDGE('',*,*,#304,.F.);
#139=ORIENTED_EDGE('',*,*,#322,.F.);
#140=ORIENTED_EDGE('',*,*,#310,.F.);
#141=ORIENTED_EDGE('',*,*,#323,.T.);
#142=ORIENTED_EDGE('',*,*,#324,.T.);
#143=ORIENTED_EDGE('',*,*,#325,.F.);
#144=ORIENTED_EDGE('',*,*,#326,.T.);
#145=ORIENTED_EDGE('',*,*,#318,.T.);
#146=ORIENTED_EDGE('',*,*,#311,.T.);
#147=ORIENTED_EDGE('',*,*,#322,.T.);
#148=ORIENTED_EDGE('',*,*,#303,.F.);
#149=ORIENTED_EDGE('',*,*,#315,.F.);
#150=ORIENTED_EDGE('',*,*,#327,.T.);
#151=ORIENTED_EDGE('',*,*,#325,.T.);
#152=ORIENTED_EDGE('',*,*,#328,.T.);
#153=ORIENTED_EDGE('',*,*,#313,.T.);
#154=ORIENTED_EDGE('',*,*,#329,.T.);
#155=ORIENTED_EDGE('',*,*,#319,.T.);
#156=ORIENTED_EDGE('',*,*,#330,.T.);
#157=ORIENTED_EDGE('',*,*,#309,.F.);
#158=ORIENTED_EDGE('',*,*,#317,.F.);
#159=ORIENTED_EDGE('',*,*,#331,.F.);
#160=ORIENTED_EDGE('',*,*,#323,.F.);
#161=ORIENTED_EDGE('',*,*,#316,.F.);
#162=ORIENTED_EDGE('',*,*,#328,.F.);
#163=ORIENTED_EDGE('',*,*,#324,.F.);
#164=ORIENTED_EDGE('',*,*,#331,.T.);
#165=ORIENTED_EDGE('',*,*,#312,.F.);
#166=ORIENTED_EDGE('',*,*,#266,.F.);
#167=ORIENTED_EDGE('',*,*,#320,.F.);
#168=ORIENTED_EDGE('',*,*,#329,.F.);
#169=ORIENTED_EDGE('',*,*,#314,.F.);
#170=ORIENTED_EDGE('',*,*,#330,.F.);
#171=ORIENTED_EDGE('',*,*,#326,.F.);
#172=ORIENTED_EDGE('',*,*,#327,.F.);
#173=ORIENTED_EDGE('',*,*,#332,.F.);
#174=ORIENTED_EDGE('',*,*,#295,.F.);
#175=ORIENTED_EDGE('',*,*,#333,.F.);
#176=ORIENTED_EDGE('',*,*,#274,.T.);
#177=ORIENTED_EDGE('',*,*,#275,.T.);
#178=ORIENTED_EDGE('',*,*,#333,.T.);
#179=ORIENTED_EDGE('',*,*,#294,.F.);
#180=ORIENTED_EDGE('',*,*,#281,.F.);
#181=ORIENTED_EDGE('',*,*,#258,.T.);
#182=ORIENTED_EDGE('',*,*,#334,.T.);
#183=ORIENTED_EDGE('',*,*,#299,.F.);
#184=ORIENTED_EDGE('',*,*,#284,.F.);
#185=ORIENTED_EDGE('',*,*,#335,.F.);
#186=ORIENTED_EDGE('',*,*,#300,.F.);
#187=ORIENTED_EDGE('',*,*,#334,.F.);
#188=ORIENTED_EDGE('',*,*,#257,.T.);
#189=ORIENTED_EDGE('',*,*,#264,.T.);
#190=ORIENTED_EDGE('',*,*,#336,.T.);
#191=ORIENTED_EDGE('',*,*,#337,.T.);
#192=ORIENTED_EDGE('',*,*,#338,.T.);
#193=ORIENTED_EDGE('',*,*,#305,.F.);
#194=ORIENTED_EDGE('',*,*,#321,.F.);
#195=ORIENTED_EDGE('',*,*,#306,.F.);
#196=ORIENTED_EDGE('',*,*,#338,.F.);
#197=ORIENTED_EDGE('',*,*,#339,.T.);
#198=ORIENTED_EDGE('',*,*,#340,.T.);
#199=ORIENTED_EDGE('',*,*,#340,.F.);
#200=ORIENTED_EDGE('',*,*,#341,.T.);
#201=ORIENTED_EDGE('',*,*,#342,.T.);
#202=ORIENTED_EDGE('',*,*,#269,.F.);
#203=ORIENTED_EDGE('',*,*,#285,.T.);
#204=ORIENTED_EDGE('',*,*,#307,.T.);
#205=ORIENTED_EDGE('',*,*,#343,.F.);
#206=ORIENTED_EDGE('',*,*,#339,.F.);
#207=ORIENTED_EDGE('',*,*,#337,.F.);
#208=ORIENTED_EDGE('',*,*,#344,.T.);
#209=ORIENTED_EDGE('',*,*,#345,.T.);
#210=ORIENTED_EDGE('',*,*,#288,.F.);
#211=ORIENTED_EDGE('',*,*,#346,.T.);
#212=ORIENTED_EDGE('',*,*,#347,.T.);
#213=ORIENTED_EDGE('',*,*,#341,.F.);
#214=ORIENTED_EDGE('',*,*,#301,.T.);
#215=ORIENTED_EDGE('',*,*,#343,.T.);
#216=ORIENTED_EDGE('',*,*,#271,.T.);
#217=ORIENTED_EDGE('',*,*,#348,.T.);
#218=ORIENTED_EDGE('',*,*,#346,.F.);
#219=ORIENTED_EDGE('',*,*,#290,.F.);
#220=ORIENTED_EDGE('',*,*,#345,.F.);
#221=ORIENTED_EDGE('',*,*,#349,.T.);
#222=ORIENTED_EDGE('',*,*,#262,.T.);
#223=ORIENTED_EDGE('',*,*,#289,.T.);
#224=ORIENTED_EDGE('',*,*,#296,.T.);
#225=ORIENTED_EDGE('',*,*,#335,.T.);
#226=ORIENTED_EDGE('',*,*,#256,.T.);
#227=ORIENTED_EDGE('',*,*,#350,.F.);
#228=ORIENTED_EDGE('',*,*,#297,.T.);
#229=ORIENTED_EDGE('',*,*,#350,.T.);
#230=ORIENTED_EDGE('',*,*,#261,.T.);
#231=ORIENTED_EDGE('',*,*,#351,.F.);
#232=ORIENTED_EDGE('',*,*,#298,.T.);
#233=ORIENTED_EDGE('',*,*,#351,.T.);
#234=ORIENTED_EDGE('',*,*,#260,.T.);
#235=ORIENTED_EDGE('',*,*,#283,.F.);
#236=ORIENTED_EDGE('',*,*,#291,.T.);
#237=ORIENTED_EDGE('',*,*,#332,.T.);
#238=ORIENTED_EDGE('',*,*,#273,.T.);
#239=ORIENTED_EDGE('',*,*,#352,.F.);
#240=ORIENTED_EDGE('',*,*,#292,.T.);
#241=ORIENTED_EDGE('',*,*,#352,.T.);
#242=ORIENTED_EDGE('',*,*,#278,.T.);
#243=ORIENTED_EDGE('',*,*,#353,.F.);
#244=ORIENTED_EDGE('',*,*,#293,.T.);
#245=ORIENTED_EDGE('',*,*,#353,.T.);
#246=ORIENTED_EDGE('',*,*,#277,.T.);
#247=ORIENTED_EDGE('',*,*,#280,.F.);
#248=ORIENTED_EDGE('',*,*,#263,.F.);
#249=ORIENTED_EDGE('',*,*,#349,.F.);
#250=ORIENTED_EDGE('',*,*,#344,.F.);
#251=ORIENTED_EDGE('',*,*,#336,.F.);
#252=ORIENTED_EDGE('',*,*,#270,.F.);
#253=ORIENTED_EDGE('',*,*,#342,.F.);
#254=ORIENTED_EDGE('',*,*,#347,.F.);
#255=ORIENTED_EDGE('',*,*,#348,.F.);
#256=EDGE_CURVE('',#354,#355,#420,.T.);
#257=EDGE_CURVE('',#356,#354,#28,.F.);
#258=EDGE_CURVE('',#357,#356,#421,.T.);
#259=EDGE_CURVE('',#358,#357,#29,.F.);
#260=EDGE_CURVE('',#359,#358,#422,.T.);
#261=EDGE_CURVE('',#355,#359,#30,.T.);
#262=EDGE_CURVE('',#360,#361,#31,.T.);
#263=EDGE_CURVE('',#360,#362,#32,.F.);
#264=EDGE_CURVE('',#363,#362,#423,.T.);
#265=EDGE_CURVE('',#364,#363,#424,.T.);
#266=EDGE_CURVE('',#364,#365,#425,.F.);
#267=EDGE_CURVE('',#365,#366,#426,.T.);
#268=EDGE_CURVE('',#366,#367,#427,.T.);
#269=EDGE_CURVE('',#367,#368,#428,.T.);
#270=EDGE_CURVE('',#368,#369,#33,.F.);
#271=EDGE_CURVE('',#370,#369,#34,.T.);
#272=EDGE_CURVE('',#370,#361,#429,.T.);
#273=EDGE_CURVE('',#371,#372,#430,.T.);
#274=EDGE_CURVE('',#373,#371,#35,.F.);
#275=EDGE_CURVE('',#374,#373,#431,.T.);
#276=EDGE_CURVE('',#375,#374,#36,.F.);
#277=EDGE_CURVE('',#376,#375,#432,.T.);
#278=EDGE_CURVE('',#372,#376,#37,.T.);
#279=EDGE_CURVE('',#377,#378,#38,.T.);
#280=EDGE_CURVE('',#377,#375,#433,.T.);
#281=EDGE_CURVE('',#374,#378,#434,.T.);
#282=EDGE_CURVE('',#379,#380,#39,.T.);
#283=EDGE_CURVE('',#379,#358,#435,.T.);
#284=EDGE_CURVE('',#357,#380,#436,.T.);
#285=EDGE_CURVE('',#367,#381,#437,.T.);
#286=EDGE_CURVE('',#382,#366,#438,.T.);
#287=EDGE_CURVE('',#382,#381,#439,.T.);
#288=EDGE_CURVE('',#383,#384,#440,.T.);
#289=EDGE_CURVE('',#361,#384,#441,.T.);
#290=EDGE_CURVE('',#370,#383,#442,.T.);
#291=EDGE_CURVE('',#385,#386,#443,.T.);
#292=EDGE_CURVE('',#387,#385,#40,.T.);
#293=EDGE_CURVE('',#377,#387,#444,.T.);
#294=EDGE_CURVE('',#378,#388,#445,.T.);
#295=EDGE_CURVE('',#388,#386,#41,.T.);
#296=EDGE_CURVE('',#389,#390,#446,.T.);
#297=EDGE_CURVE('',#391,#389,#42,.T.);
#298=EDGE_CURVE('',#379,#391,#447,.T.);
#299=EDGE_CURVE('',#380,#392,#448,.T.);
#300=EDGE_CURVE('',#392,#390,#43,.T.);
#301=EDGE_CURVE('',#393,#393,#44,.T.);
#302=EDGE_CURVE('',#394,#382,#449,.T.);
#303=EDGE_CURVE('',#394,#395,#450,.T.);
#304=EDGE_CURVE('',#395,#396,#451,.T.);
#305=EDGE_CURVE('',#396,#397,#452,.T.);
#306=EDGE_CURVE('',#397,#398,#45,.T.);
#307=EDGE_CURVE('',#381,#398,#453,.T.);
#308=EDGE_CURVE('',#399,#400,#454,.T.);
#309=EDGE_CURVE('',#399,#401,#455,.T.);
#310=EDGE_CURVE('',#401,#402,#456,.T.);
#311=EDGE_CURVE('',#400,#402,#457,.T.);
#312=EDGE_CURVE('',#365,#403,#46,.F.);
#313=EDGE_CURVE('',#404,#403,#458,.T.);
#314=EDGE_CURVE('',#404,#405,#47,.F.);
#315=EDGE_CURVE('',#405,#406,#459,.T.);
#316=EDGE_CURVE('',#406,#407,#48,.F.);
#317=EDGE_CURVE('',#407,#399,#49,.T.);
#318=EDGE_CURVE('',#394,#400,#460,.T.);
#319=EDGE_CURVE('',#408,#409,#461,.T.);
#320=EDGE_CURVE('',#408,#364,#50,.F.);
#321=EDGE_CURVE('',#363,#396,#462,.T.);
#322=EDGE_CURVE('',#402,#395,#463,.T.);
#323=EDGE_CURVE('',#401,#410,#51,.T.);
#324=EDGE_CURVE('',#410,#411,#52,.F.);
#325=EDGE_CURVE('',#412,#411,#464,.T.);
#326=EDGE_CURVE('',#412,#409,#53,.F.);
#327=EDGE_CURVE('',#405,#412,#465,.T.);
#328=EDGE_CURVE('',#411,#406,#466,.F.);
#329=EDGE_CURVE('',#403,#408,#467,.T.);
#330=EDGE_CURVE('',#409,#404,#468,.F.);
#331=EDGE_CURVE('',#410,#407,#469,.F.);
#332=EDGE_CURVE('',#386,#371,#470,.T.);
#333=EDGE_CURVE('',#373,#388,#471,.T.);
#334=EDGE_CURVE('',#356,#392,#472,.T.);
#335=EDGE_CURVE('',#390,#354,#473,.T.);
#336=EDGE_CURVE('',#362,#413,#474,.T.);
#337=EDGE_CURVE('',#413,#414,#475,.T.);
#338=EDGE_CURVE('',#414,#397,#476,.T.);
#339=EDGE_CURVE('',#414,#415,#54,.T.);
#340=EDGE_CURVE('',#415,#398,#477,.T.);
#341=EDGE_CURVE('',#415,#416,#478,.T.);
#342=EDGE_CURVE('',#416,#368,#479,.T.);
#343=EDGE_CURVE('',#417,#417,#55,.T.);
#344=EDGE_CURVE('',#413,#418,#56,.T.);
#345=EDGE_CURVE('',#418,#384,#57,.T.);
#346=EDGE_CURVE('',#383,#419,#58,.T.);
#347=EDGE_CURVE('',#419,#416,#59,.T.);
#348=EDGE_CURVE('',#369,#419,#480,.T.);
#349=EDGE_CURVE('',#418,#360,#481,.F.);
#350=EDGE_CURVE('',#389,#355,#482,.T.);
#351=EDGE_CURVE('',#391,#359,#483,.T.);
#352=EDGE_CURVE('',#385,#372,#484,.T.);
#353=EDGE_CURVE('',#387,#376,#485,.T.);
#354=VERTEX_POINT('',#975);
#355=VERTEX_POINT('',#976);
#356=VERTEX_POINT('',#978);
#357=VERTEX_POINT('',#980);
#358=VERTEX_POINT('',#982);
#359=VERTEX_POINT('',#984);
#360=VERTEX_POINT('',#987);
#361=VERTEX_POINT('',#988);
#362=VERTEX_POINT('',#990);
#363=VERTEX_POINT('',#992);
#364=VERTEX_POINT('',#994);
#365=VERTEX_POINT('',#996);
#366=VERTEX_POINT('',#998);
#367=VERTEX_POINT('',#1000);
#368=VERTEX_POINT('',#1002);
#369=VERTEX_POINT('',#1004);
#370=VERTEX_POINT('',#1006);
#371=VERTEX_POINT('',#1009);
#372=VERTEX_POINT('',#1010);
#373=VERTEX_POINT('',#1012);
#374=VERTEX_POINT('',#1014);
#375=VERTEX_POINT('',#1016);
#376=VERTEX_POINT('',#1018);
#377=VERTEX_POINT('',#1022);
#378=VERTEX_POINT('',#1023);
#379=VERTEX_POINT('',#1028);
#380=VERTEX_POINT('',#1029);
#381=VERTEX_POINT('',#1034);
#382=VERTEX_POINT('',#1036);
#383=VERTEX_POINT('',#1040);
#384=VERTEX_POINT('',#1041);
#385=VERTEX_POINT('',#1046);
#386=VERTEX_POINT('',#1047);
#387=VERTEX_POINT('',#1049);
#388=VERTEX_POINT('',#1052);
#389=VERTEX_POINT('',#1055);
#390=VERTEX_POINT('',#1056);
#391=VERTEX_POINT('',#1058);
#392=VERTEX_POINT('',#1061);
#393=VERTEX_POINT('',#1064);
#394=VERTEX_POINT('',#1066);
#395=VERTEX_POINT('',#1068);
#396=VERTEX_POINT('',#1070);
#397=VERTEX_POINT('',#1072);
#398=VERTEX_POINT('',#1074);
#399=VERTEX_POINT('',#1078);
#400=VERTEX_POINT('',#1079);
#401=VERTEX_POINT('',#1081);
#402=VERTEX_POINT('',#1083);
#403=VERTEX_POINT('',#1087);
#404=VERTEX_POINT('',#1089);
#405=VERTEX_POINT('',#1091);
#406=VERTEX_POINT('',#1093);
#407=VERTEX_POINT('',#1095);
#408=VERTEX_POINT('',#1100);
#409=VERTEX_POINT('',#1101);
#410=VERTEX_POINT('',#1106);
#411=VERTEX_POINT('',#1108);
#412=VERTEX_POINT('',#1110);
#413=VERTEX_POINT('',#1134);
#414=VERTEX_POINT('',#1136);
#415=VERTEX_POINT('',#1140);
#416=VERTEX_POINT('',#1144);
#417=VERTEX_POINT('',#1148);
#418=VERTEX_POINT('',#1150);
#419=VERTEX_POINT('',#1153);
#420=LINE('',#974,#486);
#421=LINE('',#979,#487);
#422=LINE('',#983,#488);
#423=LINE('',#991,#489);
#424=LINE('',#993,#490);
#425=LINE('',#995,#491);
#426=LINE('',#997,#492);
#427=LINE('',#999,#493);
#428=LINE('',#1001,#494);
#429=LINE('',#1007,#495);
#430=LINE('',#1008,#496);
#431=LINE('',#1013,#497);
#432=LINE('',#1017,#498);
#433=LINE('',#1024,#499);
#434=LINE('',#1025,#500);
#435=LINE('',#1030,#501);
#436=LINE('',#1031,#502);
#437=LINE('',#1033,#503);
#438=LINE('',#1035,#504);
#439=LINE('',#1037,#505);
#440=LINE('',#1039,#506);
#441=LINE('',#1042,#507);
#442=LINE('',#1043,#508);
#443=LINE('',#1045,#509);
#444=LINE('',#1050,#510);
#445=LINE('',#1051,#511);
#446=LINE('',#1054,#512);
#447=LINE('',#1059,#513);
#448=LINE('',#1060,#514);
#449=LINE('',#1065,#515);
#450=LINE('',#1067,#516);
#451=LINE('',#1069,#517);
#452=LINE('',#1071,#518);
#453=LINE('',#1075,#519);
#454=LINE('',#1077,#520);
#455=LINE('',#1080,#521);
#456=LINE('',#1082,#522);
#457=LINE('',#1084,#523);
#458=LINE('',#1088,#524);
#459=LINE('',#1092,#525);
#460=LINE('',#1097,#526);
#461=LINE('',#1099,#527);
#462=LINE('',#1103,#528);
#463=LINE('',#1104,#529);
#464=LINE('',#1109,#530);
#465=LINE('',#1114,#531);
#466=LINE('',#1115,#532);
#467=LINE('',#1117,#533);
#468=LINE('',#1118,#534);
#469=LINE('',#1120,#535);
#470=LINE('',#1125,#536);
#471=LINE('',#1126,#537);
#472=LINE('',#1129,#538);
#473=LINE('',#1131,#539);
#474=LINE('',#1133,#540);
#475=LINE('',#1135,#541);
#476=LINE('',#1137,#542);
#477=LINE('',#1141,#543);
#478=LINE('',#1143,#544);
#479=LINE('',#1145,#545);
#480=LINE('',#1157,#546);
#481=LINE('',#1159,#547);
#482=LINE('',#1161,#548);
#483=LINE('',#1163,#549);
#484=LINE('',#1166,#550);
#485=LINE('',#1168,#551);
#486=VECTOR('',#774,1.);
#487=VECTOR('',#777,1.);
#488=VECTOR('',#780,1.);
#489=VECTOR('',#787,1.);
#490=VECTOR('',#788,1.);
#491=VECTOR('',#789,1.);
#492=VECTOR('',#790,1.);
#493=VECTOR('',#791,1.);
#494=VECTOR('',#792,1.);
#495=VECTOR('',#797,1.);
#496=VECTOR('',#798,1.);
#497=VECTOR('',#801,1.);
#498=VECTOR('',#804,1.);
#499=VECTOR('',#811,1.);
#500=VECTOR('',#812,1.);
#501=VECTOR('',#817,1.);
#502=VECTOR('',#818,1.);
#503=VECTOR('',#821,1.);
#504=VECTOR('',#822,1.);
#505=VECTOR('',#823,1.);
#506=VECTOR('',#826,1.);
#507=VECTOR('',#827,1.);
#508=VECTOR('',#828,1.);
#509=VECTOR('',#831,1.);
#510=VECTOR('',#834,1.);
#511=VECTOR('',#835,1.);
#512=VECTOR('',#838,1.);
#513=VECTOR('',#841,1.);
#514=VECTOR('',#842,1.);
#515=VECTOR('',#847,1.);
#516=VECTOR('',#848,1.);
#517=VECTOR('',#849,1.);
#518=VECTOR('',#850,1.);
#519=VECTOR('',#853,1.);
#520=VECTOR('',#856,1.);
#521=VECTOR('',#857,1.);
#522=VECTOR('',#858,1.);
#523=VECTOR('',#859,1.);
#524=VECTOR('',#864,1.);
#525=VECTOR('',#867,1.);
#526=VECTOR('',#872,1.);
#527=VECTOR('',#875,1.);
#528=VECTOR('',#878,1.);
#529=VECTOR('',#879,1.);
#530=VECTOR('',#884,1.);
#531=VECTOR('',#891,1.);
#532=VECTOR('',#892,1.);
#533=VECTOR('',#895,1.);
#534=VECTOR('',#896,1.);
#535=VECTOR('',#899,1.);
#536=VECTOR('',#908,1.);
#537=VECTOR('',#909,1.);
#538=VECTOR('',#914,1.);
#539=VECTOR('',#917,1.);
#540=VECTOR('',#920,1.);
#541=VECTOR('',#921,1.);
#542=VECTOR('',#922,1.);
#543=VECTOR('',#927,1.);
#544=VECTOR('',#930,1.);
#545=VECTOR('',#931,1.);
#546=VECTOR('',#948,1.);
#547=VECTOR('',#951,1.);
#548=VECTOR('',#954,1.);
#549=VECTOR('',#957,1.);
#550=VECTOR('',#962,1.);
#551=VECTOR('',#965,1.);
#552=EDGE_LOOP('',(#60,#61,#62,#63,#64,#65));
#553=EDGE_LOOP('',(#66,#67,#68,#69,#70,#71,#72,#73,#74,#75,#76));
#554=EDGE_LOOP('',(#77,#78,#79,#80,#81,#82));
#555=EDGE_LOOP('',(#83,#84,#85,#86));
#556=EDGE_LOOP('',(#87,#88,#89,#90));
#557=EDGE_LOOP('',(#91,#92,#93,#94));
#558=EDGE_LOOP('',(#95,#96,#97,#98));
#559=EDGE_LOOP('',(#99,#100,#101,#102,#103,#104));
#560=EDGE_LOOP('',(#105,#106,#107,#108,#109,#110));
#561=EDGE_LOOP('',(#111));
#562=EDGE_LOOP('',(#112,#113,#114,#115,#116,#117,#118));
#563=EDGE_LOOP('',(#119,#120,#121,#122));
#564=EDGE_LOOP('',(#123,#124,#125,#126,#127,#128,#129,#130,#131,#132,#133));
#565=EDGE_LOOP('',(#134,#135,#136,#137,#138,#139,#140,#141,#142,#143,#144));
#566=EDGE_LOOP('',(#145,#146,#147,#148));
#567=EDGE_LOOP('',(#149,#150,#151,#152));
#568=EDGE_LOOP('',(#153,#154,#155,#156));
#569=EDGE_LOOP('',(#157,#158,#159,#160));
#570=EDGE_LOOP('',(#161,#162,#163,#164));
#571=EDGE_LOOP('',(#165,#166,#167,#168));
#572=EDGE_LOOP('',(#169,#170,#171,#172));
#573=EDGE_LOOP('',(#173,#174,#175,#176));
#574=EDGE_LOOP('',(#177,#178,#179,#180));
#575=EDGE_LOOP('',(#181,#182,#183,#184));
#576=EDGE_LOOP('',(#185,#186,#187,#188));
#577=EDGE_LOOP('',(#189,#190,#191,#192,#193,#194));
#578=EDGE_LOOP('',(#195,#196,#197,#198));
#579=EDGE_LOOP('',(#199,#200,#201,#202,#203,#204));
#580=EDGE_LOOP('',(#205));
#581=EDGE_LOOP('',(#206,#207,#208,#209,#210,#211,#212,#213));
#582=EDGE_LOOP('',(#214));
#583=EDGE_LOOP('',(#215));
#584=EDGE_LOOP('',(#216,#217,#218,#219));
#585=EDGE_LOOP('',(#220,#221,#222,#223));
#586=EDGE_LOOP('',(#224,#225,#226,#227));
#587=EDGE_LOOP('',(#228,#229,#230,#231));
#588=EDGE_LOOP('',(#232,#233,#234,#235));
#589=EDGE_LOOP('',(#236,#237,#238,#239));
#590=EDGE_LOOP('',(#240,#241,#242,#243));
#591=EDGE_LOOP('',(#244,#245,#246,#247));
#592=EDGE_LOOP('',(#248,#249,#250,#251));
#593=EDGE_LOOP('',(#252,#253,#254,#255));
#594=FACE_BOUND('',#552,.T.);
#595=FACE_BOUND('',#553,.T.);
#596=FACE_BOUND('',#554,.T.);
#597=FACE_BOUND('',#555,.T.);
#598=FACE_BOUND('',#556,.T.);
#599=FACE_BOUND('',#557,.T.);
#600=FACE_BOUND('',#558,.T.);
#601=FACE_BOUND('',#559,.T.);
#602=FACE_BOUND('',#560,.T.);
#603=FACE_BOUND('',#561,.T.);
#604=FACE_BOUND('',#562,.T.);
#605=FACE_BOUND('',#563,.T.);
#606=FACE_BOUND('',#564,.T.);
#607=FACE_BOUND('',#565,.T.);
#608=FACE_BOUND('',#566,.T.);
#609=FACE_BOUND('',#567,.T.);
#610=FACE_BOUND('',#568,.T.);
#611=FACE_BOUND('',#569,.T.);
#612=FACE_BOUND('',#570,.T.);
#613=FACE_BOUND('',#571,.T.);
#614=FACE_BOUND('',#572,.T.);
#615=FACE_BOUND('',#573,.T.);
#616=FACE_BOUND('',#574,.T.);
#617=FACE_BOUND('',#575,.T.);
#618=FACE_BOUND('',#576,.T.);
#619=FACE_BOUND('',#577,.T.);
#620=FACE_BOUND('',#578,.T.);
#621=FACE_BOUND('',#579,.T.);
#622=FACE_BOUND('',#580,.T.);
#623=FACE_BOUND('',#581,.T.);
#624=FACE_BOUND('',#582,.T.);
#625=FACE_BOUND('',#583,.T.);
#626=FACE_BOUND('',#584,.T.);
#627=FACE_BOUND('',#585,.T.);
#628=FACE_BOUND('',#586,.T.);
#629=FACE_BOUND('',#587,.T.);
#630=FACE_BOUND('',#588,.T.);
#631=FACE_BOUND('',#589,.T.);
#632=FACE_BOUND('',#590,.T.);
#633=FACE_BOUND('',#591,.T.);
#634=FACE_BOUND('',#592,.T.);
#635=FACE_BOUND('',#593,.T.);
#636=PLANE('',#703);
#637=PLANE('',#718);
#638=PLANE('',#719);
#639=PLANE('',#720);
#640=PLANE('',#727);
#641=PLANE('',#728);
#642=PLANE('',#733);
#643=PLANE('',#738);
#644=PLANE('',#739);
#645=PLANE('',#740);
#646=PLANE('',#746);
#647=PLANE('',#747);
#648=PLANE('',#749);
#649=PLANE('',#752);
#650=PLANE('',#753);
#651=PLANE('',#762);
#652=PLANE('',#764);
#653=PLANE('',#765);
#654=PLANE('',#767);
#655=ADVANCED_FACE('',(#594,#595,#596),#636,.F.);
#656=ADVANCED_FACE('',(#597),#12,.F.);
#657=ADVANCED_FACE('',(#598),#13,.F.);
#658=ADVANCED_FACE('',(#599),#637,.F.);
#659=ADVANCED_FACE('',(#600),#638,.F.);
#660=ADVANCED_FACE('',(#601,#602,#603,#604),#639,.T.);
#661=ADVANCED_FACE('',(#605),#640,.T.);
#662=ADVANCED_FACE('',(#606),#641,.F.);
#663=ADVANCED_FACE('',(#607),#642,.F.);
#664=ADVANCED_FACE('',(#608),#643,.T.);
#665=ADVANCED_FACE('',(#609),#644,.T.);
#666=ADVANCED_FACE('',(#610),#645,.T.);
#667=ADVANCED_FACE('',(#611),#14,.F.);
#668=ADVANCED_FACE('',(#612),#15,.T.);
#669=ADVANCED_FACE('',(#613),#16,.T.);
#670=ADVANCED_FACE('',(#614),#17,.T.);
#671=ADVANCED_FACE('',(#615),#18,.F.);
#672=ADVANCED_FACE('',(#616),#646,.T.);
#673=ADVANCED_FACE('',(#617),#647,.T.);
#674=ADVANCED_FACE('',(#618),#19,.F.);
#675=ADVANCED_FACE('',(#619),#648,.T.);
#676=ADVANCED_FACE('',(#620),#20,.T.);
#677=ADVANCED_FACE('',(#621),#649,.F.);
#678=ADVANCED_FACE('',(#622,#623),#650,.F.);
#679=ADVANCED_FACE('',(#624,#625),#21,.F.);
#680=ADVANCED_FACE('',(#626),#22,.F.);
#681=ADVANCED_FACE('',(#627),#23,.F.);
#682=ADVANCED_FACE('',(#628),#651,.F.);
#683=ADVANCED_FACE('',(#629),#24,.F.);
#684=ADVANCED_FACE('',(#630),#652,.F.);
#685=ADVANCED_FACE('',(#631),#653,.F.);
#686=ADVANCED_FACE('',(#632),#25,.F.);
#687=ADVANCED_FACE('',(#633),#654,.F.);
#688=ADVANCED_FACE('',(#634),#26,.T.);
#689=ADVANCED_FACE('',(#635),#27,.T.);
#690=CLOSED_SHELL('',(#655,#656,#657,#658,#659,#660,#661,#662,#663,#664,
#665,#666,#667,#668,#669,#670,#671,#672,#673,#674,#675,#676,#677,#678,#679,
#680,#681,#682,#683,#684,#685,#686,#687,#688,#689));
#691=STYLED_ITEM('',(#692),#699);
#692=PRESENTATION_STYLE_ASSIGNMENT((#693));
#693=SURFACE_STYLE_USAGE(.BOTH.,#694);
#694=SURFACE_SIDE_STYLE('',(#695));
#695=SURFACE_STYLE_FILL_AREA(#696);
#696=FILL_AREA_STYLE('',(#697));
#697=FILL_AREA_STYLE_COLOUR('',#698);
#698=COLOUR_RGB('',0.917647058823529,0.917647058823529,0.917647058823529);
#699=MANIFOLD_SOLID_BREP('Phone Holder Male',#690);
#700=SHAPE_DEFINITION_REPRESENTATION(#1178,#701);
#701=SHAPE_REPRESENTATION('Phone Holder Male',(#702),#1173);
#702=AXIS2_PLACEMENT_3D('',#972,#770,#771);
#703=AXIS2_PLACEMENT_3D('',#973,#772,#773);
#704=AXIS2_PLACEMENT_3D('',#977,#775,#776);
#705=AXIS2_PLACEMENT_3D('',#981,#778,#779);
#706=AXIS2_PLACEMENT_3D('',#985,#781,#782);
#707=AXIS2_PLACEMENT_3D('',#986,#783,#784);
#708=AXIS2_PLACEMENT_3D('',#989,#785,#786);
#709=AXIS2_PLACEMENT_3D('',#1003,#793,#794);
#710=AXIS2_PLACEMENT_3D('',#1005,#795,#796);
#711=AXIS2_PLACEMENT_3D('',#1011,#799,#800);
#712=AXIS2_PLACEMENT_3D('',#1015,#802,#803);
#713=AXIS2_PLACEMENT_3D('',#1019,#805,#806);
#714=AXIS2_PLACEMENT_3D('',#1020,#807,#808);
#715=AXIS2_PLACEMENT_3D('',#1021,#809,#810);
#716=AXIS2_PLACEMENT_3D('',#1026,#813,#814);
#717=AXIS2_PLACEMENT_3D('',#1027,#815,#816);
#718=AXIS2_PLACEMENT_3D('',#1032,#819,#820);
#719=AXIS2_PLACEMENT_3D('',#1038,#824,#825);
#720=AXIS2_PLACEMENT_3D('',#1044,#829,#830);
#721=AXIS2_PLACEMENT_3D('',#1048,#832,#833);
#722=AXIS2_PLACEMENT_3D('',#1053,#836,#837);
#723=AXIS2_PLACEMENT_3D('',#1057,#839,#840);
#724=AXIS2_PLACEMENT_3D('',#1062,#843,#844);
#725=AXIS2_PLACEMENT_3D('',#1063,#845,#846);
#726=AXIS2_PLACEMENT_3D('',#1073,#851,#852);
#727=AXIS2_PLACEMENT_3D('',#1076,#854,#855);
#728=AXIS2_PLACEMENT_3D('',#1085,#860,#861);
#729=AXIS2_PLACEMENT_3D('',#1086,#862,#863);
#730=AXIS2_PLACEMENT_3D('',#1090,#865,#866);
#731=AXIS2_PLACEMENT_3D('',#1094,#868,#869);
#732=AXIS2_PLACEMENT_3D('',#1096,#870,#871);
#733=AXIS2_PLACEMENT_3D('',#1098,#873,#874);
#734=AXIS2_PLACEMENT_3D('',#1102,#876,#877);
#735=AXIS2_PLACEMENT_3D('',#1105,#880,#881);
#736=AXIS2_PLACEMENT_3D('',#1107,#882,#883);
#737=AXIS2_PLACEMENT_3D('',#1111,#885,#886);
#738=AXIS2_PLACEMENT_3D('',#1112,#887,#888);
#739=AXIS2_PLACEMENT_3D('',#1113,#889,#890);
#740=AXIS2_PLACEMENT_3D('',#1116,#893,#894);
#741=AXIS2_PLACEMENT_3D('',#1119,#897,#898);
#742=AXIS2_PLACEMENT_3D('',#1121,#900,#901);
#743=AXIS2_PLACEMENT_3D('',#1122,#902,#903);
#744=AXIS2_PLACEMENT_3D('',#1123,#904,#905);
#745=AXIS2_PLACEMENT_3D('',#1124,#906,#907);
#746=AXIS2_PLACEMENT_3D('',#1127,#910,#911);
#747=AXIS2_PLACEMENT_3D('',#1128,#912,#913);
#748=AXIS2_PLACEMENT_3D('',#1130,#915,#916);
#749=AXIS2_PLACEMENT_3D('',#1132,#918,#919);
#750=AXIS2_PLACEMENT_3D('',#1138,#923,#924);
#751=AXIS2_PLACEMENT_3D('',#1139,#925,#926);
#752=AXIS2_PLACEMENT_3D('',#1142,#928,#929);
#753=AXIS2_PLACEMENT_3D('',#1146,#932,#933);
#754=AXIS2_PLACEMENT_3D('',#1147,#934,#935);
#755=AXIS2_PLACEMENT_3D('',#1149,#936,#937);
#756=AXIS2_PLACEMENT_3D('',#1151,#938,#939);
#757=AXIS2_PLACEMENT_3D('',#1152,#940,#941);
#758=AXIS2_PLACEMENT_3D('',#1154,#942,#943);
#759=AXIS2_PLACEMENT_3D('',#1155,#944,#945);
#760=AXIS2_PLACEMENT_3D('',#1156,#946,#947);
#761=AXIS2_PLACEMENT_3D('',#1158,#949,#950);
#762=AXIS2_PLACEMENT_3D('',#1160,#952,#953);
#763=AXIS2_PLACEMENT_3D('',#1162,#955,#956);
#764=AXIS2_PLACEMENT_3D('',#1164,#958,#959);
#765=AXIS2_PLACEMENT_3D('',#1165,#960,#961);
#766=AXIS2_PLACEMENT_3D('',#1167,#963,#964);
#767=AXIS2_PLACEMENT_3D('',#1169,#966,#967);
#768=AXIS2_PLACEMENT_3D('',#1170,#968,#969);
#769=AXIS2_PLACEMENT_3D('',#1171,#970,#971);
#770=DIRECTION('',(0.,0.,1.));
#771=DIRECTION('',(1.,0.,0.));
#772=DIRECTION('',(1.,0.,0.));
#773=DIRECTION('',(0.,0.,-1.));
#774=DIRECTION('',(0.,-0.892645036145483,-0.45076029044807));
#775=DIRECTION('',(1.,0.,0.));
#776=DIRECTION('',(0.,0.,-1.));
#777=DIRECTION('',(0.,1.,4.33680868994202E-16));
#778=DIRECTION('',(1.,0.,0.));
#779=DIRECTION('',(0.,0.,-1.));
#780=DIRECTION('',(0.,0.,1.));
#781=DIRECTION('',(-1.,0.,0.));
#782=DIRECTION('',(0.,0.,1.));
#783=DIRECTION('',(-1.,0.,0.));
#784=DIRECTION('',(0.,0.,1.));
#785=DIRECTION('',(1.,0.,0.));
#786=DIRECTION('',(0.,0.,-1.));
#787=DIRECTION('',(0.,0.867020152935184,-0.498273072124364));
#788=DIRECTION('',(0.,0.,-1.));
#789=DIRECTION('',(0.,-1.,0.));
#790=DIRECTION('',(0.,0.,-1.));
#791=DIRECTION('',(0.,-1.,0.));
#792=DIRECTION('',(0.,-0.867020152935184,-0.498273072124364));
#793=DIRECTION('',(1.,0.,0.));
#794=DIRECTION('',(0.,0.,-1.));
#795=DIRECTION('',(-1.,0.,0.));
#796=DIRECTION('',(0.,0.,1.));
#797=DIRECTION('',(0.,-1.,0.));
#798=DIRECTION('',(0.,0.,-1.));
#799=DIRECTION('',(1.,0.,0.));
#800=DIRECTION('',(0.,0.,-1.));
#801=DIRECTION('',(0.,1.,0.));
#802=DIRECTION('',(1.,0.,0.));
#803=DIRECTION('',(0.,0.,-1.));
#804=DIRECTION('',(0.,-0.892645036145483,0.45076029044807));
#805=DIRECTION('',(-1.,0.,0.));
#806=DIRECTION('',(0.,0.,1.));
#807=DIRECTION('',(1.,0.,0.));
#808=DIRECTION('',(0.,0.,-1.));
#809=DIRECTION('',(-1.,0.,0.));
#810=DIRECTION('',(0.,0.,-1.));
#811=DIRECTION('',(-1.,0.,0.));
#812=DIRECTION('',(1.,0.,0.));
#813=DIRECTION('',(1.,0.,0.));
#814=DIRECTION('',(0.,0.,-1.));
#815=DIRECTION('',(-1.,0.,0.));
#816=DIRECTION('',(0.,0.,-1.));
#817=DIRECTION('',(-1.,0.,0.));
#818=DIRECTION('',(1.,0.,0.));
#819=DIRECTION('',(0.,0.,1.));
#820=DIRECTION('',(1.,0.,0.));
#821=DIRECTION('',(1.,0.,0.));
#822=DIRECTION('',(-1.,0.,0.));
#823=DIRECTION('',(0.,-1.,0.));
#824=DIRECTION('',(0.,0.,1.));
#825=DIRECTION('',(1.,0.,0.));
#826=DIRECTION('',(0.,-1.,0.));
#827=DIRECTION('',(1.,0.,0.));
#828=DIRECTION('',(1.,0.,0.));
#829=DIRECTION('',(1.,0.,0.));
#830=DIRECTION('',(0.,0.,-1.));
#831=DIRECTION('',(0.,0.,1.));
#832=DIRECTION('',(1.,0.,0.));
#833=DIRECTION('',(0.,0.,-1.));
#834=DIRECTION('',(0.,0.892645036145483,-0.450760290448071));
#835=DIRECTION('',(0.,1.,0.));
#836=DIRECTION('',(-1.,0.,0.));
#837=DIRECTION('',(0.,0.,-1.));
#838=DIRECTION('',(0.,0.892645036145483,0.45076029044807));
#839=DIRECTION('',(1.,0.,0.));
#840=DIRECTION('',(0.,0.,-1.));
#841=DIRECTION('',(0.,0.,-1.));
#842=DIRECTION('',(0.,1.,4.33680868994202E-16));
#843=DIRECTION('',(-1.,0.,0.));
#844=DIRECTION('',(0.,0.,-1.));
#845=DIRECTION('',(1.,0.,0.));
#846=DIRECTION('',(0.,0.,-1.));
#847=DIRECTION('',(0.,0.,-1.));
#848=DIRECTION('',(0.,-1.,0.));
#849=DIRECTION('',(0.,0.,-1.));
#850=DIRECTION('',(0.,0.867020152935184,-0.498273072124364));
#851=DIRECTION('',(1.,0.,0.));
#852=DIRECTION('',(0.,0.,-1.));
#853=DIRECTION('',(0.,-0.867020152935184,-0.498273072124364));
#854=DIRECTION('',(1.,0.,0.));
#855=DIRECTION('',(0.,0.,-1.));
#856=DIRECTION('',(0.,0.,-1.));
#857=DIRECTION('',(0.,-1.,0.));
#858=DIRECTION('',(0.,0.,-1.));
#859=DIRECTION('',(0.,-1.,0.));
#860=DIRECTION('',(0.,-1.,0.));
#861=DIRECTION('',(0.,0.,-1.));
#862=DIRECTION('',(0.,-1.,0.));
#863=DIRECTION('',(0.,0.,-1.));
#864=DIRECTION('',(-1.,0.,0.));
#865=DIRECTION('',(0.,-1.,0.));
#866=DIRECTION('',(0.,0.,-1.));
#867=DIRECTION('',(0.,0.,-1.));
#868=DIRECTION('',(0.,-1.,0.));
#869=DIRECTION('',(0.,0.,-1.));
#870=DIRECTION('',(0.,-1.,0.));
#871=DIRECTION('',(0.,0.,-1.));
#872=DIRECTION('',(-1.,0.,0.));
#873=DIRECTION('',(0.,1.,0.));
#874=DIRECTION('',(0.,0.,1.));
#875=DIRECTION('',(1.,0.,0.));
#876=DIRECTION('',(0.,1.,0.));
#877=DIRECTION('',(0.,0.,1.));
#878=DIRECTION('',(1.,0.,0.));
#879=DIRECTION('',(1.,0.,0.));
#880=DIRECTION('',(0.,1.,0.));
#881=DIRECTION('',(0.,0.,1.));
#882=DIRECTION('',(0.,1.,0.));
#883=DIRECTION('',(0.,0.,1.));
#884=DIRECTION('',(0.,0.,-1.));
#885=DIRECTION('',(0.,1.,0.));
#886=DIRECTION('',(0.,0.,1.));
#887=DIRECTION('',(0.,0.,1.));
#888=DIRECTION('',(1.,0.,0.));
#889=DIRECTION('',(1.,0.,0.));
#890=DIRECTION('',(0.,0.,-1.));
#891=DIRECTION('',(0.,-1.,0.));
#892=DIRECTION('',(0.,-1.,0.));
#893=DIRECTION('',(0.,0.,1.));
#894=DIRECTION('',(1.,0.,0.));
#895=DIRECTION('',(0.,-1.,0.));
#896=DIRECTION('',(0.,-1.,0.));
#897=DIRECTION('',(0.,-1.,0.));
#898=DIRECTION('',(0.,0.,-1.));
#899=DIRECTION('',(0.,-1.,0.));
#900=DIRECTION('',(0.,1.,0.));
#901=DIRECTION('',(0.,0.,1.));
#902=DIRECTION('',(0.,1.,0.));
#903=DIRECTION('',(0.,0.,1.));
#904=DIRECTION('',(0.,-1.,0.));
#905=DIRECTION('',(0.,0.,-1.));
#906=DIRECTION('',(1.,0.,0.));
#907=DIRECTION('',(0.,0.,-1.));
#908=DIRECTION('',(-1.,0.,0.));
#909=DIRECTION('',(1.,0.,0.));
#910=DIRECTION('',(0.,0.,-1.));
#911=DIRECTION('',(-1.,0.,0.));
#912=DIRECTION('',(0.,4.33680868994202E-16,-1.));
#913=DIRECTION('',(0.,1.,4.33680868994202E-16));
#914=DIRECTION('',(1.,0.,0.));
#915=DIRECTION('',(1.,0.,0.));
#916=DIRECTION('',(0.,0.,-1.));
#917=DIRECTION('',(-1.,0.,0.));
#918=DIRECTION('',(0.,-0.498273072124364,-0.867020152935184));
#919=DIRECTION('',(0.,0.867020152935184,-0.498273072124364));
#920=DIRECTION('',(1.,0.,0.));
#921=DIRECTION('',(0.,0.867020152935184,-0.498273072124364));
#922=DIRECTION('',(1.,0.,0.));
#923=DIRECTION('',(1.,0.,0.));
#924=DIRECTION('',(0.,0.,-1.));
#925=DIRECTION('',(1.,0.,0.));
#926=DIRECTION('',(0.,0.,-1.));
#927=DIRECTION('',(1.,0.,0.));
#928=DIRECTION('',(0.,-0.498273072124364,0.867020152935184));
#929=DIRECTION('',(0.,-0.867020152935184,-0.498273072124364));
#930=DIRECTION('',(0.,0.867020152935184,0.498273072124364));
#931=DIRECTION('',(-1.,0.,0.));
#932=DIRECTION('',(1.,0.,0.));
#933=DIRECTION('',(0.,1.,0.));
#934=DIRECTION('',(-1.,0.,0.));
#935=DIRECTION('',(0.,0.,1.));
#936=DIRECTION('',(1.,0.,0.));
#937=DIRECTION('',(0.,0.,-1.));
#938=DIRECTION('',(-1.,0.,0.));
#939=DIRECTION('',(0.,0.,1.));
#940=DIRECTION('',(-1.,0.,0.));
#941=DIRECTION('',(0.,0.,1.));
#942=DIRECTION('',(1.,0.,0.));
#943=DIRECTION('',(0.,0.,-1.));
#944=DIRECTION('',(-1.,0.,0.));
#945=DIRECTION('',(0.,0.,1.));
#946=DIRECTION('',(1.,0.,0.));
#947=DIRECTION('',(0.,0.,-1.));
#948=DIRECTION('',(1.,0.,0.));
#949=DIRECTION('',(1.,0.,0.));
#950=DIRECTION('',(0.,0.,-1.));
#951=DIRECTION('',(1.,0.,0.));
#952=DIRECTION('',(0.,0.45076029044807,-0.892645036145483));
#953=DIRECTION('',(0.,0.892645036145483,0.45076029044807));
#954=DIRECTION('',(-1.,0.,0.));
#955=DIRECTION('',(-1.,0.,0.));
#956=DIRECTION('',(0.,0.,1.));
#957=DIRECTION('',(-1.,0.,0.));
#958=DIRECTION('',(0.,-1.,0.));
#959=DIRECTION('',(0.,0.,-1.));
#960=DIRECTION('',(0.,1.,0.));
#961=DIRECTION('',(0.,0.,1.));
#962=DIRECTION('',(-1.,0.,0.));
#963=DIRECTION('',(-1.,0.,0.));
#964=DIRECTION('',(0.,0.,1.));
#965=DIRECTION('',(-1.,0.,0.));
#966=DIRECTION('',(0.,-0.450760290448071,-0.892645036145483));
#967=DIRECTION('',(0.,0.892645036145483,-0.450760290448071));
#968=DIRECTION('',(1.,0.,0.));
#969=DIRECTION('',(0.,0.,-1.));
#970=DIRECTION('',(1.,0.,0.));
#971=DIRECTION('',(0.,0.,-1.));
#972=CARTESIAN_POINT('',(0.,0.,0.));
#973=CARTESIAN_POINT('',(-0.04125,-0.03,0.015));
#974=CARTESIAN_POINT('',(-0.04125,-0.00932385956432785,-0.000863824984639227));
#975=CARTESIAN_POINT('',(-0.04125,-0.00432385956432785,0.00166103244578178));
#976=CARTESIAN_POINT('',(-0.04125,-0.0143238595643279,-0.00338868241506023));
#977=CARTESIAN_POINT('',(-0.04125,-0.005,0.003));
#978=CARTESIAN_POINT('',(-0.04125,-0.005,0.0045));
#979=CARTESIAN_POINT('',(-0.04125,-0.03,0.0045));
#980=CARTESIAN_POINT('',(-0.04125,-0.015,0.0045));
#981=CARTESIAN_POINT('',(-0.04125,-0.015,0.003));
#982=CARTESIAN_POINT('',(-0.04125,-0.0165,0.003));
#983=CARTESIAN_POINT('',(-0.04125,-0.0165,0.000475142569578995));
#984=CARTESIAN_POINT('',(-0.04125,-0.0165,-0.00204971486084201));
#985=CARTESIAN_POINT('',(-0.04125,-0.015,-0.00204971486084201));
#986=CARTESIAN_POINT('',(-0.04125,-0.0300244434622573,-0.00799990041787271));
#987=CARTESIAN_POINT('',(-0.04125,-0.037965024437087,-0.0089726172116511));
#988=CARTESIAN_POINT('',(-0.04125,-0.0300488869245117,0.));
#989=CARTESIAN_POINT('',(-0.04125,-0.0399501851251143,-0.00921579830201636));
#990=CARTESIAN_POINT('',(-0.04125,-0.0409467312693631,-0.0109498386078867));
#991=CARTESIAN_POINT('',(-0.04125,-0.0470052985135994,-0.00746800383941237));
#992=CARTESIAN_POINT('',(-0.04125,-0.06,0.));
#993=CARTESIAN_POINT('',(-0.04125,-0.06,0.015));
#994=CARTESIAN_POINT('',(-0.04125,-0.06,0.016));
#995=CARTESIAN_POINT('',(-0.04125,2.08166817117217E-17,0.016));
#996=CARTESIAN_POINT('',(-0.04125,2.08166817117217E-17,0.016));
#997=CARTESIAN_POINT('',(-0.04125,2.08166817117217E-17,0.015));
#998=CARTESIAN_POINT('',(-0.04125,2.08166817117217E-17,0.));
#999=CARTESIAN_POINT('',(-0.04125,-0.03,0.));
#1000=CARTESIAN_POINT('',(-0.04125,-4.88869245146789E-5,-1.7347234759768E-18));
#1001=CARTESIAN_POINT('',(-0.04125,-0.0130435884109153,-0.00746800383941237));
#1002=CARTESIAN_POINT('',(-0.04125,-0.0191021556551516,-0.0109498386078867));
#1003=CARTESIAN_POINT('',(-0.04125,-0.0200987017994003,-0.00921579830201635));
#1004=CARTESIAN_POINT('',(-0.04125,-0.0220838624874276,-0.0089726172116511));
#1005=CARTESIAN_POINT('',(-0.04125,-0.0300244434622573,-0.00799990041787271));
#1006=CARTESIAN_POINT('',(-0.04125,-0.0300000000000028,0.));
#1007=CARTESIAN_POINT('',(-0.04125,-0.03,0.));
#1008=CARTESIAN_POINT('',(-0.04125,-0.0435,0.000475142569578995));
#1009=CARTESIAN_POINT('',(-0.04125,-0.0435,0.003));
#1010=CARTESIAN_POINT('',(-0.04125,-0.0435,-0.00204971486084201));
#1011=CARTESIAN_POINT('',(-0.04125,-0.045,0.003));
#1012=CARTESIAN_POINT('',(-0.04125,-0.045,0.0045));
#1013=CARTESIAN_POINT('',(-0.04125,-0.03,0.0045));
#1014=CARTESIAN_POINT('',(-0.04125,-0.055,0.0045));
#1015=CARTESIAN_POINT('',(-0.04125,-0.055,0.003));
#1016=CARTESIAN_POINT('',(-0.04125,-0.0556761404356721,0.00166103244578172));
#1017=CARTESIAN_POINT('',(-0.04125,-0.0506761404356721,-0.000863824984639238));
#1018=CARTESIAN_POINT('',(-0.04125,-0.0456761404356721,-0.00338868241506023));
#1019=CARTESIAN_POINT('',(-0.04125,-0.045,-0.00204971486084202));
#1020=CARTESIAN_POINT('',(-0.0505,-0.055,0.003));
#1021=CARTESIAN_POINT('',(-0.006,-0.055,0.003));
#1022=CARTESIAN_POINT('',(-0.006,-0.0556761404356721,0.00166103244578176));
#1023=CARTESIAN_POINT('',(-0.006,-0.055,0.0045));
#1024=CARTESIAN_POINT('',(0.01525,-0.0556761404356721,0.00166103244578172));
#1025=CARTESIAN_POINT('',(-0.0505,-0.055,0.0045));
#1026=CARTESIAN_POINT('',(-0.0505,-0.015,0.003));
#1027=CARTESIAN_POINT('',(-0.006,-0.015,0.003));
#1028=CARTESIAN_POINT('',(-0.006,-0.0165,0.003));
#1029=CARTESIAN_POINT('',(-0.006,-0.015,0.0045));
#1030=CARTESIAN_POINT('',(0.01525,-0.0165,0.003));
#1031=CARTESIAN_POINT('',(-0.0505,-0.015,0.0045));
#1032=CARTESIAN_POINT('',(0.004375,1.38777878078145E-17,0.));
#1033=CARTESIAN_POINT('',(-0.011,-4.88869245146789E-5,-1.7347234759768E-18));
#1034=CARTESIAN_POINT('',(-0.006,-4.88869245146789E-5,-1.7347234759768E-18));
#1035=CARTESIAN_POINT('',(-0.03975,2.08166817117217E-17,0.));
#1036=CARTESIAN_POINT('',(-0.006,1.38777878078145E-17,0.));
#1037=CARTESIAN_POINT('',(-0.006,-0.03,0.));
#1038=CARTESIAN_POINT('',(0.004375,1.38777878078145E-17,0.));
#1039=CARTESIAN_POINT('',(-0.011,-0.03,0.));
#1040=CARTESIAN_POINT('',(-0.011,-0.0300000000000028,0.));
#1041=CARTESIAN_POINT('',(-0.011,-0.0300488869245117,0.));
#1042=CARTESIAN_POINT('',(-0.04125,-0.0300488869245117,0.));
#1043=CARTESIAN_POINT('',(-0.04125,-0.0300000000000028,0.));
#1044=CARTESIAN_POINT('',(-0.006,-0.03,0.006));
#1045=CARTESIAN_POINT('',(-0.006,-0.0435,0.006));
#1046=CARTESIAN_POINT('',(-0.006,-0.0435,-0.00204971486084201));
#1047=CARTESIAN_POINT('',(-0.006,-0.0435,0.003));
#1048=CARTESIAN_POINT('',(-0.006,-0.045,-0.00204971486084202));
#1049=CARTESIAN_POINT('',(-0.006,-0.0456761404356721,-0.00338868241506023));
#1050=CARTESIAN_POINT('',(-0.006,-0.0369628682290727,-0.0077886364298829));
#1051=CARTESIAN_POINT('',(-0.006,-0.05,0.0045));
#1052=CARTESIAN_POINT('',(-0.006,-0.045,0.0045));
#1053=CARTESIAN_POINT('',(-0.006,-0.045,0.003));
#1054=CARTESIAN_POINT('',(-0.006,-0.0230371317709273,-0.0077886364298829));
#1055=CARTESIAN_POINT('',(-0.006,-0.0143238595643279,-0.00338868241506023));
#1056=CARTESIAN_POINT('',(-0.006,-0.00432385956432785,0.00166103244578178));
#1057=CARTESIAN_POINT('',(-0.006,-0.015,-0.00204971486084201));
#1058=CARTESIAN_POINT('',(-0.006,-0.0165,-0.00204971486084201));
#1059=CARTESIAN_POINT('',(-0.006,-0.0165,0.006));
#1060=CARTESIAN_POINT('',(-0.006,-0.01,0.0045));
#1061=CARTESIAN_POINT('',(-0.006,-0.005,0.0045));
#1062=CARTESIAN_POINT('',(-0.006,-0.005,0.003));
#1063=CARTESIAN_POINT('',(-0.006,-0.0300244434622573,-0.00799990041787271));
#1064=CARTESIAN_POINT('',(-0.006,-0.0300244434622573,-0.0129999004178727));
#1065=CARTESIAN_POINT('',(-0.006,1.38777878078145E-17,0.006));
#1066=CARTESIAN_POINT('',(-0.006,1.38777878078145E-17,0.006));
#1067=CARTESIAN_POINT('',(-0.006,-0.03,0.006));
#1068=CARTESIAN_POINT('',(-0.006,-0.06,0.006));
#1069=CARTESIAN_POINT('',(-0.006,-0.06,0.006));
#1070=CARTESIAN_POINT('',(-0.006,-0.06,0.));
#1071=CARTESIAN_POINT('',(-0.006,-0.0470052985135994,-0.00746800383941237));
#1072=CARTESIAN_POINT('',(-0.006,-0.0340105970271987,-0.0149360076788247));
#1073=CARTESIAN_POINT('',(-0.006,-0.0300244434622573,-0.00799990041787271));
#1074=CARTESIAN_POINT('',(-0.006,-0.0260382898973158,-0.0149360076788247));
#1075=CARTESIAN_POINT('',(-0.006,-0.0130435884109153,-0.00746800383941237));
#1076=CARTESIAN_POINT('',(-0.03825,-0.03,0.015));
#1077=CARTESIAN_POINT('',(-0.03825,2.08166817117217E-17,0.015));
#1078=CARTESIAN_POINT('',(-0.03825,2.08166817117217E-17,0.01425));
#1079=CARTESIAN_POINT('',(-0.03825,2.08166817117217E-17,0.006));
#1080=CARTESIAN_POINT('',(-0.03825,-0.03,0.01425));
#1081=CARTESIAN_POINT('',(-0.03825,-0.06,0.01425));
#1082=CARTESIAN_POINT('',(-0.03825,-0.06,0.015));
#1083=CARTESIAN_POINT('',(-0.03825,-0.06,0.006));
#1084=CARTESIAN_POINT('',(-0.03825,-0.03,0.006));
#1085=CARTESIAN_POINT('',(-0.03975,2.08166817117217E-17,0.015));
#1086=CARTESIAN_POINT('',(-0.03925,2.08166817117217E-17,0.016));
#1087=CARTESIAN_POINT('',(-0.03925,2.08166817117217E-17,0.018));
#1088=CARTESIAN_POINT('',(-0.03975,2.08166817117217E-17,0.018));
#1089=CARTESIAN_POINT('',(-0.03875,2.08166817117217E-17,0.018));
#1090=CARTESIAN_POINT('',(-0.03875,2.08166817117217E-17,0.016));
#1091=CARTESIAN_POINT('',(-0.03675,0.,0.016));
#1092=CARTESIAN_POINT('',(-0.03675,0.,0.018));
#1093=CARTESIAN_POINT('',(-0.03675,0.,0.01575));
#1094=CARTESIAN_POINT('',(-0.0375,2.08166817117217E-17,0.01575));
#1095=CARTESIAN_POINT('',(-0.0375,2.08166817117217E-17,0.015));
#1096=CARTESIAN_POINT('',(-0.0375,2.08166817117217E-17,0.01425));
#1097=CARTESIAN_POINT('',(-0.03975,2.08166817117217E-17,0.006));
#1098=CARTESIAN_POINT('',(-0.03975,-0.06,0.015));
#1099=CARTESIAN_POINT('',(-0.03975,-0.06,0.018));
#1100=CARTESIAN_POINT('',(-0.03925,-0.06,0.018));
#1101=CARTESIAN_POINT('',(-0.03875,-0.06,0.018));
#1102=CARTESIAN_POINT('',(-0.03925,-0.06,0.016));
#1103=CARTESIAN_POINT('',(-0.03975,-0.06,0.));
#1104=CARTESIAN_POINT('',(-0.03975,-0.06,0.006));
#1105=CARTESIAN_POINT('',(-0.0375,-0.06,0.01425));
#1106=CARTESIAN_POINT('',(-0.0375,-0.06,0.015));
#1107=CARTESIAN_POINT('',(-0.0375,-0.06,0.01575));
#1108=CARTESIAN_POINT('',(-0.03675,-0.06,0.01575));
#1109=CARTESIAN_POINT('',(-0.03675,-0.06,0.018));
#1110=CARTESIAN_POINT('',(-0.03675,-0.06,0.016));
#1111=CARTESIAN_POINT('',(-0.03875,-0.06,0.016));
#1112=CARTESIAN_POINT('',(0.004375,1.38777878078145E-17,0.006));
#1113=CARTESIAN_POINT('',(-0.03675,-0.03,0.018));
#1114=CARTESIAN_POINT('',(-0.03675,-0.03,0.016));
#1115=CARTESIAN_POINT('',(-0.03675,0.,0.01575));
#1116=CARTESIAN_POINT('',(-0.039,-0.03,0.018));
#1117=CARTESIAN_POINT('',(-0.03925,-0.06,0.018));
#1118=CARTESIAN_POINT('',(-0.03875,-0.03,0.018));
#1119=CARTESIAN_POINT('',(-0.0375,-0.03,0.01425));
#1120=CARTESIAN_POINT('',(-0.0375,-0.03,0.015));
#1121=CARTESIAN_POINT('',(-0.0375,-0.03,0.01575));
#1122=CARTESIAN_POINT('',(-0.03925,-0.03,0.016));
#1123=CARTESIAN_POINT('',(-0.03875,-0.03,0.016));
#1124=CARTESIAN_POINT('',(-0.0505,-0.045,0.003));
#1125=CARTESIAN_POINT('',(0.01525,-0.0435,0.003));
#1126=CARTESIAN_POINT('',(-0.0505,-0.045,0.0045));
#1127=CARTESIAN_POINT('',(-0.0505,-0.05,0.0045));
#1128=CARTESIAN_POINT('',(-0.0505,-0.01,0.0045));
#1129=CARTESIAN_POINT('',(-0.0505,-0.005,0.0045));
#1130=CARTESIAN_POINT('',(-0.0505,-0.005,0.003));
#1131=CARTESIAN_POINT('',(0.01525,-0.00432385956432785,0.00166103244578178));
#1132=CARTESIAN_POINT('',(-0.011,-0.0470052985135994,-0.00746800383941237));
#1133=CARTESIAN_POINT('',(-0.011,-0.0409467312693631,-0.0109498386078867));
#1134=CARTESIAN_POINT('',(-0.011,-0.0409467312693631,-0.0109498386078867));
#1135=CARTESIAN_POINT('',(-0.011,-0.035288252610558,-0.0142017440397593));
#1136=CARTESIAN_POINT('',(-0.011,-0.0340105970271987,-0.0149360076788247));
#1137=CARTESIAN_POINT('',(-0.011,-0.0340105970271987,-0.0149360076788247));
#1138=CARTESIAN_POINT('',(-0.011,-0.0300244434622573,-0.00799990041787271));
#1139=CARTESIAN_POINT('',(-0.011,-0.0300244434622573,-0.00799990041787271));
#1140=CARTESIAN_POINT('',(-0.011,-0.0260382898973158,-0.0149360076788247));
#1141=CARTESIAN_POINT('',(-0.011,-0.0260382898973158,-0.0149360076788247));
#1142=CARTESIAN_POINT('',(-0.011,-0.0130435884109153,-0.00746800383941237));
#1143=CARTESIAN_POINT('',(-0.011,-0.0130435884109153,-0.00746800383941237));
#1144=CARTESIAN_POINT('',(-0.011,-0.0191021556551516,-0.0109498386078867));
#1145=CARTESIAN_POINT('',(-0.04125,-0.0191021556551516,-0.0109498386078867));
#1146=CARTESIAN_POINT('',(-0.011,-0.03,-0.00499991908940053));
#1147=CARTESIAN_POINT('',(-0.011,-0.0300244434622573,-0.00799990041787271));
#1148=CARTESIAN_POINT('',(-0.011,-0.0300244434622573,-0.00299990041787271));
#1149=CARTESIAN_POINT('',(-0.011,-0.0399501851251143,-0.00921579830201636));
#1150=CARTESIAN_POINT('',(-0.011,-0.037965024437087,-0.0089726172116511));
#1151=CARTESIAN_POINT('',(-0.011,-0.0300244434622573,-0.00799990041787271));
#1152=CARTESIAN_POINT('',(-0.011,-0.0300244434622573,-0.00799990041787271));
#1153=CARTESIAN_POINT('',(-0.011,-0.0220838624874276,-0.0089726172116511));
#1154=CARTESIAN_POINT('',(-0.011,-0.0200987017994003,-0.00921579830201635));
#1155=CARTESIAN_POINT('',(0.014,-0.0300244434622573,-0.00799990041787271));
#1156=CARTESIAN_POINT('',(-0.04125,-0.0300244434622573,-0.00799990041787271));
#1157=CARTESIAN_POINT('',(-0.04125,-0.0220838624874276,-0.0089726172116511));
#1158=CARTESIAN_POINT('',(-0.04125,-0.0300244434622573,-0.00799990041787271));
#1159=CARTESIAN_POINT('',(-0.04125,-0.037965024437087,-0.0089726172116511));
#1160=CARTESIAN_POINT('',(0.01525,-0.00932385956432785,-0.000863824984639227));
#1161=CARTESIAN_POINT('',(0.01525,-0.0143238595643279,-0.00338868241506023));
#1162=CARTESIAN_POINT('',(0.01525,-0.015,-0.00204971486084201));
#1163=CARTESIAN_POINT('',(0.01525,-0.0165,-0.00204971486084201));
#1164=CARTESIAN_POINT('',(0.01525,-0.0165,0.000475142569578995));
#1165=CARTESIAN_POINT('',(0.01525,-0.0435,0.000475142569578995));
#1166=CARTESIAN_POINT('',(0.01525,-0.0435,-0.00204971486084201));
#1167=CARTESIAN_POINT('',(0.01525,-0.045,-0.00204971486084202));
#1168=CARTESIAN_POINT('',(0.01525,-0.0456761404356721,-0.00338868241506023));
#1169=CARTESIAN_POINT('',(0.01525,-0.0506761404356721,-0.000863824984639238));
#1170=CARTESIAN_POINT('',(-0.04125,-0.0399501851251143,-0.00921579830201636));
#1171=CARTESIAN_POINT('',(-0.04125,-0.0200987017994003,-0.00921579830201635));
#1172=MECHANICAL_DESIGN_GEOMETRIC_PRESENTATION_REPRESENTATION('',(#691),
#1173);
#1173=(
GEOMETRIC_REPRESENTATION_CONTEXT(3)
GLOBAL_UNCERTAINTY_ASSIGNED_CONTEXT((#1174))
GLOBAL_UNIT_ASSIGNED_CONTEXT((#1177,#1176,#1175))
REPRESENTATION_CONTEXT('Phone Holder Male','TOP_LEVEL_ASSEMBLY_PART')
);
#1174=UNCERTAINTY_MEASURE_WITH_UNIT(LENGTH_MEASURE(2.E-7),#1177,
'DISTANCE_ACCURACY_VALUE','Maximum Tolerance applied to model');
#1175=(
NAMED_UNIT(*)
SI_UNIT($,.STERADIAN.)
SOLID_ANGLE_UNIT()
);
#1176=(
NAMED_UNIT(*)
PLANE_ANGLE_UNIT()
SI_UNIT($,.RADIAN.)
);
#1177=(
LENGTH_UNIT()
NAMED_UNIT(*)
SI_UNIT($,.METRE.)
);
#1178=PRODUCT_DEFINITION_SHAPE('','',#1179);
#1179=PRODUCT_DEFINITION('','',#1181,#1180);
#1180=PRODUCT_DEFINITION_CONTEXT('',#1187,'design');
#1181=PRODUCT_DEFINITION_FORMATION_WITH_SPECIFIED_SOURCE('','',#1183,
 .NOT_KNOWN.);
#1182=PRODUCT_RELATED_PRODUCT_CATEGORY('','',(#1183));
#1183=PRODUCT('Phone Holder Male','Phone Holder Male',
'Phone Holder Male',(#1185));
#1184=PRODUCT_CATEGORY('','');
#1185=PRODUCT_CONTEXT('',#1187,'mechanical');
#1186=APPLICATION_PROTOCOL_DEFINITION('international standard',
'ap242_managed_model_based_3d_engineering',2020,#1187);
#1187=APPLICATION_CONTEXT('managed model based 3d engineering');
ENDSEC;
END-ISO-10303-21;
