ISO-10303-21;
HEADER;
/* Generated by software containing ST-Developer
 * from STEP Tools, Inc. (www.steptools.com) 
 */
/* OPTION: using custom renumber hook */

FILE_DESCRIPTION(
/* description */ ('STEP AP242 Edition 2',
'CAx-IF Rec.Pracs.---Representation and Presentation of Product Manufa
cturing Information (PMI)---4.0---2014-10-13',
'CAx-IF Rec.Pracs.---3D Tessellated Geometry---0.4---2014-09-14','2;1',
'CAx-IF Rec.Pracs.---User Defined Attributes---1.5---2016-08-15'),
/* implementation_level */ '2;1');

FILE_NAME(
/* name */ 'Assembly 1 - Arm',
/* time_stamp */ '2026-06-23T19:13:02Z',
/* author */ (''),
/* organization */ (''),
/* preprocessor_version */ 'ST-DEVELOPER v20',
/* originating_system */ 'ONSHAPE BY PTC INC, 1.216',
/* authorisation */ '  ');

FILE_SCHEMA (('AP242_MANAGED_MODEL_BASED_3D_ENGINEERING_MIM_LF { 1 0 10303 442 3 1 4 }'));
ENDSEC;

DATA;
#10=SHAPE_REPRESENTATION_RELATIONSHIP('','',#1010,#11);
#11=ADVANCED_BREP_SHAPE_REPRESENTATION('',(#1008),#1859);
#12=SPHERICAL_SURFACE('',#1108,0.003);
#13=(
BOUNDED_SURFACE()
B_SPLINE_SURFACE(3,2,((#1695,#1696,#1697),(#1698,#1699,#1700),(#1701,#1702,
#1703),(#1704,#1705,#1706),(#1707,#1708,#1709)),.UNSPECIFIED.,.F.,.F.,.F.)
B_SPLINE_SURFACE_WITH_KNOTS((4,1,4),(3,3),(0.00569521759681585,0.0101134821156265,
0.0145317466344372),(0.,1.),.UNSPECIFIED.)
GEOMETRIC_REPRESENTATION_ITEM()
RATIONAL_B_SPLINE_SURFACE(((1.,0.754323245766542,1.),(1.,0.783513431168724,
1.),(1.,0.855486519057155,1.),(1.,0.939642603103475,1.),(1.,0.967864628161023,
1.)))
REPRESENTATION_ITEM('')
SURFACE()
);
#14=(
BOUNDED_SURFACE()
B_SPLINE_SURFACE(3,2,((#1716,#1717,#1718),(#1719,#1720,#1721),(#1722,#1723,
#1724),(#1725,#1726,#1727)),.UNSPECIFIED.,.F.,.F.,.F.)
B_SPLINE_SURFACE_WITH_KNOTS((4,4),(3,3),(0.00316812729426883,0.00682733709096631),
(0.,1.),.PIECEWISE_BEZIER_KNOTS.)
GEOMETRIC_REPRESENTATION_ITEM()
RATIONAL_B_SPLINE_SURFACE(((1.,0.967272905337259,1.),(1.,0.943948414865703,
1.),(1.,0.911253885360593,1.),(1.,0.878572808144216,1.)))
REPRESENTATION_ITEM('')
SURFACE()
);
#15=(
BOUNDED_SURFACE()
B_SPLINE_SURFACE(3,2,((#1785,#1786,#1787),(#1788,#1789,#1790),(#1791,#1792,
#1793),(#1794,#1795,#1796),(#1797,#1798,#1799),(#1800,#1801,#1802),(#1803,
#1804,#1805)),.UNSPECIFIED.,.F.,.F.,.F.)
B_SPLINE_SURFACE_WITH_KNOTS((4,1,1,1,4),(3,3),(6.93889390390723E-18,0.00305975764248805,
0.0061195152849761,0.00917927292746414,0.0122390305699522),(0.,1.),
 .UNSPECIFIED.)
GEOMETRIC_REPRESENTATION_ITEM()
RATIONAL_B_SPLINE_SURFACE(((1.,0.707106781186548,1.),(1.,0.722457579368482,
1.),(1.,0.758140584426928,1.),(1.,0.830645558150193,1.),(1.,0.915428811830706,
1.),(1.,0.964060068783641,1.),(1.,0.98006400042679,1.)))
REPRESENTATION_ITEM('')
SURFACE()
);
#16=(
BOUNDED_SURFACE()
B_SPLINE_SURFACE(3,2,((#1818,#1819,#1820),(#1821,#1822,#1823),(#1824,#1825,
#1826),(#1827,#1828,#1829),(#1830,#1831,#1832)),.UNSPECIFIED.,.F.,.F.,.F.)
B_SPLINE_SURFACE_WITH_KNOTS((4,1,4),(3,3),(-9.0205620750794E-17,0.00342402974810991,
0.00684805949621992),(0.,1.),.UNSPECIFIED.)
GEOMETRIC_REPRESENTATION_ITEM()
RATIONAL_B_SPLINE_SURFACE(((1.,0.87857280814421,1.),(1.,0.908972090547591,
1.),(1.,0.970657489918371,1.),(1.,0.999999999999873,1.),(1.,1.,1.)))
REPRESENTATION_ITEM('')
SURFACE()
);
#17=(
BOUNDED_SURFACE()
B_SPLINE_SURFACE(3,2,((#1844,#1845,#1846),(#1847,#1848,#1849),(#1850,#1851,
#1852),(#1853,#1854,#1855)),.UNSPECIFIED.,.F.,.F.,.F.)
B_SPLINE_SURFACE_WITH_KNOTS((4,4),(3,3),(0.00388586366065934,0.00447886192982413),
(0.,1.),.PIECEWISE_BEZIER_KNOTS.)
GEOMETRIC_REPRESENTATION_ITEM()
RATIONAL_B_SPLINE_SURFACE(((1.,0.801783725744183,1.),(1.,0.773005269542463,
1.),(1.,0.741280981210169,1.),(1.,0.707106781184859,1.)))
REPRESENTATION_ITEM('')
SURFACE()
);
#18=TOROIDAL_SURFACE('',#1076,0.0125698484809835,0.0050698484809835);
#19=TOROIDAL_SURFACE('',#1077,0.0125698484809835,0.0050698484809835);
#20=TOROIDAL_SURFACE('',#1082,0.004,0.003);
#21=TOROIDAL_SURFACE('',#1084,0.0045,0.003);
#22=TOROIDAL_SURFACE('',#1086,0.004,0.003);
#23=TOROIDAL_SURFACE('',#1098,0.0125,0.005);
#24=TOROIDAL_SURFACE('',#1104,0.0045,0.003);
#25=TOROIDAL_SURFACE('',#1112,0.00579179606750064,0.002);
#26=TOROIDAL_SURFACE('',#1114,0.0055,0.002);
#27=CYLINDRICAL_SURFACE('',#1029,0.0075);
#28=CYLINDRICAL_SURFACE('',#1040,0.00345);
#29=CYLINDRICAL_SURFACE('',#1043,0.0053);
#30=CYLINDRICAL_SURFACE('',#1049,0.00215);
#31=CYLINDRICAL_SURFACE('',#1057,0.0005);
#32=CYLINDRICAL_SURFACE('',#1059,0.0005);
#33=CYLINDRICAL_SURFACE('',#1063,0.00215);
#34=CYLINDRICAL_SURFACE('',#1070,0.00215);
#35=CYLINDRICAL_SURFACE('',#1071,0.00215);
#36=CYLINDRICAL_SURFACE('',#1072,0.0075);
#37=CYLINDRICAL_SURFACE('',#1074,0.0075);
#38=CYLINDRICAL_SURFACE('',#1078,0.001);
#39=CYLINDRICAL_SURFACE('',#1080,0.001);
#40=CYLINDRICAL_SURFACE('',#1087,0.003);
#41=CYLINDRICAL_SURFACE('',#1100,0.003);
#42=CYLINDRICAL_SURFACE('',#1102,0.003);
#43=CYLINDRICAL_SURFACE('',#1106,0.003);
#44=CYLINDRICAL_SURFACE('',#1110,0.002);
#45=CYLINDRICAL_SURFACE('',#1117,0.002);
#46=B_SPLINE_CURVE_WITH_KNOTS('',3,(#1405,#1406,#1407,#1408),
 .UNSPECIFIED.,.F.,.F.,(4,4),(-0.00442491960518342,-0.00431515126537975),
 .UNSPECIFIED.);
#47=B_SPLINE_CURVE_WITH_KNOTS('',3,(#1415,#1416,#1417,#1418),
 .UNSPECIFIED.,.F.,.F.,(4,4),(3.73413079542798E-16,0.00684805949621994),
 .UNSPECIFIED.);
#48=B_SPLINE_CURVE_WITH_KNOTS('',3,(#1448,#1449,#1450,#1451),
 .UNSPECIFIED.,.F.,.F.,(4,4),(0.,0.00130820499340457),.UNSPECIFIED.);
#49=B_SPLINE_CURVE_WITH_KNOTS('',3,(#1453,#1454,#1455,#1456,#1457),
 .UNSPECIFIED.,.F.,.F.,(4,1,4),(0.000252825091525964,0.00216877488890058,
0.0040847246862752),.UNSPECIFIED.);
#50=B_SPLINE_CURVE_WITH_KNOTS('',3,(#1469,#1470,#1471,#1472,#1473),
 .UNSPECIFIED.,.F.,.F.,(4,1,4),(0.,0.00192479375904292,0.00384958751808584),
 .UNSPECIFIED.);
#51=B_SPLINE_CURVE_WITH_KNOTS('',3,(#1476,#1477,#1478,#1479),
 .UNSPECIFIED.,.F.,.F.,(4,4),(5.56194657756796E-17,0.00130820499339158),
 .UNSPECIFIED.);
#52=B_SPLINE_CURVE_WITH_KNOTS('',3,(#1491,#1492,#1493,#1494,#1495,#1496),
 .UNSPECIFIED.,.F.,.F.,(4,1,1,4),(0.,0.00608301718188479,0.00912452577282718,
0.0121660343637696),.UNSPECIFIED.);
#53=B_SPLINE_CURVE_WITH_KNOTS('',3,(#1511,#1512,#1513,#1514),
 .UNSPECIFIED.,.F.,.F.,(4,4),(0.,0.0010113590918145),.UNSPECIFIED.);
#54=B_SPLINE_CURVE_WITH_KNOTS('',3,(#1603,#1604,#1605,#1606),
 .UNSPECIFIED.,.F.,.F.,(4,4),(0.,0.0028228446431632),.UNSPECIFIED.);
#55=B_SPLINE_CURVE_WITH_KNOTS('',3,(#1608,#1609,#1610,#1611),
 .UNSPECIFIED.,.F.,.F.,(4,4),(-0.00156408096194965,0.00459082421689337),
 .UNSPECIFIED.);
#56=B_SPLINE_CURVE_WITH_KNOTS('',3,(#1626,#1627,#1628,#1629,#1630),
 .UNSPECIFIED.,.F.,.F.,(4,1,4),(9.39317122047928E-17,0.00354909472713325,
0.00709818945426641),.UNSPECIFIED.);
#57=B_SPLINE_CURVE_WITH_KNOTS('',3,(#1632,#1633,#1634,#1635),
 .UNSPECIFIED.,.F.,.F.,(4,4),(0.00161584503357587,0.00519552122782946),
 .UNSPECIFIED.);
#58=B_SPLINE_CURVE_WITH_KNOTS('',3,(#1637,#1638,#1639,#1640),
 .UNSPECIFIED.,.F.,.F.,(4,4),(0.000140861160188638,0.00187742830169118),
 .UNSPECIFIED.);
#59=B_SPLINE_CURVE_WITH_KNOTS('',3,(#1642,#1643,#1644,#1645),
 .UNSPECIFIED.,.F.,.F.,(4,4),(-0.00179594043143417,-5.75403840745233E-5),
 .UNSPECIFIED.);
#60=B_SPLINE_CURVE_WITH_KNOTS('',3,(#1647,#1648,#1649,#1650,#1651),
 .UNSPECIFIED.,.F.,.F.,(4,1,4),(2.01616365627206E-16,0.00302174318896148,
0.00604348637792276),.UNSPECIFIED.);
#61=B_SPLINE_CURVE_WITH_KNOTS('',3,(#1653,#1654,#1655,#1656,#1657,#1658,
#1659,#1660,#1661,#1662,#1663,#1664,#1665,#1666),.UNSPECIFIED.,.F.,.F.,
(4,1,1,1,1,1,1,1,1,1,1,4),(0.,0.000970231286606144,0.00194046257321229,
0.00291069385981843,0.00388092514642458,0.00436604078972765,0.00485115643303072,
0.00582138771963686,0.00630650336293994,0.00679161900624301,0.00727673464954608,
0.00776185029284915),.UNSPECIFIED.);
#62=B_SPLINE_CURVE_WITH_KNOTS('',3,(#1670,#1671,#1672,#1673),
 .UNSPECIFIED.,.F.,.F.,(4,4),(0.,0.000512290206632464),.UNSPECIFIED.);
#63=B_SPLINE_CURVE_WITH_KNOTS('',3,(#1675,#1676,#1677,#1678),
 .UNSPECIFIED.,.F.,.F.,(4,4),(7.75791922889773E-18,0.000512290206651882),
 .UNSPECIFIED.);
#64=B_SPLINE_CURVE_WITH_KNOTS('',3,(#1682,#1683,#1684,#1685),
 .UNSPECIFIED.,.F.,.F.,(4,4),(0.,0.00121380895163116),.UNSPECIFIED.);
#65=B_SPLINE_CURVE_WITH_KNOTS('',3,(#1690,#1691,#1692,#1693),
 .UNSPECIFIED.,.F.,.F.,(4,4),(0.,0.00121380895161643),.UNSPECIFIED.);
#66=B_SPLINE_CURVE_WITH_KNOTS('',3,(#1710,#1711,#1712,#1713,#1714,#1715),
 .UNSPECIFIED.,.F.,.F.,(4,1,1,4),(0.,0.00218692496046644,0.00328038744069966,
0.00437384992093288),.UNSPECIFIED.);
#67=B_SPLINE_CURVE_WITH_KNOTS('',3,(#1759,#1760,#1761,#1762),
 .UNSPECIFIED.,.F.,.F.,(4,4),(0.,0.000598160106052009),.UNSPECIFIED.);
#68=B_SPLINE_CURVE_WITH_KNOTS('',3,(#1768,#1769,#1770,#1771,#1772),
 .UNSPECIFIED.,.F.,.F.,(4,1,4),(0.,0.000373915923428214,0.000747831846856428),
 .UNSPECIFIED.);
#69=B_SPLINE_CURVE_WITH_KNOTS('',3,(#1776,#1777,#1778,#1779,#1780,#1781,
#1782),.UNSPECIFIED.,.F.,.F.,(4,1,1,1,4),(0.,0.00249042879393721,0.00498085758787442,
0.00747128638181164,0.00996171517574885),.UNSPECIFIED.);
#70=B_SPLINE_CURVE_WITH_KNOTS('',3,(#1806,#1807,#1808,#1809),
 .UNSPECIFIED.,.F.,.F.,(4,4),(2.43448978901882E-14,0.00143964984878917),
 .UNSPECIFIED.);
#71=B_SPLINE_CURVE_WITH_KNOTS('',3,(#1835,#1836,#1837,#1838,#1839),
 .UNSPECIFIED.,.F.,.F.,(4,1,4),(0.,0.00128270920736546,0.00256541841473092),
 .UNSPECIFIED.);
#72=LINE('',#1399,#134);
#73=LINE('',#1401,#135);
#74=LINE('',#1403,#136);
#75=LINE('',#1412,#137);
#76=LINE('',#1420,#138);
#77=LINE('',#1422,#139);
#78=LINE('',#1424,#140);
#79=LINE('',#1428,#141);
#80=LINE('',#1431,#142);
#81=LINE('',#1433,#143);
#82=LINE('',#1435,#144);
#83=LINE('',#1437,#145);
#84=LINE('',#1439,#146);
#85=LINE('',#1445,#147);
#86=LINE('',#1459,#148);
#87=LINE('',#1463,#149);
#88=LINE('',#1481,#150);
#89=LINE('',#1485,#151);
#90=LINE('',#1489,#152);
#91=LINE('',#1499,#153);
#92=LINE('',#1501,#154);
#93=LINE('',#1502,#155);
#94=LINE('',#1503,#156);
#95=LINE('',#1505,#157);
#96=LINE('',#1507,#158);
#97=LINE('',#1509,#159);
#98=LINE('',#1516,#160);
#99=LINE('',#1518,#161);
#100=LINE('',#1520,#162);
#101=LINE('',#1525,#163);
#102=LINE('',#1528,#164);
#103=LINE('',#1533,#165);
#104=LINE('',#1541,#166);
#105=LINE('',#1544,#167);
#106=LINE('',#1549,#168);
#107=LINE('',#1551,#169);
#108=LINE('',#1571,#170);
#109=LINE('',#1574,#171);
#110=LINE('',#1575,#172);
#111=LINE('',#1577,#173);
#112=LINE('',#1579,#174);
#113=LINE('',#1581,#175);
#114=LINE('',#1583,#176);
#115=LINE('',#1585,#177);
#116=LINE('',#1587,#178);
#117=LINE('',#1599,#179);
#118=LINE('',#1601,#180);
#119=LINE('',#1618,#181);
#120=LINE('',#1730,#182);
#121=LINE('',#1732,#183);
#122=LINE('',#1734,#184);
#123=LINE('',#1736,#185);
#124=LINE('',#1738,#186);
#125=LINE('',#1740,#187);
#126=LINE('',#1742,#188);
#127=LINE('',#1744,#189);
#128=LINE('',#1746,#190);
#129=LINE('',#1748,#191);
#130=LINE('',#1750,#192);
#131=LINE('',#1752,#193);
#132=LINE('',#1757,#194);
#133=LINE('',#1766,#195);
#134=VECTOR('',#1124,1.);
#135=VECTOR('',#1125,1.);
#136=VECTOR('',#1126,1.);
#137=VECTOR('',#1131,1.);
#138=VECTOR('',#1132,1.);
#139=VECTOR('',#1133,1.);
#140=VECTOR('',#1134,1.);
#141=VECTOR('',#1139,1.);
#142=VECTOR('',#1140,1.);
#143=VECTOR('',#1141,1.);
#144=VECTOR('',#1142,1.);
#145=VECTOR('',#1143,1.);
#146=VECTOR('',#1144,1.);
#147=VECTOR('',#1151,1.);
#148=VECTOR('',#1152,1.);
#149=VECTOR('',#1155,1.);
#150=VECTOR('',#1162,1.);
#151=VECTOR('',#1165,1.);
#152=VECTOR('',#1168,1.);
#153=VECTOR('',#1171,1.);
#154=VECTOR('',#1172,1.);
#155=VECTOR('',#1173,1.);
#156=VECTOR('',#1174,1.);
#157=VECTOR('',#1175,1.);
#158=VECTOR('',#1176,1.);
#159=VECTOR('',#1177,1.);
#160=VECTOR('',#1180,1.);
#161=VECTOR('',#1181,1.);
#162=VECTOR('',#1184,1.);
#163=VECTOR('',#1187,1.);
#164=VECTOR('',#1190,1.);
#165=VECTOR('',#1193,1.);
#166=VECTOR('',#1204,1.);
#167=VECTOR('',#1205,1.);
#168=VECTOR('',#1210,1.);
#169=VECTOR('',#1211,1.);
#170=VECTOR('',#1240,1.);
#171=VECTOR('',#1241,1.);
#172=VECTOR('',#1242,1.);
#173=VECTOR('',#1245,1.);
#174=VECTOR('',#1246,1.);
#175=VECTOR('',#1249,1.);
#176=VECTOR('',#1250,1.);
#177=VECTOR('',#1253,1.);
#178=VECTOR('',#1254,1.);
#179=VECTOR('',#1273,1.);
#180=VECTOR('',#1274,1.);
#181=VECTOR('',#1283,1.);
#182=VECTOR('',#1324,1.);
#183=VECTOR('',#1325,1.);
#184=VECTOR('',#1326,1.);
#185=VECTOR('',#1329,1.);
#186=VECTOR('',#1330,1.);
#187=VECTOR('',#1333,1.);
#188=VECTOR('',#1334,1.);
#189=VECTOR('',#1337,1.);
#190=VECTOR('',#1338,1.);
#191=VECTOR('',#1341,1.);
#192=VECTOR('',#1342,1.);
#193=VECTOR('',#1345,1.);
#194=VECTOR('',#1350,1.);
#195=VECTOR('',#1353,1.);
#196=ORIENTED_EDGE('',*,*,#476,.T.);
#197=ORIENTED_EDGE('',*,*,#477,.T.);
#198=ORIENTED_EDGE('',*,*,#478,.F.);
#199=ORIENTED_EDGE('',*,*,#479,.T.);
#200=ORIENTED_EDGE('',*,*,#480,.T.);
#201=ORIENTED_EDGE('',*,*,#481,.F.);
#202=ORIENTED_EDGE('',*,*,#482,.T.);
#203=ORIENTED_EDGE('',*,*,#483,.T.);
#204=ORIENTED_EDGE('',*,*,#484,.F.);
#205=ORIENTED_EDGE('',*,*,#485,.F.);
#206=ORIENTED_EDGE('',*,*,#486,.T.);
#207=ORIENTED_EDGE('',*,*,#487,.T.);
#208=ORIENTED_EDGE('',*,*,#488,.T.);
#209=ORIENTED_EDGE('',*,*,#489,.T.);
#210=ORIENTED_EDGE('',*,*,#490,.T.);
#211=ORIENTED_EDGE('',*,*,#491,.T.);
#212=ORIENTED_EDGE('',*,*,#492,.T.);
#213=ORIENTED_EDGE('',*,*,#493,.T.);
#214=ORIENTED_EDGE('',*,*,#494,.F.);
#215=ORIENTED_EDGE('',*,*,#495,.F.);
#216=ORIENTED_EDGE('',*,*,#496,.F.);
#217=ORIENTED_EDGE('',*,*,#497,.T.);
#218=ORIENTED_EDGE('',*,*,#498,.T.);
#219=ORIENTED_EDGE('',*,*,#499,.T.);
#220=ORIENTED_EDGE('',*,*,#500,.T.);
#221=ORIENTED_EDGE('',*,*,#501,.T.);
#222=ORIENTED_EDGE('',*,*,#502,.T.);
#223=ORIENTED_EDGE('',*,*,#503,.T.);
#224=ORIENTED_EDGE('',*,*,#504,.T.);
#225=ORIENTED_EDGE('',*,*,#505,.T.);
#226=ORIENTED_EDGE('',*,*,#506,.T.);
#227=ORIENTED_EDGE('',*,*,#507,.F.);
#228=ORIENTED_EDGE('',*,*,#508,.F.);
#229=ORIENTED_EDGE('',*,*,#509,.T.);
#230=ORIENTED_EDGE('',*,*,#510,.F.);
#231=ORIENTED_EDGE('',*,*,#511,.T.);
#232=ORIENTED_EDGE('',*,*,#512,.T.);
#233=ORIENTED_EDGE('',*,*,#513,.F.);
#234=ORIENTED_EDGE('',*,*,#501,.F.);
#235=ORIENTED_EDGE('',*,*,#514,.T.);
#236=ORIENTED_EDGE('',*,*,#508,.T.);
#237=ORIENTED_EDGE('',*,*,#515,.F.);
#238=ORIENTED_EDGE('',*,*,#516,.T.);
#239=ORIENTED_EDGE('',*,*,#517,.T.);
#240=ORIENTED_EDGE('',*,*,#518,.T.);
#241=ORIENTED_EDGE('',*,*,#519,.T.);
#242=ORIENTED_EDGE('',*,*,#520,.T.);
#243=ORIENTED_EDGE('',*,*,#521,.T.);
#244=ORIENTED_EDGE('',*,*,#506,.F.);
#245=ORIENTED_EDGE('',*,*,#522,.T.);
#246=ORIENTED_EDGE('',*,*,#523,.T.);
#247=ORIENTED_EDGE('',*,*,#524,.T.);
#248=ORIENTED_EDGE('',*,*,#525,.F.);
#249=ORIENTED_EDGE('',*,*,#526,.T.);
#250=ORIENTED_EDGE('',*,*,#527,.T.);
#251=ORIENTED_EDGE('',*,*,#528,.T.);
#252=ORIENTED_EDGE('',*,*,#529,.T.);
#253=ORIENTED_EDGE('',*,*,#479,.F.);
#254=ORIENTED_EDGE('',*,*,#530,.T.);
#255=ORIENTED_EDGE('',*,*,#484,.T.);
#256=ORIENTED_EDGE('',*,*,#531,.T.);
#257=ORIENTED_EDGE('',*,*,#532,.F.);
#258=ORIENTED_EDGE('',*,*,#533,.T.);
#259=ORIENTED_EDGE('',*,*,#534,.T.);
#260=ORIENTED_EDGE('',*,*,#535,.T.);
#261=ORIENTED_EDGE('',*,*,#525,.T.);
#262=ORIENTED_EDGE('',*,*,#536,.T.);
#263=ORIENTED_EDGE('',*,*,#537,.T.);
#264=ORIENTED_EDGE('',*,*,#538,.T.);
#265=ORIENTED_EDGE('',*,*,#539,.T.);
#266=ORIENTED_EDGE('',*,*,#540,.F.);
#267=ORIENTED_EDGE('',*,*,#541,.F.);
#268=ORIENTED_EDGE('',*,*,#542,.T.);
#269=ORIENTED_EDGE('',*,*,#540,.T.);
#270=ORIENTED_EDGE('',*,*,#542,.F.);
#271=ORIENTED_EDGE('',*,*,#543,.T.);
#272=ORIENTED_EDGE('',*,*,#539,.F.);
#273=ORIENTED_EDGE('',*,*,#532,.T.);
#274=ORIENTED_EDGE('',*,*,#543,.F.);
#275=ORIENTED_EDGE('',*,*,#541,.T.);
#276=ORIENTED_EDGE('',*,*,#478,.T.);
#277=ORIENTED_EDGE('',*,*,#544,.T.);
#278=ORIENTED_EDGE('',*,*,#517,.F.);
#279=ORIENTED_EDGE('',*,*,#545,.T.);
#280=ORIENTED_EDGE('',*,*,#485,.T.);
#281=ORIENTED_EDGE('',*,*,#530,.F.);
#282=ORIENTED_EDGE('',*,*,#546,.T.);
#283=ORIENTED_EDGE('',*,*,#547,.T.);
#284=ORIENTED_EDGE('',*,*,#534,.F.);
#285=ORIENTED_EDGE('',*,*,#548,.F.);
#286=ORIENTED_EDGE('',*,*,#533,.F.);
#287=ORIENTED_EDGE('',*,*,#549,.F.);
#288=ORIENTED_EDGE('',*,*,#550,.T.);
#289=ORIENTED_EDGE('',*,*,#548,.T.);
#290=ORIENTED_EDGE('',*,*,#538,.F.);
#291=ORIENTED_EDGE('',*,*,#551,.F.);
#292=ORIENTED_EDGE('',*,*,#552,.T.);
#293=ORIENTED_EDGE('',*,*,#549,.T.);
#294=ORIENTED_EDGE('',*,*,#537,.F.);
#295=ORIENTED_EDGE('',*,*,#553,.T.);
#296=ORIENTED_EDGE('',*,*,#554,.T.);
#297=ORIENTED_EDGE('',*,*,#551,.T.);
#298=ORIENTED_EDGE('',*,*,#555,.F.);
#299=ORIENTED_EDGE('',*,*,#553,.F.);
#300=ORIENTED_EDGE('',*,*,#536,.F.);
#301=ORIENTED_EDGE('',*,*,#524,.F.);
#302=ORIENTED_EDGE('',*,*,#556,.F.);
#303=ORIENTED_EDGE('',*,*,#522,.F.);
#304=ORIENTED_EDGE('',*,*,#535,.F.);
#305=ORIENTED_EDGE('',*,*,#547,.F.);
#306=ORIENTED_EDGE('',*,*,#557,.T.);
#307=ORIENTED_EDGE('',*,*,#554,.F.);
#308=ORIENTED_EDGE('',*,*,#555,.T.);
#309=ORIENTED_EDGE('',*,*,#523,.F.);
#310=ORIENTED_EDGE('',*,*,#556,.T.);
#311=ORIENTED_EDGE('',*,*,#546,.F.);
#312=ORIENTED_EDGE('',*,*,#550,.F.);
#313=ORIENTED_EDGE('',*,*,#552,.F.);
#314=ORIENTED_EDGE('',*,*,#557,.F.);
#315=ORIENTED_EDGE('',*,*,#558,.T.);
#316=ORIENTED_EDGE('',*,*,#559,.T.);
#317=ORIENTED_EDGE('',*,*,#560,.T.);
#318=ORIENTED_EDGE('',*,*,#561,.T.);
#319=ORIENTED_EDGE('',*,*,#562,.T.);
#320=ORIENTED_EDGE('',*,*,#496,.T.);
#321=ORIENTED_EDGE('',*,*,#499,.F.);
#322=ORIENTED_EDGE('',*,*,#563,.T.);
#323=ORIENTED_EDGE('',*,*,#564,.T.);
#324=ORIENTED_EDGE('',*,*,#565,.T.);
#325=ORIENTED_EDGE('',*,*,#510,.T.);
#326=ORIENTED_EDGE('',*,*,#566,.T.);
#327=ORIENTED_EDGE('',*,*,#558,.F.);
#328=ORIENTED_EDGE('',*,*,#481,.T.);
#329=ORIENTED_EDGE('',*,*,#503,.F.);
#330=ORIENTED_EDGE('',*,*,#494,.T.);
#331=ORIENTED_EDGE('',*,*,#495,.T.);
#332=ORIENTED_EDGE('',*,*,#521,.F.);
#333=ORIENTED_EDGE('',*,*,#567,.T.);
#334=ORIENTED_EDGE('',*,*,#515,.T.);
#335=ORIENTED_EDGE('',*,*,#507,.T.);
#336=ORIENTED_EDGE('',*,*,#513,.T.);
#337=ORIENTED_EDGE('',*,*,#568,.T.);
#338=ORIENTED_EDGE('',*,*,#559,.F.);
#339=ORIENTED_EDGE('',*,*,#502,.F.);
#340=ORIENTED_EDGE('',*,*,#531,.F.);
#341=ORIENTED_EDGE('',*,*,#569,.T.);
#342=ORIENTED_EDGE('',*,*,#570,.T.);
#343=ORIENTED_EDGE('',*,*,#571,.T.);
#344=ORIENTED_EDGE('',*,*,#572,.T.);
#345=ORIENTED_EDGE('',*,*,#573,.T.);
#346=ORIENTED_EDGE('',*,*,#574,.T.);
#347=ORIENTED_EDGE('',*,*,#480,.F.);
#348=ORIENTED_EDGE('',*,*,#529,.F.);
#349=ORIENTED_EDGE('',*,*,#575,.T.);
#350=ORIENTED_EDGE('',*,*,#576,.T.);
#351=ORIENTED_EDGE('',*,*,#572,.F.);
#352=ORIENTED_EDGE('',*,*,#528,.F.);
#353=ORIENTED_EDGE('',*,*,#571,.F.);
#354=ORIENTED_EDGE('',*,*,#577,.T.);
#355=ORIENTED_EDGE('',*,*,#578,.T.);
#356=ORIENTED_EDGE('',*,*,#526,.F.);
#357=ORIENTED_EDGE('',*,*,#578,.F.);
#358=ORIENTED_EDGE('',*,*,#579,.T.);
#359=ORIENTED_EDGE('',*,*,#504,.F.);
#360=ORIENTED_EDGE('',*,*,#565,.F.);
#361=ORIENTED_EDGE('',*,*,#580,.F.);
#362=ORIENTED_EDGE('',*,*,#580,.T.);
#363=ORIENTED_EDGE('',*,*,#564,.F.);
#364=ORIENTED_EDGE('',*,*,#581,.F.);
#365=ORIENTED_EDGE('',*,*,#527,.F.);
#366=ORIENTED_EDGE('',*,*,#498,.F.);
#367=ORIENTED_EDGE('',*,*,#582,.T.);
#368=ORIENTED_EDGE('',*,*,#575,.F.);
#369=ORIENTED_EDGE('',*,*,#581,.T.);
#370=ORIENTED_EDGE('',*,*,#563,.F.);
#371=ORIENTED_EDGE('',*,*,#509,.F.);
#372=ORIENTED_EDGE('',*,*,#514,.F.);
#373=ORIENTED_EDGE('',*,*,#500,.F.);
#374=ORIENTED_EDGE('',*,*,#566,.F.);
#375=ORIENTED_EDGE('',*,*,#562,.F.);
#376=ORIENTED_EDGE('',*,*,#583,.T.);
#377=ORIENTED_EDGE('',*,*,#573,.F.);
#378=ORIENTED_EDGE('',*,*,#576,.F.);
#379=ORIENTED_EDGE('',*,*,#582,.F.);
#380=ORIENTED_EDGE('',*,*,#497,.F.);
#381=ORIENTED_EDGE('',*,*,#570,.F.);
#382=ORIENTED_EDGE('',*,*,#584,.T.);
#383=ORIENTED_EDGE('',*,*,#519,.F.);
#384=ORIENTED_EDGE('',*,*,#505,.F.);
#385=ORIENTED_EDGE('',*,*,#579,.F.);
#386=ORIENTED_EDGE('',*,*,#577,.F.);
#387=ORIENTED_EDGE('',*,*,#488,.F.);
#388=ORIENTED_EDGE('',*,*,#585,.F.);
#389=ORIENTED_EDGE('',*,*,#586,.T.);
#390=ORIENTED_EDGE('',*,*,#587,.T.);
#391=ORIENTED_EDGE('',*,*,#493,.F.);
#392=ORIENTED_EDGE('',*,*,#588,.F.);
#393=ORIENTED_EDGE('',*,*,#589,.T.);
#394=ORIENTED_EDGE('',*,*,#585,.T.);
#395=ORIENTED_EDGE('',*,*,#492,.F.);
#396=ORIENTED_EDGE('',*,*,#590,.F.);
#397=ORIENTED_EDGE('',*,*,#591,.T.);
#398=ORIENTED_EDGE('',*,*,#588,.T.);
#399=ORIENTED_EDGE('',*,*,#491,.F.);
#400=ORIENTED_EDGE('',*,*,#592,.F.);
#401=ORIENTED_EDGE('',*,*,#593,.T.);
#402=ORIENTED_EDGE('',*,*,#590,.T.);
#403=ORIENTED_EDGE('',*,*,#490,.F.);
#404=ORIENTED_EDGE('',*,*,#594,.F.);
#405=ORIENTED_EDGE('',*,*,#595,.T.);
#406=ORIENTED_EDGE('',*,*,#592,.T.);
#407=ORIENTED_EDGE('',*,*,#489,.F.);
#408=ORIENTED_EDGE('',*,*,#587,.F.);
#409=ORIENTED_EDGE('',*,*,#596,.T.);
#410=ORIENTED_EDGE('',*,*,#594,.T.);
#411=ORIENTED_EDGE('',*,*,#597,.T.);
#412=ORIENTED_EDGE('',*,*,#598,.T.);
#413=ORIENTED_EDGE('',*,*,#599,.T.);
#414=ORIENTED_EDGE('',*,*,#600,.T.);
#415=ORIENTED_EDGE('',*,*,#601,.T.);
#416=ORIENTED_EDGE('',*,*,#586,.F.);
#417=ORIENTED_EDGE('',*,*,#589,.F.);
#418=ORIENTED_EDGE('',*,*,#591,.F.);
#419=ORIENTED_EDGE('',*,*,#593,.F.);
#420=ORIENTED_EDGE('',*,*,#595,.F.);
#421=ORIENTED_EDGE('',*,*,#596,.F.);
#422=ORIENTED_EDGE('',*,*,#602,.T.);
#423=ORIENTED_EDGE('',*,*,#603,.T.);
#424=ORIENTED_EDGE('',*,*,#604,.T.);
#425=ORIENTED_EDGE('',*,*,#476,.F.);
#426=ORIENTED_EDGE('',*,*,#574,.F.);
#427=ORIENTED_EDGE('',*,*,#583,.F.);
#428=ORIENTED_EDGE('',*,*,#561,.F.);
#429=ORIENTED_EDGE('',*,*,#544,.F.);
#430=ORIENTED_EDGE('',*,*,#477,.F.);
#431=ORIENTED_EDGE('',*,*,#605,.F.);
#432=ORIENTED_EDGE('',*,*,#518,.F.);
#433=ORIENTED_EDGE('',*,*,#604,.F.);
#434=ORIENTED_EDGE('',*,*,#606,.T.);
#435=ORIENTED_EDGE('',*,*,#511,.F.);
#436=ORIENTED_EDGE('',*,*,#605,.T.);
#437=ORIENTED_EDGE('',*,*,#545,.F.);
#438=ORIENTED_EDGE('',*,*,#516,.F.);
#439=ORIENTED_EDGE('',*,*,#607,.F.);
#440=ORIENTED_EDGE('',*,*,#486,.F.);
#441=ORIENTED_EDGE('',*,*,#607,.T.);
#442=ORIENTED_EDGE('',*,*,#567,.F.);
#443=ORIENTED_EDGE('',*,*,#608,.F.);
#444=ORIENTED_EDGE('',*,*,#487,.F.);
#445=ORIENTED_EDGE('',*,*,#608,.T.);
#446=ORIENTED_EDGE('',*,*,#520,.F.);
#447=ORIENTED_EDGE('',*,*,#609,.F.);
#448=ORIENTED_EDGE('',*,*,#482,.F.);
#449=ORIENTED_EDGE('',*,*,#609,.T.);
#450=ORIENTED_EDGE('',*,*,#584,.F.);
#451=ORIENTED_EDGE('',*,*,#610,.F.);
#452=ORIENTED_EDGE('',*,*,#610,.T.);
#453=ORIENTED_EDGE('',*,*,#569,.F.);
#454=ORIENTED_EDGE('',*,*,#483,.F.);
#455=ORIENTED_EDGE('',*,*,#611,.F.);
#456=ORIENTED_EDGE('',*,*,#601,.F.);
#457=ORIENTED_EDGE('',*,*,#612,.F.);
#458=ORIENTED_EDGE('',*,*,#602,.F.);
#459=ORIENTED_EDGE('',*,*,#560,.F.);
#460=ORIENTED_EDGE('',*,*,#612,.T.);
#461=ORIENTED_EDGE('',*,*,#600,.F.);
#462=ORIENTED_EDGE('',*,*,#613,.F.);
#463=ORIENTED_EDGE('',*,*,#603,.F.);
#464=ORIENTED_EDGE('',*,*,#611,.T.);
#465=ORIENTED_EDGE('',*,*,#568,.F.);
#466=ORIENTED_EDGE('',*,*,#614,.F.);
#467=ORIENTED_EDGE('',*,*,#597,.F.);
#468=ORIENTED_EDGE('',*,*,#613,.T.);
#469=ORIENTED_EDGE('',*,*,#599,.F.);
#470=ORIENTED_EDGE('',*,*,#615,.F.);
#471=ORIENTED_EDGE('',*,*,#606,.F.);
#472=ORIENTED_EDGE('',*,*,#614,.T.);
#473=ORIENTED_EDGE('',*,*,#512,.F.);
#474=ORIENTED_EDGE('',*,*,#615,.T.);
#475=ORIENTED_EDGE('',*,*,#598,.F.);
#476=EDGE_CURVE('',#616,#617,#709,.F.);
#477=EDGE_CURVE('',#617,#618,#72,.T.);
#478=EDGE_CURVE('',#619,#618,#73,.T.);
#479=EDGE_CURVE('',#619,#620,#74,.T.);
#480=EDGE_CURVE('',#620,#616,#46,.T.);
#481=EDGE_CURVE('',#621,#621,#710,.T.);
#482=EDGE_CURVE('',#622,#623,#75,.T.);
#483=EDGE_CURVE('',#623,#624,#47,.T.);
#484=EDGE_CURVE('',#625,#624,#76,.T.);
#485=EDGE_CURVE('',#626,#625,#77,.T.);
#486=EDGE_CURVE('',#626,#627,#78,.F.);
#487=EDGE_CURVE('',#627,#622,#711,.T.);
#488=EDGE_CURVE('',#628,#629,#79,.T.);
#489=EDGE_CURVE('',#629,#630,#80,.T.);
#490=EDGE_CURVE('',#630,#631,#81,.T.);
#491=EDGE_CURVE('',#631,#632,#82,.T.);
#492=EDGE_CURVE('',#632,#633,#83,.T.);
#493=EDGE_CURVE('',#633,#628,#84,.T.);
#494=EDGE_CURVE('',#634,#634,#712,.T.);
#495=EDGE_CURVE('',#635,#635,#713,.T.);
#496=EDGE_CURVE('',#636,#637,#85,.T.);
#497=EDGE_CURVE('',#636,#638,#48,.T.);
#498=EDGE_CURVE('',#638,#639,#49,.T.);
#499=EDGE_CURVE('',#639,#640,#86,.T.);
#500=EDGE_CURVE('',#640,#641,#714,.F.);
#501=EDGE_CURVE('',#641,#642,#87,.T.);
#502=EDGE_CURVE('',#642,#637,#715,.T.);
#503=EDGE_CURVE('',#643,#643,#716,.T.);
#504=EDGE_CURVE('',#644,#645,#50,.T.);
#505=EDGE_CURVE('',#645,#646,#51,.T.);
#506=EDGE_CURVE('',#646,#647,#88,.T.);
#507=EDGE_CURVE('',#648,#647,#717,.T.);
#508=EDGE_CURVE('',#649,#648,#89,.T.);
#509=EDGE_CURVE('',#649,#650,#718,.T.);
#510=EDGE_CURVE('',#644,#650,#90,.T.);
#511=EDGE_CURVE('',#651,#652,#52,.T.);
#512=EDGE_CURVE('',#652,#653,#91,.F.);
#513=EDGE_CURVE('',#642,#653,#92,.T.);
#514=EDGE_CURVE('',#641,#649,#93,.F.);
#515=EDGE_CURVE('',#654,#648,#94,.T.);
#516=EDGE_CURVE('',#654,#655,#95,.T.);
#517=EDGE_CURVE('',#655,#656,#96,.T.);
#518=EDGE_CURVE('',#656,#651,#97,.F.);
#519=EDGE_CURVE('',#646,#657,#53,.T.);
#520=EDGE_CURVE('',#657,#658,#98,.F.);
#521=EDGE_CURVE('',#658,#647,#99,.T.);
#522=EDGE_CURVE('',#659,#660,#100,.F.);
#523=EDGE_CURVE('',#660,#661,#719,.T.);
#524=EDGE_CURVE('',#661,#662,#101,.T.);
#525=EDGE_CURVE('',#659,#662,#720,.T.);
#526=EDGE_CURVE('',#663,#664,#102,.F.);
#527=EDGE_CURVE('',#664,#665,#721,.F.);
#528=EDGE_CURVE('',#665,#666,#103,.T.);
#529=EDGE_CURVE('',#666,#620,#722,.F.);
#530=EDGE_CURVE('',#619,#625,#723,.T.);
#531=EDGE_CURVE('',#624,#663,#724,.F.);
#532=EDGE_CURVE('',#667,#667,#725,.T.);
#533=EDGE_CURVE('',#668,#669,#104,.T.);
#534=EDGE_CURVE('',#669,#670,#105,.T.);
#535=EDGE_CURVE('',#670,#659,#726,.F.);
#536=EDGE_CURVE('',#662,#671,#727,.F.);
#537=EDGE_CURVE('',#671,#672,#106,.T.);
#538=EDGE_CURVE('',#672,#668,#107,.T.);
#539=EDGE_CURVE('',#673,#673,#728,.T.);
#540=EDGE_CURVE('',#674,#674,#729,.T.);
#541=EDGE_CURVE('',#675,#675,#730,.T.);
#542=EDGE_CURVE('',#676,#676,#731,.T.);
#543=EDGE_CURVE('',#677,#677,#732,.T.);
#544=EDGE_CURVE('',#618,#656,#733,.F.);
#545=EDGE_CURVE('',#655,#626,#734,.F.);
#546=EDGE_CURVE('',#678,#679,#108,.T.);
#547=EDGE_CURVE('',#679,#670,#109,.F.);
#548=EDGE_CURVE('',#678,#669,#110,.T.);
#549=EDGE_CURVE('',#680,#668,#111,.T.);
#550=EDGE_CURVE('',#680,#678,#112,.T.);
#551=EDGE_CURVE('',#681,#672,#113,.T.);
#552=EDGE_CURVE('',#681,#680,#114,.T.);
#553=EDGE_CURVE('',#671,#682,#115,.T.);
#554=EDGE_CURVE('',#682,#681,#116,.T.);
#555=EDGE_CURVE('',#682,#661,#735,.T.);
#556=EDGE_CURVE('',#660,#679,#736,.T.);
#557=EDGE_CURVE('',#683,#683,#737,.T.);
#558=EDGE_CURVE('',#684,#684,#738,.T.);
#559=EDGE_CURVE('',#637,#685,#117,.T.);
#560=EDGE_CURVE('',#685,#686,#118,.F.);
#561=EDGE_CURVE('',#686,#687,#54,.F.);
#562=EDGE_CURVE('',#687,#636,#55,.T.);
#563=EDGE_CURVE('',#639,#688,#739,.F.);
#564=EDGE_CURVE('',#688,#689,#740,.T.);
#565=EDGE_CURVE('',#689,#644,#741,.F.);
#566=EDGE_CURVE('',#650,#640,#119,.T.);
#567=EDGE_CURVE('',#658,#654,#742,.F.);
#568=EDGE_CURVE('',#653,#685,#743,.F.);
#569=EDGE_CURVE('',#624,#690,#56,.F.);
#570=EDGE_CURVE('',#690,#691,#57,.T.);
#571=EDGE_CURVE('',#691,#663,#58,.T.);
#572=EDGE_CURVE('',#666,#692,#59,.T.);
#573=EDGE_CURVE('',#692,#693,#60,.T.);
#574=EDGE_CURVE('',#693,#616,#61,.T.);
#575=EDGE_CURVE('',#665,#694,#744,.T.);
#576=EDGE_CURVE('',#694,#692,#62,.T.);
#577=EDGE_CURVE('',#691,#695,#63,.T.);
#578=EDGE_CURVE('',#695,#664,#745,.T.);
#579=EDGE_CURVE('',#695,#645,#64,.T.);
#580=EDGE_CURVE('',#664,#689,#746,.T.);
#581=EDGE_CURVE('',#665,#688,#747,.T.);
#582=EDGE_CURVE('',#638,#694,#65,.T.);
#583=EDGE_CURVE('',#687,#693,#66,.T.);
#584=EDGE_CURVE('',#690,#657,#748,.F.);
#585=EDGE_CURVE('',#696,#628,#120,.T.);
#586=EDGE_CURVE('',#696,#697,#121,.T.);
#587=EDGE_CURVE('',#697,#629,#122,.T.);
#588=EDGE_CURVE('',#698,#633,#123,.T.);
#589=EDGE_CURVE('',#698,#696,#124,.T.);
#590=EDGE_CURVE('',#699,#632,#125,.T.);
#591=EDGE_CURVE('',#699,#698,#126,.T.);
#592=EDGE_CURVE('',#700,#631,#127,.T.);
#593=EDGE_CURVE('',#700,#699,#128,.T.);
#594=EDGE_CURVE('',#701,#630,#129,.T.);
#595=EDGE_CURVE('',#701,#700,#130,.T.);
#596=EDGE_CURVE('',#697,#701,#131,.T.);
#597=EDGE_CURVE('',#702,#703,#749,.T.);
#598=EDGE_CURVE('',#703,#704,#132,.T.);
#599=EDGE_CURVE('',#704,#705,#67,.T.);
#600=EDGE_CURVE('',#705,#706,#750,.T.);
#601=EDGE_CURVE('',#706,#702,#133,.T.);
#602=EDGE_CURVE('',#686,#707,#68,.T.);
#603=EDGE_CURVE('',#707,#708,#751,.F.);
#604=EDGE_CURVE('',#708,#617,#69,.F.);
#605=EDGE_CURVE('',#651,#617,#752,.T.);
#606=EDGE_CURVE('',#708,#652,#70,.T.);
#607=EDGE_CURVE('',#627,#654,#753,.T.);
#608=EDGE_CURVE('',#622,#658,#754,.T.);
#609=EDGE_CURVE('',#623,#657,#755,.T.);
#610=EDGE_CURVE('',#623,#690,#756,.T.);
#611=EDGE_CURVE('',#702,#685,#757,.T.);
#612=EDGE_CURVE('',#707,#706,#71,.T.);
#613=EDGE_CURVE('',#708,#705,#758,.T.);
#614=EDGE_CURVE('',#703,#653,#759,.T.);
#615=EDGE_CURVE('',#652,#704,#760,.T.);
#616=VERTEX_POINT('',#1397);
#617=VERTEX_POINT('',#1398);
#618=VERTEX_POINT('',#1400);
#619=VERTEX_POINT('',#1402);
#620=VERTEX_POINT('',#1404);
#621=VERTEX_POINT('',#1411);
#622=VERTEX_POINT('',#1413);
#623=VERTEX_POINT('',#1414);
#624=VERTEX_POINT('',#1419);
#625=VERTEX_POINT('',#1421);
#626=VERTEX_POINT('',#1423);
#627=VERTEX_POINT('',#1425);
#628=VERTEX_POINT('',#1429);
#629=VERTEX_POINT('',#1430);
#630=VERTEX_POINT('',#1432);
#631=VERTEX_POINT('',#1434);
#632=VERTEX_POINT('',#1436);
#633=VERTEX_POINT('',#1438);
#634=VERTEX_POINT('',#1441);
#635=VERTEX_POINT('',#1444);
#636=VERTEX_POINT('',#1446);
#637=VERTEX_POINT('',#1447);
#638=VERTEX_POINT('',#1452);
#639=VERTEX_POINT('',#1458);
#640=VERTEX_POINT('',#1460);
#641=VERTEX_POINT('',#1462);
#642=VERTEX_POINT('',#1464);
#643=VERTEX_POINT('',#1468);
#644=VERTEX_POINT('',#1474);
#645=VERTEX_POINT('',#1475);
#646=VERTEX_POINT('',#1480);
#647=VERTEX_POINT('',#1482);
#648=VERTEX_POINT('',#1484);
#649=VERTEX_POINT('',#1486);
#650=VERTEX_POINT('',#1488);
#651=VERTEX_POINT('',#1497);
#652=VERTEX_POINT('',#1498);
#653=VERTEX_POINT('',#1500);
#654=VERTEX_POINT('',#1504);
#655=VERTEX_POINT('',#1506);
#656=VERTEX_POINT('',#1508);
#657=VERTEX_POINT('',#1515);
#658=VERTEX_POINT('',#1517);
#659=VERTEX_POINT('',#1521);
#660=VERTEX_POINT('',#1522);
#661=VERTEX_POINT('',#1524);
#662=VERTEX_POINT('',#1526);
#663=VERTEX_POINT('',#1529);
#664=VERTEX_POINT('',#1530);
#665=VERTEX_POINT('',#1532);
#666=VERTEX_POINT('',#1534);
#667=VERTEX_POINT('',#1540);
#668=VERTEX_POINT('',#1542);
#669=VERTEX_POINT('',#1543);
#670=VERTEX_POINT('',#1545);
#671=VERTEX_POINT('',#1548);
#672=VERTEX_POINT('',#1550);
#673=VERTEX_POINT('',#1554);
#674=VERTEX_POINT('',#1556);
#675=VERTEX_POINT('',#1559);
#676=VERTEX_POINT('',#1561);
#677=VERTEX_POINT('',#1565);
#678=VERTEX_POINT('',#1572);
#679=VERTEX_POINT('',#1573);
#680=VERTEX_POINT('',#1578);
#681=VERTEX_POINT('',#1582);
#682=VERTEX_POINT('',#1586);
#683=VERTEX_POINT('',#1594);
#684=VERTEX_POINT('',#1597);
#685=VERTEX_POINT('',#1600);
#686=VERTEX_POINT('',#1602);
#687=VERTEX_POINT('',#1607);
#688=VERTEX_POINT('',#1614);
#689=VERTEX_POINT('',#1616);
#690=VERTEX_POINT('',#1631);
#691=VERTEX_POINT('',#1636);
#692=VERTEX_POINT('',#1646);
#693=VERTEX_POINT('',#1652);
#694=VERTEX_POINT('',#1669);
#695=VERTEX_POINT('',#1679);
#696=VERTEX_POINT('',#1731);
#697=VERTEX_POINT('',#1733);
#698=VERTEX_POINT('',#1737);
#699=VERTEX_POINT('',#1741);
#700=VERTEX_POINT('',#1745);
#701=VERTEX_POINT('',#1749);
#702=VERTEX_POINT('',#1755);
#703=VERTEX_POINT('',#1756);
#704=VERTEX_POINT('',#1758);
#705=VERTEX_POINT('',#1763);
#706=VERTEX_POINT('',#1765);
#707=VERTEX_POINT('',#1773);
#708=VERTEX_POINT('',#1775);
#709=CIRCLE('',#1013,0.0125);
#710=CIRCLE('',#1015,0.00215);
#711=CIRCLE('',#1016,0.0045);
#712=CIRCLE('',#1018,0.00215);
#713=CIRCLE('',#1020,0.00215);
#714=CIRCLE('',#1021,0.003);
#715=CIRCLE('',#1022,0.0075);
#716=CIRCLE('',#1024,0.00215);
#717=CIRCLE('',#1025,0.0075);
#718=CIRCLE('',#1026,0.003);
#719=CIRCLE('',#1030,0.0075);
#720=CIRCLE('',#1031,0.0075);
#721=CIRCLE('',#1032,0.0075);
#722=CIRCLE('',#1033,0.0075);
#723=CIRCLE('',#1034,0.0075);
#724=CIRCLE('',#1035,0.0075);
#725=CIRCLE('',#1037,0.00215);
#726=CIRCLE('',#1038,0.0005);
#727=CIRCLE('',#1039,0.0005);
#728=CIRCLE('',#1041,0.00345);
#729=CIRCLE('',#1042,0.00345);
#730=CIRCLE('',#1044,0.0053);
#731=CIRCLE('',#1045,0.0053);
#732=CIRCLE('',#1048,0.00215);
#733=CIRCLE('',#1051,0.003);
#734=CIRCLE('',#1052,0.003);
#735=CIRCLE('',#1058,0.0005);
#736=CIRCLE('',#1060,0.0005);
#737=CIRCLE('',#1062,0.00215);
#738=CIRCLE('',#1064,0.00215);
#739=CIRCLE('',#1067,0.004);
#740=CIRCLE('',#1068,0.0045);
#741=CIRCLE('',#1069,0.004);
#742=CIRCLE('',#1073,0.0075);
#743=CIRCLE('',#1075,0.0075);
#744=CIRCLE('',#1079,0.001);
#745=CIRCLE('',#1081,0.001);
#746=CIRCLE('',#1083,0.003);
#747=CIRCLE('',#1085,0.003);
#748=CIRCLE('',#1088,0.003);
#749=CIRCLE('',#1096,0.0055);
#750=CIRCLE('',#1097,0.00579179606750064);
#751=CIRCLE('',#1099,0.00770842576250046);
#752=CIRCLE('',#1101,0.003);
#753=CIRCLE('',#1103,0.003);
#754=CIRCLE('',#1105,0.003);
#755=CIRCLE('',#1107,0.003);
#756=CIRCLE('',#1109,0.003);
#757=CIRCLE('',#1111,0.002);
#758=CIRCLE('',#1113,0.002);
#759=CIRCLE('',#1115,0.002);
#760=CIRCLE('',#1116,0.002);
#761=EDGE_LOOP('',(#196,#197,#198,#199,#200));
#762=EDGE_LOOP('',(#201));
#763=EDGE_LOOP('',(#202,#203,#204,#205,#206,#207));
#764=EDGE_LOOP('',(#208,#209,#210,#211,#212,#213));
#765=EDGE_LOOP('',(#214));
#766=EDGE_LOOP('',(#215));
#767=EDGE_LOOP('',(#216,#217,#218,#219,#220,#221,#222));
#768=EDGE_LOOP('',(#223));
#769=EDGE_LOOP('',(#224,#225,#226,#227,#228,#229,#230));
#770=EDGE_LOOP('',(#231,#232,#233,#234,#235,#236,#237,#238,#239,#240));
#771=EDGE_LOOP('',(#241,#242,#243,#244));
#772=EDGE_LOOP('',(#245,#246,#247,#248));
#773=EDGE_LOOP('',(#249,#250,#251,#252,#253,#254,#255,#256));
#774=EDGE_LOOP('',(#257));
#775=EDGE_LOOP('',(#258,#259,#260,#261,#262,#263,#264));
#776=EDGE_LOOP('',(#265));
#777=EDGE_LOOP('',(#266));
#778=EDGE_LOOP('',(#267));
#779=EDGE_LOOP('',(#268));
#780=EDGE_LOOP('',(#269));
#781=EDGE_LOOP('',(#270));
#782=EDGE_LOOP('',(#271));
#783=EDGE_LOOP('',(#272));
#784=EDGE_LOOP('',(#273));
#785=EDGE_LOOP('',(#274));
#786=EDGE_LOOP('',(#275));
#787=EDGE_LOOP('',(#276,#277,#278,#279,#280,#281));
#788=EDGE_LOOP('',(#282,#283,#284,#285));
#789=EDGE_LOOP('',(#286,#287,#288,#289));
#790=EDGE_LOOP('',(#290,#291,#292,#293));
#791=EDGE_LOOP('',(#294,#295,#296,#297));
#792=EDGE_LOOP('',(#298,#299,#300,#301));
#793=EDGE_LOOP('',(#302,#303,#304,#305));
#794=EDGE_LOOP('',(#306));
#795=EDGE_LOOP('',(#307,#308,#309,#310,#311,#312,#313));
#796=EDGE_LOOP('',(#314));
#797=EDGE_LOOP('',(#315));
#798=EDGE_LOOP('',(#316,#317,#318,#319,#320));
#799=EDGE_LOOP('',(#321,#322,#323,#324,#325,#326));
#800=EDGE_LOOP('',(#327));
#801=EDGE_LOOP('',(#328));
#802=EDGE_LOOP('',(#329));
#803=EDGE_LOOP('',(#330));
#804=EDGE_LOOP('',(#331));
#805=EDGE_LOOP('',(#332,#333,#334,#335));
#806=EDGE_LOOP('',(#336,#337,#338,#339));
#807=EDGE_LOOP('',(#340,#341,#342,#343));
#808=EDGE_LOOP('',(#344,#345,#346,#347,#348));
#809=EDGE_LOOP('',(#349,#350,#351,#352));
#810=EDGE_LOOP('',(#353,#354,#355,#356));
#811=EDGE_LOOP('',(#357,#358,#359,#360,#361));
#812=EDGE_LOOP('',(#362,#363,#364,#365));
#813=EDGE_LOOP('',(#366,#367,#368,#369,#370));
#814=EDGE_LOOP('',(#371,#372,#373,#374));
#815=EDGE_LOOP('',(#375,#376,#377,#378,#379,#380));
#816=EDGE_LOOP('',(#381,#382,#383,#384,#385,#386));
#817=EDGE_LOOP('',(#387,#388,#389,#390));
#818=EDGE_LOOP('',(#391,#392,#393,#394));
#819=EDGE_LOOP('',(#395,#396,#397,#398));
#820=EDGE_LOOP('',(#399,#400,#401,#402));
#821=EDGE_LOOP('',(#403,#404,#405,#406));
#822=EDGE_LOOP('',(#407,#408,#409,#410));
#823=EDGE_LOOP('',(#411,#412,#413,#414,#415));
#824=EDGE_LOOP('',(#416,#417,#418,#419,#420,#421));
#825=EDGE_LOOP('',(#422,#423,#424,#425,#426,#427,#428));
#826=EDGE_LOOP('',(#429,#430,#431,#432));
#827=EDGE_LOOP('',(#433,#434,#435,#436));
#828=EDGE_LOOP('',(#437,#438,#439,#440));
#829=EDGE_LOOP('',(#441,#442,#443,#444));
#830=EDGE_LOOP('',(#445,#446,#447,#448));
#831=EDGE_LOOP('',(#449,#450,#451));
#832=EDGE_LOOP('',(#452,#453,#454));
#833=EDGE_LOOP('',(#455,#456,#457,#458,#459));
#834=EDGE_LOOP('',(#460,#461,#462,#463));
#835=EDGE_LOOP('',(#464,#465,#466,#467));
#836=EDGE_LOOP('',(#468,#469,#470,#471));
#837=EDGE_LOOP('',(#472,#473,#474,#475));
#838=FACE_BOUND('',#761,.T.);
#839=FACE_BOUND('',#762,.T.);
#840=FACE_BOUND('',#763,.T.);
#841=FACE_BOUND('',#764,.T.);
#842=FACE_BOUND('',#765,.T.);
#843=FACE_BOUND('',#766,.T.);
#844=FACE_BOUND('',#767,.T.);
#845=FACE_BOUND('',#768,.T.);
#846=FACE_BOUND('',#769,.T.);
#847=FACE_BOUND('',#770,.T.);
#848=FACE_BOUND('',#771,.T.);
#849=FACE_BOUND('',#772,.T.);
#850=FACE_BOUND('',#773,.T.);
#851=FACE_BOUND('',#774,.T.);
#852=FACE_BOUND('',#775,.T.);
#853=FACE_BOUND('',#776,.T.);
#854=FACE_BOUND('',#777,.T.);
#855=FACE_BOUND('',#778,.T.);
#856=FACE_BOUND('',#779,.T.);
#857=FACE_BOUND('',#780,.T.);
#858=FACE_BOUND('',#781,.T.);
#859=FACE_BOUND('',#782,.T.);
#860=FACE_BOUND('',#783,.T.);
#861=FACE_BOUND('',#784,.T.);
#862=FACE_BOUND('',#785,.T.);
#863=FACE_BOUND('',#786,.T.);
#864=FACE_BOUND('',#787,.T.);
#865=FACE_BOUND('',#788,.T.);
#866=FACE_BOUND('',#789,.T.);
#867=FACE_BOUND('',#790,.T.);
#868=FACE_BOUND('',#791,.T.);
#869=FACE_BOUND('',#792,.T.);
#870=FACE_BOUND('',#793,.T.);
#871=FACE_BOUND('',#794,.T.);
#872=FACE_BOUND('',#795,.T.);
#873=FACE_BOUND('',#796,.T.);
#874=FACE_BOUND('',#797,.T.);
#875=FACE_BOUND('',#798,.T.);
#876=FACE_BOUND('',#799,.T.);
#877=FACE_BOUND('',#800,.T.);
#878=FACE_BOUND('',#801,.T.);
#879=FACE_BOUND('',#802,.T.);
#880=FACE_BOUND('',#803,.T.);
#881=FACE_BOUND('',#804,.T.);
#882=FACE_BOUND('',#805,.T.);
#883=FACE_BOUND('',#806,.T.);
#884=FACE_BOUND('',#807,.T.);
#885=FACE_BOUND('',#808,.T.);
#886=FACE_BOUND('',#809,.T.);
#887=FACE_BOUND('',#810,.T.);
#888=FACE_BOUND('',#811,.T.);
#889=FACE_BOUND('',#812,.T.);
#890=FACE_BOUND('',#813,.T.);
#891=FACE_BOUND('',#814,.T.);
#892=FACE_BOUND('',#815,.T.);
#893=FACE_BOUND('',#816,.T.);
#894=FACE_BOUND('',#817,.T.);
#895=FACE_BOUND('',#818,.T.);
#896=FACE_BOUND('',#819,.T.);
#897=FACE_BOUND('',#820,.T.);
#898=FACE_BOUND('',#821,.T.);
#899=FACE_BOUND('',#822,.T.);
#900=FACE_BOUND('',#823,.T.);
#901=FACE_BOUND('',#824,.T.);
#902=FACE_BOUND('',#825,.T.);
#903=FACE_BOUND('',#826,.T.);
#904=FACE_BOUND('',#827,.T.);
#905=FACE_BOUND('',#828,.T.);
#906=FACE_BOUND('',#829,.T.);
#907=FACE_BOUND('',#830,.T.);
#908=FACE_BOUND('',#831,.T.);
#909=FACE_BOUND('',#832,.T.);
#910=FACE_BOUND('',#833,.T.);
#911=FACE_BOUND('',#834,.T.);
#912=FACE_BOUND('',#835,.T.);
#913=FACE_BOUND('',#836,.T.);
#914=FACE_BOUND('',#837,.T.);
#915=PLANE('',#1012);
#916=PLANE('',#1014);
#917=PLANE('',#1017);
#918=PLANE('',#1019);
#919=PLANE('',#1023);
#920=PLANE('',#1027);
#921=PLANE('',#1028);
#922=PLANE('',#1036);
#923=PLANE('',#1046);
#924=PLANE('',#1047);
#925=PLANE('',#1050);
#926=PLANE('',#1053);
#927=PLANE('',#1054);
#928=PLANE('',#1055);
#929=PLANE('',#1056);
#930=PLANE('',#1061);
#931=PLANE('',#1065);
#932=PLANE('',#1066);
#933=PLANE('',#1089);
#934=PLANE('',#1090);
#935=PLANE('',#1091);
#936=PLANE('',#1092);
#937=PLANE('',#1093);
#938=PLANE('',#1094);
#939=PLANE('',#1095);
#940=ADVANCED_FACE('',(#838),#915,.T.);
#941=ADVANCED_FACE('',(#839,#840),#916,.T.);
#942=ADVANCED_FACE('',(#841,#842),#917,.T.);
#943=ADVANCED_FACE('',(#843,#844),#918,.T.);
#944=ADVANCED_FACE('',(#845,#846),#919,.F.);
#945=ADVANCED_FACE('',(#847),#920,.F.);
#946=ADVANCED_FACE('',(#848),#921,.F.);
#947=ADVANCED_FACE('',(#849,#850),#27,.T.);
#948=ADVANCED_FACE('',(#851,#852),#922,.T.);
#949=ADVANCED_FACE('',(#853,#854),#28,.F.);
#950=ADVANCED_FACE('',(#855,#856),#29,.T.);
#951=ADVANCED_FACE('',(#857,#858),#923,.F.);
#952=ADVANCED_FACE('',(#859,#860),#924,.F.);
#953=ADVANCED_FACE('',(#861,#862),#30,.F.);
#954=ADVANCED_FACE('',(#863,#864),#925,.F.);
#955=ADVANCED_FACE('',(#865),#926,.T.);
#956=ADVANCED_FACE('',(#866),#927,.T.);
#957=ADVANCED_FACE('',(#867),#928,.T.);
#958=ADVANCED_FACE('',(#868),#929,.T.);
#959=ADVANCED_FACE('',(#869),#31,.T.);
#960=ADVANCED_FACE('',(#870),#32,.T.);
#961=ADVANCED_FACE('',(#871,#872),#930,.F.);
#962=ADVANCED_FACE('',(#873,#874),#33,.F.);
#963=ADVANCED_FACE('',(#875),#931,.F.);
#964=ADVANCED_FACE('',(#876,#877),#932,.T.);
#965=ADVANCED_FACE('',(#878,#879),#34,.F.);
#966=ADVANCED_FACE('',(#880,#881),#35,.F.);
#967=ADVANCED_FACE('',(#882),#36,.T.);
#968=ADVANCED_FACE('',(#883),#37,.T.);
#969=ADVANCED_FACE('',(#884),#18,.F.);
#970=ADVANCED_FACE('',(#885),#19,.F.);
#971=ADVANCED_FACE('',(#886),#38,.F.);
#972=ADVANCED_FACE('',(#887),#39,.F.);
#973=ADVANCED_FACE('',(#888),#20,.T.);
#974=ADVANCED_FACE('',(#889),#21,.T.);
#975=ADVANCED_FACE('',(#890),#22,.T.);
#976=ADVANCED_FACE('',(#891),#40,.T.);
#977=ADVANCED_FACE('',(#892),#13,.T.);
#978=ADVANCED_FACE('',(#893),#14,.T.);
#979=ADVANCED_FACE('',(#894),#933,.T.);
#980=ADVANCED_FACE('',(#895),#934,.T.);
#981=ADVANCED_FACE('',(#896),#935,.T.);
#982=ADVANCED_FACE('',(#897),#936,.T.);
#983=ADVANCED_FACE('',(#898),#937,.T.);
#984=ADVANCED_FACE('',(#899),#938,.T.);
#985=ADVANCED_FACE('',(#900,#901),#939,.T.);
#986=ADVANCED_FACE('',(#902),#23,.F.);
#987=ADVANCED_FACE('',(#903),#41,.T.);
#988=ADVANCED_FACE('',(#904),#15,.T.);
#989=ADVANCED_FACE('',(#905),#42,.T.);
#990=ADVANCED_FACE('',(#906),#24,.T.);
#991=ADVANCED_FACE('',(#907),#43,.T.);
#992=ADVANCED_FACE('',(#908),#12,.T.);
#993=ADVANCED_FACE('',(#909),#16,.T.);
#994=ADVANCED_FACE('',(#910),#44,.T.);
#995=ADVANCED_FACE('',(#911),#25,.T.);
#996=ADVANCED_FACE('',(#912),#26,.T.);
#997=ADVANCED_FACE('',(#913),#17,.T.);
#998=ADVANCED_FACE('',(#914),#45,.T.);
#999=CLOSED_SHELL('',(#940,#941,#942,#943,#944,#945,#946,#947,#948,#949,
#950,#951,#952,#953,#954,#955,#956,#957,#958,#959,#960,#961,#962,#963,#964,
#965,#966,#967,#968,#969,#970,#971,#972,#973,#974,#975,#976,#977,#978,#979,
#980,#981,#982,#983,#984,#985,#986,#987,#988,#989,#990,#991,#992,#993,#994,
#995,#996,#997,#998));
#1000=STYLED_ITEM('',(#1001),#1008);
#1001=PRESENTATION_STYLE_ASSIGNMENT((#1002));
#1002=SURFACE_STYLE_USAGE(.BOTH.,#1003);
#1003=SURFACE_SIDE_STYLE('',(#1004));
#1004=SURFACE_STYLE_FILL_AREA(#1005);
#1005=FILL_AREA_STYLE('',(#1006));
#1006=FILL_AREA_STYLE_COLOUR('',#1007);
#1007=COLOUR_RGB('',0.647058823529412,0.647058823529412,0.647058823529412);
#1008=MANIFOLD_SOLID_BREP('Arm',#999);
#1009=SHAPE_DEFINITION_REPRESENTATION(#1864,#1010);
#1010=SHAPE_REPRESENTATION('Arm',(#1011),#1859);
#1011=AXIS2_PLACEMENT_3D('',#1394,#1118,#1119);
#1012=AXIS2_PLACEMENT_3D('',#1395,#1120,#1121);
#1013=AXIS2_PLACEMENT_3D('',#1396,#1122,#1123);
#1014=AXIS2_PLACEMENT_3D('',#1409,#1127,#1128);
#1015=AXIS2_PLACEMENT_3D('',#1410,#1129,#1130);
#1016=AXIS2_PLACEMENT_3D('',#1426,#1135,#1136);
#1017=AXIS2_PLACEMENT_3D('',#1427,#1137,#1138);
#1018=AXIS2_PLACEMENT_3D('',#1440,#1145,#1146);
#1019=AXIS2_PLACEMENT_3D('',#1442,#1147,#1148);
#1020=AXIS2_PLACEMENT_3D('',#1443,#1149,#1150);
#1021=AXIS2_PLACEMENT_3D('',#1461,#1153,#1154);
#1022=AXIS2_PLACEMENT_3D('',#1465,#1156,#1157);
#1023=AXIS2_PLACEMENT_3D('',#1466,#1158,#1159);
#1024=AXIS2_PLACEMENT_3D('',#1467,#1160,#1161);
#1025=AXIS2_PLACEMENT_3D('',#1483,#1163,#1164);
#1026=AXIS2_PLACEMENT_3D('',#1487,#1166,#1167);
#1027=AXIS2_PLACEMENT_3D('',#1490,#1169,#1170);
#1028=AXIS2_PLACEMENT_3D('',#1510,#1178,#1179);
#1029=AXIS2_PLACEMENT_3D('',#1519,#1182,#1183);
#1030=AXIS2_PLACEMENT_3D('',#1523,#1185,#1186);
#1031=AXIS2_PLACEMENT_3D('',#1527,#1188,#1189);
#1032=AXIS2_PLACEMENT_3D('',#1531,#1191,#1192);
#1033=AXIS2_PLACEMENT_3D('',#1535,#1194,#1195);
#1034=AXIS2_PLACEMENT_3D('',#1536,#1196,#1197);
#1035=AXIS2_PLACEMENT_3D('',#1537,#1198,#1199);
#1036=AXIS2_PLACEMENT_3D('',#1538,#1200,#1201);
#1037=AXIS2_PLACEMENT_3D('',#1539,#1202,#1203);
#1038=AXIS2_PLACEMENT_3D('',#1546,#1206,#1207);
#1039=AXIS2_PLACEMENT_3D('',#1547,#1208,#1209);
#1040=AXIS2_PLACEMENT_3D('',#1552,#1212,#1213);
#1041=AXIS2_PLACEMENT_3D('',#1553,#1214,#1215);
#1042=AXIS2_PLACEMENT_3D('',#1555,#1216,#1217);
#1043=AXIS2_PLACEMENT_3D('',#1557,#1218,#1219);
#1044=AXIS2_PLACEMENT_3D('',#1558,#1220,#1221);
#1045=AXIS2_PLACEMENT_3D('',#1560,#1222,#1223);
#1046=AXIS2_PLACEMENT_3D('',#1562,#1224,#1225);
#1047=AXIS2_PLACEMENT_3D('',#1563,#1226,#1227);
#1048=AXIS2_PLACEMENT_3D('',#1564,#1228,#1229);
#1049=AXIS2_PLACEMENT_3D('',#1566,#1230,#1231);
#1050=AXIS2_PLACEMENT_3D('',#1567,#1232,#1233);
#1051=AXIS2_PLACEMENT_3D('',#1568,#1234,#1235);
#1052=AXIS2_PLACEMENT_3D('',#1569,#1236,#1237);
#1053=AXIS2_PLACEMENT_3D('',#1570,#1238,#1239);
#1054=AXIS2_PLACEMENT_3D('',#1576,#1243,#1244);
#1055=AXIS2_PLACEMENT_3D('',#1580,#1247,#1248);
#1056=AXIS2_PLACEMENT_3D('',#1584,#1251,#1252);
#1057=AXIS2_PLACEMENT_3D('',#1588,#1255,#1256);
#1058=AXIS2_PLACEMENT_3D('',#1589,#1257,#1258);
#1059=AXIS2_PLACEMENT_3D('',#1590,#1259,#1260);
#1060=AXIS2_PLACEMENT_3D('',#1591,#1261,#1262);
#1061=AXIS2_PLACEMENT_3D('',#1592,#1263,#1264);
#1062=AXIS2_PLACEMENT_3D('',#1593,#1265,#1266);
#1063=AXIS2_PLACEMENT_3D('',#1595,#1267,#1268);
#1064=AXIS2_PLACEMENT_3D('',#1596,#1269,#1270);
#1065=AXIS2_PLACEMENT_3D('',#1598,#1271,#1272);
#1066=AXIS2_PLACEMENT_3D('',#1612,#1275,#1276);
#1067=AXIS2_PLACEMENT_3D('',#1613,#1277,#1278);
#1068=AXIS2_PLACEMENT_3D('',#1615,#1279,#1280);
#1069=AXIS2_PLACEMENT_3D('',#1617,#1281,#1282);
#1070=AXIS2_PLACEMENT_3D('',#1619,#1284,#1285);
#1071=AXIS2_PLACEMENT_3D('',#1620,#1286,#1287);
#1072=AXIS2_PLACEMENT_3D('',#1621,#1288,#1289);
#1073=AXIS2_PLACEMENT_3D('',#1622,#1290,#1291);
#1074=AXIS2_PLACEMENT_3D('',#1623,#1292,#1293);
#1075=AXIS2_PLACEMENT_3D('',#1624,#1294,#1295);
#1076=AXIS2_PLACEMENT_3D('',#1625,#1296,#1297);
#1077=AXIS2_PLACEMENT_3D('',#1641,#1298,#1299);
#1078=AXIS2_PLACEMENT_3D('',#1667,#1300,#1301);
#1079=AXIS2_PLACEMENT_3D('',#1668,#1302,#1303);
#1080=AXIS2_PLACEMENT_3D('',#1674,#1304,#1305);
#1081=AXIS2_PLACEMENT_3D('',#1680,#1306,#1307);
#1082=AXIS2_PLACEMENT_3D('',#1681,#1308,#1309);
#1083=AXIS2_PLACEMENT_3D('',#1686,#1310,#1311);
#1084=AXIS2_PLACEMENT_3D('',#1687,#1312,#1313);
#1085=AXIS2_PLACEMENT_3D('',#1688,#1314,#1315);
#1086=AXIS2_PLACEMENT_3D('',#1689,#1316,#1317);
#1087=AXIS2_PLACEMENT_3D('',#1694,#1318,#1319);
#1088=AXIS2_PLACEMENT_3D('',#1728,#1320,#1321);
#1089=AXIS2_PLACEMENT_3D('',#1729,#1322,#1323);
#1090=AXIS2_PLACEMENT_3D('',#1735,#1327,#1328);
#1091=AXIS2_PLACEMENT_3D('',#1739,#1331,#1332);
#1092=AXIS2_PLACEMENT_3D('',#1743,#1335,#1336);
#1093=AXIS2_PLACEMENT_3D('',#1747,#1339,#1340);
#1094=AXIS2_PLACEMENT_3D('',#1751,#1343,#1344);
#1095=AXIS2_PLACEMENT_3D('',#1753,#1346,#1347);
#1096=AXIS2_PLACEMENT_3D('',#1754,#1348,#1349);
#1097=AXIS2_PLACEMENT_3D('',#1764,#1351,#1352);
#1098=AXIS2_PLACEMENT_3D('',#1767,#1354,#1355);
#1099=AXIS2_PLACEMENT_3D('',#1774,#1356,#1357);
#1100=AXIS2_PLACEMENT_3D('',#1783,#1358,#1359);
#1101=AXIS2_PLACEMENT_3D('',#1784,#1360,#1361);
#1102=AXIS2_PLACEMENT_3D('',#1810,#1362,#1363);
#1103=AXIS2_PLACEMENT_3D('',#1811,#1364,#1365);
#1104=AXIS2_PLACEMENT_3D('',#1812,#1366,#1367);
#1105=AXIS2_PLACEMENT_3D('',#1813,#1368,#1369);
#1106=AXIS2_PLACEMENT_3D('',#1814,#1370,#1371);
#1107=AXIS2_PLACEMENT_3D('',#1815,#1372,#1373);
#1108=AXIS2_PLACEMENT_3D('',#1816,#1374,#1375);
#1109=AXIS2_PLACEMENT_3D('',#1817,#1376,#1377);
#1110=AXIS2_PLACEMENT_3D('',#1833,#1378,#1379);
#1111=AXIS2_PLACEMENT_3D('',#1834,#1380,#1381);
#1112=AXIS2_PLACEMENT_3D('',#1840,#1382,#1383);
#1113=AXIS2_PLACEMENT_3D('',#1841,#1384,#1385);
#1114=AXIS2_PLACEMENT_3D('',#1842,#1386,#1387);
#1115=AXIS2_PLACEMENT_3D('',#1843,#1388,#1389);
#1116=AXIS2_PLACEMENT_3D('',#1856,#1390,#1391);
#1117=AXIS2_PLACEMENT_3D('',#1857,#1392,#1393);
#1118=DIRECTION('',(0.,0.,1.));
#1119=DIRECTION('',(1.,0.,0.));
#1120=DIRECTION('',(0.,1.,0.));
#1121=DIRECTION('',(0.,0.,1.));
#1122=DIRECTION('',(0.,1.,0.));
#1123=DIRECTION('',(0.,0.,1.));
#1124=DIRECTION('',(-1.,0.,0.));
#1125=DIRECTION('',(0.,0.,-1.));
#1126=DIRECTION('',(1.,0.,0.));
#1127=DIRECTION('',(0.,-1.,0.));
#1128=DIRECTION('',(0.,0.,-1.));
#1129=DIRECTION('',(0.,-1.,0.));
#1130=DIRECTION('',(0.,0.,-1.));
#1131=DIRECTION('',(-1.,0.,0.));
#1132=DIRECTION('',(1.,0.,0.));
#1133=DIRECTION('',(0.,0.,1.));
#1134=DIRECTION('',(-1.,0.,0.));
#1135=DIRECTION('',(0.,-1.,0.));
#1136=DIRECTION('',(0.,0.,-1.));
#1137=DIRECTION('',(0.,1.,0.));
#1138=DIRECTION('',(0.,0.,1.));
#1139=DIRECTION('',(0.,0.,1.));
#1140=DIRECTION('',(0.866025403784443,0.,0.499999999999993));
#1141=DIRECTION('',(0.866025403784434,0.,-0.500000000000008));
#1142=DIRECTION('',(0.,0.,-1.));
#1143=DIRECTION('',(-0.866025403784443,0.,-0.499999999999993));
#1144=DIRECTION('',(-0.866025403784434,0.,0.500000000000009));
#1145=DIRECTION('',(0.,1.,0.));
#1146=DIRECTION('',(0.,0.,1.));
#1147=DIRECTION('',(0.,-1.,0.));
#1148=DIRECTION('',(0.,0.,-1.));
#1149=DIRECTION('',(0.,-1.,0.));
#1150=DIRECTION('',(0.,0.,-1.));
#1151=DIRECTION('',(1.,0.,0.));
#1152=DIRECTION('',(0.,0.,-1.));
#1153=DIRECTION('',(0.,-1.,0.));
#1154=DIRECTION('',(0.,0.,-1.));
#1155=DIRECTION('',(1.,0.,0.));
#1156=DIRECTION('',(0.,-1.,0.));
#1157=DIRECTION('',(0.,0.,-1.));
#1158=DIRECTION('',(0.,-1.,0.));
#1159=DIRECTION('',(0.,0.,-1.));
#1160=DIRECTION('',(0.,-1.,0.));
#1161=DIRECTION('',(0.,0.,-1.));
#1162=DIRECTION('',(1.,0.,0.));
#1163=DIRECTION('',(0.,-1.,0.));
#1164=DIRECTION('',(0.,0.,-1.));
#1165=DIRECTION('',(1.,0.,0.));
#1166=DIRECTION('',(0.,-1.,0.));
#1167=DIRECTION('',(0.,0.,-1.));
#1168=DIRECTION('',(0.,0.,-1.));
#1169=DIRECTION('',(0.,0.,1.));
#1170=DIRECTION('',(1.,0.,0.));
#1171=DIRECTION('',(-1.,0.,0.));
#1172=DIRECTION('',(0.,1.,0.));
#1173=DIRECTION('',(0.,1.,0.));
#1174=DIRECTION('',(0.,1.,0.));
#1175=DIRECTION('',(-1.,0.,0.));
#1176=DIRECTION('',(0.,1.,0.));
#1177=DIRECTION('',(-1.,0.,0.));
#1178=DIRECTION('',(0.,2.31296463463574E-16,-1.));
#1179=DIRECTION('',(0.,1.,2.31296463463574E-16));
#1180=DIRECTION('',(-1.,0.,0.));
#1181=DIRECTION('',(0.,1.,0.));
#1182=DIRECTION('',(-1.,0.,0.));
#1183=DIRECTION('',(0.,0.,1.));
#1184=DIRECTION('',(-1.,0.,0.));
#1185=DIRECTION('',(1.,0.,0.));
#1186=DIRECTION('',(0.,0.,-1.));
#1187=DIRECTION('',(-1.,0.,0.));
#1188=DIRECTION('',(1.,0.,0.));
#1189=DIRECTION('',(0.,0.,-1.));
#1190=DIRECTION('',(-1.,0.,0.));
#1191=DIRECTION('',(1.,0.,0.));
#1192=DIRECTION('',(0.,0.,-1.));
#1193=DIRECTION('',(-1.,0.,0.));
#1194=DIRECTION('',(1.,0.,0.));
#1195=DIRECTION('',(0.,0.,-1.));
#1196=DIRECTION('',(1.,0.,0.));
#1197=DIRECTION('',(0.,0.,-1.));
#1198=DIRECTION('',(1.,0.,0.));
#1199=DIRECTION('',(0.,0.,-1.));
#1200=DIRECTION('',(1.,0.,0.));
#1201=DIRECTION('',(0.,1.,0.));
#1202=DIRECTION('',(1.,0.,0.));
#1203=DIRECTION('',(0.,0.,-1.));
#1204=DIRECTION('',(0.,0.866025403784439,0.5));
#1205=DIRECTION('',(0.,0.,1.));
#1206=DIRECTION('',(1.,0.,0.));
#1207=DIRECTION('',(0.,0.,-1.));
#1208=DIRECTION('',(1.,0.,0.));
#1209=DIRECTION('',(0.,0.,-1.));
#1210=DIRECTION('',(0.,0.,-1.));
#1211=DIRECTION('',(0.,0.866025403784438,-0.5));
#1212=DIRECTION('',(-1.,0.,0.));
#1213=DIRECTION('',(0.,0.,1.));
#1214=DIRECTION('',(1.,0.,0.));
#1215=DIRECTION('',(0.,0.,-1.));
#1216=DIRECTION('',(1.,0.,0.));
#1217=DIRECTION('',(0.,0.,-1.));
#1218=DIRECTION('',(-1.,0.,0.));
#1219=DIRECTION('',(0.,0.,1.));
#1220=DIRECTION('',(1.,0.,0.));
#1221=DIRECTION('',(0.,0.,-1.));
#1222=DIRECTION('',(1.,0.,0.));
#1223=DIRECTION('',(0.,0.,-1.));
#1224=DIRECTION('',(1.,0.,0.));
#1225=DIRECTION('',(0.,1.,0.));
#1226=DIRECTION('',(1.,0.,0.));
#1227=DIRECTION('',(0.,1.,0.));
#1228=DIRECTION('',(1.,0.,0.));
#1229=DIRECTION('',(0.,0.,-1.));
#1230=DIRECTION('',(-1.,0.,0.));
#1231=DIRECTION('',(0.,0.,1.));
#1232=DIRECTION('',(1.,0.,0.));
#1233=DIRECTION('',(0.,1.,0.));
#1234=DIRECTION('',(1.,0.,0.));
#1235=DIRECTION('',(0.,0.,-1.));
#1236=DIRECTION('',(1.,0.,0.));
#1237=DIRECTION('',(0.,0.,-1.));
#1238=DIRECTION('',(0.,-1.,0.));
#1239=DIRECTION('',(0.,0.,-1.));
#1240=DIRECTION('',(0.,0.,1.));
#1241=DIRECTION('',(1.,0.,0.));
#1242=DIRECTION('',(-1.,0.,0.));
#1243=DIRECTION('',(0.,-0.5,0.866025403784439));
#1244=DIRECTION('',(0.,-0.866025403784439,-0.5));
#1245=DIRECTION('',(-1.,0.,0.));
#1246=DIRECTION('',(0.,0.866025403784439,0.5));
#1247=DIRECTION('',(0.,0.5,0.866025403784438));
#1248=DIRECTION('',(0.,-0.866025403784438,0.5));
#1249=DIRECTION('',(-1.,0.,0.));
#1250=DIRECTION('',(0.,0.866025403784438,-0.5));
#1251=DIRECTION('',(0.,1.,0.));
#1252=DIRECTION('',(0.,0.,1.));
#1253=DIRECTION('',(1.,0.,0.));
#1254=DIRECTION('',(0.,0.,-1.));
#1255=DIRECTION('',(-1.,0.,0.));
#1256=DIRECTION('',(0.,0.,1.));
#1257=DIRECTION('',(1.,0.,0.));
#1258=DIRECTION('',(0.,0.,-1.));
#1259=DIRECTION('',(-1.,0.,0.));
#1260=DIRECTION('',(0.,0.,1.));
#1261=DIRECTION('',(1.,0.,0.));
#1262=DIRECTION('',(0.,0.,-1.));
#1263=DIRECTION('',(1.,0.,0.));
#1264=DIRECTION('',(0.,1.,0.));
#1265=DIRECTION('',(1.,0.,0.));
#1266=DIRECTION('',(0.,0.,-1.));
#1267=DIRECTION('',(-1.,0.,0.));
#1268=DIRECTION('',(0.,0.,1.));
#1269=DIRECTION('',(1.,0.,0.));
#1270=DIRECTION('',(0.,0.,-1.));
#1271=DIRECTION('',(0.,2.31296463463574E-16,-1.));
#1272=DIRECTION('',(0.,1.,2.31296463463574E-16));
#1273=DIRECTION('',(0.,1.,0.));
#1274=DIRECTION('',(1.,0.,0.));
#1275=DIRECTION('',(1.,0.,0.));
#1276=DIRECTION('',(0.,1.,0.));
#1277=DIRECTION('',(1.,0.,0.));
#1278=DIRECTION('',(0.,0.,-1.));
#1279=DIRECTION('',(1.,0.,0.));
#1280=DIRECTION('',(0.,0.,-1.));
#1281=DIRECTION('',(1.,0.,0.));
#1282=DIRECTION('',(0.,0.,-1.));
#1283=DIRECTION('',(0.,1.,0.));
#1284=DIRECTION('',(0.,-1.,0.));
#1285=DIRECTION('',(0.,0.,-1.));
#1286=DIRECTION('',(0.,-1.,0.));
#1287=DIRECTION('',(0.,0.,-1.));
#1288=DIRECTION('',(0.,1.,0.));
#1289=DIRECTION('',(0.,0.,1.));
#1290=DIRECTION('',(0.,-1.,0.));
#1291=DIRECTION('',(0.,0.,-1.));
#1292=DIRECTION('',(0.,1.,0.));
#1293=DIRECTION('',(0.,0.,1.));
#1294=DIRECTION('',(0.,1.,0.));
#1295=DIRECTION('',(0.,0.,1.));
#1296=DIRECTION('',(1.,0.,0.));
#1297=DIRECTION('',(0.,0.,-1.));
#1298=DIRECTION('',(1.,0.,0.));
#1299=DIRECTION('',(0.,0.,-1.));
#1300=DIRECTION('',(-1.,0.,0.));
#1301=DIRECTION('',(0.,0.,1.));
#1302=DIRECTION('',(1.,0.,0.));
#1303=DIRECTION('',(0.,0.,-1.));
#1304=DIRECTION('',(-1.,0.,0.));
#1305=DIRECTION('',(0.,0.,1.));
#1306=DIRECTION('',(1.,0.,0.));
#1307=DIRECTION('',(0.,0.,-1.));
#1308=DIRECTION('',(1.,0.,0.));
#1309=DIRECTION('',(0.,0.,-1.));
#1310=DIRECTION('',(-1.87078021919068E-16,0.946218114243847,0.323529411764709));
#1311=DIRECTION('',(0.,-0.323529411764709,0.946218114243847));
#1312=DIRECTION('',(1.,0.,0.));
#1313=DIRECTION('',(0.,0.,-1.));
#1314=DIRECTION('',(0.,0.946218114243848,-0.323529411764705));
#1315=DIRECTION('',(0.,0.323529411764705,0.946218114243848));
#1316=DIRECTION('',(1.,0.,0.));
#1317=DIRECTION('',(0.,0.,-1.));
#1318=DIRECTION('',(0.,-1.,0.));
#1319=DIRECTION('',(0.,0.,-1.));
#1320=DIRECTION('',(0.647953397797846,-0.761679981542266,-1.76173886021726E-16));
#1321=DIRECTION('',(0.761679981542266,0.647953397797846,0.));
#1322=DIRECTION('',(1.,0.,0.));
#1323=DIRECTION('',(0.,0.,-1.));
#1324=DIRECTION('',(0.,-1.,0.));
#1325=DIRECTION('',(0.,0.,1.));
#1326=DIRECTION('',(0.,-1.,0.));
#1327=DIRECTION('',(0.500000000000009,0.,0.866025403784434));
#1328=DIRECTION('',(0.866025403784434,0.,-0.500000000000009));
#1329=DIRECTION('',(0.,-1.,0.));
#1330=DIRECTION('',(-0.866025403784434,0.,0.500000000000009));
#1331=DIRECTION('',(-0.499999999999993,0.,0.866025403784443));
#1332=DIRECTION('',(0.866025403784443,0.,0.499999999999993));
#1333=DIRECTION('',(0.,-1.,0.));
#1334=DIRECTION('',(-0.866025403784443,0.,-0.499999999999993));
#1335=DIRECTION('',(-1.,0.,0.));
#1336=DIRECTION('',(0.,0.,1.));
#1337=DIRECTION('',(0.,-1.,0.));
#1338=DIRECTION('',(0.,0.,-1.));
#1339=DIRECTION('',(-0.500000000000008,0.,-0.866025403784434));
#1340=DIRECTION('',(-0.866025403784434,0.,0.500000000000008));
#1341=DIRECTION('',(0.,-1.,0.));
#1342=DIRECTION('',(0.866025403784434,0.,-0.500000000000008));
#1343=DIRECTION('',(0.499999999999993,0.,-0.866025403784443));
#1344=DIRECTION('',(-0.866025403784443,0.,-0.499999999999993));
#1345=DIRECTION('',(0.866025403784443,0.,0.499999999999993));
#1346=DIRECTION('',(0.,1.,0.));
#1347=DIRECTION('',(-1.,0.,0.));
#1348=DIRECTION('',(0.,1.,0.));
#1349=DIRECTION('',(0.,0.,1.));
#1350=DIRECTION('',(-1.,0.,0.));
#1351=DIRECTION('',(0.,1.,0.));
#1352=DIRECTION('',(0.,0.,1.));
#1353=DIRECTION('',(1.,0.,0.));
#1354=DIRECTION('',(0.,1.,0.));
#1355=DIRECTION('',(0.,0.,1.));
#1356=DIRECTION('',(0.,1.,0.));
#1357=DIRECTION('',(0.,0.,1.));
#1358=DIRECTION('',(1.,0.,0.));
#1359=DIRECTION('',(0.,0.,-1.));
#1360=DIRECTION('',(1.,0.,0.));
#1361=DIRECTION('',(0.,0.,-1.));
#1362=DIRECTION('',(1.,0.,0.));
#1363=DIRECTION('',(0.,0.,-1.));
#1364=DIRECTION('',(1.,0.,0.));
#1365=DIRECTION('',(0.,0.,-1.));
#1366=DIRECTION('',(0.,-1.,0.));
#1367=DIRECTION('',(0.,0.,-1.));
#1368=DIRECTION('',(-1.,0.,0.));
#1369=DIRECTION('',(0.,0.,1.));
#1370=DIRECTION('',(1.,0.,0.));
#1371=DIRECTION('',(0.,0.,-1.));
#1372=DIRECTION('',(-1.,0.,-1.8503717077086E-14));
#1373=DIRECTION('',(-1.8503717077086E-14,0.,1.));
#1374=DIRECTION('',(0.,-1.,0.));
#1375=DIRECTION('',(0.,0.,-1.));
#1376=DIRECTION('',(-0.64795339779786,0.,-0.761679981542254));
#1377=DIRECTION('',(-0.761679981542254,0.,0.64795339779786));
#1378=DIRECTION('',(-1.,0.,0.));
#1379=DIRECTION('',(0.,0.,1.));
#1380=DIRECTION('',(1.,0.,0.));
#1381=DIRECTION('',(0.,0.,-1.));
#1382=DIRECTION('',(0.,-1.,0.));
#1383=DIRECTION('',(0.,0.,-1.));
#1384=DIRECTION('',(0.931005996541995,-1.26636160836445E-15,-0.365003882722974));
#1385=DIRECTION('',(-0.365003882722974,0.,-0.931005996541995));
#1386=DIRECTION('',(0.,1.,0.));
#1387=DIRECTION('',(0.,0.,1.));
#1388=DIRECTION('',(-1.,0.,0.));
#1389=DIRECTION('',(0.,0.,1.));
#1390=DIRECTION('',(1.,-4.38149062350148E-27,-2.52575738102223E-12));
#1391=DIRECTION('',(-2.52575738102223E-12,0.,-1.));
#1392=DIRECTION('',(1.,0.,0.));
#1393=DIRECTION('',(0.,0.,-1.));
#1394=CARTESIAN_POINT('',(0.,0.,0.));
#1395=CARTESIAN_POINT('',(0.3165,-0.025,-0.019));
#1396=CARTESIAN_POINT('',(0.309,-0.025,-0.019));
#1397=CARTESIAN_POINT('',(0.296500291133992,-0.025,-0.0189146872514056));
#1398=CARTESIAN_POINT('',(0.297338096210309,-0.025,-0.0235));
#1399=CARTESIAN_POINT('',(0.102,-0.025,-0.0235));
#1400=CARTESIAN_POINT('',(0.102,-0.025,-0.0235));
#1401=CARTESIAN_POINT('',(0.102,-0.025,-0.019));
#1402=CARTESIAN_POINT('',(0.102,-0.025,-0.019));
#1403=CARTESIAN_POINT('',(0.102,-0.025,-0.019));
#1404=CARTESIAN_POINT('',(0.296430151519016,-0.025,-0.019));
#1405=CARTESIAN_POINT('',(0.296430151519017,-0.025,-0.019));
#1406=CARTESIAN_POINT('',(0.296453388946857,-0.025,-0.0189717367809699));
#1407=CARTESIAN_POINT('',(0.296476885620442,-0.025,-0.0189431583065098));
#1408=CARTESIAN_POINT('',(0.296500291133993,-0.025,-0.0189146872514061));
#1409=CARTESIAN_POINT('',(0.3165,-0.04,-0.01525));
#1410=CARTESIAN_POINT('',(0.309,-0.04,-0.019));
#1411=CARTESIAN_POINT('',(0.309,-0.04,-0.02115));
#1412=CARTESIAN_POINT('',(0.303536761760578,-0.04,-0.0145));
#1413=CARTESIAN_POINT('',(0.309,-0.04,-0.0145));
#1414=CARTESIAN_POINT('',(0.301588583011261,-0.04,-0.0145));
#1415=CARTESIAN_POINT('',(0.301588583011262,-0.04,-0.0145));
#1416=CARTESIAN_POINT('',(0.300103348104562,-0.04,-0.0162459183024056));
#1417=CARTESIAN_POINT('',(0.298259151775256,-0.04,-0.0176341977763214));
#1418=CARTESIAN_POINT('',(0.296430151519016,-0.04,-0.019));
#1419=CARTESIAN_POINT('',(0.296430151519016,-0.04,-0.019));
#1420=CARTESIAN_POINT('',(0.102,-0.04,-0.019));
#1421=CARTESIAN_POINT('',(0.102,-0.04,-0.019));
#1422=CARTESIAN_POINT('',(0.102,-0.04,-0.01525));
#1423=CARTESIAN_POINT('',(0.102,-0.04,-0.0235));
#1424=CARTESIAN_POINT('',(0.309,-0.04,-0.0235));
#1425=CARTESIAN_POINT('',(0.309,-0.04,-0.0235));
#1426=CARTESIAN_POINT('',(0.309,-0.04,-0.019));
#1427=CARTESIAN_POINT('',(0.3165,-0.025,-0.019));
#1428=CARTESIAN_POINT('',(0.30525,-0.025,-0.019));
#1429=CARTESIAN_POINT('',(0.30525,-0.025,-0.0211650635094611));
#1430=CARTESIAN_POINT('',(0.30525,-0.025,-0.0168349364905389));
#1431=CARTESIAN_POINT('',(0.307125,-0.025,-0.0157524047358083));
#1432=CARTESIAN_POINT('',(0.309,-0.025,-0.0146698729810778));
#1433=CARTESIAN_POINT('',(0.310875,-0.025,-0.0157524047358083));
#1434=CARTESIAN_POINT('',(0.31275,-0.025,-0.0168349364905388));
#1435=CARTESIAN_POINT('',(0.31275,-0.025,-0.019));
#1436=CARTESIAN_POINT('',(0.31275,-0.025,-0.0211650635094611));
#1437=CARTESIAN_POINT('',(0.310875,-0.025,-0.0222475952641916));
#1438=CARTESIAN_POINT('',(0.309,-0.025,-0.0233301270189221));
#1439=CARTESIAN_POINT('',(0.307125,-0.025,-0.0222475952641916));
#1440=CARTESIAN_POINT('',(0.309,-0.025,-0.019));
#1441=CARTESIAN_POINT('',(0.309,-0.025,-0.01685));
#1442=CARTESIAN_POINT('',(0.3015,-0.02875,-0.019));
#1443=CARTESIAN_POINT('',(0.309,-0.02875,-0.019));
#1444=CARTESIAN_POINT('',(0.309,-0.02875,-0.02115));
#1445=CARTESIAN_POINT('',(0.3015,-0.02875,-0.0115));
#1446=CARTESIAN_POINT('',(0.300910033906793,-0.02875,-0.0115));
#1447=CARTESIAN_POINT('',(0.309,-0.02875,-0.0115));
#1448=CARTESIAN_POINT('',(0.300910033906793,-0.0287500000000036,-0.0115));
#1449=CARTESIAN_POINT('',(0.300471324396991,-0.0287500000000036,-0.0115));
#1450=CARTESIAN_POINT('',(0.300038002113087,-0.02875,-0.0115488733330017));
#1451=CARTESIAN_POINT('',(0.299609704747042,-0.02875,-0.0116433331122589));
#1452=CARTESIAN_POINT('',(0.299609704747042,-0.02875,-0.0116433331122589));
#1453=CARTESIAN_POINT('',(0.299609704747042,-0.02875,-0.0116433331122589));
#1454=CARTESIAN_POINT('',(0.300135268715757,-0.02875,-0.0120131655062149));
#1455=CARTESIAN_POINT('',(0.301094114482363,-0.02875,-0.0129094302626317));
#1456=CARTESIAN_POINT('',(0.3015,-0.02875,-0.0141792643898264));
#1457=CARTESIAN_POINT('',(0.3015,-0.02875,-0.0148301293751346));
#1458=CARTESIAN_POINT('',(0.3015,-0.02875,-0.0148301293751347));
#1459=CARTESIAN_POINT('',(0.3015,-0.02875,-0.019));
#1460=CARTESIAN_POINT('',(0.3015,-0.02875,-0.0235));
#1461=CARTESIAN_POINT('',(0.2985,-0.02875,-0.0235));
#1462=CARTESIAN_POINT('',(0.2985,-0.02875,-0.0265));
#1463=CARTESIAN_POINT('',(0.3015,-0.02875,-0.0265));
#1464=CARTESIAN_POINT('',(0.309,-0.02875,-0.0265));
#1465=CARTESIAN_POINT('',(0.309,-0.02875,-0.019));
#1466=CARTESIAN_POINT('',(0.3015,-0.03625,-0.019));
#1467=CARTESIAN_POINT('',(0.309,-0.03625,-0.019));
#1468=CARTESIAN_POINT('',(0.309,-0.03625,-0.02115));
#1469=CARTESIAN_POINT('',(0.3015,-0.03625,-0.0148301293751347));
#1470=CARTESIAN_POINT('',(0.3015,-0.03625,-0.0141806664728311));
#1471=CARTESIAN_POINT('',(0.301094080704818,-0.03625,-0.0129096499183035));
#1472=CARTESIAN_POINT('',(0.300137474713693,-0.03625,-0.0120147178377057));
#1473=CARTESIAN_POINT('',(0.299609704747061,-0.03625,-0.011643333112272));
#1474=CARTESIAN_POINT('',(0.3015,-0.03625,-0.0148301293751347));
#1475=CARTESIAN_POINT('',(0.299609704747061,-0.03625,-0.011643333112272));
#1476=CARTESIAN_POINT('',(0.299609704747061,-0.03625,-0.0116433331122717));
#1477=CARTESIAN_POINT('',(0.3000380021131,-0.03625,-0.0115488733330164));
#1478=CARTESIAN_POINT('',(0.300471324396998,-0.03625,-0.0115));
#1479=CARTESIAN_POINT('',(0.300910033906797,-0.03625,-0.0115));
#1480=CARTESIAN_POINT('',(0.300910033906797,-0.03625,-0.0115));
#1481=CARTESIAN_POINT('',(0.3015,-0.03625,-0.0115));
#1482=CARTESIAN_POINT('',(0.309,-0.03625,-0.0115));
#1483=CARTESIAN_POINT('',(0.309,-0.03625,-0.019));
#1484=CARTESIAN_POINT('',(0.309,-0.03625,-0.0265));
#1485=CARTESIAN_POINT('',(0.3015,-0.03625,-0.0265));
#1486=CARTESIAN_POINT('',(0.2985,-0.03625,-0.0265));
#1487=CARTESIAN_POINT('',(0.2985,-0.03625,-0.0235));
#1488=CARTESIAN_POINT('',(0.3015,-0.03625,-0.0235));
#1489=CARTESIAN_POINT('',(0.3015,-0.03625,-0.019));
#1490=CARTESIAN_POINT('',(0.3165,-0.0325,-0.0265));
#1491=CARTESIAN_POINT('',(0.297338096210309,-0.028,-0.0265));
#1492=CARTESIAN_POINT('',(0.299394157315329,-0.028,-0.0265));
#1493=CARTESIAN_POINT('',(0.302371490197144,-0.0269472322266657,-0.0265));
#1494=CARTESIAN_POINT('',(0.305506498602582,-0.0243235414526021,-0.0265));
#1495=CARTESIAN_POINT('',(0.306830493090021,-0.0227947524460403,-0.0265));
#1496=CARTESIAN_POINT('',(0.307466757458969,-0.0219999999999993,-0.0265));
#1497=CARTESIAN_POINT('',(0.297338096210309,-0.028,-0.0265));
#1498=CARTESIAN_POINT('',(0.307466757458969,-0.0219999999999992,-0.0265));
#1499=CARTESIAN_POINT('',(0.309,-0.022,-0.0265));
#1500=CARTESIAN_POINT('',(0.309,-0.022,-0.0265));
#1501=CARTESIAN_POINT('',(0.309,-0.05,-0.0265));
#1502=CARTESIAN_POINT('',(0.2985,-0.03625,-0.0265));
#1503=CARTESIAN_POINT('',(0.309,-0.05,-0.0265));
#1504=CARTESIAN_POINT('',(0.309,-0.037,-0.0265));
#1505=CARTESIAN_POINT('',(0.102,-0.037,-0.0265));
#1506=CARTESIAN_POINT('',(0.102,-0.037,-0.0265));
#1507=CARTESIAN_POINT('',(0.102,-0.0325,-0.0265));
#1508=CARTESIAN_POINT('',(0.102,-0.028,-0.0265));
#1509=CARTESIAN_POINT('',(0.299,-0.028,-0.0265));
#1510=CARTESIAN_POINT('',(0.3165,-0.03625,-0.0115));
#1511=CARTESIAN_POINT('',(0.300910033906797,-0.03625,-0.0115));
#1512=CARTESIAN_POINT('',(0.301143565684216,-0.0364934698178342,-0.0115));
#1513=CARTESIAN_POINT('',(0.301370094222264,-0.0367431627994598,-0.0115));
#1514=CARTESIAN_POINT('',(0.301588583011261,-0.0369999999999998,-0.0115));
#1515=CARTESIAN_POINT('',(0.301588583011261,-0.037,-0.0115));
#1516=CARTESIAN_POINT('',(0.309,-0.037,-0.0115));
#1517=CARTESIAN_POINT('',(0.309,-0.037,-0.0115));
#1518=CARTESIAN_POINT('',(0.309,-0.05,-0.0115));
#1519=CARTESIAN_POINT('',(0.107,-0.0325,-0.019));
#1520=CARTESIAN_POINT('',(0.107,-0.0279464285714285,-0.0130405547871552));
#1521=CARTESIAN_POINT('',(0.107,-0.0279464285714285,-0.0130405547871552));
#1522=CARTESIAN_POINT('',(0.113,-0.0279464285714285,-0.0130405547871552));
#1523=CARTESIAN_POINT('',(0.113,-0.0325,-0.019));
#1524=CARTESIAN_POINT('',(0.113,-0.0370535714285714,-0.0130405547871552));
#1525=CARTESIAN_POINT('',(0.107,-0.0370535714285714,-0.0130405547871552));
#1526=CARTESIAN_POINT('',(0.107,-0.0370535714285714,-0.0130405547871552));
#1527=CARTESIAN_POINT('',(0.107,-0.0325,-0.019));
#1528=CARTESIAN_POINT('',(0.107,-0.0349264705882353,-0.0119033641431711));
#1529=CARTESIAN_POINT('',(0.296430151519016,-0.0349264705882353,-0.0119033641431711));
#1530=CARTESIAN_POINT('',(0.2985,-0.0349264705882353,-0.0119033641431711));
#1531=CARTESIAN_POINT('',(0.2985,-0.0325,-0.019));
#1532=CARTESIAN_POINT('',(0.2985,-0.0300735294117646,-0.0119033641431711));
#1533=CARTESIAN_POINT('',(0.107,-0.0300735294117646,-0.0119033641431711));
#1534=CARTESIAN_POINT('',(0.296430151519016,-0.0300735294117646,-0.0119033641431711));
#1535=CARTESIAN_POINT('',(0.296430151519016,-0.0325,-0.019));
#1536=CARTESIAN_POINT('',(0.102,-0.0325,-0.019));
#1537=CARTESIAN_POINT('',(0.296430151519016,-0.0325,-0.019));
#1538=CARTESIAN_POINT('',(0.107,-0.0325,-0.019));
#1539=CARTESIAN_POINT('',(0.107,-0.0325,-0.019));
#1540=CARTESIAN_POINT('',(0.107,-0.0325,-0.02115));
#1541=CARTESIAN_POINT('',(0.107,-0.030625,-0.0222475952641916));
#1542=CARTESIAN_POINT('',(0.107,-0.0325,-0.0233301270189221));
#1543=CARTESIAN_POINT('',(0.107,-0.02875,-0.0211650635094611));
#1544=CARTESIAN_POINT('',(0.107,-0.02875,-0.019));
#1545=CARTESIAN_POINT('',(0.107,-0.02875,-0.0134378511346782));
#1546=CARTESIAN_POINT('',(0.107,-0.02825,-0.0134378511346782));
#1547=CARTESIAN_POINT('',(0.107,-0.03675,-0.0134378511346782));
#1548=CARTESIAN_POINT('',(0.107,-0.03625,-0.0134378511346782));
#1549=CARTESIAN_POINT('',(0.107,-0.03625,-0.019));
#1550=CARTESIAN_POINT('',(0.107,-0.03625,-0.0211650635094611));
#1551=CARTESIAN_POINT('',(0.107,-0.034375,-0.0222475952641916));
#1552=CARTESIAN_POINT('',(0.102,-0.0325,-0.019));
#1553=CARTESIAN_POINT('',(0.102,-0.0325,-0.019));
#1554=CARTESIAN_POINT('',(0.102,-0.0325,-0.02245));
#1555=CARTESIAN_POINT('',(0.0965,-0.0325,-0.019));
#1556=CARTESIAN_POINT('',(0.0965,-0.0325,-0.02245));
#1557=CARTESIAN_POINT('',(0.102,-0.0325,-0.019));
#1558=CARTESIAN_POINT('',(0.102,-0.0325,-0.019));
#1559=CARTESIAN_POINT('',(0.102,-0.0325,-0.0243));
#1560=CARTESIAN_POINT('',(0.0965,-0.0325,-0.019));
#1561=CARTESIAN_POINT('',(0.0965,-0.0325,-0.0243));
#1562=CARTESIAN_POINT('',(0.0965,-0.0325,-0.019));
#1563=CARTESIAN_POINT('',(0.102,-0.0325,-0.019));
#1564=CARTESIAN_POINT('',(0.102,-0.0325,-0.019));
#1565=CARTESIAN_POINT('',(0.102,-0.0325,-0.02115));
#1566=CARTESIAN_POINT('',(0.107,-0.0325,-0.019));
#1567=CARTESIAN_POINT('',(0.102,-0.0325,-0.019));
#1568=CARTESIAN_POINT('',(0.102,-0.028,-0.0235));
#1569=CARTESIAN_POINT('',(0.102,-0.037,-0.0235));
#1570=CARTESIAN_POINT('',(0.113,-0.02875,-0.019));
#1571=CARTESIAN_POINT('',(0.113,-0.02875,-0.019));
#1572=CARTESIAN_POINT('',(0.113,-0.02875,-0.0211650635094611));
#1573=CARTESIAN_POINT('',(0.113,-0.02875,-0.0134378511346782));
#1574=CARTESIAN_POINT('',(0.107,-0.02875,-0.0134378511346782));
#1575=CARTESIAN_POINT('',(0.113,-0.02875,-0.0211650635094611));
#1576=CARTESIAN_POINT('',(0.113,-0.030625,-0.0222475952641916));
#1577=CARTESIAN_POINT('',(0.113,-0.0325,-0.0233301270189221));
#1578=CARTESIAN_POINT('',(0.113,-0.0325,-0.0233301270189221));
#1579=CARTESIAN_POINT('',(0.113,-0.030625,-0.0222475952641916));
#1580=CARTESIAN_POINT('',(0.113,-0.034375,-0.0222475952641916));
#1581=CARTESIAN_POINT('',(0.113,-0.03625,-0.0211650635094611));
#1582=CARTESIAN_POINT('',(0.113,-0.03625,-0.0211650635094611));
#1583=CARTESIAN_POINT('',(0.113,-0.034375,-0.0222475952641916));
#1584=CARTESIAN_POINT('',(0.113,-0.03625,-0.019));
#1585=CARTESIAN_POINT('',(0.113,-0.03625,-0.0134378511346782));
#1586=CARTESIAN_POINT('',(0.113,-0.03625,-0.0134378511346782));
#1587=CARTESIAN_POINT('',(0.113,-0.03625,-0.019));
#1588=CARTESIAN_POINT('',(0.107,-0.03675,-0.0134378511346782));
#1589=CARTESIAN_POINT('',(0.113,-0.03675,-0.0134378511346782));
#1590=CARTESIAN_POINT('',(0.107,-0.02825,-0.0134378511346782));
#1591=CARTESIAN_POINT('',(0.113,-0.02825,-0.0134378511346782));
#1592=CARTESIAN_POINT('',(0.113,-0.0325,-0.019));
#1593=CARTESIAN_POINT('',(0.113,-0.0325,-0.019));
#1594=CARTESIAN_POINT('',(0.113,-0.0325,-0.02115));
#1595=CARTESIAN_POINT('',(0.138,-0.0325,-0.019));
#1596=CARTESIAN_POINT('',(0.3015,-0.0325,-0.019));
#1597=CARTESIAN_POINT('',(0.3015,-0.0325,-0.02115));
#1598=CARTESIAN_POINT('',(0.3165,-0.03625,-0.0115));
#1599=CARTESIAN_POINT('',(0.309,-0.05,-0.0115));
#1600=CARTESIAN_POINT('',(0.309,-0.022,-0.0115));
#1601=CARTESIAN_POINT('',(0.309,-0.022,-0.0115));
#1602=CARTESIAN_POINT('',(0.306463150058418,-0.022,-0.0115));
#1603=CARTESIAN_POINT('',(0.304090153283698,-0.0235352517888942,-0.0115));
#1604=CARTESIAN_POINT('',(0.304921643300295,-0.0230797568909623,-0.0115));
#1605=CARTESIAN_POINT('',(0.305704630089908,-0.0225568747531939,-0.0115));
#1606=CARTESIAN_POINT('',(0.306463150058418,-0.022,-0.0115));
#1607=CARTESIAN_POINT('',(0.304090153283698,-0.0235352517888942,-0.0115));
#1608=CARTESIAN_POINT('',(0.304090153283698,-0.0235352517888942,-0.0115));
#1609=CARTESIAN_POINT('',(0.30350519728089,-0.0255098375860579,-0.0115));
#1610=CARTESIAN_POINT('',(0.302334603334196,-0.0272648074372831,-0.0115));
#1611=CARTESIAN_POINT('',(0.300910033906794,-0.0287500000000036,-0.0115));
#1612=CARTESIAN_POINT('',(0.3015,-0.0325,-0.019));
#1613=CARTESIAN_POINT('',(0.3015,-0.02975,-0.0109571460289272));
#1614=CARTESIAN_POINT('',(0.3015,-0.0310441176470588,-0.0147420184859026));
#1615=CARTESIAN_POINT('',(0.3015,-0.0325,-0.019));
#1616=CARTESIAN_POINT('',(0.3015,-0.0339558823529411,-0.0147420184859026));
#1617=CARTESIAN_POINT('',(0.3015,-0.03525,-0.0109571460289272));
#1618=CARTESIAN_POINT('',(0.3015,-0.02875,-0.0235));
#1619=CARTESIAN_POINT('',(0.309,-0.015,-0.019));
#1620=CARTESIAN_POINT('',(0.309,-0.015,-0.019));
#1621=CARTESIAN_POINT('',(0.309,-0.05,-0.019));
#1622=CARTESIAN_POINT('',(0.309,-0.037,-0.019));
#1623=CARTESIAN_POINT('',(0.309,-0.05,-0.019));
#1624=CARTESIAN_POINT('',(0.309,-0.022,-0.019));
#1625=CARTESIAN_POINT('',(0.296430151519016,-0.0325,-0.019));
#1626=CARTESIAN_POINT('',(0.299670914480904,-0.0386313410752624,-0.0128686589247374));
#1627=CARTESIAN_POINT('',(0.299138385497569,-0.0389971639259343,-0.0138604784405644));
#1628=CARTESIAN_POINT('',(0.29803101562409,-0.0397068581422609,-0.0158334086215965));
#1629=CARTESIAN_POINT('',(0.296963259375406,-0.04,-0.0179438938472849));
#1630=CARTESIAN_POINT('',(0.296430151519016,-0.04,-0.019));
#1631=CARTESIAN_POINT('',(0.299670914480904,-0.0386313410752621,-0.0128686589247374));
#1632=CARTESIAN_POINT('',(0.299670914480904,-0.0386313410752622,-0.0128686589247375));
#1633=CARTESIAN_POINT('',(0.299134041991307,-0.0376314319072046,-0.0124998522855911));
#1634=CARTESIAN_POINT('',(0.298575621369751,-0.0366391120565171,-0.0121436269504877));
#1635=CARTESIAN_POINT('',(0.298027665299295,-0.0356072525276877,-0.0118911538615822));
#1636=CARTESIAN_POINT('',(0.298027665299295,-0.0356072525276877,-0.0118911538615821));
#1637=CARTESIAN_POINT('',(0.298027665299295,-0.0356072525276878,-0.0118911538615822));
#1638=CARTESIAN_POINT('',(0.297499745689441,-0.035373856658096,-0.0119804264152465));
#1639=CARTESIAN_POINT('',(0.296964382903653,-0.0351373544348571,-0.0119754692168546));
#1640=CARTESIAN_POINT('',(0.296430151519016,-0.0349264705882353,-0.0119033641431711));
#1641=CARTESIAN_POINT('',(0.296430151519016,-0.0325,-0.019));
#1642=CARTESIAN_POINT('',(0.296430151519016,-0.0300735294117646,-0.0119033641431711));
#1643=CARTESIAN_POINT('',(0.296964946772439,-0.0298624229824172,-0.0119755453219906));
#1644=CARTESIAN_POINT('',(0.297499189684698,-0.0296263891543497,-0.01198052043707));
#1645=CARTESIAN_POINT('',(0.298027665299313,-0.0293927474723045,-0.0118911538615792));
#1646=CARTESIAN_POINT('',(0.298027665299313,-0.0293927474723044,-0.0118911538615791));
#1647=CARTESIAN_POINT('',(0.298027665299301,-0.0293927474722998,-0.0118911538615852));
#1648=CARTESIAN_POINT('',(0.298489439248159,-0.0285231780396674,-0.012103918171592));
#1649=CARTESIAN_POINT('',(0.299425411128785,-0.0268366730226849,-0.0126783855169493));
#1650=CARTESIAN_POINT('',(0.300326932772679,-0.0251547548191326,-0.0133255902644161));
#1651=CARTESIAN_POINT('',(0.300701047014254,-0.024266471787057,-0.0136152151021472));
#1652=CARTESIAN_POINT('',(0.300701047014255,-0.0242664717870579,-0.0136152151021473));
#1653=CARTESIAN_POINT('',(0.300701047014255,-0.0242664717870579,-0.0136152151021473));
#1654=CARTESIAN_POINT('',(0.300627843180051,-0.0242013092321691,-0.0139239448655106));
#1655=CARTESIAN_POINT('',(0.300482571266435,-0.0240756208105188,-0.0145422969881858));
#1656=CARTESIAN_POINT('',(0.30027499185204,-0.0239199251853893,-0.0154776256515869));
#1657=CARTESIAN_POINT('',(0.30006794308755,-0.0238235749958414,-0.0164205839181012));
#1658=CARTESIAN_POINT('',(0.299853569051854,-0.0238532500807934,-0.0172179775379582));
#1659=CARTESIAN_POINT('',(0.299497915319579,-0.0240662830718751,-0.0177328283361233));
#1660=CARTESIAN_POINT('',(0.29901866294367,-0.0243585314598277,-0.0180767861088119));
#1661=CARTESIAN_POINT('',(0.298453134915612,-0.0246313042163385,-0.018266136029178));
#1662=CARTESIAN_POINT('',(0.29785772919301,-0.0248237984860283,-0.0184276857209628));
#1663=CARTESIAN_POINT('',(0.297390975080093,-0.0249285541856178,-0.0185438103369461));
#1664=CARTESIAN_POINT('',(0.296934367034542,-0.0249895271857017,-0.0186854948178195));
#1665=CARTESIAN_POINT('',(0.296605003849587,-0.025,-0.0187873120716513));
#1666=CARTESIAN_POINT('',(0.296500291133993,-0.025,-0.0189146872514048));
#1667=CARTESIAN_POINT('',(0.107,-0.02975,-0.0109571460289272));
#1668=CARTESIAN_POINT('',(0.2985,-0.02975,-0.0109571460289272));
#1669=CARTESIAN_POINT('',(0.2985,-0.0292154312837796,-0.0118022710419511));
#1670=CARTESIAN_POINT('',(0.2985,-0.0292154312837796,-0.0118022710419511));
#1671=CARTESIAN_POINT('',(0.298339828018945,-0.0292660682803098,-0.0118343005687207));
#1672=CARTESIAN_POINT('',(0.298182290625134,-0.0293243868512798,-0.0118650063242655));
#1673=CARTESIAN_POINT('',(0.298027665299303,-0.0293927474723086,-0.0118911538615808));
#1674=CARTESIAN_POINT('',(0.107,-0.03525,-0.0109571460289272));
#1675=CARTESIAN_POINT('',(0.298027665299295,-0.0356072525276879,-0.0118911538615822));
#1676=CARTESIAN_POINT('',(0.298182290625131,-0.0356756131487196,-0.0118650063242661));
#1677=CARTESIAN_POINT('',(0.298339828018939,-0.0357339317196886,-0.0118343005687217));
#1678=CARTESIAN_POINT('',(0.2985,-0.0357845687162204,-0.011802271041951));
#1679=CARTESIAN_POINT('',(0.2985,-0.0357845687162204,-0.011802271041951));
#1680=CARTESIAN_POINT('',(0.2985,-0.03525,-0.0109571460289272));
#1681=CARTESIAN_POINT('',(0.2985,-0.03525,-0.0109571460289272));
#1682=CARTESIAN_POINT('',(0.2985,-0.0357845687162204,-0.011802271041951));
#1683=CARTESIAN_POINT('',(0.298881110849647,-0.0359050536390138,-0.0117260604582988));
#1684=CARTESIAN_POINT('',(0.299253576381583,-0.0360552614630498,-0.0116765283269673));
#1685=CARTESIAN_POINT('',(0.299609704747055,-0.0362500000000071,-0.0116433331122577));
#1686=CARTESIAN_POINT('',(0.2985,-0.0339558823529411,-0.0147420184859026));
#1687=CARTESIAN_POINT('',(0.2985,-0.0325,-0.019));
#1688=CARTESIAN_POINT('',(0.2985,-0.0310441176470588,-0.0147420184859026));
#1689=CARTESIAN_POINT('',(0.2985,-0.02975,-0.0109571460289272));
#1690=CARTESIAN_POINT('',(0.299609704747042,-0.02875,-0.0116433331122589));
#1691=CARTESIAN_POINT('',(0.299253576381574,-0.028944738536954,-0.0116765283269687));
#1692=CARTESIAN_POINT('',(0.298881110849642,-0.0290949463609871,-0.0117260604582994));
#1693=CARTESIAN_POINT('',(0.2985,-0.0292154312837795,-0.011802271041951));
#1694=CARTESIAN_POINT('',(0.2985,-0.0325,-0.0235));
#1695=CARTESIAN_POINT('',(0.301251863679078,-0.0226550862492348,-0.0140859786453774));
#1696=CARTESIAN_POINT('',(0.301597870025163,-0.0227556760914595,-0.0115));
#1697=CARTESIAN_POINT('',(0.304105033065587,-0.0234845503954173,-0.0115));
#1698=CARTESIAN_POINT('',(0.300991446093841,-0.0236827505577684,-0.0138217526214947));
#1699=CARTESIAN_POINT('',(0.301515974297109,-0.0238458514998456,-0.0114999999999998));
#1700=CARTESIAN_POINT('',(0.303690517627879,-0.0249103899096521,-0.0115));
#1701=CARTESIAN_POINT('',(0.300083938854329,-0.025721265632937,-0.0131405870440574));
#1702=CARTESIAN_POINT('',(0.300954412389176,-0.0261294049524312,-0.0114999999999988));
#1703=CARTESIAN_POINT('',(0.302246007807945,-0.0275565791481801,-0.0115));
#1704=CARTESIAN_POINT('',(0.298722364589937,-0.0280828808428838,-0.0122072095616751));
#1705=CARTESIAN_POINT('',(0.299352551964742,-0.0287281973118488,-0.0115000000000024));
#1706=CARTESIAN_POINT('',(0.300078744224841,-0.0296195144335597,-0.0115));
#1707=CARTESIAN_POINT('',(0.298002058882231,-0.0294409973527599,-0.0118794283693283));
#1708=CARTESIAN_POINT('',(0.298435738259993,-0.0299658973573499,-0.0115));
#1709=CARTESIAN_POINT('',(0.298932209380285,-0.0305667967929308,-0.0115));
#1710=CARTESIAN_POINT('',(0.304090153283698,-0.0235352517888942,-0.0115));
#1711=CARTESIAN_POINT('',(0.303439013804714,-0.0238919496500823,-0.0115));
#1712=CARTESIAN_POINT('',(0.302373184015292,-0.0242225675898817,-0.0117096866165312));
#1713=CARTESIAN_POINT('',(0.301170244919821,-0.0243814261336722,-0.0125980438487388));
#1714=CARTESIAN_POINT('',(0.300785571128754,-0.0243417111144863,-0.0132587432021146));
#1715=CARTESIAN_POINT('',(0.300701047014252,-0.0242664717870597,-0.0136152151021465));
#1716=CARTESIAN_POINT('',(0.298017101190724,-0.0355873540390834,-0.0118862987596025));
#1717=CARTESIAN_POINT('',(0.298454317220826,-0.0350592087567171,-0.0115));
#1718=CARTESIAN_POINT('',(0.298956152729045,-0.0344530048713571,-0.0115));
#1719=CARTESIAN_POINT('',(0.298607690384008,-0.0367000721603984,-0.0121570325272657));
#1720=CARTESIAN_POINT('',(0.299201431462019,-0.0360697879889058,-0.0114999999999972));
#1721=CARTESIAN_POINT('',(0.299896213430569,-0.0352312180242233,-0.0115));
#1722=CARTESIAN_POINT('',(0.299169348836398,-0.0376971898625224,-0.0125241064580614));
#1723=CARTESIAN_POINT('',(0.299851121868839,-0.0370788019350275,-0.0114999999999964));
#1724=CARTESIAN_POINT('',(0.300790224086575,-0.0360615158289092,-0.0115));
#1725=CARTESIAN_POINT('',(0.299670914480904,-0.0386313410752624,-0.0128686589247375));
#1726=CARTESIAN_POINT('',(0.300346393006772,-0.0380567183773028,-0.0115));
#1727=CARTESIAN_POINT('',(0.301588583011261,-0.037,-0.0115));
#1728=CARTESIAN_POINT('',(0.301588583011261,-0.037,-0.0145));
#1729=CARTESIAN_POINT('',(0.30525,-0.02,-0.019));
#1730=CARTESIAN_POINT('',(0.30525,-0.02,-0.021165063509461));
#1731=CARTESIAN_POINT('',(0.30525,-0.02,-0.021165063509461));
#1732=CARTESIAN_POINT('',(0.30525,-0.02,-0.019));
#1733=CARTESIAN_POINT('',(0.30525,-0.02,-0.0168349364905389));
#1734=CARTESIAN_POINT('',(0.30525,-0.02,-0.0168349364905389));
#1735=CARTESIAN_POINT('',(0.307125,-0.02,-0.0222475952641916));
#1736=CARTESIAN_POINT('',(0.309,-0.02,-0.0233301270189221));
#1737=CARTESIAN_POINT('',(0.309,-0.02,-0.0233301270189221));
#1738=CARTESIAN_POINT('',(0.307125,-0.02,-0.0222475952641916));
#1739=CARTESIAN_POINT('',(0.310875,-0.02,-0.0222475952641916));
#1740=CARTESIAN_POINT('',(0.31275,-0.02,-0.0211650635094611));
#1741=CARTESIAN_POINT('',(0.31275,-0.02,-0.0211650635094611));
#1742=CARTESIAN_POINT('',(0.310875,-0.02,-0.0222475952641916));
#1743=CARTESIAN_POINT('',(0.31275,-0.02,-0.019));
#1744=CARTESIAN_POINT('',(0.31275,-0.02,-0.0168349364905388));
#1745=CARTESIAN_POINT('',(0.31275,-0.02,-0.0168349364905388));
#1746=CARTESIAN_POINT('',(0.31275,-0.02,-0.019));
#1747=CARTESIAN_POINT('',(0.310875,-0.02,-0.0157524047358083));
#1748=CARTESIAN_POINT('',(0.309,-0.02,-0.0146698729810777));
#1749=CARTESIAN_POINT('',(0.309,-0.02,-0.0146698729810777));
#1750=CARTESIAN_POINT('',(0.310875,-0.02,-0.0157524047358083));
#1751=CARTESIAN_POINT('',(0.307125,-0.02,-0.0157524047358083));
#1752=CARTESIAN_POINT('',(0.307125,-0.02,-0.0157524047358083));
#1753=CARTESIAN_POINT('',(0.20925,-0.02,-0.019));
#1754=CARTESIAN_POINT('',(0.309,-0.02,-0.019));
#1755=CARTESIAN_POINT('',(0.309,-0.02,-0.0135));
#1756=CARTESIAN_POINT('',(0.309,-0.02,-0.0245));
#1757=CARTESIAN_POINT('',(0.309,-0.02,-0.0245));
#1758=CARTESIAN_POINT('',(0.307466757458978,-0.02,-0.0245));
#1759=CARTESIAN_POINT('',(0.307466757458978,-0.02,-0.0245));
#1760=CARTESIAN_POINT('',(0.307267303682914,-0.02,-0.0245000000000012));
#1761=CARTESIAN_POINT('',(0.307071836287772,-0.02,-0.024465065579503));
#1762=CARTESIAN_POINT('',(0.306885971947422,-0.02,-0.0243921968695914));
#1763=CARTESIAN_POINT('',(0.306885971947422,-0.02,-0.0243921968695914));
#1764=CARTESIAN_POINT('',(0.309,-0.02,-0.019));
#1765=CARTESIAN_POINT('',(0.307184813594279,-0.02,-0.0135));
#1766=CARTESIAN_POINT('',(0.309,-0.02,-0.0135));
#1767=CARTESIAN_POINT('',(0.309,-0.02,-0.019));
#1768=CARTESIAN_POINT('',(0.306463150058418,-0.022,-0.0115));
#1769=CARTESIAN_POINT('',(0.306563853946069,-0.0219260672692753,-0.0115));
#1770=CARTESIAN_POINT('',(0.306757343838817,-0.0217692441829052,-0.0115068751218711));
#1771=CARTESIAN_POINT('',(0.306894156577919,-0.0215499526425976,-0.0115471814188996));
#1772=CARTESIAN_POINT('',(0.306899183086695,-0.0214285714285714,-0.0115833703050001));
#1773=CARTESIAN_POINT('',(0.306899183086695,-0.0214285714285714,-0.0115833703050001));
#1774=CARTESIAN_POINT('',(0.309,-0.0214285714285714,-0.019));
#1775=CARTESIAN_POINT('',(0.306186394667031,-0.0214285714285713,-0.0261765906087966));
#1776=CARTESIAN_POINT('',(0.297338096210309,-0.025,-0.0235));
#1777=CARTESIAN_POINT('',(0.29816348672821,-0.025,-0.0236543300889752));
#1778=CARTESIAN_POINT('',(0.299768963070849,-0.0246935076945647,-0.0240269317181574));
#1779=CARTESIAN_POINT('',(0.301959982233112,-0.0237170500606118,-0.0247740228952416));
#1780=CARTESIAN_POINT('',(0.30404051074244,-0.0225737005887267,-0.0255770393517589));
#1781=CARTESIAN_POINT('',(0.305458622659361,-0.0218085293296887,-0.0260129417711932));
#1782=CARTESIAN_POINT('',(0.306186394667031,-0.0214285714285714,-0.0261765906087967));
#1783=CARTESIAN_POINT('',(0.3165,-0.028,-0.0235));
#1784=CARTESIAN_POINT('',(0.297338096210309,-0.028,-0.0235));
#1785=CARTESIAN_POINT('',(0.297338096210309,-0.025,-0.0235));
#1786=CARTESIAN_POINT('',(0.297338096210309,-0.025,-0.0265));
#1787=CARTESIAN_POINT('',(0.29733809621031,-0.028,-0.0265));
#1788=CARTESIAN_POINT('',(0.298034732477527,-0.025,-0.0236302558416222));
#1789=CARTESIAN_POINT('',(0.298019930329577,-0.0251274881636076,-0.026500000000001));
#1790=CARTESIAN_POINT('',(0.298372294945561,-0.0279999999966936,-0.0265));
#1791=CARTESIAN_POINT('',(0.299433831583521,-0.0247840322635784,-0.0239408554673719));
#1792=CARTESIAN_POINT('',(0.299459338791893,-0.0251983841840773,-0.0264999999999989));
#1793=CARTESIAN_POINT('',(0.300401090268264,-0.0276544516231971,-0.0265));
#1794=CARTESIAN_POINT('',(0.301578056265454,-0.0239181824071634,-0.0246266379473118));
#1795=CARTESIAN_POINT('',(0.301931143939719,-0.0246421656336367,-0.0265000000000021));
#1796=CARTESIAN_POINT('',(0.303188154860044,-0.0262690918512702,-0.0265));
#1797=CARTESIAN_POINT('',(0.303850935854938,-0.0226789084903525,-0.0255141238419252));
#1798=CARTESIAN_POINT('',(0.304477216101294,-0.0234120382151604,-0.0264999999999933));
#1799=CARTESIAN_POINT('',(0.305545137377878,-0.0242862535838571,-0.0265));
#1800=CARTESIAN_POINT('',(0.305630602595103,-0.0217146205897649,-0.0260749341455608));
#1801=CARTESIAN_POINT('',(0.306197460756718,-0.0222059729543816,-0.0265000000000136));
#1802=CARTESIAN_POINT('',(0.306873890168717,-0.0227433929454007,-0.0265));
#1803=CARTESIAN_POINT('',(0.306599150583131,-0.0212142106327397,-0.0262631526695954));
#1804=CARTESIAN_POINT('',(0.307037065144611,-0.0215635037586018,-0.0265));
#1805=CARTESIAN_POINT('',(0.307512516139013,-0.0219427370123835,-0.0265));
#1806=CARTESIAN_POINT('',(0.306186394667014,-0.0214285714285553,-0.0261765906087848));
#1807=CARTESIAN_POINT('',(0.306586647403457,-0.0216100586428559,-0.0263916298638648));
#1808=CARTESIAN_POINT('',(0.307019008930212,-0.0218030946970747,-0.0265000000000012));
#1809=CARTESIAN_POINT('',(0.307466757458968,-0.0220000000000125,-0.0265));
#1810=CARTESIAN_POINT('',(0.3165,-0.037,-0.0235));
#1811=CARTESIAN_POINT('',(0.309,-0.037,-0.0235));
#1812=CARTESIAN_POINT('',(0.309,-0.037,-0.019));
#1813=CARTESIAN_POINT('',(0.309,-0.037,-0.0145));
#1814=CARTESIAN_POINT('',(0.3165,-0.037,-0.0145));
#1815=CARTESIAN_POINT('',(0.301588583011261,-0.037,-0.0145));
#1816=CARTESIAN_POINT('',(0.301588583011261,-0.037,-0.0145));
#1817=CARTESIAN_POINT('',(0.301588583011261,-0.037,-0.0145));
#1818=CARTESIAN_POINT('',(0.299670914480904,-0.0386313410752624,-0.0128686589247376));
#1819=CARTESIAN_POINT('',(0.300346393006772,-0.04,-0.0134432816226972));
#1820=CARTESIAN_POINT('',(0.301588583011262,-0.04,-0.0145));
#1821=CARTESIAN_POINT('',(0.299204368180447,-0.0389518368673578,-0.0137375876423001));
#1822=CARTESIAN_POINT('',(0.299884545255607,-0.0400000000000002,-0.0143552033456683));
#1823=CARTESIAN_POINT('',(0.300845965555335,-0.04,-0.0153729591486424));
#1824=CARTESIAN_POINT('',(0.298160817541029,-0.0396426144595969,-0.0155913201422291));
#1825=CARTESIAN_POINT('',(0.298725725337044,-0.0399999999999994,-0.0161837656229943));
#1826=CARTESIAN_POINT('',(0.299184910884036,-0.04,-0.0169420167621743));
#1827=CARTESIAN_POINT('',(0.297004682391109,-0.04,-0.0178618314677135));
#1828=CARTESIAN_POINT('',(0.297174667024141,-0.0400000000000011,-0.018089465171657));
#1829=CARTESIAN_POINT('',(0.29734465164715,-0.04,-0.0183170988881506));
#1830=CARTESIAN_POINT('',(0.296430151519017,-0.04,-0.019));
#1831=CARTESIAN_POINT('',(0.296430151519016,-0.04,-0.019));
#1832=CARTESIAN_POINT('',(0.296430151519017,-0.04,-0.019));
#1833=CARTESIAN_POINT('',(0.20925,-0.022,-0.0135));
#1834=CARTESIAN_POINT('',(0.309,-0.022,-0.0135));
#1835=CARTESIAN_POINT('',(0.306899183086695,-0.0214285714285714,-0.0115833703050001));
#1836=CARTESIAN_POINT('',(0.306916383540322,-0.0210132111783172,-0.0117072068056294));
#1837=CARTESIAN_POINT('',(0.306987798314674,-0.0202826881693776,-0.0122218186478942));
#1838=CARTESIAN_POINT('',(0.307116997475563,-0.02,-0.0130778393377049));
#1839=CARTESIAN_POINT('',(0.307184813594279,-0.02,-0.0135));
#1840=CARTESIAN_POINT('',(0.309,-0.022,-0.019));
#1841=CARTESIAN_POINT('',(0.306885971947422,-0.022,-0.0243921968695914));
#1842=CARTESIAN_POINT('',(0.309,-0.022,-0.019));
#1843=CARTESIAN_POINT('',(0.309,-0.022,-0.0245));
#1844=CARTESIAN_POINT('',(0.306885971947423,-0.02,-0.0243921968695914));
#1845=CARTESIAN_POINT('',(0.306341856284888,-0.02,-0.0257800586667096));
#1846=CARTESIAN_POINT('',(0.30618639466701,-0.0214285714285271,-0.0261765906087741));
#1847=CARTESIAN_POINT('',(0.307071932239724,-0.02,-0.0244651031624645));
#1848=CARTESIAN_POINT('',(0.306672628014142,-0.0199999999999992,-0.0260766494498587));
#1849=CARTESIAN_POINT('',(0.306593496463389,-0.0216131641942809,-0.0263953095716529));
#1850=CARTESIAN_POINT('',(0.307268637588078,-0.02,-0.0245000000068606));
#1851=CARTESIAN_POINT('',(0.307047431022733,-0.0200000000000012,-0.0263155938210673));
#1852=CARTESIAN_POINT('',(0.30702716510486,-0.0218066815243739,-0.0265000000000035));
#1853=CARTESIAN_POINT('',(0.307466757458978,-0.02,-0.0245));
#1854=CARTESIAN_POINT('',(0.30746675745899,-0.02,-0.0265000000000096));
#1855=CARTESIAN_POINT('',(0.30746675745899,-0.0220000000000096,-0.0265));
#1856=CARTESIAN_POINT('',(0.307466757458978,-0.0219999999999906,-0.0245));
#1857=CARTESIAN_POINT('',(0.20925,-0.022,-0.0245));
#1858=MECHANICAL_DESIGN_GEOMETRIC_PRESENTATION_REPRESENTATION('',(#1000),
#1859);
#1859=(
GEOMETRIC_REPRESENTATION_CONTEXT(3)
GLOBAL_UNCERTAINTY_ASSIGNED_CONTEXT((#1860))
GLOBAL_UNIT_ASSIGNED_CONTEXT((#1863,#1862,#1861))
REPRESENTATION_CONTEXT('Arm','TOP_LEVEL_ASSEMBLY_PART')
);
#1860=UNCERTAINTY_MEASURE_WITH_UNIT(LENGTH_MEASURE(2.E-5),#1863,
'DISTANCE_ACCURACY_VALUE','Maximum Tolerance applied to model');
#1861=(
NAMED_UNIT(*)
SI_UNIT($,.STERADIAN.)
SOLID_ANGLE_UNIT()
);
#1862=(
NAMED_UNIT(*)
PLANE_ANGLE_UNIT()
SI_UNIT($,.RADIAN.)
);
#1863=(
LENGTH_UNIT()
NAMED_UNIT(*)
SI_UNIT($,.METRE.)
);
#1864=PRODUCT_DEFINITION_SHAPE('','',#1865);
#1865=PRODUCT_DEFINITION('','',#1867,#1866);
#1866=PRODUCT_DEFINITION_CONTEXT('',#1873,'design');
#1867=PRODUCT_DEFINITION_FORMATION_WITH_SPECIFIED_SOURCE('','',#1869,
 .NOT_KNOWN.);
#1868=PRODUCT_RELATED_PRODUCT_CATEGORY('','',(#1869));
#1869=PRODUCT('Arm','Arm','Arm',(#1871));
#1870=PRODUCT_CATEGORY('','');
#1871=PRODUCT_CONTEXT('',#1873,'mechanical');
#1872=APPLICATION_PROTOCOL_DEFINITION('international standard',
'ap242_managed_model_based_3d_engineering',2020,#1873);
#1873=APPLICATION_CONTEXT('managed model based 3d engineering');
ENDSEC;
END-ISO-10303-21;
