ISO-10303-21;
HEADER;
/* Generated by software containing ST-Developer
 * from STEP Tools, Inc. (www.steptools.com) 
 */
/* OPTION: using custom renumber hook */

FILE_DESCRIPTION(
/* description */ ('STEP AP242 Edition 2',
'CAx-IF Rec.Pracs.---Representation and Presentation of Product Manufa
cturing Information (PMI)---4.0---2014-10-13',
'CAx-IF Rec.Pracs.---3D Tessellated Geometry---0.4---2014-09-14','2;1',
'CAx-IF Rec.Pracs.---User Defined Attributes---1.5---2016-08-15'),
/* implementation_level */ '2;1');

FILE_NAME(
/* name */ 'Assembly 1 - Joint 1',
/* time_stamp */ '2026-07-26T17:36:16Z',
/* author */ (''),
/* organization */ (''),
/* preprocessor_version */ 'ST-DEVELOPER v20',
/* originating_system */ 'ONSHAPE BY PTC INC, 1.218',
/* authorisation */ '  ');

FILE_SCHEMA (('AP242_MANAGED_MODEL_BASED_3D_ENGINEERING_MIM_LF { 1 0 10303 442 3 1 4 }'));
ENDSEC;

DATA;
#10=SHAPE_REPRESENTATION_RELATIONSHIP('','',#472,#11);
#11=ADVANCED_BREP_SHAPE_REPRESENTATION('',(#470),#786);
#12=LINE('',#664,#49);
#13=LINE('',#669,#50);
#14=LINE('',#692,#51);
#15=LINE('',#695,#52);
#16=LINE('',#697,#53);
#17=LINE('',#699,#54);
#18=LINE('',#701,#55);
#19=LINE('',#703,#56);
#20=LINE('',#704,#57);
#21=LINE('',#708,#58);
#22=LINE('',#712,#59);
#23=LINE('',#716,#60);
#24=LINE('',#718,#61);
#25=LINE('',#722,#62);
#26=LINE('',#727,#63);
#27=LINE('',#728,#64);
#28=LINE('',#730,#65);
#29=LINE('',#734,#66);
#30=LINE('',#738,#67);
#31=LINE('',#740,#68);
#32=LINE('',#742,#69);
#33=LINE('',#744,#70);
#34=LINE('',#746,#71);
#35=LINE('',#748,#72);
#36=LINE('',#750,#73);
#37=LINE('',#752,#74);
#38=LINE('',#754,#75);
#39=LINE('',#756,#76);
#40=LINE('',#758,#77);
#41=LINE('',#760,#78);
#42=LINE('',#763,#79);
#43=LINE('',#765,#80);
#44=LINE('',#767,#81);
#45=LINE('',#768,#82);
#46=LINE('',#770,#83);
#47=LINE('',#771,#84);
#48=LINE('',#773,#85);
#49=VECTOR('',#532,1.);
#50=VECTOR('',#535,1.);
#51=VECTOR('',#564,1.);
#52=VECTOR('',#565,1.);
#53=VECTOR('',#566,1.);
#54=VECTOR('',#567,1.);
#55=VECTOR('',#568,1.);
#56=VECTOR('',#569,1.);
#57=VECTOR('',#570,1.);
#58=VECTOR('',#573,1.);
#59=VECTOR('',#576,1.);
#60=VECTOR('',#579,1.);
#61=VECTOR('',#580,1.);
#62=VECTOR('',#585,1.);
#63=VECTOR('',#588,1.);
#64=VECTOR('',#589,1.);
#65=VECTOR('',#590,1.);
#66=VECTOR('',#593,1.);
#67=VECTOR('',#598,1.);
#68=VECTOR('',#599,1.);
#69=VECTOR('',#600,1.);
#70=VECTOR('',#603,1.);
#71=VECTOR('',#604,1.);
#72=VECTOR('',#607,1.);
#73=VECTOR('',#608,1.);
#74=VECTOR('',#611,1.);
#75=VECTOR('',#612,1.);
#76=VECTOR('',#615,1.);
#77=VECTOR('',#616,1.);
#78=VECTOR('',#619,1.);
#79=VECTOR('',#624,1.);
#80=VECTOR('',#627,1.);
#81=VECTOR('',#630,1.);
#82=VECTOR('',#631,1.);
#83=VECTOR('',#634,1.);
#84=VECTOR('',#635,1.);
#85=VECTOR('',#638,1.);
#86=CYLINDRICAL_SURFACE('',#477,0.00475);
#87=CYLINDRICAL_SURFACE('',#480,0.00215);
#88=CYLINDRICAL_SURFACE('',#483,0.0032);
#89=CYLINDRICAL_SURFACE('',#486,0.0038);
#90=CYLINDRICAL_SURFACE('',#513,0.00215);
#91=CYLINDRICAL_SURFACE('',#514,0.0035);
#92=CYLINDRICAL_SURFACE('',#516,0.0055);
#93=CYLINDRICAL_SURFACE('',#519,0.0055);
#94=CYLINDRICAL_SURFACE('',#520,0.0055);
#95=CYLINDRICAL_SURFACE('',#521,0.0055);
#96=ORIENTED_EDGE('',*,*,#210,.F.);
#97=ORIENTED_EDGE('',*,*,#211,.T.);
#98=ORIENTED_EDGE('',*,*,#212,.F.);
#99=ORIENTED_EDGE('',*,*,#213,.T.);
#100=ORIENTED_EDGE('',*,*,#214,.T.);
#101=ORIENTED_EDGE('',*,*,#215,.F.);
#102=ORIENTED_EDGE('',*,*,#216,.F.);
#103=ORIENTED_EDGE('',*,*,#217,.T.);
#104=ORIENTED_EDGE('',*,*,#218,.T.);
#105=ORIENTED_EDGE('',*,*,#219,.F.);
#106=ORIENTED_EDGE('',*,*,#220,.F.);
#107=ORIENTED_EDGE('',*,*,#221,.T.);
#108=ORIENTED_EDGE('',*,*,#219,.T.);
#109=ORIENTED_EDGE('',*,*,#221,.F.);
#110=ORIENTED_EDGE('',*,*,#216,.T.);
#111=ORIENTED_EDGE('',*,*,#218,.F.);
#112=ORIENTED_EDGE('',*,*,#222,.F.);
#113=ORIENTED_EDGE('',*,*,#223,.F.);
#114=ORIENTED_EDGE('',*,*,#224,.F.);
#115=ORIENTED_EDGE('',*,*,#225,.F.);
#116=ORIENTED_EDGE('',*,*,#226,.F.);
#117=ORIENTED_EDGE('',*,*,#227,.F.);
#118=ORIENTED_EDGE('',*,*,#228,.F.);
#119=ORIENTED_EDGE('',*,*,#229,.F.);
#120=ORIENTED_EDGE('',*,*,#230,.T.);
#121=ORIENTED_EDGE('',*,*,#231,.T.);
#122=ORIENTED_EDGE('',*,*,#232,.T.);
#123=ORIENTED_EDGE('',*,*,#233,.T.);
#124=ORIENTED_EDGE('',*,*,#234,.T.);
#125=ORIENTED_EDGE('',*,*,#235,.T.);
#126=ORIENTED_EDGE('',*,*,#236,.T.);
#127=ORIENTED_EDGE('',*,*,#215,.T.);
#128=ORIENTED_EDGE('',*,*,#237,.F.);
#129=ORIENTED_EDGE('',*,*,#220,.T.);
#130=ORIENTED_EDGE('',*,*,#238,.F.);
#131=ORIENTED_EDGE('',*,*,#239,.T.);
#132=ORIENTED_EDGE('',*,*,#240,.T.);
#133=ORIENTED_EDGE('',*,*,#213,.F.);
#134=ORIENTED_EDGE('',*,*,#241,.F.);
#135=ORIENTED_EDGE('',*,*,#242,.F.);
#136=ORIENTED_EDGE('',*,*,#243,.T.);
#137=ORIENTED_EDGE('',*,*,#244,.F.);
#138=ORIENTED_EDGE('',*,*,#245,.T.);
#139=ORIENTED_EDGE('',*,*,#223,.T.);
#140=ORIENTED_EDGE('',*,*,#246,.F.);
#141=ORIENTED_EDGE('',*,*,#247,.F.);
#142=ORIENTED_EDGE('',*,*,#248,.T.);
#143=ORIENTED_EDGE('',*,*,#228,.T.);
#144=ORIENTED_EDGE('',*,*,#249,.F.);
#145=ORIENTED_EDGE('',*,*,#250,.F.);
#146=ORIENTED_EDGE('',*,*,#246,.T.);
#147=ORIENTED_EDGE('',*,*,#227,.T.);
#148=ORIENTED_EDGE('',*,*,#251,.F.);
#149=ORIENTED_EDGE('',*,*,#252,.F.);
#150=ORIENTED_EDGE('',*,*,#249,.T.);
#151=ORIENTED_EDGE('',*,*,#226,.T.);
#152=ORIENTED_EDGE('',*,*,#253,.F.);
#153=ORIENTED_EDGE('',*,*,#254,.F.);
#154=ORIENTED_EDGE('',*,*,#251,.T.);
#155=ORIENTED_EDGE('',*,*,#225,.T.);
#156=ORIENTED_EDGE('',*,*,#255,.F.);
#157=ORIENTED_EDGE('',*,*,#256,.F.);
#158=ORIENTED_EDGE('',*,*,#253,.T.);
#159=ORIENTED_EDGE('',*,*,#224,.T.);
#160=ORIENTED_EDGE('',*,*,#248,.F.);
#161=ORIENTED_EDGE('',*,*,#257,.F.);
#162=ORIENTED_EDGE('',*,*,#255,.T.);
#163=ORIENTED_EDGE('',*,*,#217,.F.);
#164=ORIENTED_EDGE('',*,*,#247,.T.);
#165=ORIENTED_EDGE('',*,*,#250,.T.);
#166=ORIENTED_EDGE('',*,*,#252,.T.);
#167=ORIENTED_EDGE('',*,*,#254,.T.);
#168=ORIENTED_EDGE('',*,*,#256,.T.);
#169=ORIENTED_EDGE('',*,*,#257,.T.);
#170=ORIENTED_EDGE('',*,*,#236,.F.);
#171=ORIENTED_EDGE('',*,*,#258,.F.);
#172=ORIENTED_EDGE('',*,*,#241,.T.);
#173=ORIENTED_EDGE('',*,*,#212,.T.);
#174=ORIENTED_EDGE('',*,*,#240,.F.);
#175=ORIENTED_EDGE('',*,*,#259,.T.);
#176=ORIENTED_EDGE('',*,*,#229,.T.);
#177=ORIENTED_EDGE('',*,*,#214,.F.);
#178=ORIENTED_EDGE('',*,*,#231,.F.);
#179=ORIENTED_EDGE('',*,*,#260,.T.);
#180=ORIENTED_EDGE('',*,*,#238,.T.);
#181=ORIENTED_EDGE('',*,*,#261,.T.);
#182=ORIENTED_EDGE('',*,*,#244,.T.);
#183=ORIENTED_EDGE('',*,*,#262,.T.);
#184=ORIENTED_EDGE('',*,*,#233,.F.);
#185=ORIENTED_EDGE('',*,*,#263,.T.);
#186=ORIENTED_EDGE('',*,*,#235,.F.);
#187=ORIENTED_EDGE('',*,*,#264,.T.);
#188=ORIENTED_EDGE('',*,*,#242,.T.);
#189=ORIENTED_EDGE('',*,*,#258,.T.);
#190=ORIENTED_EDGE('',*,*,#222,.T.);
#191=ORIENTED_EDGE('',*,*,#210,.T.);
#192=ORIENTED_EDGE('',*,*,#265,.T.);
#193=ORIENTED_EDGE('',*,*,#211,.F.);
#194=ORIENTED_EDGE('',*,*,#266,.F.);
#195=ORIENTED_EDGE('',*,*,#237,.T.);
#196=ORIENTED_EDGE('',*,*,#265,.F.);
#197=ORIENTED_EDGE('',*,*,#266,.T.);
#198=ORIENTED_EDGE('',*,*,#239,.F.);
#199=ORIENTED_EDGE('',*,*,#260,.F.);
#200=ORIENTED_EDGE('',*,*,#230,.F.);
#201=ORIENTED_EDGE('',*,*,#259,.F.);
#202=ORIENTED_EDGE('',*,*,#243,.F.);
#203=ORIENTED_EDGE('',*,*,#264,.F.);
#204=ORIENTED_EDGE('',*,*,#234,.F.);
#205=ORIENTED_EDGE('',*,*,#262,.F.);
#206=ORIENTED_EDGE('',*,*,#245,.F.);
#207=ORIENTED_EDGE('',*,*,#263,.F.);
#208=ORIENTED_EDGE('',*,*,#232,.F.);
#209=ORIENTED_EDGE('',*,*,#261,.F.);
#210=EDGE_CURVE('',#267,#267,#309,.T.);
#211=EDGE_CURVE('',#268,#268,#310,.T.);
#212=EDGE_CURVE('',#269,#270,#12,.T.);
#213=EDGE_CURVE('',#269,#271,#311,.T.);
#214=EDGE_CURVE('',#271,#272,#13,.T.);
#215=EDGE_CURVE('',#270,#272,#312,.T.);
#216=EDGE_CURVE('',#273,#273,#313,.T.);
#217=EDGE_CURVE('',#274,#274,#314,.T.);
#218=EDGE_CURVE('',#275,#275,#315,.T.);
#219=EDGE_CURVE('',#276,#276,#316,.T.);
#220=EDGE_CURVE('',#277,#277,#317,.T.);
#221=EDGE_CURVE('',#278,#278,#318,.T.);
#222=EDGE_CURVE('',#279,#279,#319,.T.);
#223=EDGE_CURVE('',#280,#281,#14,.T.);
#224=EDGE_CURVE('',#282,#280,#15,.T.);
#225=EDGE_CURVE('',#283,#282,#16,.T.);
#226=EDGE_CURVE('',#284,#283,#17,.T.);
#227=EDGE_CURVE('',#285,#284,#18,.T.);
#228=EDGE_CURVE('',#281,#285,#19,.T.);
#229=EDGE_CURVE('',#286,#272,#20,.T.);
#230=EDGE_CURVE('',#286,#287,#320,.T.);
#231=EDGE_CURVE('',#287,#288,#21,.T.);
#232=EDGE_CURVE('',#288,#289,#321,.T.);
#233=EDGE_CURVE('',#289,#290,#22,.T.);
#234=EDGE_CURVE('',#290,#291,#322,.T.);
#235=EDGE_CURVE('',#291,#292,#23,.T.);
#236=EDGE_CURVE('',#292,#270,#24,.T.);
#237=EDGE_CURVE('',#293,#293,#323,.T.);
#238=EDGE_CURVE('',#294,#295,#25,.T.);
#239=EDGE_CURVE('',#294,#296,#324,.F.);
#240=EDGE_CURVE('',#296,#271,#26,.T.);
#241=EDGE_CURVE('',#297,#269,#27,.T.);
#242=EDGE_CURVE('',#298,#297,#28,.T.);
#243=EDGE_CURVE('',#298,#299,#325,.F.);
#244=EDGE_CURVE('',#300,#299,#29,.T.);
#245=EDGE_CURVE('',#300,#295,#326,.F.);
#246=EDGE_CURVE('',#301,#281,#30,.T.);
#247=EDGE_CURVE('',#302,#301,#31,.T.);
#248=EDGE_CURVE('',#302,#280,#32,.T.);
#249=EDGE_CURVE('',#303,#285,#33,.T.);
#250=EDGE_CURVE('',#301,#303,#34,.T.);
#251=EDGE_CURVE('',#304,#284,#35,.T.);
#252=EDGE_CURVE('',#303,#304,#36,.T.);
#253=EDGE_CURVE('',#305,#283,#37,.T.);
#254=EDGE_CURVE('',#304,#305,#38,.T.);
#255=EDGE_CURVE('',#306,#282,#39,.T.);
#256=EDGE_CURVE('',#305,#306,#40,.T.);
#257=EDGE_CURVE('',#306,#302,#41,.T.);
#258=EDGE_CURVE('',#297,#292,#42,.T.);
#259=EDGE_CURVE('',#296,#286,#43,.T.);
#260=EDGE_CURVE('',#287,#294,#44,.F.);
#261=EDGE_CURVE('',#295,#288,#45,.T.);
#262=EDGE_CURVE('',#299,#290,#46,.T.);
#263=EDGE_CURVE('',#289,#300,#47,.F.);
#264=EDGE_CURVE('',#291,#298,#48,.F.);
#265=EDGE_CURVE('',#307,#307,#327,.T.);
#266=EDGE_CURVE('',#308,#308,#328,.T.);
#267=VERTEX_POINT('',#660);
#268=VERTEX_POINT('',#662);
#269=VERTEX_POINT('',#665);
#270=VERTEX_POINT('',#666);
#271=VERTEX_POINT('',#668);
#272=VERTEX_POINT('',#670);
#273=VERTEX_POINT('',#674);
#274=VERTEX_POINT('',#676);
#275=VERTEX_POINT('',#679);
#276=VERTEX_POINT('',#681);
#277=VERTEX_POINT('',#684);
#278=VERTEX_POINT('',#686);
#279=VERTEX_POINT('',#691);
#280=VERTEX_POINT('',#693);
#281=VERTEX_POINT('',#694);
#282=VERTEX_POINT('',#696);
#283=VERTEX_POINT('',#698);
#284=VERTEX_POINT('',#700);
#285=VERTEX_POINT('',#702);
#286=VERTEX_POINT('',#705);
#287=VERTEX_POINT('',#707);
#288=VERTEX_POINT('',#709);
#289=VERTEX_POINT('',#711);
#290=VERTEX_POINT('',#713);
#291=VERTEX_POINT('',#715);
#292=VERTEX_POINT('',#717);
#293=VERTEX_POINT('',#721);
#294=VERTEX_POINT('',#723);
#295=VERTEX_POINT('',#724);
#296=VERTEX_POINT('',#726);
#297=VERTEX_POINT('',#729);
#298=VERTEX_POINT('',#731);
#299=VERTEX_POINT('',#733);
#300=VERTEX_POINT('',#735);
#301=VERTEX_POINT('',#739);
#302=VERTEX_POINT('',#741);
#303=VERTEX_POINT('',#745);
#304=VERTEX_POINT('',#749);
#305=VERTEX_POINT('',#753);
#306=VERTEX_POINT('',#757);
#307=VERTEX_POINT('',#777);
#308=VERTEX_POINT('',#780);
#309=CIRCLE('',#475,0.00215);
#310=CIRCLE('',#476,0.0035);
#311=CIRCLE('',#478,0.00475);
#312=CIRCLE('',#479,0.00475);
#313=CIRCLE('',#481,0.00215);
#314=CIRCLE('',#482,0.00215);
#315=CIRCLE('',#484,0.0032);
#316=CIRCLE('',#485,0.0032);
#317=CIRCLE('',#487,0.0038);
#318=CIRCLE('',#488,0.0038);
#319=CIRCLE('',#492,0.00215);
#320=CIRCLE('',#493,0.0055);
#321=CIRCLE('',#494,0.0055);
#322=CIRCLE('',#495,0.0055);
#323=CIRCLE('',#497,0.0055);
#324=CIRCLE('',#498,0.0055);
#325=CIRCLE('',#499,0.0055);
#326=CIRCLE('',#500,0.0055);
#327=CIRCLE('',#515,0.0035);
#328=CIRCLE('',#517,0.0055);
#329=EDGE_LOOP('',(#96));
#330=EDGE_LOOP('',(#97));
#331=EDGE_LOOP('',(#98,#99,#100,#101));
#332=EDGE_LOOP('',(#102));
#333=EDGE_LOOP('',(#103));
#334=EDGE_LOOP('',(#104));
#335=EDGE_LOOP('',(#105));
#336=EDGE_LOOP('',(#106));
#337=EDGE_LOOP('',(#107));
#338=EDGE_LOOP('',(#108));
#339=EDGE_LOOP('',(#109));
#340=EDGE_LOOP('',(#110));
#341=EDGE_LOOP('',(#111));
#342=EDGE_LOOP('',(#112));
#343=EDGE_LOOP('',(#113,#114,#115,#116,#117,#118));
#344=EDGE_LOOP('',(#119,#120,#121,#122,#123,#124,#125,#126,#127));
#345=EDGE_LOOP('',(#128));
#346=EDGE_LOOP('',(#129));
#347=EDGE_LOOP('',(#130,#131,#132,#133,#134,#135,#136,#137,#138));
#348=EDGE_LOOP('',(#139,#140,#141,#142));
#349=EDGE_LOOP('',(#143,#144,#145,#146));
#350=EDGE_LOOP('',(#147,#148,#149,#150));
#351=EDGE_LOOP('',(#151,#152,#153,#154));
#352=EDGE_LOOP('',(#155,#156,#157,#158));
#353=EDGE_LOOP('',(#159,#160,#161,#162));
#354=EDGE_LOOP('',(#163));
#355=EDGE_LOOP('',(#164,#165,#166,#167,#168,#169));
#356=EDGE_LOOP('',(#170,#171,#172,#173));
#357=EDGE_LOOP('',(#174,#175,#176,#177));
#358=EDGE_LOOP('',(#178,#179,#180,#181));
#359=EDGE_LOOP('',(#182,#183,#184,#185));
#360=EDGE_LOOP('',(#186,#187,#188,#189));
#361=EDGE_LOOP('',(#190));
#362=EDGE_LOOP('',(#191));
#363=EDGE_LOOP('',(#192));
#364=EDGE_LOOP('',(#193));
#365=EDGE_LOOP('',(#194));
#366=EDGE_LOOP('',(#195));
#367=EDGE_LOOP('',(#196));
#368=EDGE_LOOP('',(#197));
#369=EDGE_LOOP('',(#198,#199,#200,#201));
#370=EDGE_LOOP('',(#202,#203,#204,#205));
#371=EDGE_LOOP('',(#206,#207,#208,#209));
#372=FACE_BOUND('',#329,.T.);
#373=FACE_BOUND('',#330,.T.);
#374=FACE_BOUND('',#331,.T.);
#375=FACE_BOUND('',#332,.T.);
#376=FACE_BOUND('',#333,.T.);
#377=FACE_BOUND('',#334,.T.);
#378=FACE_BOUND('',#335,.T.);
#379=FACE_BOUND('',#336,.T.);
#380=FACE_BOUND('',#337,.T.);
#381=FACE_BOUND('',#338,.T.);
#382=FACE_BOUND('',#339,.T.);
#383=FACE_BOUND('',#340,.T.);
#384=FACE_BOUND('',#341,.T.);
#385=FACE_BOUND('',#342,.T.);
#386=FACE_BOUND('',#343,.T.);
#387=FACE_BOUND('',#344,.T.);
#388=FACE_BOUND('',#345,.T.);
#389=FACE_BOUND('',#346,.T.);
#390=FACE_BOUND('',#347,.T.);
#391=FACE_BOUND('',#348,.T.);
#392=FACE_BOUND('',#349,.T.);
#393=FACE_BOUND('',#350,.T.);
#394=FACE_BOUND('',#351,.T.);
#395=FACE_BOUND('',#352,.T.);
#396=FACE_BOUND('',#353,.T.);
#397=FACE_BOUND('',#354,.T.);
#398=FACE_BOUND('',#355,.T.);
#399=FACE_BOUND('',#356,.T.);
#400=FACE_BOUND('',#357,.T.);
#401=FACE_BOUND('',#358,.T.);
#402=FACE_BOUND('',#359,.T.);
#403=FACE_BOUND('',#360,.T.);
#404=FACE_BOUND('',#361,.T.);
#405=FACE_BOUND('',#362,.T.);
#406=FACE_BOUND('',#363,.T.);
#407=FACE_BOUND('',#364,.T.);
#408=FACE_BOUND('',#365,.T.);
#409=FACE_BOUND('',#366,.T.);
#410=FACE_BOUND('',#367,.T.);
#411=FACE_BOUND('',#368,.T.);
#412=FACE_BOUND('',#369,.T.);
#413=FACE_BOUND('',#370,.T.);
#414=FACE_BOUND('',#371,.T.);
#415=PLANE('',#474);
#416=PLANE('',#489);
#417=PLANE('',#490);
#418=PLANE('',#491);
#419=PLANE('',#496);
#420=PLANE('',#501);
#421=PLANE('',#502);
#422=PLANE('',#503);
#423=PLANE('',#504);
#424=PLANE('',#505);
#425=PLANE('',#506);
#426=PLANE('',#507);
#427=PLANE('',#508);
#428=PLANE('',#509);
#429=PLANE('',#510);
#430=PLANE('',#511);
#431=PLANE('',#512);
#432=PLANE('',#518);
#433=ADVANCED_FACE('',(#372,#373),#415,.F.);
#434=ADVANCED_FACE('',(#374),#86,.T.);
#435=ADVANCED_FACE('',(#375,#376),#87,.F.);
#436=ADVANCED_FACE('',(#377,#378),#88,.F.);
#437=ADVANCED_FACE('',(#379,#380),#89,.T.);
#438=ADVANCED_FACE('',(#381,#382),#416,.F.);
#439=ADVANCED_FACE('',(#383,#384),#417,.F.);
#440=ADVANCED_FACE('',(#385,#386,#387),#418,.T.);
#441=ADVANCED_FACE('',(#388,#389,#390),#419,.F.);
#442=ADVANCED_FACE('',(#391),#420,.F.);
#443=ADVANCED_FACE('',(#392),#421,.F.);
#444=ADVANCED_FACE('',(#393),#422,.F.);
#445=ADVANCED_FACE('',(#394),#423,.F.);
#446=ADVANCED_FACE('',(#395),#424,.F.);
#447=ADVANCED_FACE('',(#396),#425,.F.);
#448=ADVANCED_FACE('',(#397,#398),#426,.T.);
#449=ADVANCED_FACE('',(#399),#427,.T.);
#450=ADVANCED_FACE('',(#400),#428,.F.);
#451=ADVANCED_FACE('',(#401),#429,.T.);
#452=ADVANCED_FACE('',(#402),#430,.T.);
#453=ADVANCED_FACE('',(#403),#431,.T.);
#454=ADVANCED_FACE('',(#404,#405),#90,.F.);
#455=ADVANCED_FACE('',(#406,#407),#91,.T.);
#456=ADVANCED_FACE('',(#408,#409),#92,.F.);
#457=ADVANCED_FACE('',(#410,#411),#432,.T.);
#458=ADVANCED_FACE('',(#412),#93,.T.);
#459=ADVANCED_FACE('',(#413),#94,.T.);
#460=ADVANCED_FACE('',(#414),#95,.T.);
#461=CLOSED_SHELL('',(#433,#434,#435,#436,#437,#438,#439,#440,#441,#442,
#443,#444,#445,#446,#447,#448,#449,#450,#451,#452,#453,#454,#455,#456,#457,
#458,#459,#460));
#462=STYLED_ITEM('',(#463),#470);
#463=PRESENTATION_STYLE_ASSIGNMENT((#464));
#464=SURFACE_STYLE_USAGE(.BOTH.,#465);
#465=SURFACE_SIDE_STYLE('',(#466));
#466=SURFACE_STYLE_FILL_AREA(#467);
#467=FILL_AREA_STYLE('',(#468));
#468=FILL_AREA_STYLE_COLOUR('',#469);
#469=COLOUR_RGB('',0.972549019607843,0.529411764705882,0.00392156862745098);
#470=MANIFOLD_SOLID_BREP('Joint 1',#461);
#471=SHAPE_DEFINITION_REPRESENTATION(#791,#472);
#472=SHAPE_REPRESENTATION('Joint 1',(#473),#786);
#473=AXIS2_PLACEMENT_3D('',#657,#522,#523);
#474=AXIS2_PLACEMENT_3D('',#658,#524,#525);
#475=AXIS2_PLACEMENT_3D('',#659,#526,#527);
#476=AXIS2_PLACEMENT_3D('',#661,#528,#529);
#477=AXIS2_PLACEMENT_3D('',#663,#530,#531);
#478=AXIS2_PLACEMENT_3D('',#667,#533,#534);
#479=AXIS2_PLACEMENT_3D('',#671,#536,#537);
#480=AXIS2_PLACEMENT_3D('',#672,#538,#539);
#481=AXIS2_PLACEMENT_3D('',#673,#540,#541);
#482=AXIS2_PLACEMENT_3D('',#675,#542,#543);
#483=AXIS2_PLACEMENT_3D('',#677,#544,#545);
#484=AXIS2_PLACEMENT_3D('',#678,#546,#547);
#485=AXIS2_PLACEMENT_3D('',#680,#548,#549);
#486=AXIS2_PLACEMENT_3D('',#682,#550,#551);
#487=AXIS2_PLACEMENT_3D('',#683,#552,#553);
#488=AXIS2_PLACEMENT_3D('',#685,#554,#555);
#489=AXIS2_PLACEMENT_3D('',#687,#556,#557);
#490=AXIS2_PLACEMENT_3D('',#688,#558,#559);
#491=AXIS2_PLACEMENT_3D('',#689,#560,#561);
#492=AXIS2_PLACEMENT_3D('',#690,#562,#563);
#493=AXIS2_PLACEMENT_3D('',#706,#571,#572);
#494=AXIS2_PLACEMENT_3D('',#710,#574,#575);
#495=AXIS2_PLACEMENT_3D('',#714,#577,#578);
#496=AXIS2_PLACEMENT_3D('',#719,#581,#582);
#497=AXIS2_PLACEMENT_3D('',#720,#583,#584);
#498=AXIS2_PLACEMENT_3D('',#725,#586,#587);
#499=AXIS2_PLACEMENT_3D('',#732,#591,#592);
#500=AXIS2_PLACEMENT_3D('',#736,#594,#595);
#501=AXIS2_PLACEMENT_3D('',#737,#596,#597);
#502=AXIS2_PLACEMENT_3D('',#743,#601,#602);
#503=AXIS2_PLACEMENT_3D('',#747,#605,#606);
#504=AXIS2_PLACEMENT_3D('',#751,#609,#610);
#505=AXIS2_PLACEMENT_3D('',#755,#613,#614);
#506=AXIS2_PLACEMENT_3D('',#759,#617,#618);
#507=AXIS2_PLACEMENT_3D('',#761,#620,#621);
#508=AXIS2_PLACEMENT_3D('',#762,#622,#623);
#509=AXIS2_PLACEMENT_3D('',#764,#625,#626);
#510=AXIS2_PLACEMENT_3D('',#766,#628,#629);
#511=AXIS2_PLACEMENT_3D('',#769,#632,#633);
#512=AXIS2_PLACEMENT_3D('',#772,#636,#637);
#513=AXIS2_PLACEMENT_3D('',#774,#639,#640);
#514=AXIS2_PLACEMENT_3D('',#775,#641,#642);
#515=AXIS2_PLACEMENT_3D('',#776,#643,#644);
#516=AXIS2_PLACEMENT_3D('',#778,#645,#646);
#517=AXIS2_PLACEMENT_3D('',#779,#647,#648);
#518=AXIS2_PLACEMENT_3D('',#781,#649,#650);
#519=AXIS2_PLACEMENT_3D('',#782,#651,#652);
#520=AXIS2_PLACEMENT_3D('',#783,#653,#654);
#521=AXIS2_PLACEMENT_3D('',#784,#655,#656);
#522=DIRECTION('',(0.,0.,1.));
#523=DIRECTION('',(1.,0.,0.));
#524=DIRECTION('',(0.,1.,0.));
#525=DIRECTION('',(-1.,0.,0.));
#526=DIRECTION('',(0.,-1.,0.));
#527=DIRECTION('',(0.,0.,-1.));
#528=DIRECTION('',(0.,-1.,0.));
#529=DIRECTION('',(0.,0.,-1.));
#530=DIRECTION('',(0.,-1.,0.));
#531=DIRECTION('',(0.,0.,-1.));
#532=DIRECTION('',(0.,1.,0.));
#533=DIRECTION('',(0.,1.,0.));
#534=DIRECTION('',(0.,0.,1.));
#535=DIRECTION('',(0.,1.,0.));
#536=DIRECTION('',(0.,1.,0.));
#537=DIRECTION('',(0.,0.,1.));
#538=DIRECTION('',(0.,-1.,0.));
#539=DIRECTION('',(0.,0.,-1.));
#540=DIRECTION('',(0.,1.,0.));
#541=DIRECTION('',(0.,0.,1.));
#542=DIRECTION('',(0.,1.,0.));
#543=DIRECTION('',(0.,0.,1.));
#544=DIRECTION('',(0.,-1.,0.));
#545=DIRECTION('',(0.,0.,-1.));
#546=DIRECTION('',(0.,1.,0.));
#547=DIRECTION('',(0.,0.,1.));
#548=DIRECTION('',(0.,1.,0.));
#549=DIRECTION('',(0.,0.,1.));
#550=DIRECTION('',(0.,-1.,0.));
#551=DIRECTION('',(0.,0.,-1.));
#552=DIRECTION('',(0.,1.,0.));
#553=DIRECTION('',(0.,0.,1.));
#554=DIRECTION('',(0.,1.,0.));
#555=DIRECTION('',(0.,0.,1.));
#556=DIRECTION('',(0.,1.,0.));
#557=DIRECTION('',(-1.,0.,0.));
#558=DIRECTION('',(0.,1.,0.));
#559=DIRECTION('',(-1.,0.,0.));
#560=DIRECTION('',(0.,1.,0.));
#561=DIRECTION('',(-1.,0.,0.));
#562=DIRECTION('',(0.,1.,0.));
#563=DIRECTION('',(0.,0.,1.));
#564=DIRECTION('',(-0.866025403784439,0.,0.5));
#565=DIRECTION('',(-0.866025403784438,0.,-0.5));
#566=DIRECTION('',(3.20493781063927E-15,0.,-1.));
#567=DIRECTION('',(0.86602540378444,0.,-0.5));
#568=DIRECTION('',(0.866025403784438,0.,0.5));
#569=DIRECTION('',(0.,0.,1.));
#570=DIRECTION('',(-0.958672169941389,0.,-0.284513041141997));
#571=DIRECTION('',(0.,1.,0.));
#572=DIRECTION('',(0.,0.,1.));
#573=DIRECTION('',(1.,0.,0.));
#574=DIRECTION('',(0.,1.,0.));
#575=DIRECTION('',(0.,0.,1.));
#576=DIRECTION('',(0.,0.,-1.));
#577=DIRECTION('',(0.,1.,0.));
#578=DIRECTION('',(0.,0.,1.));
#579=DIRECTION('',(-1.,0.,0.));
#580=DIRECTION('',(-0.999892327923706,0.,0.0146742140952047));
#581=DIRECTION('',(0.,1.,0.));
#582=DIRECTION('',(-1.,0.,0.));
#583=DIRECTION('',(0.,-1.,0.));
#584=DIRECTION('',(0.,0.,-1.));
#585=DIRECTION('',(1.,0.,0.));
#586=DIRECTION('',(0.,1.,0.));
#587=DIRECTION('',(0.,0.,1.));
#588=DIRECTION('',(-0.958672169941389,0.,-0.284513041141997));
#589=DIRECTION('',(-0.999892327923706,0.,0.0146742140952047));
#590=DIRECTION('',(-1.,0.,0.));
#591=DIRECTION('',(0.,1.,0.));
#592=DIRECTION('',(0.,0.,1.));
#593=DIRECTION('',(0.,0.,-1.));
#594=DIRECTION('',(0.,1.,0.));
#595=DIRECTION('',(0.,0.,1.));
#596=DIRECTION('',(-0.5,0.,-0.866025403784439));
#597=DIRECTION('',(-0.866025403784439,0.,0.5));
#598=DIRECTION('',(0.,1.,0.));
#599=DIRECTION('',(-0.866025403784439,0.,0.5));
#600=DIRECTION('',(0.,1.,0.));
#601=DIRECTION('',(-1.,0.,0.));
#602=DIRECTION('',(0.,0.,1.));
#603=DIRECTION('',(0.,1.,0.));
#604=DIRECTION('',(0.,0.,1.));
#605=DIRECTION('',(-0.5,0.,0.866025403784438));
#606=DIRECTION('',(0.866025403784438,0.,0.5));
#607=DIRECTION('',(0.,1.,0.));
#608=DIRECTION('',(0.866025403784438,0.,0.5));
#609=DIRECTION('',(0.5,0.,0.86602540378444));
#610=DIRECTION('',(0.86602540378444,0.,-0.5));
#611=DIRECTION('',(0.,1.,0.));
#612=DIRECTION('',(0.86602540378444,0.,-0.5));
#613=DIRECTION('',(1.,0.,3.20493781063927E-15));
#614=DIRECTION('',(3.20493781063927E-15,0.,-1.));
#615=DIRECTION('',(0.,1.,0.));
#616=DIRECTION('',(3.20493781063927E-15,0.,-1.));
#617=DIRECTION('',(0.5,0.,-0.866025403784438));
#618=DIRECTION('',(-0.866025403784438,0.,-0.5));
#619=DIRECTION('',(-0.866025403784438,0.,-0.5));
#620=DIRECTION('',(0.,1.,0.));
#621=DIRECTION('',(-1.,0.,0.));
#622=DIRECTION('',(-0.0146742140952047,0.,-0.999892327923706));
#623=DIRECTION('',(-0.999892327923706,0.,0.0146742140952047));
#624=DIRECTION('',(0.,1.,0.));
#625=DIRECTION('',(0.284513041141997,0.,-0.958672169941389));
#626=DIRECTION('',(-0.95867216994139,0.,-0.284513041141997));
#627=DIRECTION('',(0.,1.,0.));
#628=DIRECTION('',(0.,0.,1.));
#629=DIRECTION('',(1.,0.,0.));
#630=DIRECTION('',(0.,1.,0.));
#631=DIRECTION('',(0.,1.,0.));
#632=DIRECTION('',(1.,0.,0.));
#633=DIRECTION('',(0.,0.,-1.));
#634=DIRECTION('',(0.,1.,0.));
#635=DIRECTION('',(0.,1.,0.));
#636=DIRECTION('',(0.,0.,-1.));
#637=DIRECTION('',(-1.,0.,0.));
#638=DIRECTION('',(0.,1.,0.));
#639=DIRECTION('',(0.,-1.,0.));
#640=DIRECTION('',(0.,0.,-1.));
#641=DIRECTION('',(0.,-1.,0.));
#642=DIRECTION('',(0.,0.,-1.));
#643=DIRECTION('',(0.,-1.,0.));
#644=DIRECTION('',(0.,0.,-1.));
#645=DIRECTION('',(0.,-1.,0.));
#646=DIRECTION('',(0.,0.,-1.));
#647=DIRECTION('',(0.,-1.,0.));
#648=DIRECTION('',(0.,0.,-1.));
#649=DIRECTION('',(0.,-1.,0.));
#650=DIRECTION('',(1.,0.,0.));
#651=DIRECTION('',(0.,-1.,0.));
#652=DIRECTION('',(0.,0.,-1.));
#653=DIRECTION('',(0.,1.,0.));
#654=DIRECTION('',(0.,0.,1.));
#655=DIRECTION('',(0.,1.,0.));
#656=DIRECTION('',(0.,0.,1.));
#657=CARTESIAN_POINT('',(0.,0.,0.));
#658=CARTESIAN_POINT('',(0.04025,-0.0295,0.009));
#659=CARTESIAN_POINT('',(0.05975,-0.0295,0.0115));
#660=CARTESIAN_POINT('',(0.05975,-0.0295,0.00935));
#661=CARTESIAN_POINT('',(0.05975,-0.0295,0.0115));
#662=CARTESIAN_POINT('',(0.05975,-0.0295,0.008));
#663=CARTESIAN_POINT('',(0.04025,-0.0195,0.009));
#664=CARTESIAN_POINT('',(0.0401802974830478,-0.0295,0.0042505114423624));
#665=CARTESIAN_POINT('',(0.0401802974830478,-0.0295,0.0042505114423624));
#666=CARTESIAN_POINT('',(0.0401802974830478,-0.0195,0.0042505114423624));
#667=CARTESIAN_POINT('',(0.04025,-0.0295,0.009));
#668=CARTESIAN_POINT('',(0.0388985630545755,-0.0295,0.0135536928072216));
#669=CARTESIAN_POINT('',(0.0388985630545755,-0.0295,0.0135536928072216));
#670=CARTESIAN_POINT('',(0.0388985630545755,-0.0195,0.0135536928072216));
#671=CARTESIAN_POINT('',(0.04025,-0.0195,0.009));
#672=CARTESIAN_POINT('',(0.04025,-0.0195,0.009));
#673=CARTESIAN_POINT('',(0.04025,-0.0295,0.009));
#674=CARTESIAN_POINT('',(0.04025,-0.0295,0.01115));
#675=CARTESIAN_POINT('',(0.04025,-0.0245,0.009));
#676=CARTESIAN_POINT('',(0.04025,-0.0245,0.01115));
#677=CARTESIAN_POINT('',(0.04025,-0.0295,0.009));
#678=CARTESIAN_POINT('',(0.04025,-0.0295,0.009));
#679=CARTESIAN_POINT('',(0.04025,-0.0295,0.0122));
#680=CARTESIAN_POINT('',(0.04025,-0.035,0.009));
#681=CARTESIAN_POINT('',(0.04025,-0.035,0.0122));
#682=CARTESIAN_POINT('',(0.04025,-0.0295,0.009));
#683=CARTESIAN_POINT('',(0.04025,-0.0295,0.009));
#684=CARTESIAN_POINT('',(0.04025,-0.0295,0.0128));
#685=CARTESIAN_POINT('',(0.04025,-0.035,0.009));
#686=CARTESIAN_POINT('',(0.04025,-0.035,0.0128));
#687=CARTESIAN_POINT('',(0.04025,-0.035,0.009));
#688=CARTESIAN_POINT('',(0.04025,-0.0295,0.009));
#689=CARTESIAN_POINT('',(0.04025,-0.0195,0.009));
#690=CARTESIAN_POINT('',(0.05975,-0.0195,0.0115));
#691=CARTESIAN_POINT('',(0.05975,-0.0195,0.01365));
#692=CARTESIAN_POINT('',(0.038375,-0.0195,0.00575240473580835));
#693=CARTESIAN_POINT('',(0.04025,-0.0195,0.00466987298107781));
#694=CARTESIAN_POINT('',(0.0365,-0.0195,0.0068349364905389));
#695=CARTESIAN_POINT('',(0.042125,-0.0195,0.00575240473580836));
#696=CARTESIAN_POINT('',(0.044,-0.0195,0.00683493649053891));
#697=CARTESIAN_POINT('',(0.044,-0.0195,0.009));
#698=CARTESIAN_POINT('',(0.044,-0.0195,0.0111650635094611));
#699=CARTESIAN_POINT('',(0.042125,-0.0195,0.0122475952641916));
#700=CARTESIAN_POINT('',(0.04025,-0.0195,0.0133301270189222));
#701=CARTESIAN_POINT('',(0.038375,-0.0195,0.0122475952641916));
#702=CARTESIAN_POINT('',(0.0365,-0.0195,0.0111650635094611));
#703=CARTESIAN_POINT('',(0.0365,-0.0195,0.009));
#704=CARTESIAN_POINT('',(0.0480742815272877,-0.0195,0.0162768464036108));
#705=CARTESIAN_POINT('',(0.0564840979450634,-0.0195,0.0187726969346777));
#706=CARTESIAN_POINT('',(0.0580489196713444,-0.0195,0.0135));
#707=CARTESIAN_POINT('',(0.0580489196713444,-0.0195,0.019));
#708=CARTESIAN_POINT('',(0.06225,-0.0195,0.019));
#709=CARTESIAN_POINT('',(0.06175,-0.0195,0.019));
#710=CARTESIAN_POINT('',(0.06175,-0.0195,0.0135));
#711=CARTESIAN_POINT('',(0.06725,-0.0195,0.0135));
#712=CARTESIAN_POINT('',(0.06725,-0.0195,0.0115));
#713=CARTESIAN_POINT('',(0.06725,-0.0195,0.0095));
#714=CARTESIAN_POINT('',(0.06175,-0.0195,0.0095));
#715=CARTESIAN_POINT('',(0.06175,-0.0195,0.00400000000000005));
#716=CARTESIAN_POINT('',(0.06225,-0.0195,0.00400000000000005));
#717=CARTESIAN_POINT('',(0.05725,-0.0195,0.00400000000000005));
#718=CARTESIAN_POINT('',(0.0487151487415239,-0.0195,0.00412525572118123));
#719=CARTESIAN_POINT('',(0.04025,-0.0295,0.009));
#720=CARTESIAN_POINT('',(0.05975,-0.0295,0.0115));
#721=CARTESIAN_POINT('',(0.05975,-0.0295,0.006));
#722=CARTESIAN_POINT('',(0.06225,-0.0295,0.019));
#723=CARTESIAN_POINT('',(0.0580489196713444,-0.0295,0.019));
#724=CARTESIAN_POINT('',(0.06175,-0.0295,0.019));
#725=CARTESIAN_POINT('',(0.0580489196713444,-0.0295,0.0135));
#726=CARTESIAN_POINT('',(0.0564840979450634,-0.0295,0.0187726969346777));
#727=CARTESIAN_POINT('',(0.0480742815272877,-0.0295,0.0162768464036108));
#728=CARTESIAN_POINT('',(0.0487151487415239,-0.0295,0.00412525572118123));
#729=CARTESIAN_POINT('',(0.05725,-0.0295,0.00400000000000005));
#730=CARTESIAN_POINT('',(0.06225,-0.0295,0.00400000000000005));
#731=CARTESIAN_POINT('',(0.06175,-0.0295,0.00400000000000005));
#732=CARTESIAN_POINT('',(0.06175,-0.0295,0.0095));
#733=CARTESIAN_POINT('',(0.06725,-0.0295,0.0095));
#734=CARTESIAN_POINT('',(0.06725,-0.0295,0.0115));
#735=CARTESIAN_POINT('',(0.06725,-0.0295,0.0135));
#736=CARTESIAN_POINT('',(0.06175,-0.0295,0.0135));
#737=CARTESIAN_POINT('',(0.038375,-0.0245,0.00575240473580835));
#738=CARTESIAN_POINT('',(0.0365,-0.0245,0.0068349364905389));
#739=CARTESIAN_POINT('',(0.0365,-0.0245,0.0068349364905389));
#740=CARTESIAN_POINT('',(0.038375,-0.0245,0.00575240473580835));
#741=CARTESIAN_POINT('',(0.04025,-0.0245,0.00466987298107781));
#742=CARTESIAN_POINT('',(0.04025,-0.0245,0.00466987298107781));
#743=CARTESIAN_POINT('',(0.0365,-0.0245,0.009));
#744=CARTESIAN_POINT('',(0.0365,-0.0245,0.0111650635094611));
#745=CARTESIAN_POINT('',(0.0365,-0.0245,0.0111650635094611));
#746=CARTESIAN_POINT('',(0.0365,-0.0245,0.009));
#747=CARTESIAN_POINT('',(0.038375,-0.0245,0.0122475952641916));
#748=CARTESIAN_POINT('',(0.04025,-0.0245,0.0133301270189222));
#749=CARTESIAN_POINT('',(0.04025,-0.0245,0.0133301270189222));
#750=CARTESIAN_POINT('',(0.038375,-0.0245,0.0122475952641916));
#751=CARTESIAN_POINT('',(0.042125,-0.0245,0.0122475952641916));
#752=CARTESIAN_POINT('',(0.044,-0.0245,0.0111650635094611));
#753=CARTESIAN_POINT('',(0.044,-0.0245,0.0111650635094611));
#754=CARTESIAN_POINT('',(0.042125,-0.0245,0.0122475952641916));
#755=CARTESIAN_POINT('',(0.044,-0.0245,0.009));
#756=CARTESIAN_POINT('',(0.044,-0.0245,0.00683493649053891));
#757=CARTESIAN_POINT('',(0.044,-0.0245,0.00683493649053891));
#758=CARTESIAN_POINT('',(0.044,-0.0245,0.009));
#759=CARTESIAN_POINT('',(0.042125,-0.0245,0.00575240473580836));
#760=CARTESIAN_POINT('',(0.042125,-0.0245,0.00575240473580836));
#761=CARTESIAN_POINT('',(0.04025,-0.0245,0.009));
#762=CARTESIAN_POINT('',(0.0487151487415239,-0.0295,0.00412525572118123));
#763=CARTESIAN_POINT('',(0.05725,-0.0295,0.00400000000000005));
#764=CARTESIAN_POINT('',(0.0480742815272877,-0.0295,0.0162768464036108));
#765=CARTESIAN_POINT('',(0.0564840979450634,-0.0195,0.0187726969346777));
#766=CARTESIAN_POINT('',(0.06225,-0.0295,0.019));
#767=CARTESIAN_POINT('',(0.0580489196713444,-0.0295,0.019));
#768=CARTESIAN_POINT('',(0.06175,-0.0295,0.019));
#769=CARTESIAN_POINT('',(0.06725,-0.0295,0.0115));
#770=CARTESIAN_POINT('',(0.06725,-0.0295,0.0095));
#771=CARTESIAN_POINT('',(0.06725,-0.0295,0.0135));
#772=CARTESIAN_POINT('',(0.06225,-0.0295,0.00400000000000005));
#773=CARTESIAN_POINT('',(0.06175,-0.0295,0.00400000000000005));
#774=CARTESIAN_POINT('',(0.05975,-0.00449999999999995,0.0115));
#775=CARTESIAN_POINT('',(0.05975,-0.0245,0.0115));
#776=CARTESIAN_POINT('',(0.05975,-0.0245,0.0115));
#777=CARTESIAN_POINT('',(0.05975,-0.0245,0.008));
#778=CARTESIAN_POINT('',(0.05975,-0.0245,0.0115));
#779=CARTESIAN_POINT('',(0.05975,-0.0245,0.0115));
#780=CARTESIAN_POINT('',(0.05975,-0.0245,0.006));
#781=CARTESIAN_POINT('',(0.051375,-0.0245,0.0115));
#782=CARTESIAN_POINT('',(0.0580489196713444,-0.0295,0.0135));
#783=CARTESIAN_POINT('',(0.06175,-0.0295,0.0095));
#784=CARTESIAN_POINT('',(0.06175,-0.0295,0.0135));
#785=MECHANICAL_DESIGN_GEOMETRIC_PRESENTATION_REPRESENTATION('',(#462),
#786);
#786=(
GEOMETRIC_REPRESENTATION_CONTEXT(3)
GLOBAL_UNCERTAINTY_ASSIGNED_CONTEXT((#787))
GLOBAL_UNIT_ASSIGNED_CONTEXT((#790,#789,#788))
REPRESENTATION_CONTEXT('Joint 1','TOP_LEVEL_ASSEMBLY_PART')
);
#787=UNCERTAINTY_MEASURE_WITH_UNIT(LENGTH_MEASURE(1.E-8),#790,
'DISTANCE_ACCURACY_VALUE','Maximum Tolerance applied to model');
#788=(
NAMED_UNIT(*)
SI_UNIT($,.STERADIAN.)
SOLID_ANGLE_UNIT()
);
#789=(
NAMED_UNIT(*)
PLANE_ANGLE_UNIT()
SI_UNIT($,.RADIAN.)
);
#790=(
LENGTH_UNIT()
NAMED_UNIT(*)
SI_UNIT($,.METRE.)
);
#791=PRODUCT_DEFINITION_SHAPE('','',#792);
#792=PRODUCT_DEFINITION('','',#794,#793);
#793=PRODUCT_DEFINITION_CONTEXT('',#800,'design');
#794=PRODUCT_DEFINITION_FORMATION_WITH_SPECIFIED_SOURCE('','',#796,
 .NOT_KNOWN.);
#795=PRODUCT_RELATED_PRODUCT_CATEGORY('','',(#796));
#796=PRODUCT('Joint 1','Joint 1','Joint 1',(#798));
#797=PRODUCT_CATEGORY('','');
#798=PRODUCT_CONTEXT('',#800,'mechanical');
#799=APPLICATION_PROTOCOL_DEFINITION('international standard',
'ap242_managed_model_based_3d_engineering',2020,#800);
#800=APPLICATION_CONTEXT('managed model based 3d engineering');
ENDSEC;
END-ISO-10303-21;
