ISO-10303-21;
HEADER;
/* Generated by software containing ST-Developer
 * from STEP Tools, Inc. (www.steptools.com) 
 */
/* OPTION: using custom renumber hook */

FILE_DESCRIPTION(
/* description */ ('STEP AP242 Edition 2',
'CAx-IF Rec.Pracs.---Representation and Presentation of Product Manufa
cturing Information (PMI)---4.0---2014-10-13',
'CAx-IF Rec.Pracs.---3D Tessellated Geometry---0.4---2014-09-14','2;1',
'CAx-IF Rec.Pracs.---User Defined Attributes---1.5---2016-08-15'),
/* implementation_level */ '2;1');

FILE_NAME(
/* name */ 'Assembly 1 - Joint 3',
/* time_stamp */ '2026-07-26T17:36:16Z',
/* author */ (''),
/* organization */ (''),
/* preprocessor_version */ 'ST-DEVELOPER v20',
/* originating_system */ 'ONSHAPE BY PTC INC, 1.218',
/* authorisation */ '  ');

FILE_SCHEMA (('AP242_MANAGED_MODEL_BASED_3D_ENGINEERING_MIM_LF { 1 0 10303 442 3 1 4 }'));
ENDSEC;

DATA;
#10=SHAPE_REPRESENTATION_RELATIONSHIP('','',#451,#11);
#11=ADVANCED_BREP_SHAPE_REPRESENTATION('',(#449),#753);
#12=LINE('',#639,#46);
#13=LINE('',#642,#47);
#14=LINE('',#644,#48);
#15=LINE('',#650,#49);
#16=LINE('',#653,#50);
#17=LINE('',#655,#51);
#18=LINE('',#661,#52);
#19=LINE('',#663,#53);
#20=LINE('',#665,#54);
#21=LINE('',#668,#55);
#22=LINE('',#670,#56);
#23=LINE('',#673,#57);
#24=LINE('',#675,#58);
#25=LINE('',#677,#59);
#26=LINE('',#679,#60);
#27=LINE('',#681,#61);
#28=LINE('',#682,#62);
#29=LINE('',#685,#63);
#30=LINE('',#695,#64);
#31=LINE('',#697,#65);
#32=LINE('',#699,#66);
#33=LINE('',#709,#67);
#34=LINE('',#727,#68);
#35=LINE('',#729,#69);
#36=LINE('',#731,#70);
#37=LINE('',#733,#71);
#38=LINE('',#735,#72);
#39=LINE('',#737,#73);
#40=LINE('',#739,#74);
#41=LINE('',#741,#75);
#42=LINE('',#743,#76);
#43=LINE('',#745,#77);
#44=LINE('',#747,#78);
#45=LINE('',#749,#79);
#46=VECTOR('',#512,1.);
#47=VECTOR('',#513,1.);
#48=VECTOR('',#514,1.);
#49=VECTOR('',#521,1.);
#50=VECTOR('',#522,1.);
#51=VECTOR('',#523,1.);
#52=VECTOR('',#530,1.);
#53=VECTOR('',#531,1.);
#54=VECTOR('',#532,1.);
#55=VECTOR('',#535,1.);
#56=VECTOR('',#538,1.);
#57=VECTOR('',#539,1.);
#58=VECTOR('',#540,1.);
#59=VECTOR('',#541,1.);
#60=VECTOR('',#542,1.);
#61=VECTOR('',#543,1.);
#62=VECTOR('',#544,1.);
#63=VECTOR('',#545,1.);
#64=VECTOR('',#558,1.);
#65=VECTOR('',#561,1.);
#66=VECTOR('',#562,1.);
#67=VECTOR('',#577,1.);
#68=VECTOR('',#604,1.);
#69=VECTOR('',#605,1.);
#70=VECTOR('',#606,1.);
#71=VECTOR('',#609,1.);
#72=VECTOR('',#610,1.);
#73=VECTOR('',#613,1.);
#74=VECTOR('',#614,1.);
#75=VECTOR('',#617,1.);
#76=VECTOR('',#618,1.);
#77=VECTOR('',#621,1.);
#78=VECTOR('',#622,1.);
#79=VECTOR('',#625,1.);
#80=PLANE('',#456);
#81=PLANE('',#459);
#82=PLANE('',#462);
#83=PLANE('',#465);
#84=PLANE('',#472);
#85=PLANE('',#473);
#86=PLANE('',#477);
#87=PLANE('',#478);
#88=PLANE('',#488);
#89=PLANE('',#489);
#90=PLANE('',#492);
#91=PLANE('',#493);
#92=PLANE('',#494);
#93=PLANE('',#495);
#94=PLANE('',#496);
#95=PLANE('',#497);
#96=PLANE('',#498);
#97=ORIENTED_EDGE('',*,*,#205,.F.);
#98=ORIENTED_EDGE('',*,*,#206,.T.);
#99=ORIENTED_EDGE('',*,*,#207,.F.);
#100=ORIENTED_EDGE('',*,*,#208,.F.);
#101=ORIENTED_EDGE('',*,*,#209,.T.);
#102=ORIENTED_EDGE('',*,*,#210,.T.);
#103=ORIENTED_EDGE('',*,*,#211,.F.);
#104=ORIENTED_EDGE('',*,*,#212,.F.);
#105=ORIENTED_EDGE('',*,*,#213,.T.);
#106=ORIENTED_EDGE('',*,*,#214,.T.);
#107=ORIENTED_EDGE('',*,*,#215,.F.);
#108=ORIENTED_EDGE('',*,*,#216,.T.);
#109=ORIENTED_EDGE('',*,*,#210,.F.);
#110=ORIENTED_EDGE('',*,*,#217,.T.);
#111=ORIENTED_EDGE('',*,*,#218,.F.);
#112=ORIENTED_EDGE('',*,*,#219,.T.);
#113=ORIENTED_EDGE('',*,*,#220,.T.);
#114=ORIENTED_EDGE('',*,*,#221,.T.);
#115=ORIENTED_EDGE('',*,*,#213,.F.);
#116=ORIENTED_EDGE('',*,*,#222,.F.);
#117=ORIENTED_EDGE('',*,*,#223,.F.);
#118=ORIENTED_EDGE('',*,*,#224,.F.);
#119=ORIENTED_EDGE('',*,*,#225,.F.);
#120=ORIENTED_EDGE('',*,*,#226,.F.);
#121=ORIENTED_EDGE('',*,*,#227,.F.);
#122=ORIENTED_EDGE('',*,*,#228,.F.);
#123=ORIENTED_EDGE('',*,*,#229,.F.);
#124=ORIENTED_EDGE('',*,*,#230,.T.);
#125=ORIENTED_EDGE('',*,*,#220,.F.);
#126=ORIENTED_EDGE('',*,*,#231,.T.);
#127=ORIENTED_EDGE('',*,*,#232,.F.);
#128=ORIENTED_EDGE('',*,*,#233,.F.);
#129=ORIENTED_EDGE('',*,*,#219,.F.);
#130=ORIENTED_EDGE('',*,*,#234,.T.);
#131=ORIENTED_EDGE('',*,*,#235,.T.);
#132=ORIENTED_EDGE('',*,*,#231,.F.);
#133=ORIENTED_EDGE('',*,*,#232,.T.);
#134=ORIENTED_EDGE('',*,*,#218,.T.);
#135=ORIENTED_EDGE('',*,*,#236,.T.);
#136=ORIENTED_EDGE('',*,*,#237,.T.);
#137=ORIENTED_EDGE('',*,*,#234,.F.);
#138=ORIENTED_EDGE('',*,*,#238,.T.);
#139=ORIENTED_EDGE('',*,*,#233,.T.);
#140=ORIENTED_EDGE('',*,*,#239,.T.);
#141=ORIENTED_EDGE('',*,*,#238,.F.);
#142=ORIENTED_EDGE('',*,*,#205,.T.);
#143=ORIENTED_EDGE('',*,*,#239,.F.);
#144=ORIENTED_EDGE('',*,*,#237,.F.);
#145=ORIENTED_EDGE('',*,*,#240,.T.);
#146=ORIENTED_EDGE('',*,*,#208,.T.);
#147=ORIENTED_EDGE('',*,*,#241,.T.);
#148=ORIENTED_EDGE('',*,*,#215,.T.);
#149=ORIENTED_EDGE('',*,*,#242,.T.);
#150=ORIENTED_EDGE('',*,*,#229,.T.);
#151=ORIENTED_EDGE('',*,*,#235,.F.);
#152=ORIENTED_EDGE('',*,*,#211,.T.);
#153=ORIENTED_EDGE('',*,*,#222,.T.);
#154=ORIENTED_EDGE('',*,*,#216,.F.);
#155=ORIENTED_EDGE('',*,*,#241,.F.);
#156=ORIENTED_EDGE('',*,*,#217,.F.);
#157=ORIENTED_EDGE('',*,*,#209,.F.);
#158=ORIENTED_EDGE('',*,*,#240,.F.);
#159=ORIENTED_EDGE('',*,*,#236,.F.);
#160=ORIENTED_EDGE('',*,*,#243,.T.);
#161=ORIENTED_EDGE('',*,*,#244,.F.);
#162=ORIENTED_EDGE('',*,*,#245,.F.);
#163=ORIENTED_EDGE('',*,*,#207,.T.);
#164=ORIENTED_EDGE('',*,*,#243,.F.);
#165=ORIENTED_EDGE('',*,*,#245,.T.);
#166=ORIENTED_EDGE('',*,*,#246,.F.);
#167=ORIENTED_EDGE('',*,*,#244,.T.);
#168=ORIENTED_EDGE('',*,*,#212,.T.);
#169=ORIENTED_EDGE('',*,*,#246,.T.);
#170=ORIENTED_EDGE('',*,*,#223,.T.);
#171=ORIENTED_EDGE('',*,*,#247,.F.);
#172=ORIENTED_EDGE('',*,*,#248,.F.);
#173=ORIENTED_EDGE('',*,*,#249,.T.);
#174=ORIENTED_EDGE('',*,*,#228,.T.);
#175=ORIENTED_EDGE('',*,*,#250,.F.);
#176=ORIENTED_EDGE('',*,*,#251,.F.);
#177=ORIENTED_EDGE('',*,*,#247,.T.);
#178=ORIENTED_EDGE('',*,*,#227,.T.);
#179=ORIENTED_EDGE('',*,*,#252,.F.);
#180=ORIENTED_EDGE('',*,*,#253,.F.);
#181=ORIENTED_EDGE('',*,*,#250,.T.);
#182=ORIENTED_EDGE('',*,*,#226,.T.);
#183=ORIENTED_EDGE('',*,*,#254,.F.);
#184=ORIENTED_EDGE('',*,*,#255,.F.);
#185=ORIENTED_EDGE('',*,*,#252,.T.);
#186=ORIENTED_EDGE('',*,*,#225,.T.);
#187=ORIENTED_EDGE('',*,*,#256,.F.);
#188=ORIENTED_EDGE('',*,*,#257,.F.);
#189=ORIENTED_EDGE('',*,*,#254,.T.);
#190=ORIENTED_EDGE('',*,*,#224,.T.);
#191=ORIENTED_EDGE('',*,*,#249,.F.);
#192=ORIENTED_EDGE('',*,*,#258,.F.);
#193=ORIENTED_EDGE('',*,*,#256,.T.);
#194=ORIENTED_EDGE('',*,*,#206,.F.);
#195=ORIENTED_EDGE('',*,*,#248,.T.);
#196=ORIENTED_EDGE('',*,*,#251,.T.);
#197=ORIENTED_EDGE('',*,*,#253,.T.);
#198=ORIENTED_EDGE('',*,*,#255,.T.);
#199=ORIENTED_EDGE('',*,*,#257,.T.);
#200=ORIENTED_EDGE('',*,*,#258,.T.);
#201=ORIENTED_EDGE('',*,*,#242,.F.);
#202=ORIENTED_EDGE('',*,*,#214,.F.);
#203=ORIENTED_EDGE('',*,*,#221,.F.);
#204=ORIENTED_EDGE('',*,*,#230,.F.);
#205=EDGE_CURVE('',#259,#259,#299,.T.);
#206=EDGE_CURVE('',#260,#260,#300,.T.);
#207=EDGE_CURVE('',#261,#261,#301,.T.);
#208=EDGE_CURVE('',#262,#263,#12,.T.);
#209=EDGE_CURVE('',#262,#264,#13,.F.);
#210=EDGE_CURVE('',#264,#265,#14,.T.);
#211=EDGE_CURVE('',#263,#265,#302,.T.);
#212=EDGE_CURVE('',#266,#266,#303,.T.);
#213=EDGE_CURVE('',#267,#268,#15,.T.);
#214=EDGE_CURVE('',#268,#269,#16,.F.);
#215=EDGE_CURVE('',#270,#269,#17,.T.);
#216=EDGE_CURVE('',#270,#267,#304,.T.);
#217=EDGE_CURVE('',#264,#271,#305,.F.);
#218=EDGE_CURVE('',#272,#271,#18,.T.);
#219=EDGE_CURVE('',#272,#273,#19,.T.);
#220=EDGE_CURVE('',#273,#274,#20,.T.);
#221=EDGE_CURVE('',#274,#268,#306,.T.);
#222=EDGE_CURVE('',#265,#267,#21,.T.);
#223=EDGE_CURVE('',#275,#276,#22,.T.);
#224=EDGE_CURVE('',#277,#275,#23,.T.);
#225=EDGE_CURVE('',#278,#277,#24,.T.);
#226=EDGE_CURVE('',#279,#278,#25,.T.);
#227=EDGE_CURVE('',#280,#279,#26,.T.);
#228=EDGE_CURVE('',#276,#280,#27,.T.);
#229=EDGE_CURVE('',#281,#282,#28,.T.);
#230=EDGE_CURVE('',#281,#274,#29,.T.);
#231=EDGE_CURVE('',#273,#282,#307,.T.);
#232=EDGE_CURVE('',#283,#283,#308,.T.);
#233=EDGE_CURVE('',#284,#284,#309,.F.);
#234=EDGE_CURVE('',#272,#285,#310,.T.);
#235=EDGE_CURVE('',#285,#282,#30,.T.);
#236=EDGE_CURVE('',#271,#286,#31,.T.);
#237=EDGE_CURVE('',#286,#285,#32,.T.);
#238=EDGE_CURVE('',#287,#287,#311,.T.);
#239=EDGE_CURVE('',#288,#288,#312,.T.);
#240=EDGE_CURVE('',#286,#262,#313,.F.);
#241=EDGE_CURVE('',#263,#270,#33,.T.);
#242=EDGE_CURVE('',#269,#281,#314,.T.);
#243=EDGE_CURVE('',#289,#289,#315,.T.);
#244=EDGE_CURVE('',#290,#290,#316,.T.);
#245=EDGE_CURVE('',#291,#291,#317,.T.);
#246=EDGE_CURVE('',#292,#292,#318,.T.);
#247=EDGE_CURVE('',#293,#276,#34,.T.);
#248=EDGE_CURVE('',#294,#293,#35,.T.);
#249=EDGE_CURVE('',#294,#275,#36,.T.);
#250=EDGE_CURVE('',#295,#280,#37,.T.);
#251=EDGE_CURVE('',#293,#295,#38,.T.);
#252=EDGE_CURVE('',#296,#279,#39,.T.);
#253=EDGE_CURVE('',#295,#296,#40,.T.);
#254=EDGE_CURVE('',#297,#278,#41,.T.);
#255=EDGE_CURVE('',#296,#297,#42,.T.);
#256=EDGE_CURVE('',#298,#277,#43,.T.);
#257=EDGE_CURVE('',#297,#298,#44,.T.);
#258=EDGE_CURVE('',#298,#294,#45,.T.);
#259=VERTEX_POINT('',#633);
#260=VERTEX_POINT('',#635);
#261=VERTEX_POINT('',#638);
#262=VERTEX_POINT('',#640);
#263=VERTEX_POINT('',#641);
#264=VERTEX_POINT('',#643);
#265=VERTEX_POINT('',#645);
#266=VERTEX_POINT('',#649);
#267=VERTEX_POINT('',#651);
#268=VERTEX_POINT('',#652);
#269=VERTEX_POINT('',#654);
#270=VERTEX_POINT('',#656);
#271=VERTEX_POINT('',#660);
#272=VERTEX_POINT('',#662);
#273=VERTEX_POINT('',#664);
#274=VERTEX_POINT('',#666);
#275=VERTEX_POINT('',#671);
#276=VERTEX_POINT('',#672);
#277=VERTEX_POINT('',#674);
#278=VERTEX_POINT('',#676);
#279=VERTEX_POINT('',#678);
#280=VERTEX_POINT('',#680);
#281=VERTEX_POINT('',#683);
#282=VERTEX_POINT('',#684);
#283=VERTEX_POINT('',#689);
#284=VERTEX_POINT('',#691);
#285=VERTEX_POINT('',#694);
#286=VERTEX_POINT('',#698);
#287=VERTEX_POINT('',#702);
#288=VERTEX_POINT('',#705);
#289=VERTEX_POINT('',#715);
#290=VERTEX_POINT('',#717);
#291=VERTEX_POINT('',#720);
#292=VERTEX_POINT('',#724);
#293=VERTEX_POINT('',#728);
#294=VERTEX_POINT('',#730);
#295=VERTEX_POINT('',#734);
#296=VERTEX_POINT('',#738);
#297=VERTEX_POINT('',#742);
#298=VERTEX_POINT('',#746);
#299=CIRCLE('',#454,0.00215);
#300=CIRCLE('',#455,0.00215);
#301=CIRCLE('',#457,0.0055);
#302=CIRCLE('',#458,0.0075);
#303=CIRCLE('',#460,0.00215);
#304=CIRCLE('',#461,0.0075);
#305=CIRCLE('',#463,0.0075);
#306=CIRCLE('',#464,0.002);
#307=CIRCLE('',#466,0.0075);
#308=CIRCLE('',#468,0.0047);
#309=CIRCLE('',#469,0.0047);
#310=CIRCLE('',#471,0.0075);
#311=CIRCLE('',#474,0.00275);
#312=CIRCLE('',#476,0.00275);
#313=CIRCLE('',#479,0.0075);
#314=CIRCLE('',#480,0.002);
#315=CIRCLE('',#484,0.00325);
#316=CIRCLE('',#485,0.00325);
#317=CIRCLE('',#487,0.0055);
#318=CIRCLE('',#490,0.00215);
#319=EDGE_LOOP('',(#97));
#320=EDGE_LOOP('',(#98));
#321=EDGE_LOOP('',(#99));
#322=EDGE_LOOP('',(#100,#101,#102,#103));
#323=EDGE_LOOP('',(#104));
#324=EDGE_LOOP('',(#105,#106,#107,#108));
#325=EDGE_LOOP('',(#109,#110,#111,#112,#113,#114,#115,#116));
#326=EDGE_LOOP('',(#117,#118,#119,#120,#121,#122));
#327=EDGE_LOOP('',(#123,#124,#125,#126));
#328=EDGE_LOOP('',(#127));
#329=EDGE_LOOP('',(#128));
#330=EDGE_LOOP('',(#129,#130,#131,#132));
#331=EDGE_LOOP('',(#133));
#332=EDGE_LOOP('',(#134,#135,#136,#137));
#333=EDGE_LOOP('',(#138));
#334=EDGE_LOOP('',(#139));
#335=EDGE_LOOP('',(#140));
#336=EDGE_LOOP('',(#141));
#337=EDGE_LOOP('',(#142));
#338=EDGE_LOOP('',(#143));
#339=EDGE_LOOP('',(#144,#145,#146,#147,#148,#149,#150,#151));
#340=EDGE_LOOP('',(#152,#153,#154,#155));
#341=EDGE_LOOP('',(#156,#157,#158,#159));
#342=EDGE_LOOP('',(#160));
#343=EDGE_LOOP('',(#161));
#344=EDGE_LOOP('',(#162));
#345=EDGE_LOOP('',(#163));
#346=EDGE_LOOP('',(#164));
#347=EDGE_LOOP('',(#165));
#348=EDGE_LOOP('',(#166));
#349=EDGE_LOOP('',(#167));
#350=EDGE_LOOP('',(#168));
#351=EDGE_LOOP('',(#169));
#352=EDGE_LOOP('',(#170,#171,#172,#173));
#353=EDGE_LOOP('',(#174,#175,#176,#177));
#354=EDGE_LOOP('',(#178,#179,#180,#181));
#355=EDGE_LOOP('',(#182,#183,#184,#185));
#356=EDGE_LOOP('',(#186,#187,#188,#189));
#357=EDGE_LOOP('',(#190,#191,#192,#193));
#358=EDGE_LOOP('',(#194));
#359=EDGE_LOOP('',(#195,#196,#197,#198,#199,#200));
#360=EDGE_LOOP('',(#201,#202,#203,#204));
#361=FACE_BOUND('',#319,.T.);
#362=FACE_BOUND('',#320,.T.);
#363=FACE_BOUND('',#321,.T.);
#364=FACE_BOUND('',#322,.T.);
#365=FACE_BOUND('',#323,.T.);
#366=FACE_BOUND('',#324,.T.);
#367=FACE_BOUND('',#325,.T.);
#368=FACE_BOUND('',#326,.T.);
#369=FACE_BOUND('',#327,.T.);
#370=FACE_BOUND('',#328,.T.);
#371=FACE_BOUND('',#329,.T.);
#372=FACE_BOUND('',#330,.T.);
#373=FACE_BOUND('',#331,.T.);
#374=FACE_BOUND('',#332,.T.);
#375=FACE_BOUND('',#333,.T.);
#376=FACE_BOUND('',#334,.T.);
#377=FACE_BOUND('',#335,.T.);
#378=FACE_BOUND('',#336,.T.);
#379=FACE_BOUND('',#337,.T.);
#380=FACE_BOUND('',#338,.T.);
#381=FACE_BOUND('',#339,.T.);
#382=FACE_BOUND('',#340,.T.);
#383=FACE_BOUND('',#341,.T.);
#384=FACE_BOUND('',#342,.T.);
#385=FACE_BOUND('',#343,.T.);
#386=FACE_BOUND('',#344,.T.);
#387=FACE_BOUND('',#345,.T.);
#388=FACE_BOUND('',#346,.T.);
#389=FACE_BOUND('',#347,.T.);
#390=FACE_BOUND('',#348,.T.);
#391=FACE_BOUND('',#349,.T.);
#392=FACE_BOUND('',#350,.T.);
#393=FACE_BOUND('',#351,.T.);
#394=FACE_BOUND('',#352,.T.);
#395=FACE_BOUND('',#353,.T.);
#396=FACE_BOUND('',#354,.T.);
#397=FACE_BOUND('',#355,.T.);
#398=FACE_BOUND('',#356,.T.);
#399=FACE_BOUND('',#357,.T.);
#400=FACE_BOUND('',#358,.T.);
#401=FACE_BOUND('',#359,.T.);
#402=FACE_BOUND('',#360,.T.);
#403=CYLINDRICAL_SURFACE('',#453,0.00215);
#404=CYLINDRICAL_SURFACE('',#467,0.0047);
#405=CYLINDRICAL_SURFACE('',#470,0.0075);
#406=CYLINDRICAL_SURFACE('',#475,0.00275);
#407=CYLINDRICAL_SURFACE('',#481,0.0075);
#408=CYLINDRICAL_SURFACE('',#482,0.0075);
#409=CYLINDRICAL_SURFACE('',#483,0.00325);
#410=CYLINDRICAL_SURFACE('',#486,0.0055);
#411=CYLINDRICAL_SURFACE('',#491,0.00215);
#412=CYLINDRICAL_SURFACE('',#499,0.002);
#413=ADVANCED_FACE('',(#361,#362),#403,.F.);
#414=ADVANCED_FACE('',(#363,#364),#80,.F.);
#415=ADVANCED_FACE('',(#365,#366),#81,.T.);
#416=ADVANCED_FACE('',(#367),#82,.F.);
#417=ADVANCED_FACE('',(#368,#369),#83,.T.);
#418=ADVANCED_FACE('',(#370,#371),#404,.F.);
#419=ADVANCED_FACE('',(#372),#405,.T.);
#420=ADVANCED_FACE('',(#373,#374),#84,.F.);
#421=ADVANCED_FACE('',(#375,#376),#85,.F.);
#422=ADVANCED_FACE('',(#377,#378),#406,.T.);
#423=ADVANCED_FACE('',(#379,#380),#86,.F.);
#424=ADVANCED_FACE('',(#381),#87,.F.);
#425=ADVANCED_FACE('',(#382),#407,.T.);
#426=ADVANCED_FACE('',(#383),#408,.T.);
#427=ADVANCED_FACE('',(#384,#385),#409,.T.);
#428=ADVANCED_FACE('',(#386,#387),#410,.F.);
#429=ADVANCED_FACE('',(#388,#389),#88,.T.);
#430=ADVANCED_FACE('',(#390,#391),#89,.F.);
#431=ADVANCED_FACE('',(#392,#393),#411,.F.);
#432=ADVANCED_FACE('',(#394),#90,.F.);
#433=ADVANCED_FACE('',(#395),#91,.F.);
#434=ADVANCED_FACE('',(#396),#92,.F.);
#435=ADVANCED_FACE('',(#397),#93,.F.);
#436=ADVANCED_FACE('',(#398),#94,.F.);
#437=ADVANCED_FACE('',(#399),#95,.F.);
#438=ADVANCED_FACE('',(#400,#401),#96,.T.);
#439=ADVANCED_FACE('',(#402),#412,.F.);
#440=CLOSED_SHELL('',(#413,#414,#415,#416,#417,#418,#419,#420,#421,#422,
#423,#424,#425,#426,#427,#428,#429,#430,#431,#432,#433,#434,#435,#436,#437,
#438,#439));
#441=STYLED_ITEM('',(#442),#449);
#442=PRESENTATION_STYLE_ASSIGNMENT((#443));
#443=SURFACE_STYLE_USAGE(.BOTH.,#444);
#444=SURFACE_SIDE_STYLE('',(#445));
#445=SURFACE_STYLE_FILL_AREA(#446);
#446=FILL_AREA_STYLE('',(#447));
#447=FILL_AREA_STYLE_COLOUR('',#448);
#448=COLOUR_RGB('',0.615686274509804,0.811764705882353,0.929411764705882);
#449=MANIFOLD_SOLID_BREP('Joint 3',#440);
#450=SHAPE_DEFINITION_REPRESENTATION(#758,#451);
#451=SHAPE_REPRESENTATION('Joint 3',(#452),#753);
#452=AXIS2_PLACEMENT_3D('',#630,#500,#501);
#453=AXIS2_PLACEMENT_3D('',#631,#502,#503);
#454=AXIS2_PLACEMENT_3D('',#632,#504,#505);
#455=AXIS2_PLACEMENT_3D('',#634,#506,#507);
#456=AXIS2_PLACEMENT_3D('',#636,#508,#509);
#457=AXIS2_PLACEMENT_3D('',#637,#510,#511);
#458=AXIS2_PLACEMENT_3D('',#646,#515,#516);
#459=AXIS2_PLACEMENT_3D('',#647,#517,#518);
#460=AXIS2_PLACEMENT_3D('',#648,#519,#520);
#461=AXIS2_PLACEMENT_3D('',#657,#524,#525);
#462=AXIS2_PLACEMENT_3D('',#658,#526,#527);
#463=AXIS2_PLACEMENT_3D('',#659,#528,#529);
#464=AXIS2_PLACEMENT_3D('',#667,#533,#534);
#465=AXIS2_PLACEMENT_3D('',#669,#536,#537);
#466=AXIS2_PLACEMENT_3D('',#686,#546,#547);
#467=AXIS2_PLACEMENT_3D('',#687,#548,#549);
#468=AXIS2_PLACEMENT_3D('',#688,#550,#551);
#469=AXIS2_PLACEMENT_3D('',#690,#552,#553);
#470=AXIS2_PLACEMENT_3D('',#692,#554,#555);
#471=AXIS2_PLACEMENT_3D('',#693,#556,#557);
#472=AXIS2_PLACEMENT_3D('',#696,#559,#560);
#473=AXIS2_PLACEMENT_3D('',#700,#563,#564);
#474=AXIS2_PLACEMENT_3D('',#701,#565,#566);
#475=AXIS2_PLACEMENT_3D('',#703,#567,#568);
#476=AXIS2_PLACEMENT_3D('',#704,#569,#570);
#477=AXIS2_PLACEMENT_3D('',#706,#571,#572);
#478=AXIS2_PLACEMENT_3D('',#707,#573,#574);
#479=AXIS2_PLACEMENT_3D('',#708,#575,#576);
#480=AXIS2_PLACEMENT_3D('',#710,#578,#579);
#481=AXIS2_PLACEMENT_3D('',#711,#580,#581);
#482=AXIS2_PLACEMENT_3D('',#712,#582,#583);
#483=AXIS2_PLACEMENT_3D('',#713,#584,#585);
#484=AXIS2_PLACEMENT_3D('',#714,#586,#587);
#485=AXIS2_PLACEMENT_3D('',#716,#588,#589);
#486=AXIS2_PLACEMENT_3D('',#718,#590,#591);
#487=AXIS2_PLACEMENT_3D('',#719,#592,#593);
#488=AXIS2_PLACEMENT_3D('',#721,#594,#595);
#489=AXIS2_PLACEMENT_3D('',#722,#596,#597);
#490=AXIS2_PLACEMENT_3D('',#723,#598,#599);
#491=AXIS2_PLACEMENT_3D('',#725,#600,#601);
#492=AXIS2_PLACEMENT_3D('',#726,#602,#603);
#493=AXIS2_PLACEMENT_3D('',#732,#607,#608);
#494=AXIS2_PLACEMENT_3D('',#736,#611,#612);
#495=AXIS2_PLACEMENT_3D('',#740,#615,#616);
#496=AXIS2_PLACEMENT_3D('',#744,#619,#620);
#497=AXIS2_PLACEMENT_3D('',#748,#623,#624);
#498=AXIS2_PLACEMENT_3D('',#750,#626,#627);
#499=AXIS2_PLACEMENT_3D('',#751,#628,#629);
#500=DIRECTION('',(0.,0.,1.));
#501=DIRECTION('',(1.,0.,0.));
#502=DIRECTION('',(0.,0.,-1.));
#503=DIRECTION('',(-1.,0.,0.));
#504=DIRECTION('',(0.,0.,-1.));
#505=DIRECTION('',(-1.,0.,0.));
#506=DIRECTION('',(0.,0.,-1.));
#507=DIRECTION('',(-1.,0.,0.));
#508=DIRECTION('',(-1.,0.,0.));
#509=DIRECTION('',(0.,0.,1.));
#510=DIRECTION('',(1.,0.,0.));
#511=DIRECTION('',(0.,0.,-1.));
#512=DIRECTION('',(0.,0.,-1.));
#513=DIRECTION('',(0.,1.,0.));
#514=DIRECTION('',(0.,0.,-1.));
#515=DIRECTION('',(-1.,0.,0.));
#516=DIRECTION('',(0.,0.,1.));
#517=DIRECTION('',(-1.,0.,0.));
#518=DIRECTION('',(0.,0.,1.));
#519=DIRECTION('',(-1.,0.,0.));
#520=DIRECTION('',(0.,0.,1.));
#521=DIRECTION('',(0.,0.,1.));
#522=DIRECTION('',(0.,-1.,0.));
#523=DIRECTION('',(0.,0.,1.));
#524=DIRECTION('',(-1.,0.,0.));
#525=DIRECTION('',(0.,0.,1.));
#526=DIRECTION('',(0.,1.,0.));
#527=DIRECTION('',(0.,0.,1.));
#528=DIRECTION('',(0.,1.,0.));
#529=DIRECTION('',(0.,0.,1.));
#530=DIRECTION('',(1.,0.,0.));
#531=DIRECTION('',(0.,0.,-1.));
#532=DIRECTION('',(1.,0.,0.));
#533=DIRECTION('',(0.,1.,0.));
#534=DIRECTION('',(0.,0.,1.));
#535=DIRECTION('',(-1.,0.,0.));
#536=DIRECTION('',(0.,0.,-1.));
#537=DIRECTION('',(1.,0.,0.));
#538=DIRECTION('',(0.866025403784439,-0.5,0.));
#539=DIRECTION('',(0.866025403784438,0.5,0.));
#540=DIRECTION('',(0.,1.,0.));
#541=DIRECTION('',(-0.866025403784439,0.5,0.));
#542=DIRECTION('',(-0.866025403784438,-0.5,0.));
#543=DIRECTION('',(0.,-1.,0.));
#544=DIRECTION('',(-1.,0.,0.));
#545=DIRECTION('',(0.,-1.,0.));
#546=DIRECTION('',(0.,0.,-1.));
#547=DIRECTION('',(-1.,0.,0.));
#548=DIRECTION('',(0.,0.,-1.));
#549=DIRECTION('',(-1.,0.,0.));
#550=DIRECTION('',(0.,0.,-1.));
#551=DIRECTION('',(-1.,0.,0.));
#552=DIRECTION('',(0.,0.,-1.));
#553=DIRECTION('',(-1.,0.,0.));
#554=DIRECTION('',(0.,0.,-1.));
#555=DIRECTION('',(-1.,0.,0.));
#556=DIRECTION('',(0.,0.,-1.));
#557=DIRECTION('',(-1.,0.,0.));
#558=DIRECTION('',(0.,0.,-1.));
#559=DIRECTION('',(0.,0.,-1.));
#560=DIRECTION('',(1.,0.,0.));
#561=DIRECTION('',(0.,1.,0.));
#562=DIRECTION('',(-1.,0.,0.));
#563=DIRECTION('',(0.,0.,-1.));
#564=DIRECTION('',(1.,0.,0.));
#565=DIRECTION('',(0.,0.,-1.));
#566=DIRECTION('',(-1.,0.,0.));
#567=DIRECTION('',(0.,0.,-1.));
#568=DIRECTION('',(-1.,0.,0.));
#569=DIRECTION('',(0.,0.,-1.));
#570=DIRECTION('',(-1.,0.,0.));
#571=DIRECTION('',(0.,0.,-1.));
#572=DIRECTION('',(1.,0.,0.));
#573=DIRECTION('',(0.,-1.,0.));
#574=DIRECTION('',(0.,0.,-1.));
#575=DIRECTION('',(0.,-1.,0.));
#576=DIRECTION('',(0.,0.,-1.));
#577=DIRECTION('',(-1.,0.,0.));
#578=DIRECTION('',(0.,-1.,0.));
#579=DIRECTION('',(0.,0.,-1.));
#580=DIRECTION('',(-1.,0.,0.));
#581=DIRECTION('',(0.,0.,1.));
#582=DIRECTION('',(0.,1.,0.));
#583=DIRECTION('',(0.,0.,1.));
#584=DIRECTION('',(1.,0.,0.));
#585=DIRECTION('',(0.,0.,-1.));
#586=DIRECTION('',(1.,0.,0.));
#587=DIRECTION('',(0.,0.,-1.));
#588=DIRECTION('',(1.,0.,0.));
#589=DIRECTION('',(0.,0.,-1.));
#590=DIRECTION('',(1.,0.,0.));
#591=DIRECTION('',(0.,0.,-1.));
#592=DIRECTION('',(1.,0.,0.));
#593=DIRECTION('',(0.,0.,-1.));
#594=DIRECTION('',(1.,0.,0.));
#595=DIRECTION('',(0.,1.,0.));
#596=DIRECTION('',(-1.,0.,0.));
#597=DIRECTION('',(0.,0.,1.));
#598=DIRECTION('',(1.,0.,0.));
#599=DIRECTION('',(0.,0.,-1.));
#600=DIRECTION('',(1.,0.,0.));
#601=DIRECTION('',(0.,0.,-1.));
#602=DIRECTION('',(0.5,0.866025403784439,0.));
#603=DIRECTION('',(-0.866025403784439,0.5,0.));
#604=DIRECTION('',(0.,0.,-1.));
#605=DIRECTION('',(0.866025403784439,-0.5,0.));
#606=DIRECTION('',(0.,0.,-1.));
#607=DIRECTION('',(1.,0.,0.));
#608=DIRECTION('',(0.,0.,-1.));
#609=DIRECTION('',(0.,0.,-1.));
#610=DIRECTION('',(0.,-1.,0.));
#611=DIRECTION('',(0.5,-0.866025403784439,0.));
#612=DIRECTION('',(0.866025403784439,0.5,0.));
#613=DIRECTION('',(0.,0.,-1.));
#614=DIRECTION('',(-0.866025403784438,-0.5,0.));
#615=DIRECTION('',(-0.5,-0.866025403784439,0.));
#616=DIRECTION('',(0.866025403784439,-0.5,0.));
#617=DIRECTION('',(0.,0.,-1.));
#618=DIRECTION('',(-0.866025403784439,0.5,0.));
#619=DIRECTION('',(-1.,0.,0.));
#620=DIRECTION('',(0.,0.,1.));
#621=DIRECTION('',(0.,0.,-1.));
#622=DIRECTION('',(0.,1.,0.));
#623=DIRECTION('',(-0.5,0.866025403784438,0.));
#624=DIRECTION('',(-0.866025403784438,-0.5,0.));
#625=DIRECTION('',(0.866025403784438,0.5,0.));
#626=DIRECTION('',(0.,0.,-1.));
#627=DIRECTION('',(1.,0.,0.));
#628=DIRECTION('',(0.,1.,0.));
#629=DIRECTION('',(0.,0.,1.));
#630=CARTESIAN_POINT('',(0.,0.,0.));
#631=CARTESIAN_POINT('',(0.079,-0.0325,0.00350000000000006));
#632=CARTESIAN_POINT('',(0.079,-0.0325,0.00350000000000006));
#633=CARTESIAN_POINT('',(0.07685,-0.0325,0.00350000000000006));
#634=CARTESIAN_POINT('',(0.079,-0.0325,-0.0065));
#635=CARTESIAN_POINT('',(0.07685,-0.0325,-0.0065));
#636=CARTESIAN_POINT('',(0.1015,-0.0325,0.00350000000000005));
#637=CARTESIAN_POINT('',(0.1015,-0.0325,-0.019));
#638=CARTESIAN_POINT('',(0.1015,-0.0325,-0.0245));
#639=CARTESIAN_POINT('',(0.1015,-0.025,0.00350000000000005));
#640=CARTESIAN_POINT('',(0.1015,-0.025,-0.00399999999999995));
#641=CARTESIAN_POINT('',(0.1015,-0.025,-0.019));
#642=CARTESIAN_POINT('',(0.1015,-0.0325,-0.00399999999999995));
#643=CARTESIAN_POINT('',(0.1015,-0.04,-0.00399999999999995));
#644=CARTESIAN_POINT('',(0.1015,-0.04,0.00350000000000005));
#645=CARTESIAN_POINT('',(0.1015,-0.04,-0.019));
#646=CARTESIAN_POINT('',(0.1015,-0.0325,-0.019));
#647=CARTESIAN_POINT('',(0.0865,-0.0325,-0.0265));
#648=CARTESIAN_POINT('',(0.0865,-0.0325,-0.019));
#649=CARTESIAN_POINT('',(0.0865,-0.0325,-0.01685));
#650=CARTESIAN_POINT('',(0.0865,-0.04,-0.0265));
#651=CARTESIAN_POINT('',(0.0865,-0.04,-0.019));
#652=CARTESIAN_POINT('',(0.0865,-0.04,-0.0135));
#653=CARTESIAN_POINT('',(0.0865,-0.025,-0.0135));
#654=CARTESIAN_POINT('',(0.0865,-0.025,-0.0135));
#655=CARTESIAN_POINT('',(0.0865,-0.025,-0.0265));
#656=CARTESIAN_POINT('',(0.0865,-0.025,-0.019));
#657=CARTESIAN_POINT('',(0.0865,-0.0325,-0.019));
#658=CARTESIAN_POINT('',(0.09025,-0.04,0.00350000000000005));
#659=CARTESIAN_POINT('',(0.094,-0.04,-0.00399999999999995));
#660=CARTESIAN_POINT('',(0.094,-0.04,0.00350000000000005));
#661=CARTESIAN_POINT('',(0.09025,-0.04,0.00350000000000005));
#662=CARTESIAN_POINT('',(0.079,-0.04,0.00350000000000005));
#663=CARTESIAN_POINT('',(0.079,-0.04,0.00350000000000005));
#664=CARTESIAN_POINT('',(0.079,-0.04,-0.0115));
#665=CARTESIAN_POINT('',(0.09025,-0.04,-0.0115));
#666=CARTESIAN_POINT('',(0.0845,-0.04,-0.0115));
#667=CARTESIAN_POINT('',(0.0845,-0.04,-0.0135));
#668=CARTESIAN_POINT('',(0.1115,-0.04,-0.019));
#669=CARTESIAN_POINT('',(0.079,-0.0325,-0.0115));
#670=CARTESIAN_POINT('',(0.080875,-0.0292524047358083,-0.0115));
#671=CARTESIAN_POINT('',(0.079,-0.0281698729810777,-0.0115));
#672=CARTESIAN_POINT('',(0.08275,-0.0303349364905389,-0.0115));
#673=CARTESIAN_POINT('',(0.077125,-0.0292524047358083,-0.0115));
#674=CARTESIAN_POINT('',(0.07525,-0.0303349364905389,-0.0115));
#675=CARTESIAN_POINT('',(0.07525,-0.0325,-0.0115));
#676=CARTESIAN_POINT('',(0.07525,-0.0346650635094611,-0.0115));
#677=CARTESIAN_POINT('',(0.077125,-0.0357475952641916,-0.0115));
#678=CARTESIAN_POINT('',(0.079,-0.0368301270189221,-0.0115));
#679=CARTESIAN_POINT('',(0.080875,-0.0357475952641916,-0.0115));
#680=CARTESIAN_POINT('',(0.08275,-0.0346650635094611,-0.0115));
#681=CARTESIAN_POINT('',(0.08275,-0.0325,-0.0115));
#682=CARTESIAN_POINT('',(0.09025,-0.025,-0.0115));
#683=CARTESIAN_POINT('',(0.0845,-0.025,-0.0115));
#684=CARTESIAN_POINT('',(0.079,-0.025,-0.0115));
#685=CARTESIAN_POINT('',(0.0845,-0.04,-0.0115));
#686=CARTESIAN_POINT('',(0.079,-0.0325,-0.0115));
#687=CARTESIAN_POINT('',(0.079,-0.0325,0.00350000000000006));
#688=CARTESIAN_POINT('',(0.079,-0.0325,0.00350000000000006));
#689=CARTESIAN_POINT('',(0.0743,-0.0325,0.00350000000000006));
#690=CARTESIAN_POINT('',(0.079,-0.0325,-0.00149999999999995));
#691=CARTESIAN_POINT('',(0.0743,-0.0325,-0.00149999999999995));
#692=CARTESIAN_POINT('',(0.079,-0.0325,0.00350000000000006));
#693=CARTESIAN_POINT('',(0.079,-0.0325,0.00350000000000006));
#694=CARTESIAN_POINT('',(0.079,-0.025,0.00350000000000005));
#695=CARTESIAN_POINT('',(0.079,-0.025,0.00350000000000005));
#696=CARTESIAN_POINT('',(0.079,-0.0325,0.00350000000000006));
#697=CARTESIAN_POINT('',(0.094,-0.0325,0.00350000000000006));
#698=CARTESIAN_POINT('',(0.094,-0.025,0.00350000000000005));
#699=CARTESIAN_POINT('',(0.09025,-0.025,0.00350000000000005));
#700=CARTESIAN_POINT('',(0.079,-0.0325,-0.00149999999999995));
#701=CARTESIAN_POINT('',(0.079,-0.0325,-0.00149999999999995));
#702=CARTESIAN_POINT('',(0.07625,-0.0325,-0.00149999999999995));
#703=CARTESIAN_POINT('',(0.079,-0.0325,0.00350000000000006));
#704=CARTESIAN_POINT('',(0.079,-0.0325,0.00350000000000006));
#705=CARTESIAN_POINT('',(0.07625,-0.0325,0.00350000000000006));
#706=CARTESIAN_POINT('',(0.079,-0.0325,0.00350000000000006));
#707=CARTESIAN_POINT('',(0.09025,-0.025,0.00350000000000005));
#708=CARTESIAN_POINT('',(0.094,-0.025,-0.00399999999999995));
#709=CARTESIAN_POINT('',(0.1115,-0.025,-0.019));
#710=CARTESIAN_POINT('',(0.0845,-0.025,-0.0135));
#711=CARTESIAN_POINT('',(0.1115,-0.0325,-0.019));
#712=CARTESIAN_POINT('',(0.094,-0.0325,-0.00399999999999995));
#713=CARTESIAN_POINT('',(0.0965,-0.0325,-0.019));
#714=CARTESIAN_POINT('',(0.0965,-0.0325,-0.019));
#715=CARTESIAN_POINT('',(0.0965,-0.0325,-0.02225));
#716=CARTESIAN_POINT('',(0.1015,-0.0325,-0.019));
#717=CARTESIAN_POINT('',(0.1015,-0.0325,-0.02225));
#718=CARTESIAN_POINT('',(0.0965,-0.0325,-0.019));
#719=CARTESIAN_POINT('',(0.0965,-0.0325,-0.019));
#720=CARTESIAN_POINT('',(0.0965,-0.0325,-0.0245));
#721=CARTESIAN_POINT('',(0.0965,-0.0325,-0.01525));
#722=CARTESIAN_POINT('',(0.1015,-0.0325,0.00350000000000005));
#723=CARTESIAN_POINT('',(0.1015,-0.0325,-0.019));
#724=CARTESIAN_POINT('',(0.1015,-0.0325,-0.02115));
#725=CARTESIAN_POINT('',(0.0765,-0.0325,-0.019));
#726=CARTESIAN_POINT('',(0.080875,-0.0292524047358083,-0.0065));
#727=CARTESIAN_POINT('',(0.08275,-0.0303349364905389,-0.0065));
#728=CARTESIAN_POINT('',(0.08275,-0.0303349364905389,-0.0065));
#729=CARTESIAN_POINT('',(0.080875,-0.0292524047358083,-0.0065));
#730=CARTESIAN_POINT('',(0.079,-0.0281698729810777,-0.0065));
#731=CARTESIAN_POINT('',(0.079,-0.0281698729810777,-0.0065));
#732=CARTESIAN_POINT('',(0.08275,-0.0325,-0.0065));
#733=CARTESIAN_POINT('',(0.08275,-0.0346650635094611,-0.0065));
#734=CARTESIAN_POINT('',(0.08275,-0.0346650635094611,-0.0065));
#735=CARTESIAN_POINT('',(0.08275,-0.0325,-0.0065));
#736=CARTESIAN_POINT('',(0.080875,-0.0357475952641916,-0.0065));
#737=CARTESIAN_POINT('',(0.079,-0.0368301270189221,-0.0065));
#738=CARTESIAN_POINT('',(0.079,-0.0368301270189221,-0.0065));
#739=CARTESIAN_POINT('',(0.080875,-0.0357475952641916,-0.0065));
#740=CARTESIAN_POINT('',(0.077125,-0.0357475952641916,-0.0065));
#741=CARTESIAN_POINT('',(0.07525,-0.0346650635094611,-0.0065));
#742=CARTESIAN_POINT('',(0.07525,-0.0346650635094611,-0.0065));
#743=CARTESIAN_POINT('',(0.077125,-0.0357475952641916,-0.0065));
#744=CARTESIAN_POINT('',(0.07525,-0.0325,-0.0065));
#745=CARTESIAN_POINT('',(0.07525,-0.0303349364905389,-0.0065));
#746=CARTESIAN_POINT('',(0.07525,-0.0303349364905389,-0.0065));
#747=CARTESIAN_POINT('',(0.07525,-0.0325,-0.0065));
#748=CARTESIAN_POINT('',(0.077125,-0.0292524047358083,-0.0065));
#749=CARTESIAN_POINT('',(0.077125,-0.0292524047358083,-0.0065));
#750=CARTESIAN_POINT('',(0.079,-0.0325,-0.0065));
#751=CARTESIAN_POINT('',(0.0845,-0.0325,-0.0135));
#752=MECHANICAL_DESIGN_GEOMETRIC_PRESENTATION_REPRESENTATION('',(#441),
#753);
#753=(
GEOMETRIC_REPRESENTATION_CONTEXT(3)
GLOBAL_UNCERTAINTY_ASSIGNED_CONTEXT((#754))
GLOBAL_UNIT_ASSIGNED_CONTEXT((#757,#756,#755))
REPRESENTATION_CONTEXT('Joint 3','TOP_LEVEL_ASSEMBLY_PART')
);
#754=UNCERTAINTY_MEASURE_WITH_UNIT(LENGTH_MEASURE(1.E-8),#757,
'DISTANCE_ACCURACY_VALUE','Maximum Tolerance applied to model');
#755=(
NAMED_UNIT(*)
SI_UNIT($,.STERADIAN.)
SOLID_ANGLE_UNIT()
);
#756=(
NAMED_UNIT(*)
PLANE_ANGLE_UNIT()
SI_UNIT($,.RADIAN.)
);
#757=(
LENGTH_UNIT()
NAMED_UNIT(*)
SI_UNIT($,.METRE.)
);
#758=PRODUCT_DEFINITION_SHAPE('','',#759);
#759=PRODUCT_DEFINITION('','',#761,#760);
#760=PRODUCT_DEFINITION_CONTEXT('',#767,'design');
#761=PRODUCT_DEFINITION_FORMATION_WITH_SPECIFIED_SOURCE('','',#763,
 .NOT_KNOWN.);
#762=PRODUCT_RELATED_PRODUCT_CATEGORY('','',(#763));
#763=PRODUCT('Joint 3','Joint 3','Joint 3',(#765));
#764=PRODUCT_CATEGORY('','');
#765=PRODUCT_CONTEXT('',#767,'mechanical');
#766=APPLICATION_PROTOCOL_DEFINITION('international standard',
'ap242_managed_model_based_3d_engineering',2020,#767);
#767=APPLICATION_CONTEXT('managed model based 3d engineering');
ENDSEC;
END-ISO-10303-21;
